<svg width="21" height="17" viewBox="0 0 21 17" fill="none" xmlns="http://www.w3.org/2000/svg">
<path d="M20.4999 8.62577C20.4999 12.0816 17.6873 14.8863 14.2138 14.8863C10.7403 14.8863 7.92773 12.0816 7.92773 8.62577C7.92773 5.16995 10.7403 2.36523 14.2138 2.36523C17.6873 2.36523 20.4999 5.16995 20.4999 8.62577Z" stroke="#CE0C36"/>
<rect width="9.54646" height="14.1233" transform="matrix(0.856211 0.516626 -0.519484 0.85448 7.33594 0)" fill="#EEEEEE"/>
<path d="M9.57915 3.04212L12.3864 0.665185L13.0511 4.27792L9.57915 3.04212Z" fill="#CE0C36"/>
<path d="M4.314 8.256C4.314 8.028 4.374 7.896 4.524 7.77C4.854 7.482 5.322 7.374 5.73 6.996C5.994 6.75 6.15 6.444 6.15 6.048C6.15 5.742 6.042 5.466 5.856 5.268C5.622 5.016 5.262 4.86 4.842 4.86C4.218 4.86 3.816 5.076 3.486 5.286C3.432 5.328 3.426 5.358 3.45 5.406L3.69 5.898C3.72 5.964 3.78 5.946 3.834 5.916C4.134 5.712 4.44 5.574 4.77 5.574C4.968 5.574 5.106 5.628 5.202 5.724C5.298 5.82 5.34 5.958 5.34 6.072C5.34 6.276 5.256 6.414 5.112 6.54C4.77 6.84 4.248 6.96 3.84 7.362C3.516 7.68 3.39 8.028 3.39 8.61V8.91C3.39 8.958 3.426 9 3.48 9H6.03C6.084 9 6.126 8.958 6.126 8.91V8.346C6.126 8.298 6.084 8.256 6.03 8.256H4.314ZM9.31566 9C9.36366 9 9.40566 8.958 9.40566 8.91V8.214H9.92166C9.96966 8.214 10.0117 8.178 10.0117 8.124V7.602C10.0117 7.548 9.96966 7.506 9.92166 7.506H9.40566V4.998C9.40566 4.944 9.36366 4.902 9.31566 4.902H8.73966C8.66166 4.902 8.61966 4.932 8.58366 4.986L6.80766 7.47C6.76566 7.53 6.75366 7.566 6.75366 7.632V8.124C6.75366 8.178 6.79566 8.214 6.84366 8.214H8.57766V8.91C8.57766 8.958 8.61966 9 8.66766 9H9.31566ZM8.57766 6.204V7.506H7.65966L8.57766 6.204Z" fill="#CE0C36"/>
<path d="M14.415 7.3287C14.359 7.3287 14.31 7.3777 14.31 7.4337V8.7707C14.31 8.8267 14.359 8.8757 14.415 8.8757H15.08C15.136 8.8757 15.185 8.8267 15.185 8.7707V8.2037H16.655C16.431 8.5887 16.193 8.9807 15.997 9.3657L14.744 11.9207C14.702 12.0117 14.716 12.0957 14.835 12.0957H15.668C15.759 12.0957 15.808 12.0677 15.843 11.9907L17.572 8.2247C17.607 8.1477 17.614 8.1057 17.614 8.0147V7.4337C17.614 7.3777 17.572 7.3287 17.509 7.3287H14.415Z" fill="#CE0C36"/>
<path d="M11 11L14 5" stroke="#CE0C36"/>
</svg>
