<svg width="20" height="26" viewBox="0 0 20 26"  xmlns="http://www.w3.org/2000/svg">
<path d="M9.90152 3.75001C10.311 3.75001 10.6429 3.41422 10.6429 3C10.6429 2.58579 10.311 2.25 9.90152 2.25C9.49208 2.25 9.16016 2.58579 9.16016 3C9.16016 3.41422 9.49208 3.75001 9.90152 3.75001Z" />
<path d="M19.7696 5.99997C19.7696 4.8954 18.8845 3.99996 17.7927 3.99996H15.0482C14.6821 3.58852 14.2118 3.2737 13.6715 3.11645C13.2163 2.98408 12.866 2.6297 12.7351 2.16926C12.379 0.916504 11.2377 0 9.88477 0C8.53191 0 7.3907 0.916442 7.0346 2.16914C6.9035 2.63014 6.55235 2.98408 6.09666 3.11695C5.55694 3.27433 5.0871 3.58883 4.7213 3.99996H1.97697C0.885063 3.99996 3.39369e-08 4.8954 3.39369e-08 5.99997V24C3.39369e-08 25.1046 0.885063 26 1.97697 26C6.51571 26 12.094 26 17.7927 26C18.8846 26 19.7697 25.1046 19.7697 24C19.7697 18.32 19.7696 12.8811 19.7696 5.99997ZM4.94248 5.98384C4.94927 5.10471 5.53643 4.32096 6.3704 4.07783C7.15563 3.84896 7.75904 3.2387 7.98454 2.44557C8.22653 1.59438 9.00792 1 9.88477 1C10.7617 1 11.5431 1.59438 11.785 2.44564C12.0106 3.23927 12.6137 3.84933 13.3981 4.07752C14.2395 4.32233 14.8271 5.1129 14.8271 5.9999V6.99991H4.94248V5.98384ZM17.7927 25C12.5133 25 7.24249 25 1.97697 25C1.43188 25 0.988483 24.5514 0.988483 24V5.99997C0.988483 5.44859 1.43188 4.99996 1.97697 4.99996H4.12333C4.01645 5.30571 3.95665 5.6339 3.95406 5.97603V7.99998H15.8157V5.99997C15.8157 5.64903 15.7544 5.31303 15.645 4.99996H17.7927C18.3377 4.99996 18.7811 5.44859 18.7811 5.99997C18.7811 8.85892 18.7811 22.2659 18.7812 24C18.7812 24.5514 18.3378 25 17.7927 25Z" />
<path d="M15.8163 11H6.91992V12H15.8163V11Z" />
<path d="M15.8163 14H6.91992V15H15.8163V14Z" />
<path d="M15.8163 17.0005H6.91992V18.0005H15.8163V17.0005Z" />
<path d="M15.8163 20H6.91992V21H15.8163V20Z" />
<path d="M4.44932 12C4.72228 12 4.94356 11.7761 4.94356 11.5C4.94356 11.2239 4.72228 11 4.44932 11C4.17636 11 3.95508 11.2239 3.95508 11.5C3.95508 11.7761 4.17636 12 4.44932 12Z" />
<path d="M4.44932 15C4.72228 15 4.94356 14.7761 4.94356 14.5C4.94356 14.2239 4.72228 14 4.44932 14C4.17636 14 3.95508 14.2239 3.95508 14.5C3.95508 14.7761 4.17636 15 4.44932 15Z" />
<path d="M4.44932 18.0005C4.72228 18.0005 4.94356 17.7766 4.94356 17.5005C4.94356 17.2243 4.72228 17.0005 4.44932 17.0005C4.17636 17.0005 3.95508 17.2243 3.95508 17.5005C3.95508 17.7766 4.17636 18.0005 4.44932 18.0005Z" />
<path d="M4.44932 21C4.72228 21 4.94356 20.7761 4.94356 20.5C4.94356 20.2239 4.72228 20 4.44932 20C4.17636 20 3.95508 20.2239 3.95508 20.5C3.95508 20.7761 4.17636 21 4.44932 21Z" />
</svg>
