<svg width="20" height="18" viewBox="0 0 20 18" fill="none" xmlns="http://www.w3.org/2000/svg">
<path d="M18.6607 4.27455C19.5536 5.3683 20 6.5625 20 7.85714C20 9.15179 19.5536 10.3497 18.6607 11.4509C17.7679 12.5446 16.5551 13.4115 15.0223 14.0513C13.4896 14.6838 11.8155 15 10 15C9.47917 15 8.93973 14.9702 8.3817 14.9107C6.90848 16.2128 5.19717 17.1131 3.24777 17.6116C2.88318 17.7158 2.45908 17.7976 1.97545 17.8571C1.84896 17.872 1.73363 17.8385 1.62946 17.7567C1.53274 17.6749 1.46949 17.567 1.43973 17.433V17.4219C1.41741 17.3921 1.41369 17.3475 1.42857 17.2879C1.45089 17.2284 1.45833 17.1912 1.45089 17.1763C1.45089 17.1615 1.46949 17.1243 1.5067 17.0647C1.5439 17.0126 1.56622 16.9792 1.57366 16.9643C1.5811 16.9568 1.60714 16.9271 1.65179 16.875C1.69643 16.8229 1.72619 16.7894 1.74107 16.7746C1.79315 16.715 1.90848 16.5848 2.08705 16.3839C2.26563 16.1905 2.39211 16.0491 2.46652 15.9598C2.54836 15.878 2.66369 15.7329 2.8125 15.5246C2.96875 15.3162 3.09152 15.1265 3.1808 14.9554C3.27009 14.7842 3.37054 14.5647 3.48214 14.2969C3.59375 14.029 3.69048 13.7463 3.77232 13.4487C2.60417 12.7865 1.68155 11.968 1.00446 10.9933C0.334821 10.0186 0 8.97321 0 7.85714C0 6.88988 0.264137 5.96726 0.792411 5.08929C1.32068 4.20387 2.03125 3.44122 2.92411 2.80134C3.81696 2.16146 4.88095 1.65551 6.11607 1.28348C7.35119 0.904017 8.64583 0.714285 10 0.714285C11.8155 0.714285 13.4896 1.03423 15.0223 1.67411C16.5551 2.30655 17.7679 3.17336 18.6607 4.27455Z" fill="#C4C4C4"/>
</svg>
