<svg width="68" height="68" viewBox="0 0 68 68" fill="none" xmlns="http://www.w3.org/2000/svg">
<path d="M44.8179 34L65.7595 13.0583C68.7468 10.071 68.7468 5.22777 65.7595 2.24047C62.7721 -0.746824 57.9291 -0.746824 54.9417 2.24047L34 23.1821L13.0583 2.24047C10.071 -0.746824 5.22777 -0.746824 2.24047 2.24047C-0.746824 5.22777 -0.746824 10.071 2.24047 13.0583L23.1821 34L2.24047 54.9417C-0.746824 57.929 -0.746824 62.7722 2.24047 65.7595C3.73412 67.253 5.69172 68 7.64933 68C9.60693 68 11.5647 67.2532 13.0582 65.7595L34 44.8179L54.9417 65.7595C56.4353 67.253 58.3929 68 60.3505 68C62.3081 68 64.2657 67.2532 65.7594 65.7595C68.7467 62.7722 68.7467 57.929 65.7594 54.9417L44.8179 34Z" fill="#FFEE7A" fill-opacity="0.5"/>
</svg>
