<svg xmlns="http://www.w3.org/2000/svg" width="26" height="26" viewBox="0 0 26 26" >
<path fill-rule="evenodd" clip-rule="evenodd" d="M19.4551 18.3555L25.7749 24.6738C26.0752 24.9736 26.0752 25.4697 25.7749 25.7695C25.625 25.9253 25.4233 26 25.2275 26C25.0312 26 24.8296 25.9194 24.6797 25.7695L18.3599 19.4512C16.4106 21.146 13.8677 22.1719 11.0884 22.1719C4.97607 22.1719 0 17.1968 0 11.0859C0 4.9751 4.9707 0 11.0884 0C17.2007 0 22.1768 4.96924 22.1768 11.0859C22.1768 13.8647 21.1504 16.4072 19.4551 18.3555ZM11.083 1.55615C5.82959 1.55615 1.55127 5.82812 1.55127 11.0854C1.55127 16.3433 5.82959 20.6211 11.083 20.6211C16.3418 20.6211 20.6143 16.3374 20.6143 11.0854C20.6143 5.83398 16.3418 1.55615 11.083 1.55615Z" />
</svg>