<svg width="24" height="24" viewBox="0 0 24 24" fill="none" xmlns="http://www.w3.org/2000/svg">
<circle cx="12" cy="12" r="12" fill="#D53C36"/>
<path d="M18.8666 11.4374H17.7148V10.2856H16.5631V11.4374H15.4381V12.5624H16.5631V13.7141H17.7148V12.5624H18.8666V11.4374ZM10.2952 11.4374V12.8034H12.572C12.5184 13.1249 12.322 13.482 11.9827 13.8749C11.6434 14.2677 11.0809 14.482 10.2952 14.5177C9.58092 14.4999 8.99163 14.2499 8.52734 13.7677C8.08092 13.2856 7.8577 12.6963 7.8577 11.9999C7.8577 11.3034 8.08092 10.7141 8.52734 10.232C8.99163 9.74986 9.58092 9.49986 10.2952 9.482C10.6881 9.49986 11.0095 9.57129 11.2595 9.69629C11.5273 9.82129 11.7327 9.96415 11.8756 10.1249L12.9738 9.08022C12.2773 8.38379 11.3845 8.02665 10.2952 8.00879C9.15234 8.02665 8.20592 8.41057 7.45592 9.16057C6.70592 9.91057 6.31306 10.857 6.27734 11.9999C6.31306 13.1427 6.70592 14.0891 7.45592 14.8391C8.20592 15.5891 9.15234 15.9731 10.2952 15.9909C11.4559 15.9731 12.3756 15.6159 13.0541 14.9195C13.7506 14.2052 14.1077 13.2677 14.1256 12.107L14.0988 11.7588C14.0988 11.6516 14.0809 11.5445 14.0452 11.4374H10.2952Z" fill="white"/>
</svg>
