<svg width="86.000000" height="65.000000" viewBox="0 0 86 65" fill="none" xmlns="http://www.w3.org/2000/svg" xmlns:xlink="http://www.w3.org/1999/xlink">
	<desc>
			Created with Pixso.
	</desc>
	<defs/>
	<path id="Vector" d="M85.92 31.89L83.74 23.25C81.78 15.45 74.74 10 66.63 10L58.28 10C55 10 52.2 12.09 51.15 15L47.87 15L47.87 2.5C47.87 1.11 46.74 0 45.35 0C44.02 0 16.44 0 15.11 0C13.72 0 12.59 1.11 12.59 2.5L12.59 15L7.55 15C6.16 15 5.03 16.11 5.03 17.5L5.03 30L2.51 30C1.12 30 0 31.11 0 32.5L0 47.5C0 51.63 3.39 55 7.55 55L10.07 55C10.07 60.51 14.59 65 20.15 65C25.71 65 30.23 60.51 30.23 55C31.3 55 54.7 55 55.76 55C55.76 60.51 60.28 65 65.84 65C71.4 65 75.92 60.51 75.92 55L78.44 55C82.6 55 86 51.63 86 47.5L86 32.5C86 32.29 85.97 32.09 85.92 31.89ZM32.75 5L42.83 5L42.83 15C41.76 15 33.82 15 32.75 15L32.75 5ZM35.27 20L35.27 30L25.19 30L25.19 20L30.23 20L35.27 20ZM17.63 5L27.71 5L27.71 15C26.64 15 18.7 15 17.63 15L17.63 5ZM10.07 20C11.14 20 19.08 20 20.15 20L20.15 30L10.07 30L10.07 20ZM20.15 60C17.37 60 15.11 57.75 15.11 55C15.11 52.24 17.37 50 20.15 50C22.93 50 25.19 52.24 25.19 55C25.19 57.75 22.93 60 20.15 60ZM50.72 50L28.87 50C27.13 47.01 23.87 45 20.15 45C16.43 45 13.17 47.01 11.43 50L7.55 50C6.16 50 5.03 48.87 5.03 47.5L5.03 35L50.72 35L50.72 50ZM50.72 30L40.31 30L40.31 20L50.72 20L50.72 30ZM65.84 60C63.06 60 60.8 57.75 60.8 55C60.8 52.24 63.06 50 65.84 50C68.62 50 70.88 52.24 70.88 55C70.88 57.75 68.62 60 65.84 60ZM80.96 47.5C80.96 48.87 79.83 50 78.44 50L74.56 50C72.82 47.01 69.56 45 65.84 45C62.12 45 58.86 47.01 57.12 50L55.76 50L55.76 17.5C55.76 16.12 56.89 15 58.28 15L60.8 15L60.8 32.5C60.8 36.63 64.19 40 68.36 40C69.5 40 79.79 40 80.96 40L80.96 47.5ZM80.96 35L77.47 35L78.17 33.61C78.79 32.38 78.29 30.88 77.04 30.26C75.8 29.64 74.29 30.14 73.66 31.38L71.84 35L68.36 35C66.97 35 65.84 33.87 65.84 32.5L65.84 15L66.63 15C72.42 15 77.45 18.89 78.85 24.46L80.96 32.8L80.96 35Z" fill="#5F5F5F" fill-opacity="1.000000" fill-rule="nonzero"/>
</svg>
