<svg width="89.999878" height="56.000000" viewBox="0 0 89.9999 56" fill="none" xmlns="http://www.w3.org/2000/svg" xmlns:xlink="http://www.w3.org/1999/xlink">
	<desc>
			Created with Pixso.
	</desc>
	<defs/>
	<path id="Vector" d="M2.9 0L57.87 0C59.47 0 60.77 1.25 60.77 2.79L60.77 10.15L75.77 10.15C76.83 10.15 77.8 10.71 78.31 11.6L84.94 23.2L87.09 23.2C88.7 23.2 90 24.45 89.99 25.99L89.99 45.84C89.99 47.38 88.7 48.63 87.09 48.63L82.76 48.63C81.57 52.87 77.54 56 72.77 56C68 56 63.97 52.87 62.77 48.63L29.05 48.63C27.86 52.87 23.83 56 19.06 56C14.29 56 10.26 52.87 9.06 48.63L2.9 48.63C1.29 48.63 0 47.38 0 45.84L0 2.79C0 1.25 1.29 0 2.9 0ZM78.31 23.2L74.05 15.74L60.77 15.74L60.77 23.2L78.31 23.2ZM9.18 43.04C10.5 39 14.43 36.06 19.06 36.06C23.69 36.06 27.62 39 28.94 43.04L54.96 43.04L54.96 5.59L5.8 5.59L5.8 43.04L9.18 43.04ZM60.77 43.04L60.77 28.79L84.19 28.79L84.19 43.04L82.65 43.04C81.33 39 77.4 36.06 72.77 36.06C68.14 36.06 64.21 39 62.89 43.04L60.77 43.04ZM14.51 46.02C14.51 48.44 16.55 50.4 19.06 50.4C21.57 50.4 23.61 48.44 23.61 46.02C23.61 43.61 21.57 41.65 19.06 41.65C16.55 41.65 14.51 43.61 14.51 46.02ZM72.77 50.4C70.26 50.4 68.22 48.44 68.22 46.02C68.22 43.61 70.26 41.65 72.77 41.65C75.28 41.65 77.32 43.61 77.32 46.02C77.32 48.44 75.28 50.4 72.77 50.4Z" fill="#5F5F5F" fill-opacity="1.000000" fill-rule="evenodd"/>
</svg>
