<svg width="24" height="24" viewBox="0 0 24 24" fill="none" xmlns="http://www.w3.org/2000/svg">
<circle cx="12" cy="12" r="12" fill="#2C96DE"/>
<path d="M18.2316 8.5805C17.7852 8.77693 17.3209 8.91085 16.8387 8.98228C17.3566 8.66085 17.7137 8.2055 17.9102 7.61621C17.428 7.90193 16.9102 8.09835 16.3566 8.2055C15.8923 7.7055 15.2852 7.44657 14.5352 7.42871C13.8566 7.44657 13.2852 7.68764 12.8209 8.15193C12.3566 8.61621 12.1155 9.19657 12.0977 9.893C12.0977 10.0894 12.1244 10.2769 12.178 10.4555C11.1423 10.3841 10.1869 10.1251 9.31194 9.67871C8.4548 9.23228 7.72266 8.63407 7.11551 7.88407C6.90123 8.25907 6.79408 8.66978 6.79408 9.11621C6.79408 9.54478 6.8923 9.93764 7.08873 10.2948C7.28516 10.6519 7.54408 10.9376 7.86551 11.1519C7.4548 11.1341 7.08873 11.0359 6.7673 10.8573V10.8841C6.7673 11.4912 6.94587 12.018 7.30301 12.4644C7.67801 12.893 8.15123 13.1698 8.72266 13.2948C8.52623 13.3484 8.31194 13.3751 8.0798 13.3751C7.91908 13.3751 7.7673 13.3573 7.62444 13.3216C7.78516 13.8216 8.07087 14.2323 8.48158 14.5537C8.8923 14.8573 9.36551 15.018 9.90123 15.0359C9.49051 15.3751 9.02623 15.6341 8.50837 15.8126C7.99051 15.9912 7.44587 16.0805 6.87444 16.0805C6.67801 16.0805 6.48158 16.0716 6.28516 16.0537C6.82087 16.393 7.40123 16.6609 8.02623 16.8573C8.66908 17.0537 9.33873 17.1519 10.0352 17.1519C12.303 17.0626 14.0262 16.3037 15.2048 14.8751C16.4012 13.4466 17.0084 11.8841 17.0262 10.1876L16.9994 9.86621C17.4816 9.50907 17.8923 9.0805 18.2316 8.5805Z" fill="white"/>
</svg>
