<svg width="104.000000" height="104.000000" viewBox="0 0 104 104" fill="none" xmlns="http://www.w3.org/2000/svg" xmlns:xlink="http://www.w3.org/1999/xlink">
	<desc>
			Created with Pixso.
	</desc>
	<defs/>
	<path id="Vector" d="M82.58 73.41L104 52L90.23 38.23L81.05 47.41L78 44.35C83.05 39.29 83.05 31.05 78 26C72.94 20.94 64.7 20.94 59.64 26L56.58 22.94L65.76 13.76L52 0L30.58 21.41L44.35 35.17L53.52 26L56.58 29.05L43.56 42.08C36.33 38.63 27.39 39.9 21.41 45.88L19.88 47.41L36.7 64.23L33.38 67.55C30.97 66.4 27.99 66.82 26 68.82C23.47 71.35 23.47 75.47 26 78C28.53 80.53 32.64 80.53 35.17 78C37.17 76 37.59 73.02 36.44 70.61L39.76 67.29L56.58 84.11L58.11 82.58C64.09 76.6 65.36 67.66 61.91 60.43C64.21 58.14 72.03 50.31 74.94 47.41L78 50.47L68.82 59.64L82.58 73.41ZM59.64 13.76L56.58 16.82L48.94 9.17L52 6.11L59.64 13.76ZM53.52 19.88L50.47 22.94L42.82 15.29L45.88 12.23L53.52 19.88ZM36.7 21.41L39.76 18.35L47.41 26L44.35 29.05L36.7 21.41ZM29.05 74.94C28.21 74.09 28.21 72.72 29.05 71.88C29.9 71.03 31.27 71.03 32.11 71.88C32.96 72.72 32.96 74.09 32.11 74.94C31.27 75.78 29.9 75.78 29.05 74.94ZM74.94 29.05C78.31 32.43 78.31 37.92 74.94 41.29L71.88 44.35L59.64 32.11L62.7 29.05C66.07 25.68 71.56 25.68 74.94 29.05ZM45.88 48.94L55.05 58.11C57.96 61.02 59.44 64.83 59.48 68.66L35.33 44.51C39.16 44.55 42.97 46.03 45.88 48.94ZM26.1 47.52C27.34 46.59 28.68 45.88 30.09 45.38L58.61 73.9C58.11 75.31 57.4 76.65 56.47 77.89L26.1 47.52ZM59.64 56.58C55.89 52.83 51.17 48.11 47.41 44.35C48.48 43.27 55.13 36.63 56.58 35.17L68.82 47.41L59.64 56.58ZM74.94 59.64L78 56.58L85.64 64.23L82.58 67.29L74.94 59.64ZM81.05 53.52L84.11 50.47L91.76 58.11L88.7 61.17L81.05 53.52ZM97.88 52L94.82 55.05L87.17 47.41L90.23 44.35L97.88 52Z" fill="#5F5F5F" fill-opacity="1.000000" fill-rule="nonzero"/>
</svg>
