<svg width="19" height="18" viewBox="0 0 19 18" fill="none" xmlns="http://www.w3.org/2000/svg">
<path d="M3.28292 13.8571C3.28292 13.6637 3.21224 13.4963 3.07087 13.3549C2.9295 13.2135 2.76209 13.1429 2.56864 13.1429C2.36775 13.1429 2.19661 13.2135 2.05525 13.3549C1.92132 13.4963 1.85435 13.6637 1.85435 13.8571C1.85435 14.058 1.92132 14.2292 2.05525 14.3705C2.19661 14.5045 2.36775 14.5714 2.56864 14.5714C2.76209 14.5714 2.9295 14.5045 3.07087 14.3705C3.21224 14.2292 3.28292 14.058 3.28292 13.8571ZM5.06864 8.14286V15.2857C5.06864 15.4792 4.99795 15.6466 4.85658 15.7879C4.71522 15.9293 4.54781 16 4.35435 16H1.14007C0.946615 16 0.779204 15.9293 0.637835 15.7879C0.496466 15.6466 0.425781 15.4792 0.425781 15.2857V8.14286C0.425781 7.9494 0.496466 7.78199 0.637835 7.64062C0.779204 7.49926 0.946615 7.42857 1.14007 7.42857H4.35435C4.54781 7.42857 4.71522 7.49926 4.85658 7.64062C4.99795 7.78199 5.06864 7.9494 5.06864 8.14286ZM18.2829 8.14286C18.2829 8.78274 18.0783 9.33705 17.6691 9.8058C17.7807 10.1332 17.8365 10.4159 17.8365 10.654C17.8588 11.2195 17.6988 11.7292 17.3566 12.183C17.4831 12.5997 17.4831 13.035 17.3566 13.4888C17.245 13.9129 17.0441 14.2626 16.7539 14.5379C16.8209 15.3713 16.6386 16.0446 16.207 16.558C15.7308 17.1235 14.998 17.4137 14.0084 17.4286H13.6066H12.7584H12.5686C12.0776 17.4286 11.5419 17.369 10.9615 17.25C10.3811 17.1384 9.92727 17.0305 9.59989 16.9263C9.27995 16.8296 8.83352 16.6845 8.2606 16.4911C7.34542 16.1711 6.75763 16.0074 6.49721 16C6.30376 15.9926 6.13635 15.9219 5.99498 15.7879C5.85361 15.6466 5.78292 15.4792 5.78292 15.2857V8.1317C5.78292 7.94568 5.84989 7.78571 5.98382 7.65179C6.11775 7.51042 6.27772 7.43229 6.46373 7.41741C6.6423 7.40253 6.92504 7.18304 7.31194 6.75893C7.69885 6.33482 8.07459 5.88467 8.43917 5.40848C8.94513 4.76116 9.32087 4.31473 9.56641 4.0692C9.70034 3.93527 9.81566 3.7567 9.91239 3.53348C10.0091 3.31027 10.0724 3.1317 10.1021 2.99777C10.1393 2.8564 10.1914 2.62946 10.2584 2.31696C10.3105 2.02678 10.3551 1.79985 10.3923 1.63616C10.4369 1.47247 10.5113 1.27902 10.6155 1.0558C10.7197 0.832588 10.8462 0.646577 10.995 0.497768C11.1363 0.356398 11.3038 0.285713 11.4972 0.285713C11.8395 0.285713 12.1445 0.326636 12.4124 0.408481C12.6877 0.482886 12.9109 0.579612 13.082 0.69866C13.2606 0.810267 13.4094 0.959077 13.5285 1.14509C13.6549 1.3311 13.7442 1.49851 13.7963 1.64732C13.8558 1.79613 13.9005 1.98214 13.9302 2.20536C13.9674 2.42857 13.9861 2.59598 13.9861 2.70759C13.9935 2.8192 13.9972 2.96429 13.9972 3.14286C13.9972 3.42559 13.96 3.70833 13.8856 3.99107C13.8186 4.27381 13.748 4.49702 13.6736 4.66071C13.6066 4.8244 13.5061 5.03274 13.3722 5.28571C13.3499 5.33036 13.3127 5.39732 13.2606 5.48661C13.2085 5.57589 13.1676 5.65774 13.1378 5.73214C13.1081 5.80655 13.0783 5.89583 13.0486 6H16.1401C16.7204 6 17.2227 6.21205 17.6468 6.63616C18.0709 7.06027 18.2829 7.5625 18.2829 8.14286Z" fill="#C4C4C4"/>
</svg>
