<svg width="16" height="17" viewBox="0 0 16 17" fill="none" xmlns="http://www.w3.org/2000/svg">
<path d="M5.41735 9.83333C5.71337 10.9835 6.75744 11.8333 8 11.8333C9.24256 11.8333 10.2866 10.9835 10.5827 9.83333M7.34513 2.34267L2.82359 5.85942C2.52135 6.0945 2.37022 6.21204 2.26135 6.35925C2.16491 6.48964 2.09307 6.63653 2.04935 6.79271C2 6.96902 2 7.16047 2 7.54338V12.3667C2 13.1134 2 13.4868 2.14532 13.772C2.27316 14.0229 2.47713 14.2268 2.72801 14.3547C3.01323 14.5 3.3866 14.5 4.13333 14.5H11.8667C12.6134 14.5 12.9868 14.5 13.272 14.3547C13.5229 14.2268 13.7268 14.0229 13.8547 13.772C14 13.4868 14 13.1134 14 12.3667V7.54338C14 7.16047 14 6.96902 13.9506 6.79271C13.9069 6.63653 13.8351 6.48964 13.7386 6.35925C13.6298 6.21204 13.4787 6.0945 13.1764 5.85942L8.65487 2.34267C8.42065 2.1605 8.30354 2.06942 8.17423 2.03441C8.06013 2.00351 7.93987 2.00351 7.82577 2.03441C7.69646 2.06942 7.57935 2.1605 7.34513 2.34267Z" stroke="#282828" stroke-linecap="round" stroke-linejoin="round"/>
</svg>
