<svg width="75.000000" height="75.000000" viewBox="0 0 75 75" fill="none" xmlns="http://www.w3.org/2000/svg" xmlns:xlink="http://www.w3.org/1999/xlink">
	<desc>
			Created with Pixso.
	</desc>
	<defs/>
	<path id="Vector" d="M58.75 36.25C58.75 35.9185 58.6184 35.6006 58.3838 35.3661C58.1494 35.1317 57.8315 35 57.5 35L52.5 35C52.1685 35 51.8506 35.1317 51.6162 35.3661C51.3816 35.6006 51.25 35.9185 51.25 36.25L51.25 57.5L48.75 57.5L48.75 43.75C48.75 43.4185 48.6184 43.1006 48.3838 42.8661C48.1494 42.6317 47.8315 42.5 47.5 42.5L42.5 42.5C42.1685 42.5 41.8506 42.6317 41.6162 42.8661C41.3816 43.1006 41.25 43.4185 41.25 43.75L41.25 57.5L38.75 57.5L38.75 48.75C38.75 48.4185 38.6184 48.1006 38.3838 47.8661C38.1494 47.6317 37.8315 47.5 37.5 47.5L32.5 47.5C32.1685 47.5 31.8506 47.6317 31.6162 47.8661C31.3816 48.1006 31.25 48.4185 31.25 48.75L31.25 57.5L28.75 57.5L28.75 31.25L26.25 31.25L26.25 58.75C26.25 59.0815 26.3816 59.3994 26.6162 59.6339C26.8506 59.8683 27.1685 60 27.5 60L62.5 60L62.5 57.5L58.75 57.5L58.75 36.25ZM56.25 37.5L56.25 46.25L53.75 46.25L53.75 37.5L56.25 37.5ZM53.75 48.75L56.25 48.75L56.25 57.5L53.75 57.5L53.75 48.75ZM46.25 45L46.25 50L43.75 50L43.75 45L46.25 45ZM43.75 52.5L46.25 52.5L46.25 57.5L43.75 57.5L43.75 52.5ZM36.25 50L36.25 52.5L33.75 52.5L33.75 50L36.25 50ZM33.75 55L36.25 55L36.25 57.5L33.75 57.5L33.75 55Z" fill="#008000" fill-opacity="1.000000" fill-rule="nonzero"/>
	<path id="Vector" d="M46.25 35.5175L46.25 37.5L48.75 37.5L48.75 32.5C48.75 32.1685 48.6182 31.8506 48.3838 31.6161C48.1494 31.3817 47.8315 31.25 47.5 31.25L42.5 31.25L42.5 33.75L44.4824 33.75L35.3662 42.8662L37.1338 44.6338L46.25 35.5175Z" fill="#008000" fill-opacity="1.000000" fill-rule="nonzero"/>
	<path id="Vector" d="M68.75 7.5L12.5 7.5L12.5 1.25C12.5 0.918457 12.3684 0.600586 12.1338 0.366089C11.8994 0.131714 11.5815 0 11.25 0L6.25 0C4.59302 0.00195312 3.00439 0.661133 1.83276 1.83276C0.661133 3.00439 0.00195312 4.59302 0 6.25L0 58.75C0.00195312 60.407 0.661133 61.9956 1.83276 63.1672C3.00439 64.3389 4.59302 64.998 6.25 65L62.5 65L62.5 73.75C62.5 74.0815 62.6316 74.3994 62.8662 74.6339C63.1006 74.8683 63.4185 75 63.75 75L68.75 75C70.407 74.998 71.9956 74.3389 73.1672 73.1672C74.3389 71.9956 74.998 70.407 75 68.75L75 13.75C74.998 12.093 74.3389 10.5044 73.1672 9.33276C71.9956 8.16113 70.407 7.50195 68.75 7.5ZM2.5 6.25C2.5 5.25549 2.89502 4.30164 3.59839 3.59839C4.30151 2.89514 5.25537 2.5 6.25 2.5L10 2.5L10 52.5L6.25 52.5C4.89746 52.4982 3.58105 52.937 2.5 53.75L2.5 6.25ZM6.25 62.5C5.25537 62.5 4.30151 62.1049 3.59839 61.4016C2.89502 60.6984 2.5 59.7445 2.5 58.75C2.5 57.7555 2.89502 56.8016 3.59839 56.0984C4.30151 55.3951 5.25537 55 6.25 55L11.25 55C11.5815 55 11.8994 54.8683 12.1338 54.6339C12.3684 54.3994 12.5 54.0815 12.5 53.75L12.5 10L68.75 10C69.7446 10 70.6985 10.3951 71.4016 11.0984C72.105 11.8016 72.5 12.7555 72.5 13.75L72.5 63.7825C71.4246 62.9552 70.1069 62.5046 68.75 62.5L6.25 62.5ZM68.75 72.5L65 72.5L65 65L68.75 65C69.7446 65 70.6985 65.3951 71.4016 66.0984C72.105 66.8016 72.5 67.7555 72.5 68.75C72.5 69.7446 72.105 70.6984 71.4016 71.4016C70.6985 72.1049 69.7446 72.5 68.75 72.5Z" fill="#008000" fill-opacity="1.000000" fill-rule="nonzero"/>
	<path id="Vector" d="M37.5 23.75L52.5 23.75L52.5 26.25L37.5 26.25L37.5 23.75ZM37.5 18.75L42.5 18.75L42.5 21.25L37.5 21.25L37.5 18.75ZM45 18.75L52.5 18.75L52.5 21.25L45 21.25L45 18.75Z" fill="#008000" fill-opacity="1.000000" fill-rule="nonzero"/>
</svg>
