<svg width="60.000000" height="75.000000" viewBox="0 0 60 75" fill="none" xmlns="http://www.w3.org/2000/svg" xmlns:xlink="http://www.w3.org/1999/xlink">
	<desc>
			Created with Pixso.
	</desc>
	<defs/>
	<path id="Vector" d="M56.25 0L11.25 0C10.2554 0 9.30176 0.395142 8.59814 1.09839C7.89502 1.80164 7.5 2.75549 7.5 3.75L7.5 7.5L3.75 7.5C2.75537 7.5 1.80176 7.89514 1.09814 8.59839C0.39502 9.30164 0 10.2555 0 11.25L0 71.25C0 72.2445 0.39502 73.1984 1.09814 73.9016C1.80176 74.6049 2.75537 75 3.75 75L48.75 75C49.7446 75 50.6982 74.6049 51.4019 73.9016C52.105 73.1984 52.5 72.2445 52.5 71.25L52.5 67.5L56.25 67.5C57.2446 67.5 58.1982 67.1049 58.9019 66.4016C59.605 65.6984 60 64.7446 60 63.75L60 3.75C60 2.75549 59.605 1.80164 58.9019 1.09839C58.1982 0.395142 57.2446 0 56.25 0ZM50 71.25C50 71.5815 49.8682 71.8994 49.6338 72.1339C49.3994 72.3683 49.0815 72.5 48.75 72.5L3.75 72.5C3.41846 72.5 3.10059 72.3683 2.86621 72.1339C2.63184 71.8994 2.5 71.5815 2.5 71.25L2.5 11.25C2.5 10.9185 2.63184 10.6006 2.86621 10.3661C3.10059 10.1317 3.41846 10 3.75 10L37.5 10L37.5 20C37.5 20.2683 37.5864 20.5295 37.7461 20.745C37.9058 20.9604 38.1309 21.1188 38.3877 21.1965C38.6445 21.2744 38.9194 21.2675 39.1719 21.1769C39.4243 21.0864 39.6411 20.917 39.79 20.6937L41.25 18.5L42.71 20.6899C42.8589 20.913 43.0752 21.0823 43.3271 21.1729C43.5796 21.2635 43.854 21.2708 44.1108 21.1934C44.3672 21.1161 44.5923 20.9584 44.7524 20.7435C44.9126 20.5286 44.999 20.2679 45 20L45 10L48.75 10C49.0815 10 49.3994 10.1317 49.6338 10.3661C49.8682 10.6006 50 10.9185 50 11.25L50 71.25ZM40 10L42.5 10L42.5 15.875L42.29 15.5601C42.1758 15.3888 42.021 15.2484 41.8398 15.1514C41.6582 15.0543 41.4556 15.0034 41.25 15.0034C41.0444 15.0034 40.8418 15.0543 40.6602 15.1514C40.479 15.2484 40.3242 15.3888 40.21 15.5601L40 15.875L40 10ZM57.5 63.75C57.5 64.0815 57.3682 64.3994 57.1338 64.6339C56.8994 64.8683 56.5815 65 56.25 65L52.5 65L52.5 11.25C52.5 10.2555 52.105 9.30164 51.4019 8.59839C50.6982 7.89514 49.7446 7.5 48.75 7.5L10 7.5L10 3.75C10 3.41846 10.1318 3.10059 10.3662 2.86609C10.6006 2.63171 10.9185 2.5 11.25 2.5L56.25 2.5C56.5815 2.5 56.8994 2.63171 57.1338 2.86609C57.3682 3.10059 57.5 3.41846 57.5 3.75L57.5 63.75Z" fill="#008000" fill-opacity="1.000000" fill-rule="nonzero"/>
	<path id="Vector" d="M43.75 30L8.75 30C8.41846 30 8.10059 30.1317 7.86621 30.3661C7.63184 30.6006 7.5 30.9185 7.5 31.25L7.5 58.75C7.5 59.0815 7.63184 59.3994 7.86621 59.6339C8.10059 59.8683 8.41846 60 8.75 60L43.75 60C44.0815 60 44.3994 59.8683 44.6338 59.6339C44.8682 59.3994 45 59.0815 45 58.75L45 31.25C45 30.9185 44.8682 30.6006 44.6338 30.3661C44.3994 30.1317 44.0815 30 43.75 30ZM42.5 37.5L20 37.5L20 32.5L42.5 32.5L42.5 37.5ZM26.25 40L30 40L30 57.5L26.25 57.5L26.25 40ZM23.75 57.5L20 57.5L20 40L23.75 40L23.75 57.5ZM32.5 40L36.25 40L36.25 57.5L32.5 57.5L32.5 40ZM17.5 32.5L17.5 37.5L10 37.5L10 32.5L17.5 32.5ZM10 40L17.5 40L17.5 57.5L10 57.5L10 40ZM38.75 57.5L38.75 40L42.5 40L42.5 57.5L38.75 57.5ZM7.5 20L17.5 20L17.5 22.5L7.5 22.5L7.5 20ZM7.5 15L10 15L10 17.5L7.5 17.5L7.5 15ZM12.5 15L17.5 15L17.5 17.5L12.5 17.5L12.5 15ZM21.25 25L31.25 25L31.25 27.5L21.25 27.5L21.25 25ZM42.625 64.2C42.3047 63.6807 41.8569 63.252 41.3247 62.9546C40.792 62.6572 40.1919 62.5012 39.582 62.5012C38.9717 62.5012 38.3721 62.6572 37.8394 62.9546C37.3066 63.252 36.8589 63.6807 36.5386 64.2C36.0386 64.8063 35.8364 65.0012 35.4136 65.0012C34.9912 65.0012 34.7949 64.8063 34.2886 64.2013C33.9536 63.6967 33.5034 63.2791 32.9751 62.9833C32.4468 62.6874 31.8555 62.5217 31.25 62.5L31.25 65C31.6724 65 31.875 65.1949 32.375 65.8013C32.6953 66.3208 33.1431 66.7498 33.6758 67.0472C34.209 67.3447 34.8091 67.501 35.4194 67.501C36.0298 67.501 36.6299 67.3447 37.1626 67.0472C37.6958 66.7498 38.1436 66.3208 38.4639 65.8013C38.9639 65.1963 39.166 65.0012 39.5889 65.0012C39.9902 65.0012 40.1777 65.1613 40.7139 65.8013C41.0483 66.3054 41.4985 66.7225 42.0264 67.0179C42.5542 67.3134 43.1455 67.4786 43.75 67.5L43.75 65C43.3486 65 43.1611 64.84 42.625 64.2Z" fill="#008000" fill-opacity="1.000000" fill-rule="nonzero"/>
</svg>
