<svg width="80.000000" height="80.000000" viewBox="0 0 80 80" fill="none" xmlns="http://www.w3.org/2000/svg" xmlns:xlink="http://www.w3.org/1999/xlink">
	<desc>
			Created with Pixso.
	</desc>
	<defs>
		<clipPath id="clip22_6053">
			<rect id="Frame" width="80.000000" height="80.000000" fill="white" fill-opacity="0"/>
		</clipPath>
	</defs>
	<rect id="Frame" width="80.000000" height="80.000000" fill="#FFFFFF" fill-opacity="0"/>
	<g clip-path="url(#clip22_6053)">
		<path id="Vector" d="M70 53.455L70 26.4487C71.8679 25.6361 73.509 24.3794 74.7803 22.7878C76.0515 21.1963 76.9148 19.3181 77.2944 17.3168C77.6743 15.3156 77.5591 13.2517 76.9592 11.3051C76.3594 9.3584 75.2927 7.58789 73.8525 6.14746C72.4121 4.70715 70.6416 3.64062 68.6948 3.04065C66.7483 2.4408 64.6843 2.32568 62.6831 2.70544C60.6819 3.08533 58.8037 3.94836 57.2122 5.21973C55.6206 6.49097 54.3638 8.13208 53.5513 10L13.75 10C12.7554 10 11.8015 10.395 11.0984 11.0983C10.395 11.8015 10 12.7554 10 13.75L10 53.455L2.63135 68.1912C2.54468 68.3647 2.49976 68.556 2.5 68.75L2.5 75C2.5 75.663 2.76343 76.2988 3.23218 76.7677C3.70117 77.2366 4.33691 77.5 5 77.5L75 77.5C75.6631 77.5 76.2988 77.2366 76.7678 76.7677C77.2366 76.2988 77.5 75.663 77.5 75L77.5 68.75C77.5022 68.5565 77.4592 68.3652 77.375 68.1912L70 53.455ZM36.25 70L43.75 70L43.75 71.25L36.25 71.25L36.25 70ZM5.77246 67.5L12.0225 55L67.9775 55L74.2275 67.5L5.77246 67.5ZM65 5C66.6687 4.99719 68.3118 5.41211 69.7791 6.20691C71.2463 7.00171 72.4915 8.15112 73.4009 9.55029C74.3105 10.9495 74.8552 12.5541 74.9858 14.2177C75.1162 15.8813 74.8284 17.5513 74.1484 19.0752C73.4683 20.5991 72.4177 21.9286 71.0923 22.9425C69.7668 23.9564 68.2087 24.6226 66.5598 24.8801C64.9111 25.1377 63.2241 24.9785 61.6526 24.4172C60.0811 23.8558 58.675 22.9102 57.5625 21.6663C57.4453 21.5353 57.3018 21.4305 57.1414 21.3588C56.9807 21.287 56.8071 21.25 56.6313 21.25L53.3674 21.25L55.1174 18.0675C55.2644 17.8008 55.3088 17.4896 55.2424 17.1925C54.9089 15.729 54.9102 14.2091 55.2456 12.7461C55.5813 11.2831 56.2424 9.91455 57.1804 8.74268C58.1182 7.5708 59.3086 6.62561 60.6624 5.97754C62.0164 5.32947 63.499 4.99536 65 5ZM12.5 13.75C12.5 13.4185 12.6316 13.1005 12.8662 12.8661C13.1006 12.6316 13.4185 12.5 13.75 12.5L52.75 12.5C52.4272 14.0698 52.4138 15.6874 52.71 17.2625L50.1538 21.8962C50.0486 22.0867 49.9951 22.3013 49.9985 22.5187C50.0017 22.7362 50.0615 22.949 50.1724 23.1362C50.283 23.3235 50.4407 23.4785 50.6296 23.5862C50.8186 23.6938 51.0325 23.7502 51.25 23.75L56.0913 23.75C57.5486 25.2408 59.3564 26.3423 61.3496 26.9537C63.3428 27.5652 65.4573 27.6671 67.5 27.25L67.5 52.5L12.5 52.5L12.5 13.75ZM5 75L5 70L33.75 70L33.75 71.25C33.75 71.913 34.0134 72.5488 34.4822 73.0177C34.9512 73.4866 35.5869 73.75 36.25 73.75L43.75 73.75C44.4131 73.75 45.0488 73.4866 45.5178 73.0177C45.9866 72.5488 46.25 71.913 46.25 71.25L46.25 70L75 70L75 75L5 75Z" fill="#008000" fill-opacity="1.000000" fill-rule="nonzero"/>
		<path id="Vector" d="M12.5 62.5L15 62.5L15 65L12.5 65L12.5 62.5ZM17.5 62.5L20 62.5L20 65L17.5 65L17.5 62.5ZM22.5 62.5L57.5 62.5L57.5 65L22.5 65L22.5 62.5ZM60 62.5L62.5 62.5L62.5 65L60 65L60 62.5ZM65 62.5L67.5 62.5L67.5 65L65 65L65 62.5ZM18.75 57.5L21.25 57.5L21.25 60L18.75 60L18.75 57.5ZM13.75 57.5L16.25 57.5L16.25 60L13.75 60L13.75 57.5ZM23.75 57.5L26.25 57.5L26.25 60L23.75 60L23.75 57.5ZM28.75 57.5L31.25 57.5L31.25 60L28.75 60L28.75 57.5ZM33.75 57.5L36.25 57.5L36.25 60L33.75 60L33.75 57.5ZM38.75 57.5L41.25 57.5L41.25 60L38.75 60L38.75 57.5ZM43.75 57.5L46.25 57.5L46.25 60L43.75 60L43.75 57.5ZM48.75 57.5L51.25 57.5L51.25 60L48.75 60L48.75 57.5ZM53.75 57.5L56.25 57.5L56.25 60L53.75 60L53.75 57.5ZM58.75 57.5L61.25 57.5L61.25 60L58.75 60L58.75 57.5ZM63.75 57.5L66.25 57.5L66.25 60L63.75 60L63.75 57.5ZM46.25 17.5L18.75 17.5C18.4185 17.5 18.1006 17.6317 17.8662 17.8661C17.6316 18.1006 17.5 18.4185 17.5 18.75L17.5 46.25C17.5 46.5815 17.6316 46.8994 17.8662 47.1339C18.1006 47.3683 18.4185 47.5 18.75 47.5L46.25 47.5C46.5815 47.5 46.8994 47.3683 47.1338 47.1339C47.3684 46.8994 47.5 46.5815 47.5 46.25L47.5 18.75C47.5 18.4185 47.3684 18.1006 47.1338 17.8661C46.8994 17.6317 46.5815 17.5 46.25 17.5ZM45 25L28.75 25L28.75 20L45 20L45 25ZM35 27.5L38.75 27.5L38.75 45L35 45L35 27.5ZM32.5 45L28.75 45L28.75 27.5L32.5 27.5L32.5 45ZM26.25 20L26.25 25L20 25L20 20L26.25 20ZM20 27.5L26.25 27.5L26.25 45L20 45L20 27.5ZM41.25 45L41.25 27.5L45 27.5L45 45L41.25 45ZM52.5 30L55 30L55 32.5L52.5 32.5L52.5 30ZM57.5 30L62.5 30L62.5 32.5L57.5 32.5L57.5 30ZM52.5 35L62.5 35L62.5 37.5L52.5 37.5L52.5 35ZM52.5 40L62.5 40L62.5 42.5L52.5 42.5L52.5 40Z" fill="#008000" fill-opacity="1.000000" fill-rule="nonzero"/>
		<path id="₽" d="M66.8818 15.8977L61 15.8977L61 14.3943L66.843 14.3943C67.3662 14.3943 67.7883 14.3162 68.1096 14.16C68.4307 13.9989 68.6665 13.7748 68.8167 13.4877C68.9668 13.2006 69.042 12.8656 69.042 12.4828C69.042 12.1404 68.9668 11.8206 68.8167 11.5233C68.6665 11.2262 68.4333 10.9844 68.1174 10.7981C67.8013 10.6067 67.3896 10.511 66.8818 10.511L64.5354 10.511L64.5354 20L62.585 20L62.585 9L66.8818 9C67.7522 9 68.4929 9.14856 69.104 9.4458C69.7153 9.74292 70.1841 10.1534 70.5105 10.6772C70.8369 11.1959 71 11.7928 71 12.4678C71 13.188 70.8342 13.8049 70.5027 14.3187C70.1763 14.8274 69.7051 15.2178 69.0886 15.4897C68.4773 15.7617 67.7417 15.8977 66.8818 15.8977ZM67.0684 16.7061L67.0684 18.2095L61 18.2095L61 16.7061L67.0684 16.7061Z" fill="#008000" fill-opacity="1.000000" fill-rule="nonzero"/>
	</g>
</svg>
