<svg width="43" height="43" viewBox="0 0 43 43" fill="none" xmlns="http://www.w3.org/2000/svg">
<circle cx="21.5" cy="21.5" r="21.5" fill="url(#paint0_linear_8313_5)"/>
<path d="M24.75 12H17.25C13.7988 12 11 14.7988 11 18.25V25.75C11 29.2013 13.7988 32 17.25 32H24.75C28.2013 32 31 29.2013 31 25.75V18.25C31 14.7988 28.2013 12 24.75 12ZM29.125 25.75C29.125 28.1625 27.1625 30.125 24.75 30.125H17.25C14.8375 30.125 12.875 28.1625 12.875 25.75V18.25C12.875 15.8375 14.8375 13.875 17.25 13.875H24.75C27.1625 13.875 29.125 15.8375 29.125 18.25V25.75Z" fill="white"/>
<path d="M21 17C18.2387 17 16 19.2387 16 22C16 24.7613 18.2387 27 21 27C23.7613 27 26 24.7613 26 22C26 19.2387 23.7613 17 21 17ZM21 25.125C19.2775 25.125 17.875 23.7225 17.875 22C17.875 20.2763 19.2775 18.875 21 18.875C22.7225 18.875 24.125 20.2763 24.125 22C24.125 23.7225 22.7225 25.125 21 25.125Z" fill="white"/>
<path d="M26.3752 17.2908C26.7432 17.2908 27.0415 16.9925 27.0415 16.6246C27.0415 16.2566 26.7432 15.9583 26.3752 15.9583C26.0073 15.9583 25.709 16.2566 25.709 16.6246C25.709 16.9925 26.0073 17.2908 26.3752 17.2908Z" fill="white"/>
<defs>
<linearGradient id="paint0_linear_8313_5" x1="33.6182" y1="4.3" x2="12.9" y2="39.8727" gradientUnits="userSpaceOnUse">
<stop stop-color="#5B6CB2"/>
<stop offset="0.243094" stop-color="#A04E98"/>
<stop offset="0.491713" stop-color="#D6466A"/>
<stop offset="0.81768" stop-color="#EF924D"/>
<stop offset="1" stop-color="#F9BC63"/>
</linearGradient>
</defs>
</svg>
