<svg width="25" height="24" viewBox="0 0 25 24" fill="none" xmlns="http://www.w3.org/2000/svg">
<path d="M24.8858 6.97765C24.5219 2.93414 21.6872 0.000484032 18.1397 0.000484032C15.7763 0.000484032 13.6123 1.28459 12.3946 3.34265C11.188 1.25797 9.11271 -1.20016e-08 6.78716 -1.20016e-08C3.24012 -1.20016e-08 0.404975 2.93365 0.0415939 6.97716C0.0128302 7.15577 -0.105101 8.09574 0.253487 9.62863C0.770274 11.8396 1.96397 13.8507 3.70465 15.4432L12.3889 23.4L21.2222 15.4437C22.9629 13.8507 24.1566 11.8401 24.6734 9.62863C25.032 8.09622 24.914 7.15625 24.8858 6.97765ZM23.74 9.40695C23.2683 11.4263 22.1748 13.266 20.5808 14.7239L12.3946 22.098L4.34896 14.7259C2.75209 13.2651 1.65907 11.4258 1.18687 9.40647C0.847457 7.95585 0.986961 7.13641 0.98744 7.13108L0.994631 7.0822C1.30624 3.53965 3.74204 0.968042 6.78716 0.968042C9.03409 0.968042 11.0121 2.36202 11.9507 4.60546L12.3922 5.66208L12.8338 4.60546C13.7576 2.39639 15.8401 0.968526 18.1402 0.968526C21.1848 0.968526 23.6211 3.54013 23.939 7.12866C23.9399 7.13641 24.0794 7.95634 23.74 9.40695Z" fill="#C4C4C4"/>
<path d="M7.66895 2.94189C5.02557 2.94189 2.875 5.11321 2.875 7.7821C2.875 8.04977 3.08929 8.26613 3.3544 8.26613C3.6195 8.26613 3.83379 8.04977 3.83379 7.7821C3.83379 5.64709 5.55434 3.90994 7.66895 3.90994C7.93406 3.90994 8.14835 3.69358 8.14835 3.42592C8.14835 3.15825 7.93358 2.94189 7.66895 2.94189Z" fill="#C4C4C4"/>
</svg>
