<svg width="36" height="48" viewBox="0 0 36 48"  xmlns="http://www.w3.org/2000/svg">
<path d="M16.125 47.0625C14.5 44.6875 12.4062 41.6875 9.84375 38.0625C6.71875 33.5625 4.65625 30.5312 3.65625 28.9688C2.21875 26.7188 1.25 24.8438 0.75 23.3438C0.25 21.7812 0 20 0 18C0 14.75 0.8125 11.75 2.4375 9C4.0625 6.25 6.25 4.0625 9 2.4375C11.75 0.8125 14.75 0 18 0C21.25 0 24.25 0.8125 27 2.4375C29.75 4.0625 31.9375 6.25 33.5625 9C35.1875 11.75 36 14.75 36 18C36 20 35.75 21.7812 35.25 23.3438C34.75 24.8438 33.7812 26.7188 32.3438 28.9688C31.3438 30.5312 29.2812 33.5625 26.1562 38.0625L19.875 47.0625C19.4375 47.6875 18.8125 48 18 48C17.1875 48 16.5625 47.6875 16.125 47.0625ZM18 25.5C20.0625 25.5 21.8125 24.7812 23.25 23.3438C24.75 21.8438 25.5 20.0625 25.5 18C25.5 15.9375 24.75 14.1875 23.25 12.75C21.8125 11.25 20.0625 10.5 18 10.5C15.9375 10.5 14.1562 11.25 12.6562 12.75C11.2188 14.1875 10.5 15.9375 10.5 18C10.5 20.0625 11.2188 21.8438 12.6562 23.3438C14.1562 24.7812 15.9375 25.5 18 25.5Z" />
</svg>
