<svg width="320" height="60" viewBox="0 0 320 60" fill="none" xmlns="http://www.w3.org/2000/svg">
<path d="M97.733 41.4982L96.4658 37.5101H87.0546L85.7874 41.4982H79.4512L88.061 16.1534H95.4408L104.051 41.4982H97.733ZM88.7878 32.0871H94.7326L91.7695 22.7878L88.7878 32.0871Z" fill="#FF6600"/>
<path d="M120.73 16.1534V21.7255H112.045V41.4982H106.25V16.1534H120.73Z" fill="#FF6600"/>
<path d="M132.862 16.1534C135.34 16.1534 137.446 16.992 139.161 18.6879C140.875 20.3837 141.732 22.4337 141.732 24.8377C141.732 27.2604 140.875 29.3103 139.161 30.9876C137.446 32.6834 135.34 33.5221 132.862 33.5221H129.06V41.4796H123.264V16.1348H132.862V16.1534ZM132.862 28.099C133.756 28.099 134.483 27.7822 135.079 27.1486C135.657 26.5149 135.955 25.7509 135.955 24.8377C135.955 23.9246 135.657 23.1419 135.079 22.5269C134.502 21.8933 133.756 21.5764 132.862 21.5764H129.06V28.099H132.862Z" fill="#FF6600"/>
<path d="M165.884 38.1997C163.331 40.7341 160.219 42.0014 156.548 42.0014C152.876 42.0014 149.764 40.7341 147.211 38.1997C144.658 35.6652 143.372 32.5343 143.372 28.8258C143.372 25.1173 144.658 21.9864 147.211 19.452C149.764 16.9175 152.876 15.6502 156.548 15.6502C160.219 15.6502 163.331 16.9175 165.884 19.452C168.437 21.9864 169.723 25.1173 169.723 28.8258C169.723 32.553 168.437 35.6652 165.884 38.1997ZM151.274 34.2675C152.69 35.6652 154.442 36.3733 156.548 36.3733C158.654 36.3733 160.405 35.6652 161.822 34.2675C163.238 32.8698 163.946 31.0621 163.946 28.8444C163.946 26.6268 163.238 24.8191 161.822 23.4214C160.405 22.0237 158.654 21.3155 156.548 21.3155C154.442 21.3155 152.69 22.0237 151.274 23.4214C149.857 24.8191 149.149 26.6268 149.149 28.8444C149.149 31.0435 149.857 32.8512 151.274 34.2675Z" fill="#FF6600"/>
<path d="M182.75 25.5645C185.359 25.5645 187.465 26.2913 189.049 27.7636C190.633 29.2172 191.434 31.1553 191.434 33.5407C191.434 35.9261 190.633 37.8642 189.049 39.3178C187.465 40.7714 185.359 41.5169 182.75 41.5169H172.966V16.172H189.254V21.7442H178.762V25.5832H182.75V25.5645ZM182.75 36.0752C184.688 36.0752 185.639 35.2366 185.639 33.5407C185.639 31.8448 184.67 31.0062 182.75 31.0062H178.762V36.0752H182.75Z" fill="#008000"/>
<path d="M206.827 16.1534H212.623L205.318 34.0438C203.175 39.2805 199.615 41.7591 194.677 41.4982V36.0752C197.025 36.2988 198.702 35.4602 199.746 33.5779L191.639 16.1534H197.435L202.392 27.2417L206.827 16.1534Z" fill="#008000"/>
<path d="M235.08 41.4982H228.482L224.215 34.1929L219.947 41.4982H213.35L220.916 28.4904L213.704 16.1348H220.301L224.215 22.825L228.128 16.1348H234.725L227.513 28.4904L235.08 41.4982Z" fill="#008000"/>
<path d="M251.367 16.1534H257.163L249.858 34.0438C247.715 39.2805 244.155 41.7591 239.217 41.4982V36.0752C241.565 36.2988 243.242 35.4602 244.286 33.5779L236.179 16.1534H241.975L246.932 27.2417L251.367 16.1534Z" fill="#008000"/>
<path d="M272.556 16.1534H278.352V41.4982H272.556V32.6648C271.177 33.2052 269.742 33.4661 268.252 33.4661C265.643 33.4661 263.481 32.7394 261.748 31.2671C260.014 29.8135 259.157 27.7822 259.157 25.2104V16.1534H264.953V24.3345C264.953 25.4713 265.27 26.3472 265.903 26.9622C266.537 27.5772 267.357 27.894 268.401 27.894C269.929 27.894 271.308 27.6145 272.556 27.0554V16.1534Z" fill="#008000"/>
<path d="M288.472 35.9261H298.609V41.4982H282.676V16.1534H298.423V21.7255H288.472V25.9186H297.529V31.4162H288.472V35.9261Z" fill="#008000"/>
<path d="M318.885 16.1534V21.7255H312.363V41.4982H306.567V21.7255H300.044V16.1534H318.885Z" fill="#008000"/>
<path d="M28.2109 15.3245C6.70509 26.0775 -6.12572 43.2225 3.21087 56.6403C-2.17491 43.2225 10.2552 29.6928 30.5125 20.6265C50.6299 11.6253 73.1048 9.66855 77.4377 19.6015C75.3691 2.07442 49.7074 4.57163 28.2109 15.3245Z" fill="#008000"/>
<path d="M46.1013 22.7137C2.80082 28.9847 -14.251 69.3873 32.5251 57.9448C-1.6252 60.88 5.18622 35.5259 46.1013 22.7137Z" fill="#008000"/>
<path d="M53.2576 15.4923C45.0485 16.6011 23.3563 22.7137 13.1997 34.2959C23.496 25.9843 40.6783 20.5146 54.7205 19.7506L53.2576 15.4923Z" fill="#FF6600"/>
<path d="M74.5303 25.919C69.0514 15.9395 35.8422 24.3257 19.4519 38.6753L14.4575 53.1741C14.4762 53.1927 14.5041 53.2113 14.5321 53.23H29.6365L37.3424 30.8576C39.1408 30.0376 40.9019 29.2921 42.5977 28.6492L51.0677 53.23H66.2653L56.584 25.0991C63.0786 24.4748 67.6537 25.919 69.2564 29.376C70.7659 32.6466 70.4584 37.1006 66.6567 40.9023C72.1543 38.4237 77.4096 31.1557 74.5303 25.919Z" fill="#FF6600"/>
<path d="M63.4143 5.33569C59.4822 3.80755 54.5157 3.25779 49.1951 3.69573L47.9372 0.0524139H32.7396L29.4411 9.63127C24.4187 12.3521 19.797 15.9675 16.1816 20.5239C29.7393 10.4606 51.5992 3.56528 63.4143 5.33569Z" fill="#FF6600"/>
<path d="M73.3469 2.18623C74.2693 2.0651 75.2198 2.0651 76.1143 2.34464C75.8534 3.36029 75.313 4.29209 74.5675 5.0282C73.8687 5.72705 73.0114 6.25818 72.0983 6.64021C71.3435 6.95702 70.5235 7.1527 69.6942 7.13406C69.0793 7.12474 68.4736 6.98497 67.9238 6.72407C68.1661 5.6991 68.7624 4.78594 69.5172 4.05914C69.9458 3.63983 70.4304 3.28575 70.9522 2.98757C71.6883 2.55895 72.5083 2.29804 73.3469 2.18623Z" fill="#008000"/>
</svg>
