<svg width="110.000000" height="110.000000" viewBox="0 0 110 110" fill="none" xmlns="http://www.w3.org/2000/svg" xmlns:xlink="http://www.w3.org/1999/xlink">
	<desc>
			Created with Pixso.
	</desc>
	<defs/>
	<path id="Vector" d="M55.63 11.6C31.74 11.6 12.35 30.99 12.35 54.88C12.35 78.77 31.74 98.16 55.63 98.16C79.52 98.16 98.91 78.77 98.91 54.88C98.86 30.93 79.52 11.6 55.63 11.6Z" fill="#FFFFFF" fill-opacity="1.000000" fill-rule="evenodd"/>
	<path id="Vector" d="M16.1 16.1C26.02 6.17 39.76 0 55 0C70.17 0 83.91 6.17 93.89 16.1C103.82 26.02 110 39.82 110 55C110 70.17 103.82 83.91 93.89 93.89C83.97 103.82 70.17 110 55 110C39.82 110 26.08 103.82 16.1 93.89C6.17 83.91 0 70.17 0 55C0 39.76 6.17 26.02 16.1 16.1ZM55 10.04C42.59 10.04 31.39 15.06 23.25 23.2C15.12 31.33 10.09 42.53 10.09 54.94C10.09 67.35 15.12 78.54 23.25 86.68C31.39 94.82 42.59 99.84 55 99.84C67.4 99.84 78.6 94.82 86.74 86.68C94.87 78.54 99.9 67.35 99.9 54.94C99.9 42.53 94.87 31.33 86.74 23.2C78.6 15.12 67.35 10.04 55 10.04Z" fill="#83BB32" fill-opacity="1.000000" fill-rule="nonzero"/>
	<path id="Vector" d="M21.29 21.29C29.89 12.69 41.84 7.32 55 7.32C68.15 7.32 80.04 12.63 88.7 21.29C97.3 29.89 102.67 41.84 102.67 55C102.67 68.15 97.36 80.04 88.7 88.7C80.1 97.3 68.15 102.67 55 102.67C41.84 102.67 29.95 97.36 21.29 88.7C12.69 80.1 7.32 68.15 7.32 55C7.32 41.84 12.63 29.89 21.29 21.29ZM55 16.04C44.26 16.04 34.51 20.37 27.47 27.47C20.43 34.51 16.04 44.2 16.04 55C16.04 65.73 20.37 75.48 27.47 82.52C34.51 89.56 44.26 93.95 55 93.95C65.73 93.95 75.48 89.62 82.52 82.52C89.56 75.48 93.95 65.73 93.95 55C93.95 44.26 89.62 34.51 82.52 27.47C75.43 20.43 65.73 16.04 55 16.04Z" fill="#83BB32" fill-opacity="1.000000" fill-rule="nonzero"/>
	<path id="Vector" d="M44.32 71.1L42.82 71.1L41.84 72.48C41.78 72.6 41.66 72.71 41.61 72.77C41.55 72.83 41.43 72.89 41.37 72.94C41.32 73 41.26 73 41.2 73C41.14 73 41.09 73.06 40.97 73.06L40.91 73.06L40.91 71.04L39.59 71.04L39.59 76.23L40.91 76.23L40.91 74.04L40.97 74.04C41.03 74.04 41.09 74.04 41.14 74.04C41.2 74.04 41.26 74.04 41.32 74.1C41.37 74.1 41.43 74.16 41.49 74.16C41.55 74.21 41.61 74.21 41.66 74.27C41.72 74.33 41.78 74.39 41.84 74.44C41.89 74.5 41.95 74.62 42.01 74.67L42.88 76.18L44.38 76.18L43.45 74.44C43.39 74.27 43.28 74.16 43.22 74.04C43.11 73.92 43.05 73.81 42.93 73.75C42.88 73.69 42.82 73.64 42.76 73.64C42.7 73.58 42.64 73.58 42.53 73.52L42.41 73.46L42.53 73.41C42.59 73.41 42.64 73.35 42.64 73.35C42.7 73.29 42.7 73.29 42.76 73.23C42.82 73.17 42.88 73.12 42.99 73C43.05 72.89 43.16 72.83 43.22 72.71L44.32 71.1ZM47.03 70.98C46.22 70.98 45.59 71.1 45.24 71.39C44.84 71.67 44.66 72.02 44.66 72.54L44.66 74.79C44.66 74.91 44.66 75.02 44.72 75.14C44.72 75.25 44.78 75.37 44.84 75.43C44.9 75.54 44.95 75.6 45.01 75.66C45.07 75.71 45.13 75.77 45.24 75.83C45.3 75.89 45.41 75.94 45.53 75.94C45.65 76 45.76 76 45.88 76.06C45.99 76.06 46.11 76.12 46.16 76.12C46.28 76.12 46.34 76.18 46.45 76.18C46.57 76.18 46.63 76.18 46.74 76.18C46.86 76.18 46.97 76.18 47.09 76.18C47.38 76.18 47.61 76.18 47.9 76.12C48.18 76.12 48.47 76.06 48.7 76L48.76 76L48.76 74.96L48.7 74.96C48.36 75.02 48.07 75.08 47.84 75.14C47.61 75.19 47.38 75.19 47.2 75.19C46.63 75.19 46.34 75.08 46.16 74.96C45.99 74.79 45.99 74.67 45.99 74.56L45.99 72.42C45.99 72.31 45.99 72.19 46.05 72.08C46.11 72.02 46.16 71.9 46.28 71.9C46.34 71.9 46.4 71.85 46.45 71.85C46.51 71.85 46.57 71.85 46.63 71.85C46.68 71.85 46.74 71.85 46.8 71.85C46.86 71.85 46.97 71.85 47.03 71.85C47.26 71.85 47.49 71.85 47.78 71.9C48.07 71.96 48.3 72.02 48.65 72.08L48.7 72.08L48.7 71.04L48.65 71.04C48.3 70.98 48.01 70.92 47.72 70.92C47.49 71.04 47.26 70.98 47.03 70.98ZM53.96 71.1L49.4 71.1L49.4 76.29L50.72 76.29L50.72 72.08L52.63 72.08L52.63 76.29L53.96 76.29L53.96 71.1ZM57.07 71.1L54.99 71.1L54.99 76.29L56.32 76.29L56.32 74.62L56.96 74.62C57.25 74.62 57.48 74.62 57.65 74.56C57.88 74.56 58.05 74.5 58.23 74.44C58.4 74.39 58.52 74.33 58.63 74.27C58.75 74.21 58.86 74.1 58.92 74.04C58.98 73.92 59.03 73.81 59.09 73.69C59.15 73.58 59.15 73.41 59.15 73.23L59.15 72.25C59.15 72.08 59.15 71.96 59.09 71.85C59.03 71.73 58.98 71.62 58.92 71.56C58.86 71.44 58.75 71.39 58.63 71.33C58.52 71.27 58.4 71.21 58.23 71.15C58.05 71.1 57.88 71.1 57.71 71.1C57.53 71.1 57.3 71.1 57.07 71.1ZM56.38 72.08L57.01 72.08C57.19 72.08 57.3 72.08 57.42 72.08C57.53 72.08 57.65 72.14 57.71 72.14C57.77 72.14 57.77 72.19 57.82 72.25C57.82 72.31 57.88 72.37 57.88 72.42L57.88 73.23C57.88 73.35 57.88 73.41 57.82 73.46C57.77 73.52 57.77 73.58 57.71 73.58C57.65 73.58 57.59 73.64 57.42 73.64C57.3 73.64 57.19 73.64 57.01 73.64L56.26 73.64L56.26 72.02L56.38 72.02L56.38 72.08ZM63.83 71.1L59.84 71.1L59.84 76.29L63.88 76.29L63.88 75.31L61.17 75.31L61.17 74.1L63.54 74.1L63.54 73.12L61.17 73.12L61.17 72.08L63.83 72.08L63.83 71.1ZM66.94 70.98C66.13 70.98 65.5 71.1 65.15 71.39C64.75 71.67 64.58 72.02 64.58 72.54L64.58 74.79C64.58 74.91 64.58 75.02 64.63 75.14C64.63 75.25 64.69 75.37 64.75 75.43C64.81 75.54 64.86 75.6 64.92 75.66C64.98 75.71 65.04 75.77 65.15 75.83C65.21 75.89 65.33 75.94 65.44 75.94C65.56 76 65.67 76 65.79 76.06C65.9 76.06 66.02 76.12 66.08 76.12C66.19 76.12 66.25 76.18 66.36 76.18C66.48 76.18 66.54 76.18 66.65 76.18C66.77 76.18 66.88 76.18 67 76.18C67.29 76.18 67.52 76.18 67.81 76.12C68.1 76.12 68.38 76.06 68.62 76L68.67 76L68.67 74.96L68.62 74.96C68.27 75.02 67.98 75.08 67.75 75.14C67.52 75.19 67.29 75.19 67.11 75.19C66.54 75.19 66.25 75.08 66.08 74.96C65.9 74.79 65.9 74.67 65.9 74.56L65.9 72.42C65.9 72.31 65.9 72.19 65.96 72.08C66.02 71.96 66.08 71.9 66.19 71.9C66.25 71.9 66.31 71.85 66.36 71.85C66.42 71.85 66.48 71.85 66.54 71.85C66.6 71.85 66.65 71.85 66.71 71.85C66.77 71.85 66.88 71.85 66.94 71.85C67.17 71.85 67.4 71.85 67.69 71.9C67.98 71.96 68.21 72.02 68.56 72.08L68.62 72.08L68.62 71.04L68.56 71.04C68.21 70.98 67.92 70.92 67.63 70.92C67.4 71.04 67.17 70.98 66.94 70.98ZM71.62 70.98C70.81 70.98 70.17 71.1 69.83 71.39C69.42 71.67 69.25 72.02 69.25 72.54L69.25 74.79C69.25 74.91 69.25 75.02 69.31 75.14C69.31 75.25 69.37 75.37 69.42 75.43C69.48 75.54 69.54 75.6 69.6 75.66C69.65 75.71 69.71 75.77 69.83 75.83C69.88 75.89 70 75.94 70.12 75.94C70.23 76 70.35 76 70.46 76.06C70.58 76.06 70.69 76.12 70.75 76.12C70.87 76.12 70.92 76.18 71.04 76.18C71.15 76.18 71.21 76.18 71.33 76.18C71.44 76.18 71.56 76.18 71.67 76.18C71.96 76.18 72.19 76.18 72.48 76.12C72.77 76.12 73.06 76.06 73.29 76L73.35 76L73.35 74.96L73.29 74.96C72.94 75.02 72.65 75.08 72.42 75.14C72.19 75.19 71.96 75.19 71.79 75.19C71.21 75.19 70.92 75.08 70.75 74.96C70.58 74.79 70.58 74.67 70.58 74.56L70.58 72.42C70.58 72.31 70.58 72.19 70.64 72.08C70.69 72.02 70.75 71.9 70.87 71.9C70.92 71.9 70.98 71.85 71.04 71.85C71.1 71.85 71.15 71.85 71.21 71.85C71.27 71.85 71.33 71.85 71.39 71.85C71.44 71.85 71.56 71.85 71.62 71.85C71.85 71.85 72.08 71.85 72.37 71.9C72.65 71.96 72.89 72.02 73.23 72.08L73.29 72.08L73.29 71.04L73.23 71.04C72.89 70.98 72.6 70.92 72.31 70.92C72.08 71.04 71.79 70.98 71.62 70.98ZM36.41 70.98C36.18 70.98 35.95 70.98 35.66 71.04C35.37 71.1 35.08 71.1 34.74 71.15L34.68 71.15L34.68 72.19L34.74 72.19C35.08 72.14 35.37 72.08 35.6 72.02C35.83 71.96 36.07 71.96 36.24 71.96C36.47 71.96 36.7 71.96 36.82 72.02C36.87 72.02 36.93 72.08 37.05 72.08C37.1 72.08 37.16 72.14 37.22 72.19C37.28 72.25 37.34 72.31 37.34 72.37C37.34 72.42 37.39 72.48 37.39 72.6L37.39 73.12L35.31 73.12L35.31 74.1L37.39 74.1L37.39 74.73C37.39 74.91 37.39 75.37 36.18 75.37C36.01 75.37 35.78 75.37 35.55 75.31C35.31 75.25 35.03 75.19 34.68 75.14L34.62 75.14L34.62 76.18L34.68 76.18C34.97 76.23 35.26 76.29 35.49 76.29C35.78 76.29 36.01 76.35 36.3 76.35C36.47 76.35 36.64 76.35 36.82 76.35C36.99 76.35 37.16 76.29 37.28 76.29C37.45 76.23 37.57 76.23 37.74 76.18C37.85 76.12 38.03 76.06 38.09 76C38.14 75.94 38.26 75.89 38.32 75.83C38.37 75.77 38.43 75.66 38.49 75.54C38.55 75.43 38.6 75.37 38.6 75.25C38.6 75.14 38.66 75.02 38.66 74.91L38.66 72.65C38.66 72.42 38.66 72.25 38.6 72.08C38.55 71.9 38.49 71.79 38.37 71.67C38.26 71.56 38.14 71.44 38.03 71.39C37.91 71.33 37.74 71.27 37.57 71.21C37.39 71.15 37.22 71.15 36.99 71.15C36.93 70.98 36.64 70.98 36.41 70.98ZM77.21 78.54L30.76 78.54C30.35 78.54 30.01 78.37 29.72 78.14C29.43 77.85 29.31 77.5 29.31 77.1L29.31 70.06C29.31 69.65 29.49 69.31 29.72 69.02C30.01 68.73 30.35 68.62 30.76 68.62L77.21 68.62C77.62 68.62 77.96 68.79 78.25 69.02C78.54 69.31 78.66 69.65 78.66 70.06L78.66 77.1C78.66 77.5 78.48 77.85 78.25 78.14C77.96 78.37 77.62 78.54 77.21 78.54Z" fill="#83BB32" fill-opacity="1.000000" fill-rule="nonzero"/>
	<path id="Vector" d="M66.94 40.68C65.96 40.68 65.04 40.8 64.11 41.03L64.11 33.24L73.46 33.24C75.08 33.24 76.41 31.91 76.41 30.29L61.17 30.29L61.17 41.2C61.17 42.47 61.98 43.63 63.19 44.03C63.59 44.15 64.06 44.09 64.4 44.03C64.46 44.03 64.58 43.97 64.69 43.97C65.33 43.8 66.02 43.68 66.77 43.68C66.83 43.68 66.94 43.68 67 43.68C72.02 43.68 76.06 47.95 75.71 53.09C75.43 57.36 71.96 60.82 67.69 61.17C63.65 61.46 60.07 59.04 58.8 55.46L56.15 48.13L54.82 44.61L53.78 41.78L49.86 29.77C49.34 28.39 48.13 27.52 46.68 27.47C46.63 27.47 46.63 27.47 46.57 27.47C45.18 27.47 43.91 28.27 43.34 29.6L30.81 60.65C30.47 61.4 30.87 62.27 31.62 62.61C31.79 62.67 32.03 62.73 32.2 62.73C32.78 62.73 33.3 62.38 33.53 61.86L35.08 58.17C36.58 55.34 41.55 46.8 50.26 40.62L50.84 42.41L51.82 45.18L55.86 56.38C56.84 59.09 58.8 61.29 61.29 62.67C63.13 63.65 65.27 64.17 67.52 64.06C73.46 63.71 78.25 58.92 78.54 52.98C78.95 46.28 73.58 40.68 66.94 40.68ZM40.45 45.24L46.05 30.76C46.17 30.47 46.4 30.41 46.57 30.41C46.68 30.41 46.97 30.47 47.03 30.76L49.74 39.07C46.68 40.74 43.34 42.88 40.45 45.24Z" fill="#83BB32" fill-opacity="1.000000" fill-rule="nonzero"/>
	<path id="Vector" d="M90.2 81.37L93.72 84.49L92.97 85.35L92.91 85.29C92.85 85.53 92.8 85.7 92.68 85.87C92.39 86.22 91.99 86.45 91.58 86.45C91.18 86.51 90.72 86.33 90.26 85.99C90.08 85.81 89.8 85.58 89.45 85.29C88.93 84.83 88.41 84.43 88.01 84.08L88.76 83.27C89.91 84.31 90.6 84.95 90.95 85.18C91.12 85.35 91.35 85.41 91.58 85.41C91.76 85.41 91.93 85.35 92.1 85.18C92.22 85.06 92.22 84.89 92.22 84.72L90.83 83.45C90.43 83.04 89.97 82.7 89.51 82.29L90.2 81.37ZM86.22 86.79L86.04 87.83C85.76 87.78 85.58 87.78 85.41 87.89C85.18 88.12 85.12 88.41 85.24 88.76L86.33 90.03C86.51 90.2 86.85 90.6 87.43 91.24L86.51 92.05L83.56 88.47L84.37 87.72L84.37 87.78C84.49 87.49 84.66 87.26 84.83 87.08C85.24 86.85 85.7 86.74 86.22 86.79ZM80.62 94.7C80.79 94.59 80.97 94.59 81.14 94.59C81.31 94.64 81.49 94.76 81.6 94.93C81.72 95.11 81.72 95.28 81.66 95.45C81.6 95.62 81.54 95.8 81.37 95.91C81.2 96.03 81.02 96.03 80.79 96.03C80.62 95.97 80.45 95.91 80.33 95.74C80.22 95.57 80.16 95.39 80.22 95.16C80.33 94.99 80.45 94.82 80.62 94.7ZM76.87 97.07C76.98 97.41 76.98 97.76 76.87 98.11C76.69 98.45 76.46 98.74 76.06 98.91C75.54 99.09 74.85 99.2 73.98 99.15L74.16 97.99C74.33 98.05 74.5 98.11 74.73 98.11C75.02 98.11 75.25 98.11 75.43 98.05C75.66 97.93 75.71 97.82 75.66 97.64C75.54 97.41 75.37 97.3 75.02 97.36L74.5 97.41C74.21 97.47 73.92 97.41 73.69 97.36C73.41 97.24 73.17 97.01 73 96.66C72.83 96.2 72.77 95.8 72.94 95.45C73.12 95.11 73.35 94.87 73.75 94.7C74.44 94.41 75.14 94.53 75.77 95.11L74.96 95.97C74.73 95.68 74.5 95.57 74.33 95.68C74.1 95.8 73.98 95.97 74.1 96.26C74.16 96.37 74.27 96.37 74.5 96.32L75.31 96.26C76.06 96.14 76.58 96.43 76.87 97.07ZM70.46 99.84C70.52 100.24 70.52 100.53 70.29 100.82C70.12 101.17 69.77 101.4 69.37 101.51C68.85 101.63 68.15 101.63 67.29 101.4L67.63 100.24C67.81 100.36 67.98 100.42 68.21 100.47C68.5 100.53 68.73 100.53 68.9 100.47C69.13 100.42 69.25 100.3 69.19 100.13C69.13 99.9 68.9 99.78 68.62 99.78L68.1 99.78C67.81 99.78 67.52 99.72 67.29 99.61C67 99.43 66.83 99.2 66.71 98.86C66.6 98.39 66.65 97.99 66.83 97.64C67.06 97.36 67.35 97.13 67.69 97.01C68.44 96.78 69.08 97.01 69.6 97.7L68.67 98.45C68.44 98.11 68.27 97.99 68.04 98.05C67.75 98.11 67.69 98.28 67.75 98.57C67.81 98.68 67.92 98.74 68.1 98.68L68.9 98.74C69.77 98.8 70.23 99.15 70.46 99.84ZM62.44 99.9C62.38 99.72 62.32 99.55 62.21 99.43C62.09 99.32 61.98 99.32 61.81 99.32C61.57 99.32 61.4 99.49 61.29 99.78C61.29 99.84 61.23 99.95 61.23 100.01L62.44 99.9ZM63.83 101.8C63.25 102.67 62.73 103.13 62.15 103.19C61.63 103.24 61.11 103.07 60.77 102.67C60.42 102.32 60.25 101.8 60.13 101.11C60.02 100.36 60.13 99.78 60.42 99.26C60.71 98.8 61.11 98.51 61.69 98.45C62.27 98.39 62.67 98.57 63.07 98.97C63.42 99.38 63.59 99.95 63.71 100.76C63.54 100.76 63.36 100.76 63.07 100.82C62.5 100.88 61.92 100.99 61.23 101.11C61.29 101.4 61.34 101.63 61.46 101.86C61.63 102.15 61.86 102.32 62.09 102.26C62.32 102.26 62.44 102.09 62.61 101.8C62.73 101.57 62.79 101.34 62.84 101.05L63.83 101.8ZM56.55 99.55L55.75 100.18C55.57 99.95 55.4 99.84 55.23 99.84C54.94 99.84 54.71 100.01 54.48 100.36L54.42 102.03C54.42 102.26 54.42 102.84 54.42 103.65L53.21 103.65L53.44 98.97L54.53 98.97L54.53 99.03C54.82 98.91 55.05 98.8 55.34 98.8C55.8 98.91 56.21 99.09 56.55 99.55ZM48.76 100.76C48.82 100.42 48.76 100.13 48.7 99.84C48.65 99.55 48.53 99.43 48.42 99.38C48.3 99.38 48.19 99.38 48.07 99.49C47.95 99.55 47.9 99.66 47.84 99.78L47.61 101.11C47.61 101.68 47.78 101.97 48.07 102.03C48.19 102.03 48.36 101.97 48.47 101.74C48.59 101.45 48.7 101.11 48.76 100.76ZM49.86 100.88C49.8 101.57 49.57 102.09 49.17 102.49C48.82 102.84 48.42 103.01 47.95 102.95C47.72 102.95 47.55 102.84 47.38 102.67C47.32 102.9 47.26 103.3 47.2 103.88L45.99 103.7L46.8 99.38C46.92 98.91 46.97 98.57 46.97 98.34L48.01 98.51C48.19 98.45 48.42 98.39 48.59 98.45C49.05 98.51 49.4 98.74 49.69 99.2C49.86 99.66 49.92 100.24 49.86 100.88ZM43.86 97.93L42.13 99.38L42.41 100.42C42.53 100.88 42.64 101.22 42.76 101.4L41.61 101.74L41.26 100.13L39.93 101.22L39.12 100.42C39.53 100.13 39.87 99.9 40.22 99.55L40.97 98.91L40.45 96.72L41.49 96.72L41.89 98.22L43.16 97.18L43.86 97.93ZM35.95 96.32C36.01 96.14 36.01 95.97 36.01 95.8C35.95 95.68 35.89 95.57 35.72 95.45C35.55 95.34 35.32 95.39 35.03 95.62C34.97 95.68 34.91 95.74 34.85 95.8L35.95 96.32ZM36.18 98.63C35.26 99.09 34.56 99.2 34.05 98.97C33.53 98.74 33.24 98.34 33.12 97.82C33.01 97.3 33.12 96.78 33.41 96.2C33.7 95.51 34.1 95.05 34.62 94.76C35.08 94.47 35.6 94.47 36.12 94.7C36.64 94.93 36.93 95.34 36.99 95.86C37.05 96.38 36.93 96.95 36.64 97.7C36.53 97.64 36.3 97.53 36.12 97.41C35.6 97.18 35.03 96.95 34.39 96.66C34.28 96.95 34.22 97.18 34.22 97.41C34.22 97.76 34.33 97.99 34.56 98.11C34.74 98.16 34.97 98.16 35.2 97.99C35.43 97.82 35.6 97.64 35.78 97.47L36.18 98.63ZM27.87 92.22L28.27 91.58L31.1 93.37L30.7 94.01L27.87 92.22ZM25.27 90.66C24.87 91.07 24.35 91.35 23.83 91.47C23.2 91.58 22.68 91.47 22.27 91.07C21.93 90.78 21.81 90.37 21.81 89.91C21.81 89.51 22.04 89.1 22.45 88.7C22.56 88.58 22.62 88.53 22.73 88.47L23.48 89.28C23.43 89.28 23.37 89.33 23.25 89.45C23.14 89.62 23.02 89.74 22.96 89.85C22.91 90.03 22.96 90.14 23.08 90.26C23.2 90.37 23.43 90.37 23.72 90.26C24 90.14 24.23 89.97 24.47 89.74C24.75 89.39 24.87 89.1 24.7 88.93C24.52 88.76 24.29 88.7 24 88.76L23.31 87.89L25.91 85.76L26.54 86.56L26.43 86.68L26.6 86.85C27.06 87.31 27.47 87.66 27.75 87.89L26.95 88.64C26.6 88.35 26.25 88.01 25.85 87.66C25.79 87.6 25.73 87.55 25.62 87.37L25.04 87.89C25.22 87.95 25.33 88.06 25.39 88.12C25.79 88.53 25.97 88.93 25.97 89.39C25.91 89.85 25.68 90.26 25.27 90.66ZM19.27 84.89C19.21 84.77 19.16 84.66 19.1 84.54C18.92 84.31 18.75 84.2 18.52 84.14C18.29 84.08 18.12 84.14 17.94 84.26C17.77 84.37 17.71 84.54 17.71 84.66C17.71 84.77 17.77 84.95 17.89 85.12C18 85.29 18.17 85.35 18.41 85.47L19.27 84.89ZM18.29 87.08L17.6 86.1L17.66 86.04C17.48 85.93 17.31 85.81 17.19 85.7C16.9 85.29 16.79 84.89 16.79 84.49C16.79 84.02 16.96 83.68 17.31 83.39C17.77 83.04 18.29 82.99 18.87 83.16C19.21 83.27 19.56 83.56 19.85 83.91C19.91 84.02 20.02 84.14 20.08 84.31C20.43 84.02 20.43 83.68 20.25 83.39C20.08 83.16 19.85 83.04 19.62 82.93L19.91 82C20.43 82.24 20.83 82.47 21.06 82.81C21.41 83.22 21.52 83.68 21.41 84.14C21.29 84.54 21.06 84.95 20.66 85.29C20.48 85.41 20.31 85.58 20.14 85.7L19.62 86.1C19.44 86.22 19.16 86.45 18.75 86.74C18.52 86.91 18.41 87.03 18.29 87.08Z" fill="#FFFFFF" fill-opacity="1.000000" fill-rule="nonzero"/>
	<path id="Vector" d="M98.05 71.67C97.01 71.67 96.14 72.54 96.14 73.58C96.14 74.62 97.01 75.48 98.05 75.48C99.09 75.48 99.95 74.62 99.95 73.58C99.95 72.48 99.09 71.67 98.05 71.67Z" fill="#FFFFFF" fill-opacity="1.000000" fill-rule="evenodd"/>
	<path id="Vector" d="M11.83 71.67C12.86 71.67 13.73 72.54 13.73 73.58C13.73 74.62 12.86 75.48 11.83 75.48C10.79 75.48 9.92 74.62 9.92 73.58C9.92 72.48 10.79 71.67 11.83 71.67Z" fill="#FFFFFF" fill-opacity="1.000000" fill-rule="evenodd"/>
</svg>
