<svg width="58" height="57" viewBox="0 0 58 57" fill="none" xmlns="http://www.w3.org/2000/svg">
<path fill-rule="evenodd" clip-rule="evenodd" d="M54.104 41.4869C51.6705 45.8671 48.4254 48.6433 44.9482 50.7364C40.7371 53.2646 36.5304 50.0549 30.9192 50.0549C26.5227 50.0549 22.2097 52.1823 17.4522 50.6376C9.92435 48.1927 4.20936 38.874 4.20936 30.4471C4.20974 21.9932 5.97553 15.2568 13.2196 10.9003C19.5693 7.07825 28.2324 11.6927 28.2324 11.6927C28.2328 11.6921 22.0407 4.92906 13.573 7.97739C3.97156 11.4314 0.273438 20.8725 0.273438 30.6412C0.273438 40.3342 7.12705 52.4611 16.6688 55.7498C23.6252 57.6487 23.5328 55.0382 30.8268 55.0382C38.1209 55.0378 39.8949 58.23 44.8581 55.9935C51.3718 52.7593 55.0471 48.2033 57.593 41.4186C56.9941 41.4565 55.0385 41.4871 54.104 41.4869Z" fill="#008E62"/>
<path fill-rule="evenodd" clip-rule="evenodd" d="M32.7404 8.93681C32.8135 8.64471 33.1967 7.31962 32.6755 5.84049C32.1989 4.16267 30.5251 2.28834 28.8222 2.14983C28.8407 2.20434 29.4936 2.18472 30.6464 3.13614C31.6949 4.04641 33.2408 5.91218 32.7404 8.93681ZM32.2104 11.2957C32.4867 10.5635 32.5737 9.67934 32.5289 9.42588C32.529 9.4214 31.6718 8.94181 30.9181 8.15768C30.1186 7.34556 29.4205 6.22923 28.6148 4.2528C27.9099 2.66958 26.8295 1.93396 26.0587 1.59973C25.261 1.27037 24.7689 1.34055 24.5313 1.40006C25.0736 1.1832 27.4009 0.424218 30.2129 1.45714C31.5558 1.9653 32.9037 2.92844 33.6179 4.35714C34.3247 5.76307 34.3936 7.64339 33.0067 9.44458C33.0167 9.464 32.5872 10.4441 32.3334 11.5662C32.2835 11.5117 32.2285 11.4596 32.1708 11.413C32.185 11.3777 32.1962 11.3372 32.2104 11.2957Z" fill="#008E62"/>
<path fill-rule="evenodd" clip-rule="evenodd" d="M41.0165 4.35215C37.7991 5.57519 35.5883 8.41582 35.7115 8.4039C40.4806 3.70666 44.6283 3.77348 46.8436 3.98283C49.1819 4.36163 49.5891 4.87783 49.7286 4.97802C48.2655 3.15037 44.1369 2.94286 41.0165 4.35215ZM47.1724 10.3411C40.2807 16.7724 35.2964 9.60608 35.161 9.42188C34.7375 9.57224 33.3986 10.5919 32.6073 11.7969L32.1055 11.6636C33.4175 10.3068 34.7719 8.06947 34.7946 8.08251C36.9528 2.20494 40.3413 0.657409 43.1267 0.270904C45.9864 -0.0273191 48.245 0.843255 49.8732 1.82614C52.9104 3.7798 54.271 6.48757 54.7045 7.77875C54.3745 7.22819 52.8844 5.62674 47.1724 10.3411Z" fill="#008E62"/>
<path fill-rule="evenodd" clip-rule="evenodd" d="M33.6758 24.2807H40.9368V16.6768H47.1796V24.2807H54.4818V30.7788H47.1796V38.3357H40.9368V30.7788H33.6758V24.2807Z" fill="#008E62"/>
<path fill-rule="evenodd" clip-rule="evenodd" d="M33.7618 32.5753C33.7618 28.7064 33.0426 28.0191 31.2137 28.0191C30.434 28.0188 29.894 28.111 29.3229 28.2977L29.3231 35.8216C29.3553 36.477 30.0435 36.9465 31.2748 36.9465C32.9822 36.9463 33.7618 35.9496 33.7618 32.5753ZM24.7099 35.7923V28.2975C24.169 28.111 23.6018 28.0191 22.8235 28.0191C20.9932 28.0188 20.2736 28.707 20.2736 32.5753C20.2736 35.9496 21.0839 36.9465 22.7622 36.9465C24.0204 36.9463 24.7099 36.441 24.7099 35.7923ZM24.7099 18.0962H29.3231V24.2156C29.8942 24.0545 30.4926 24.0254 31.2137 24.0254C36.2794 24.025 38.1657 25.9285 38.1657 32.4553C38.1657 38.9105 35.8911 40.8751 32.2602 40.8751C30.9122 40.8751 30.0126 40.5311 29.3229 40.1619L29.3231 46.433H24.7099V40.1615C24.0485 40.531 23.1497 40.8751 21.7727 40.8751C18.1445 40.8751 15.8672 38.9106 15.8672 32.4553C15.8672 25.9281 17.7554 24.0254 22.8235 24.0254C23.5413 24.025 24.1393 24.0545 24.7099 24.216V18.0962Z" fill="#CE0C36"/>
</svg>
