<svg width="233" height="67" viewBox="0 0 233 67" fill="none" xmlns="http://www.w3.org/2000/svg">
<path fill-rule="evenodd" clip-rule="evenodd" d="M-3.01498e-09 9.85696e-09H233V67H-3.01498e-09V9.85696e-09Z" fill="#008E62"/>
<path fill-rule="evenodd" clip-rule="evenodd" d="M221.534 9.5526C222.966 9.5526 224.129 10.7628 224.129 12.2546C224.129 13.7473 222.966 14.9564 221.534 14.9564C220.099 14.9564 218.938 13.7473 218.938 12.2546C218.938 10.7628 220.099 9.5526 221.534 9.5526ZM227.394 22.6836V7.83838H220.051C218.275 7.83838 216.306 7.89756 215.189 9.55563C214.361 10.7964 214.3 12.7993 215.037 14.1004C215.372 14.7013 215.837 15.185 216.43 15.5584C216.807 15.7932 217.325 15.9911 217.977 16.1462C216.848 16.54 216.049 17.2635 215.515 18.3961L213.373 22.6836H218.354L220.707 18.1574C221.005 17.5707 221.27 17.189 221.504 17.0125C221.821 16.785 222.183 16.6717 222.585 16.6717H222.972V22.6836H227.394Z" fill="#FCCE00"/>
<path fill-rule="evenodd" clip-rule="evenodd" d="M78.4495 16.7783L82.3555 18.0049C82.0938 19.1438 81.6807 20.0981 81.1149 20.8605C80.549 21.625 79.8528 22.2016 79.0134 22.5895C78.1773 22.9763 77.1141 23.1733 75.8209 23.1733C74.2505 23.1724 72.9735 22.9361 71.9764 22.4636C70.9837 21.988 70.1279 21.1525 69.4043 19.9619C68.6842 18.7694 68.3223 17.2405 68.3223 15.3815C68.3223 12.9014 68.9564 10.9929 70.2237 9.65901C71.495 8.32715 73.2913 7.65967 75.6139 7.65967C77.4303 7.65967 78.858 8.04031 79.8994 8.80582C80.9357 9.5704 81.7105 10.7453 82.2139 12.3321L78.2881 13.2357C78.1513 12.7818 78.0069 12.4496 77.8563 12.2412C77.6036 11.8883 77.2983 11.6151 76.9395 11.4262C76.5761 11.2333 76.1739 11.1405 75.7277 11.1405C74.7131 11.1405 73.9383 11.5634 73.4015 12.4052C72.9972 13.0304 72.7922 14.0157 72.7922 15.3537C72.7922 17.0166 73.0339 18.1525 73.5195 18.7704C74.0057 19.3853 74.6875 19.6926 75.5673 19.6926C76.4194 19.6926 77.0627 19.445 77.4986 18.9458C77.9356 18.4496 78.2513 17.7254 78.4495 16.7794V16.7783Z" fill="#FCCE00"/>
<path fill-rule="evenodd" clip-rule="evenodd" d="M116.692 26.2002H113.129V22.9491H101.441V8.02783H105.862V19.2816H110.728V8.02783H115.152V19.5113H116.692V26.2002Z" fill="#FCCE00"/>
<path fill-rule="evenodd" clip-rule="evenodd" d="M132.177 7.93311V22.7951H128.029V14.6342L122.725 22.7951H118.541V7.93311H122.707V16.1573L128.053 7.93311H132.177Z" fill="#FCCE00"/>
<path fill-rule="evenodd" clip-rule="evenodd" d="M142.93 17.0487L141.368 11.6987L139.802 17.0487H142.93ZM143.866 20.2717H138.861L138.14 22.7241H133.633L139.013 7.83838H143.85L149.207 22.7241H144.582L143.866 20.2717Z" fill="#FCCE00"/>
<path fill-rule="evenodd" clip-rule="evenodd" d="M164.055 22.8381H159.609V11.5263H156.127V16.1389C156.127 18.0338 156.031 19.4267 155.839 20.3174C155.644 21.2072 155.192 21.8618 154.48 22.2763C153.77 22.6919 152.624 22.9022 151.037 22.9022C150.553 22.9022 149.996 22.8464 149.367 22.7381V19.6967H150.032C150.634 19.6967 151.06 19.5566 151.308 19.2813C151.557 19.005 151.68 18.4988 151.68 17.7616V7.83838H164.055V22.8381Z" fill="#FCCE00"/>
<path fill-rule="evenodd" clip-rule="evenodd" d="M182.449 7.64844H186.902V12.8924H191.778V7.64844H196.251V22.667H191.778V16.5849H186.902V22.667H182.449V7.64844Z" fill="#FCCE00"/>
<path fill-rule="evenodd" clip-rule="evenodd" d="M206.942 16.9851L205.391 11.672L203.835 16.9851H206.942ZM207.872 20.1857H202.899L202.186 22.6212H197.709L203.052 7.83838H207.854L213.177 22.6212H208.581L207.872 20.1857Z" fill="#FCCE00"/>
<path fill-rule="evenodd" clip-rule="evenodd" d="M91.4511 11.9445C93.2339 11.9445 94.6814 13.4497 94.6814 15.3078C94.6814 17.1638 93.2339 18.669 91.4511 18.669C89.6667 18.669 88.2199 17.1638 88.2199 15.3078C88.2199 13.4497 89.6667 11.9445 91.4511 11.9445ZM91.4511 7.65967C86.949 7.65967 84.0859 10.6202 84.0859 15.3078C84.0859 19.9944 87.1621 22.9712 91.6633 22.9712C96.1641 22.9712 98.8406 19.7798 98.8406 15.0943C98.8406 10.4077 95.9525 7.65967 91.4511 7.65967Z" fill="#FCCE00"/>
<path fill-rule="evenodd" clip-rule="evenodd" d="M173.324 15.3338C174.795 15.3338 175.988 16.5744 175.988 18.1061C175.988 19.6369 174.795 20.8796 173.324 20.8796C171.853 20.8796 170.661 19.6379 170.661 18.1061C170.661 16.5744 171.853 15.3338 173.324 15.3338ZM171.366 22.7862C174.613 22.7862 180.431 23.3265 180.311 18.1931C180.191 13.0598 174.934 13.466 171.366 13.4252V7.55371H166.85V22.7862H171.366Z" fill="#FCCE00"/>
<path fill-rule="evenodd" clip-rule="evenodd" d="M218.971 48.5809L216.173 39.0435L213.365 48.5809H218.971ZM220.647 54.3249H211.677L210.389 58.6982H202.307L211.951 32.1631H220.617L230.22 58.6982H221.929L220.647 54.3249ZM201.699 58.6982H192.783L189.669 51.8662C188.948 50.2418 188.387 49.2298 187.982 48.8219C187.581 48.4139 187.02 48.2103 186.311 48.2103V58.6982H178.403V32.1631H186.311V42.3546C186.998 42.3174 187.534 42.0644 187.916 41.5949C188.304 41.1254 188.9 39.773 189.717 37.543C190.313 35.8945 190.91 34.7083 191.518 33.9919C192.121 33.2746 193.106 32.7625 194.465 32.448C195.83 32.1319 197.965 31.9785 200.877 31.9785V37.5734H200.476C199.122 37.5734 198.12 37.8393 197.471 38.3704C196.821 38.9015 196.283 39.7609 195.867 40.9529C195.443 42.145 194.995 43.0279 194.512 43.6144C194.029 44.2009 193.367 44.6712 192.532 45.017C193.671 45.4051 194.668 46.073 195.516 47.0182C196.368 47.9694 197.268 49.4448 198.221 51.447L201.699 58.6982ZM152.56 32.1631H173.745V37.8334H160.504V42.0585H172.779V47.4687H160.504V52.6944H174.139V58.6982H152.56V32.1631ZM124.928 32.1631H149.011V38.7229H140.923V58.6982H133.015V38.7229H124.928V32.1631ZM121.456 58.6982H113.548V38.6858H104.852V58.6982H96.943V32.1631H121.456V58.6982ZM83.1599 48.5809L80.363 39.0435L77.5543 48.5809H83.1599ZM84.8361 54.3249H75.866L74.5773 58.6982H66.4961L76.1402 32.1631H84.8063L94.4086 58.6982H86.119L84.8361 54.3249Z" fill="#CE0C36"/>
<path fill-rule="evenodd" clip-rule="evenodd" d="M1.5625 1.87793H62.3052V65.1224H1.5625V1.87793Z" fill="#FEFEFE"/>
<path fill-rule="evenodd" clip-rule="evenodd" d="M57.104 46.4869C54.6705 50.8671 51.4254 53.6433 47.9482 55.7364C43.7371 58.2646 39.5304 55.0549 33.9192 55.0549C29.5227 55.0549 25.2097 57.1823 20.4522 55.6376C12.9243 53.1927 7.20936 43.874 7.20936 35.4471C7.20974 26.9932 8.97553 20.2568 16.2196 15.9003C22.5693 12.0782 31.2324 16.6927 31.2324 16.6927C31.2328 16.6921 25.0407 9.92906 16.573 12.9774C6.97156 16.4314 3.27344 25.8725 3.27344 35.6412C3.27344 45.3342 10.127 57.4611 19.6688 60.7498C26.6252 62.6487 26.5328 60.0382 33.8268 60.0382C41.1209 60.0378 42.8949 63.23 47.8581 60.9935C54.3718 57.7593 58.0471 53.2033 60.593 46.4186C59.9941 46.4565 58.0385 46.4871 57.104 46.4869Z" fill="#008E62"/>
<path fill-rule="evenodd" clip-rule="evenodd" d="M35.7404 13.9368C35.8135 13.6447 36.1967 12.3196 35.6755 10.8405C35.1989 9.16267 33.5251 7.28834 31.8222 7.14983C31.8407 7.20434 32.4936 7.18472 33.6464 8.13614C34.6949 9.04641 36.2408 10.9122 35.7404 13.9368ZM35.2104 16.2957C35.4867 15.5635 35.5737 14.6793 35.5289 14.4259C35.529 14.4214 34.6718 13.9418 33.9181 13.1577C33.1186 12.3456 32.4205 11.2292 31.6148 9.2528C30.9099 7.66958 29.8295 6.93396 29.0587 6.59973C28.261 6.27037 27.7689 6.34055 27.5313 6.40006C28.0736 6.1832 30.4009 5.42422 33.2129 6.45714C34.5558 6.9653 35.9037 7.92844 36.6179 9.35714C37.3247 10.7631 37.3936 12.6434 36.0067 14.4446C36.0167 14.464 35.5872 15.4441 35.3334 16.5662C35.2835 16.5117 35.2285 16.4596 35.1708 16.413C35.185 16.3777 35.1962 16.3372 35.2104 16.2957Z" fill="#008E62"/>
<path fill-rule="evenodd" clip-rule="evenodd" d="M44.0165 9.35215C40.7991 10.5752 38.5883 13.4158 38.7115 13.4039C43.4806 8.70666 47.6283 8.77348 49.8436 8.98283C52.1819 9.36163 52.5891 9.87783 52.7286 9.97802C51.2655 8.15037 47.1369 7.94286 44.0165 9.35215ZM50.1724 15.3411C43.2807 21.7724 38.2964 14.6061 38.161 14.4219C37.7375 14.5722 36.3986 15.5919 35.6073 16.7969L35.1055 16.6636C36.4175 15.3068 37.7719 13.0695 37.7946 13.0825C39.9528 7.20494 43.3413 5.65741 46.1267 5.2709C48.9864 4.97268 51.245 5.84326 52.8732 6.82614C55.9104 8.7798 57.271 11.4876 57.7045 12.7788C57.3745 12.2282 55.8844 10.6267 50.1724 15.3411Z" fill="#008E62"/>
<path fill-rule="evenodd" clip-rule="evenodd" d="M36.6758 29.2807H43.9368V21.6768H50.1796V29.2807H57.4818V35.7788H50.1796V43.3357H43.9368V35.7788H36.6758V29.2807Z" fill="#008E62"/>
<path fill-rule="evenodd" clip-rule="evenodd" d="M36.7618 37.5753C36.7618 33.7064 36.0426 33.0191 34.2137 33.0191C33.434 33.0188 32.894 33.111 32.3229 33.2977L32.3231 40.8216C32.3553 41.477 33.0435 41.9465 34.2748 41.9465C35.9822 41.9463 36.7618 40.9496 36.7618 37.5753ZM27.7099 40.7923V33.2975C27.169 33.111 26.6018 33.0191 25.8235 33.0191C23.9932 33.0188 23.2736 33.707 23.2736 37.5753C23.2736 40.9496 24.0839 41.9465 25.7622 41.9465C27.0204 41.9463 27.7099 41.441 27.7099 40.7923ZM27.7099 23.0962H32.3231V29.2156C32.8942 29.0545 33.4926 29.0254 34.2137 29.0254C39.2794 29.025 41.1657 30.9285 41.1657 37.4553C41.1657 43.9105 38.8911 45.8751 35.2602 45.8751C33.9122 45.8751 33.0126 45.5311 32.3229 45.1619L32.3231 51.433H27.7099V45.1615C27.0485 45.531 26.1497 45.8751 24.7727 45.8751C21.1445 45.8751 18.8672 43.9106 18.8672 37.4553C18.8672 30.9281 20.7554 29.0254 25.8235 29.0254C26.5413 29.025 27.1393 29.0545 27.7099 29.216V23.0962Z" fill="#CE0C36"/>
</svg>
