<svg width="17.250000" height="18.000000" viewBox="0 0 17.25 18" fill="none" xmlns="http://www.w3.org/2000/svg" xmlns:xlink="http://www.w3.org/1999/xlink">
	<desc>
			Created with Pixso.
	</desc>
	<defs/>
	<path id="Vector" d="M3.47 7.79C4.85 10.62 7.07 12.94 9.78 14.38L11.89 12.17C12.16 11.9 12.53 11.82 12.87 11.93C13.94 12.3 15.09 12.5 16.29 12.5C16.82 12.5 17.25 12.94 17.25 13.5L17.25 17C17.25 17.55 16.82 18 16.29 18C7.29 18 0 10.39 0 1C0 0.44 0.43 0 0.95 0L4.31 0C4.84 0 5.27 0.44 5.27 1C5.27 2.24 5.46 3.45 5.81 4.57C5.92 4.91 5.84 5.31 5.58 5.58L3.47 7.79Z" fill="#000000" fill-opacity="1.000000" fill-rule="nonzero"/>
</svg>
