<svg width="26" height="26" viewBox="0 0 26 26"  xmlns="http://www.w3.org/2000/svg">
<path fill-rule="evenodd" clip-rule="evenodd" d="M18.5825 15.3564C19.2592 15.3564 19.8984 15.6499 20.4282 16.1987L23.4257 19.1938C23.977 19.7378 24.2666 20.3848 24.2666 21.0586C24.2666 21.7275 23.9829 22.3794 23.4423 22.9395C23.2075 23.1841 22.9672 23.418 22.7324 23.6406L22.6616 23.709C22.3432 24.0151 22.041 24.3057 21.7768 24.6245C21.7739 24.6304 21.77 24.6343 21.7656 24.6387C21.7617 24.6426 21.7573 24.6465 21.7548 24.6519C20.9248 25.5488 19.8657 26 18.604 26C18.4951 26 18.375 25.9946 18.2602 25.9893C16.3872 25.8696 14.7109 25.1685 13.455 24.5757C10.1679 22.9941 7.29 20.749 4.8984 17.9058C2.92721 15.5464 1.60592 13.3447 0.721153 10.9692C0.360802 10.0015 -0.108436 8.52295 0.022423 6.93555C0.109825 5.95166 0.508263 5.104 1.20748 4.40771L3.06393 2.54346L3.07467 2.53271C3.62106 2.01074 4.2651 1.7334 4.93111 1.7334C5.59762 1.7334 6.23092 2.01074 6.7607 2.53271C7.11568 2.85889 7.45943 3.20654 7.78707 3.54346C7.95113 3.71777 8.12545 3.8916 8.29488 4.06006L9.78561 5.54395C10.9321 6.68555 10.9321 8.16406 9.78561 9.30566C9.70895 9.38184 9.63277 9.45947 9.5566 9.53711L9.32711 9.76807L9.20943 9.88672C8.84225 10.2578 8.46432 10.6392 8.06002 11.0073C8.39303 11.7412 8.85201 12.4644 9.53463 13.3232C10.9433 15.0464 12.4121 16.3784 14.0283 17.4004C14.1806 17.4946 14.3588 17.5835 14.5473 17.6777L14.5688 17.6885L14.687 17.749C14.7866 17.7998 14.8881 17.8516 14.9892 17.9058L16.7148 16.1934C17.2666 15.6445 17.9106 15.3564 18.5825 15.3564ZM21.8466 22.4595C22.0332 22.2793 22.2099 22.1079 22.3828 21.9224C22.9394 21.3462 22.9394 20.7754 22.3774 20.2212L19.3686 17.2256L19.3574 17.2148C19.1884 17.0303 18.9096 16.8179 18.5713 16.8179C18.2275 16.8179 17.9326 17.041 17.7465 17.2256L15.8794 19.085C15.7866 19.1772 15.5024 19.46 15.0493 19.46C14.8691 19.46 14.6943 19.4165 14.5088 19.3242L14.4775 19.3057C14.4663 19.2988 14.455 19.2915 14.4433 19.2861C14.2846 19.188 14.0991 19.0957 13.9028 18.998C13.684 18.8892 13.455 18.7749 13.2309 18.6338C11.478 17.5303 9.88912 16.0898 8.38229 14.2412L8.37691 14.2358C7.54684 13.1865 7.00045 12.3062 6.61324 11.3711L6.59664 11.3223C6.4985 11.0122 6.41109 10.5557 6.88033 10.0884C6.88424 10.0811 6.8901 10.0762 6.89645 10.0708L6.90768 10.061C7.38277 9.63721 7.81979 9.20215 8.27828 8.73438C8.38717 8.63037 8.49313 8.52344 8.59957 8.41602L8.74801 8.26709C9.32662 7.69092 9.32662 7.1582 8.74801 6.58203L7.25729 5.09766C7.17428 5.01221 7.09078 4.92822 7.00826 4.84521C6.91744 4.75293 6.82711 4.66211 6.73873 4.5708C6.40572 4.22803 6.08883 3.90723 5.75582 3.59766L5.73922 3.58105C5.56441 3.40723 5.28609 3.20068 4.94234 3.20068C4.66354 3.20068 4.37984 3.33643 4.11227 3.58643L2.24996 5.44043C1.79684 5.8916 1.55123 6.41895 1.49654 7.05469C1.41451 8.0498 1.60055 9.10449 2.10836 10.458C2.93258 12.6758 4.1777 14.7417 6.03951 16.9756C8.29488 19.6558 11.0088 21.7705 14.0991 23.2598C15.2295 23.7979 16.7368 24.4287 18.3584 24.5317C18.4404 24.5371 18.5278 24.5371 18.6093 24.5371C19.4614 24.5371 20.1113 24.2603 20.6626 23.6729C21.0009 23.2764 21.3618 22.9229 21.7163 22.5859L21.8466 22.4595Z" />
<path d="M14.4737 6.66321C15.9049 6.90357 17.2049 7.58098 18.2428 8.61893C19.2807 9.65689 19.9525 10.9571 20.1984 12.3883C20.2584 12.7489 20.5698 13.0002 20.9249 13.0002C20.9686 13.0002 21.0068 12.9947 21.0505 12.9893C21.4547 12.9237 21.7224 12.5413 21.6568 12.1371C21.3619 10.4053 20.5425 8.82652 19.2916 7.57551C18.0407 6.3245 16.462 5.50507 14.7304 5.21007C14.3262 5.14451 13.9493 5.4122 13.8783 5.81099C13.8073 6.20978 14.0695 6.59765 14.4737 6.66321Z" />
<path d="M25.9889 11.2906C25.5083 8.47074 24.1799 5.90476 22.1386 3.86278C20.0974 1.82081 17.5323 0.491901 14.7135 0.0111182C14.3193 -0.0591085 13.9467 0.210994 13.8765 0.605344C13.8117 1.0051 14.0763 1.37784 14.4759 1.44807C16.9923 1.87483 19.2874 3.06868 21.1126 4.88917C22.9379 6.71507 24.1259 9.01095 24.5525 11.5283C24.6119 11.8848 24.9197 12.1333 25.2707 12.1333C25.3139 12.1333 25.3517 12.1279 25.3949 12.1225C25.7891 12.0631 26.0591 11.685 25.9889 11.2906Z" />
</svg>
