<svg width="9" height="12" viewBox="0 0 9 12" fill="none" xmlns="http://www.w3.org/2000/svg">
<path d="M4.5005 3.2998C3.83036 3.2998 3.28516 3.85775 3.28516 4.54355C3.28516 5.22934 3.83036 5.78729 4.5005 5.78729C5.17064 5.78729 5.71584 5.22934 5.71584 4.54355C5.71584 3.85775 5.17066 3.2998 4.5005 3.2998Z" fill="#008E62"/>
<path d="M4.5 0C2.01871 0 -2.55504e-08 2.06585 -2.55504e-08 4.60513C-2.55504e-08 5.68111 0.362469 6.67198 0.968977 7.45681L4.5 12L8.03102 7.45681C8.63753 6.67198 9 5.68111 9 4.60513C9 2.06585 6.98129 0 4.5 0ZM4.5 6.61662C3.3831 6.61662 2.47443 5.68672 2.47443 4.54372C2.47443 3.40072 3.3831 2.47082 4.5 2.47082C5.6169 2.47082 6.52557 3.40072 6.52557 4.54372C6.52557 5.68672 5.61693 6.61662 4.5 6.61662Z" fill="#008E62"/>
</svg>
