<svg width="35" height="35" viewBox="0 0 35 35" fill="none" xmlns="http://www.w3.org/2000/svg">
<path d="M9.2522 30.0812L9.82436 30.365C12.2087 31.7839 14.8789 32.446 17.5493 32.446C25.9416 32.446 32.8081 25.6352 32.8081 17.3109C32.8081 13.338 31.1867 9.45958 28.3258 6.6217C25.4647 3.78383 21.6499 2.17578 17.5493 2.17578C9.15691 2.17578 2.29032 8.98658 2.38575 17.4056C2.38575 20.2433 3.24406 22.9867 4.67452 25.3514L5.05596 25.9191L3.5302 31.5002L9.2522 30.0812Z" fill="#00E676"/>
<path d="M29.9455 5.1081C26.7029 1.79735 22.2207 0 17.643 0C7.91562 0 0.0954282 7.85132 0.19072 17.4053C0.19072 20.4324 1.04903 23.3649 2.47963 26.0135L0 35L9.25066 32.6351C11.8256 34.0541 14.6865 34.7163 17.5477 34.7163C27.1798 34.7163 35 26.8648 35 17.311C35 12.6757 33.188 8.32432 29.9456 5.1081H29.9455ZM17.643 31.7839C15.0681 31.7839 12.4932 31.1219 10.2997 29.7975L9.72752 29.5137L4.19624 30.9326L5.62671 25.5408L5.24527 24.9731C1.04903 18.257 3.05179 9.36485 9.91824 5.20262C16.7847 1.04052 25.6539 3.02705 29.8502 9.83785C34.0463 16.6486 32.0435 25.446 25.1772 29.6082C22.9836 31.0271 20.3134 31.7838 17.643 31.7838V31.7839ZM26.0354 21.284L24.9863 20.811C24.9863 20.811 23.4606 20.1488 22.5068 19.6758C22.4114 19.6758 22.3161 19.5812 22.2207 19.5812C21.9345 19.5812 21.7438 19.6758 21.5531 19.7705C21.5531 19.7705 21.4578 19.865 20.1226 21.3785C20.0272 21.5677 19.8365 21.6624 19.6458 21.6624H19.5503C19.455 21.6624 19.2643 21.5677 19.1689 21.4732L18.692 21.284C17.643 20.811 16.6894 20.2434 15.9264 19.4867C15.7357 19.2975 15.4495 19.1083 15.2588 18.9191C14.5912 18.257 13.9236 17.5001 13.4469 16.6488L13.3515 16.4596C13.2562 16.365 13.2562 16.2704 13.1608 16.0813C13.1608 15.8921 13.1608 15.7029 13.2562 15.6083C13.2562 15.6083 13.6376 15.1353 13.9236 14.8516C14.1145 14.6623 14.2098 14.3786 14.4005 14.1894C14.5912 13.9056 14.6866 13.5272 14.5912 13.2434C14.4959 12.7704 13.3515 10.2163 13.0655 9.64881C12.8746 9.36498 12.684 9.27046 12.3979 9.17581H11.3488C11.158 9.17581 10.9674 9.27046 10.7766 9.27046L10.6811 9.36498C10.4904 9.45964 10.2997 9.64881 10.109 9.74333C9.91824 9.93264 9.82282 10.1217 9.6321 10.311C8.96451 11.1623 8.58307 12.2029 8.58307 13.2434C8.58307 14.0001 8.77379 14.7569 9.05994 15.4191L9.15537 15.7029C10.0137 17.5001 11.158 19.1083 12.684 20.5272L13.0655 20.9055C13.3515 21.1894 13.6376 21.3785 13.8283 21.6622C15.8311 23.3651 18.1199 24.5948 20.6948 25.2569C20.9809 25.3515 21.3624 25.3515 21.6485 25.4461H22.6021C23.079 25.4461 23.6512 25.2569 24.0327 25.0678C24.3187 24.8786 24.5095 24.8786 24.7002 24.6894L24.891 24.5001C25.0818 24.3109 25.2725 24.2164 25.4632 24.0272C25.6539 23.8381 25.8446 23.6489 25.9401 23.4596C26.1308 23.0812 26.2261 22.6082 26.3215 22.1354V21.4732C26.3215 21.4732 26.2261 21.3785 26.0354 21.284Z" fill="white"/>
</svg>
