<svg width="35" height="35" viewBox="0 0 35 35" fill="none" xmlns="http://www.w3.org/2000/svg">
<path d="M16.5782 0C13.615 0.0408341 7.24872 0.501677 3.69191 3.59778C1.05006 6.10616 0.118184 9.77103 0.0213055 14.3167C-0.0755726 18.861 -0.201668 27.3822 8.45893 29.6923H8.46354L8.45739 33.2157C8.45739 33.2157 8.4005 34.6405 9.39542 34.9322C10.5902 35.2851 11.293 34.203 12.4402 33.0334C13.066 32.3917 13.9348 31.4525 14.5884 30.7292C20.5087 31.2046 25.0635 30.1225 25.5833 29.9635C26.7766 29.596 33.5427 28.7735 34.6437 20.2552C35.7816 11.4759 34.0901 5.91949 31.0454 3.41694C30.1289 2.61484 26.4229 0.0627096 18.1667 0.0291672C18.1667 0.0291672 17.5593 -0.00729181 16.5721 0.00437509L16.5782 0ZM16.6674 2.46901C17.5055 2.46317 18.0206 2.4938 18.0206 2.4938C25.0051 2.52297 28.3497 4.51801 29.1263 5.18594C31.702 7.27869 33.0168 12.2852 32.0572 19.6193V19.6223C31.1284 26.7362 25.6387 27.1824 24.6268 27.4901C24.1962 27.6214 20.195 28.5649 15.165 28.2543C15.165 28.2543 11.4191 32.5419 10.2489 33.6561C10.0643 33.8311 9.84905 33.8996 9.70758 33.8661C9.50767 33.818 9.45232 33.5919 9.45385 33.2623L9.48461 27.4026C2.16185 25.4776 2.58781 18.2266 2.67238 14.4305C2.75542 10.6329 3.50738 7.52077 5.74173 5.42802C8.75572 2.84235 14.1594 2.48505 16.6751 2.46755L16.6674 2.46901ZM17.2518 6.26367C17.1326 6.26937 17.0201 6.31811 16.9376 6.3999C16.8551 6.48168 16.8086 6.59032 16.8079 6.70352C16.8071 6.81673 16.852 6.92594 16.9334 7.00875C17.0148 7.09156 17.1265 7.1417 17.2456 7.14889C19.7429 7.16348 21.7758 7.93203 23.4397 9.4706C25.0897 10.9961 25.9308 13.0698 25.9508 15.7911C25.9539 16.0347 26.1661 16.2287 26.4229 16.2287C26.5458 16.2271 26.6631 16.1797 26.7495 16.0968C26.8358 16.0138 26.8842 15.9019 26.8842 15.7853C26.8627 12.8919 25.9339 10.541 24.0917 8.83768C22.2618 7.14598 19.9521 6.28117 17.2533 6.26367H17.2518ZM11.1623 7.27723C10.8354 7.2343 10.5026 7.29424 10.215 7.44786L10.1997 7.45077C9.53843 7.81099 8.94486 8.27037 8.4374 8.80997C8.43433 8.8158 8.42817 8.8158 8.4251 8.82163C8.01452 9.29268 7.77924 9.75207 7.71773 10.2042C7.70569 10.2716 7.70208 10.3401 7.70697 10.4083C7.70697 10.6067 7.7408 10.8021 7.80692 10.9917L7.82692 11.0063C8.03451 11.7063 8.55427 12.8671 9.6799 14.8038C10.3258 15.9239 11.0685 16.9914 11.9035 17.9918C12.3187 18.4935 12.7646 18.9733 13.2413 19.4268L13.4443 19.6193C13.921 20.0685 14.4285 20.4944 14.9575 20.8881C16.0132 21.6802 17.1377 22.3861 18.319 22.9984C20.3611 24.0674 21.5882 24.5588 22.3233 24.7572L22.3386 24.7776C22.6062 24.8605 22.8894 24.8879 23.169 24.8578C23.6457 24.8053 24.1332 24.5807 24.6268 24.1869C24.633 24.1869 24.6314 24.184 24.6391 24.1796C25.2081 23.6984 25.6894 23.1296 26.0692 22.5054L26.0738 22.4909C26.4198 21.8609 26.3045 21.2629 25.797 20.8575C25.7909 20.8575 24.7237 20.0116 24.2024 19.6471C23.6488 19.2752 23.0798 18.9295 22.4909 18.6116C21.7066 18.196 20.9039 18.457 20.5718 18.8654L19.8844 19.6879C19.5307 20.1006 18.8741 20.0466 18.8741 20.0466C14.0763 18.8858 12.7923 14.2788 12.7923 14.2788C12.7923 14.2788 12.7354 13.6576 13.1737 13.3221L14.0394 12.6688C14.4654 12.3552 14.7406 11.594 14.3008 10.8488C13.9668 10.2892 13.6024 9.74641 13.209 9.22268C12.7961 8.71017 12.3705 8.2069 11.9327 7.71328C11.7399 7.48426 11.4652 7.33018 11.1608 7.28015L11.1623 7.27723ZM18.0668 8.56059C17.9432 8.55711 17.8232 8.60032 17.7333 8.68073C17.6433 8.76114 17.5907 8.87215 17.587 8.98935C17.5833 9.10654 17.6289 9.22032 17.7137 9.30565C17.7985 9.39098 17.9155 9.44087 18.0391 9.44435C19.8229 9.56832 21.1407 10.124 22.1064 11.1215C23.0752 12.1248 23.5365 13.344 23.4996 14.8695C23.5064 14.9816 23.5574 15.0872 23.6426 15.1653C23.7279 15.2433 23.841 15.2879 23.9594 15.2903C24.0778 15.2927 24.1929 15.2527 24.2815 15.1782C24.3702 15.1037 24.4259 15.0002 24.4377 14.8884C24.4761 13.1748 23.9241 11.6902 22.7969 10.5221C21.659 9.34081 20.0643 8.69476 18.1068 8.55913H18.0699L18.0668 8.56059ZM18.7788 10.9377C18.6603 10.9394 18.547 10.9834 18.4614 11.0611C18.3758 11.1387 18.3244 11.2442 18.3174 11.3563C18.3051 11.5998 18.502 11.8084 18.7603 11.8229C19.5645 11.8638 20.1058 12.0782 20.4718 12.4384C20.8409 12.7957 21.0685 13.3426 21.1115 14.1359C21.1274 14.2459 21.1861 14.3462 21.2761 14.4171C21.3662 14.4879 21.481 14.5242 21.5978 14.5187C21.7147 14.5132 21.8252 14.4664 21.9074 14.3874C21.9896 14.3084 22.0376 14.2031 22.0419 14.0922C21.9957 13.153 21.7112 12.3742 21.15 11.8215C20.5856 11.2702 19.7768 10.9844 18.8126 10.9363H18.7849L18.7788 10.9377Z" fill="white"/>
</svg>
