<svg width="35" height="54" viewBox="0 0 35 54" fill="none" xmlns="http://www.w3.org/2000/svg">
<path d="M34.888 47.1564L28.0781 28.3766L33.2654 25.7703C34.0767 25.4852 34.3471 24.6298 34.0767 24.0594L31.9131 17.786L34.0767 11.5127C34.3471 10.9425 33.8063 10.0869 33.2654 9.80179L27.5859 6.95034L24.8813 0.962309C24.6109 0.106923 23.7996 -0.178205 23.2586 0.106923L17.3086 2.38812L11.3588 0.106923C10.818 -0.178205 10.0065 0.392052 9.73611 0.962309L7.03165 6.95034L1.35215 9.80195C0.540861 10.0871 0.270431 10.9425 0.540861 11.5129L2.70446 17.7862L0.540861 24.0594C0.270431 24.6296 0.811291 25.4852 1.35215 25.7703L6.46375 28.3366L0 46.8713C0 47.4416 0 48.0118 0.270431 48.2971C0.540861 48.8674 1.08172 48.8674 1.62274 48.8674L8.11353 47.7268L12.1703 53.1446C12.4407 53.4297 12.7112 53.7149 13.252 53.7149H13.5224C14.0633 53.7149 14.3337 53.4297 14.6042 52.8595L17.3438 45.0065L20.2835 53.1446C20.5539 53.7149 20.8244 54 21.3652 54H21.6357C22.1765 54 22.447 53.7149 22.7174 53.4297L26.7742 48.012L33.2649 49.1525C33.8058 49.1525 34.3467 48.8674 34.6172 48.5822C34.888 48.2969 35.1584 47.7267 34.888 47.1564ZM3.78633 11.798L8.92482 9.2317C9.19525 9.2317 9.46568 8.94657 9.46568 8.66144L11.8997 3.24367L17.0382 5.23973H17.8495L22.988 3.24367L25.422 8.66144C25.422 8.94657 25.6924 9.2317 25.9629 9.2317L31.1013 11.798L29.2082 17.2158V18.0712L31.1013 23.4889L25.9629 26.0553C25.6924 26.0553 25.422 26.3404 25.422 26.6255L22.988 32.0433L17.8495 30.0472H17.3086H17.0382L11.8997 32.0433L9.46568 26.6255C9.46568 26.3404 9.19525 26.0553 8.92482 26.0553L3.78633 23.4889L5.6795 18.0712V17.2158L3.78633 11.798ZM12.9816 49.7227L9.73611 45.4455C9.46568 44.8752 8.92482 44.8752 8.38381 44.8752L3.24532 45.7306L8.25403 31.3279L9.73611 34.6099C10.0065 35.4653 10.8178 35.7505 11.3588 35.4653L17.3088 33.1841L18.5663 33.6661L12.9816 49.7227ZM26.2336 44.5901C25.6927 44.5901 25.1519 44.8752 24.8813 45.1604L21.6358 49.4376L18.734 41.0201L20.9761 34.59L23.2587 35.4653H23.7996C24.07 35.4653 24.6109 35.1802 24.8813 34.6099L26.4201 31.2053L31.3719 45.4455L26.2336 44.5901Z" fill="#038057"/>
<path d="M34.888 47.1564L28.0781 28.3766L33.2654 25.7703C34.0767 25.4852 34.3471 24.6298 34.0767 24.0594L31.9131 17.786L34.0767 11.5127C34.3471 10.9425 33.8063 10.0869 33.2654 9.80179L27.5859 6.95034L24.8813 0.962309C24.6109 0.106923 23.7996 -0.178205 23.2586 0.106923L17.3086 2.38812L11.3588 0.106923C10.818 -0.178205 10.0065 0.392052 9.73611 0.962309L7.03165 6.95034L1.35215 9.80195C0.540861 10.0871 0.270431 10.9425 0.540861 11.5129L2.70446 17.7862L0.540861 24.0594C0.270431 24.6296 0.811291 25.4852 1.35215 25.7703L6.46375 28.3366L0 46.8713C0 47.4416 0 48.0118 0.270431 48.2971C0.540861 48.8674 1.08172 48.8674 1.62274 48.8674L8.11353 47.7268L12.1703 53.1446C12.4407 53.4297 12.7112 53.7149 13.252 53.7149H13.5224C14.0633 53.7149 14.3337 53.4297 14.6042 52.8595L17.3438 45.0065L20.2835 53.1446C20.5539 53.7149 20.8244 54 21.3652 54H21.6357C22.1765 54 22.447 53.7149 22.7174 53.4297L26.7742 48.012L33.2649 49.1525C33.8058 49.1525 34.3467 48.8674 34.6172 48.5822C34.888 48.2969 35.1584 47.7267 34.888 47.1564ZM3.78633 11.798L8.92482 9.2317C9.19525 9.2317 9.46568 8.94657 9.46568 8.66144L11.8997 3.24367L17.0382 5.23973H17.8495L22.988 3.24367L25.422 8.66144C25.422 8.94657 25.6924 9.2317 25.9629 9.2317L31.1013 11.798L29.2082 17.2158V18.0712L31.1013 23.4889L25.9629 26.0553C25.6924 26.0553 25.422 26.3404 25.422 26.6255L22.988 32.0433L17.8495 30.0472H17.3086H17.0382L11.8997 32.0433L9.46568 26.6255C9.46568 26.3404 9.19525 26.0553 8.92482 26.0553L3.78633 23.4889L5.6795 18.0712V17.2158L3.78633 11.798ZM12.9816 49.7227L9.73611 45.4455C9.46568 44.8752 8.92482 44.8752 8.38381 44.8752L3.24532 45.7306L8.25403 31.3279L9.73611 34.6099C10.0065 35.4653 10.8178 35.7505 11.3588 35.4653L17.3088 33.1841L18.5663 33.6661L12.9816 49.7227ZM26.2336 44.5901C25.6927 44.5901 25.1519 44.8752 24.8813 45.1604L21.6358 49.4376L18.734 41.0201L20.9761 34.59L23.2587 35.4653H23.7996C24.07 35.4653 24.6109 35.1802 24.8813 34.6099L26.4201 31.2053L31.3719 45.4455L26.2336 44.5901Z" stroke="#E8ECF4"/>
<path d="M23.818 17.8726C23.818 21.4847 20.9591 24.3586 17.4988 24.3586C14.0386 24.3586 11.1797 21.4847 11.1797 17.8726C11.1797 14.2606 14.0386 11.3867 17.4988 11.3867C20.9591 11.3867 23.818 14.2606 23.818 17.8726Z" stroke="#FFCB00" stroke-width="3"/>
</svg>
