<svg width="55" height="53" viewBox="0 0 55 53" fill="none" xmlns="http://www.w3.org/2000/svg">
<path d="M37.4118 14.6816H42.0306C42.9287 14.6816 44.7249 15.2226 44.7249 17.3862C44.7249 19.5498 44.7249 20.8635 44.7249 21.2498C44.34 21.8938 45.2637 25.4226 52.038 34.3862C56.2719 44.818 45.4947 50.9998 40.1061 50.9998C35.7952 50.9998 22.1441 50.9998 15.8574 50.9998" stroke="#038057" stroke-width="3"/>
<path d="M17.5902 14.6816H12.9714C12.0733 14.6816 10.2771 15.2226 10.2771 17.3862C10.2771 19.5498 10.2771 20.8635 10.2771 21.2498C10.662 21.8938 9.73821 25.4226 2.96398 34.3862C-1.26992 44.818 9.50727 50.9998 14.8959 50.9998C19.2067 50.9998 32.8578 50.9998 39.1445 50.9998" stroke="#038057" stroke-width="3"/>
<path d="M16.2422 14.6825H28.9439C30.4835 14.8113 33.4087 13.9098 32.7929 9.27344" stroke="#038057" stroke-width="3"/>
<path d="M28.9434 14.6825H24.4088C22.8692 14.8113 19.9439 13.9098 20.5598 9.27344" stroke="#038057" stroke-width="3"/>
<path d="M24.3648 5.02273C24.3648 6.97366 22.7908 8.54546 20.8611 8.54546C18.9314 8.54546 17.3574 6.97366 17.3574 5.02273C17.3574 3.0718 18.9314 1.5 20.8611 1.5C22.7908 1.5 24.3648 3.07181 24.3648 5.02273Z" stroke="#038057" stroke-width="3"/>
<path d="M35.9117 5.02273C35.9117 6.97366 34.3377 8.54546 32.408 8.54546C30.4783 8.54546 28.9043 6.97366 28.9043 5.02273C28.9043 3.0718 30.4783 1.5 32.408 1.5C34.3377 1.5 35.9117 3.07181 35.9117 5.02273Z" stroke="#038057" stroke-width="3"/>
<path d="M38.9898 39.0226C38.9898 40.9735 37.4158 42.5453 35.4861 42.5453C33.5564 42.5453 31.9824 40.9735 31.9824 39.0226C31.9824 37.0717 33.5564 35.4999 35.4861 35.4999C37.4158 35.4999 38.9898 37.0717 38.9898 39.0226Z" stroke="#FFCB00" stroke-width="3"/>
<path d="M23.5933 26.6593C23.5933 28.6103 22.0193 30.1821 20.0896 30.1821C18.16 30.1821 16.5859 28.6103 16.5859 26.6593C16.5859 24.7084 18.16 23.1366 20.0896 23.1366C22.0193 23.1366 23.5933 24.7084 23.5933 26.6593Z" stroke="#FFCB00" stroke-width="3"/>
<path d="M20.8613 41.3411L34.3328 24.7274" stroke="#FFCB00" stroke-width="3"/>
</svg>
