<svg width="81" height="56" viewBox="0 0 81 56" fill="none" xmlns="http://www.w3.org/2000/svg">
<path d="M66.5232 28C66.5232 42.6387 54.6836 54.5 40.0858 54.5C25.488 54.5 13.6484 42.6387 13.6484 28C13.6484 13.3613 25.488 1.5 40.0858 1.5C54.6836 1.5 66.5232 13.3613 66.5232 28Z" stroke="#038057" stroke-width="3"/>
<rect width="23.4968" height="13.7894" transform="matrix(0.86554 0.50084 -0.499161 0.866509 6.88281 8.11694)" fill="white"/>
<path d="M14.404 21.1377L18.3267 30.1582L8.57083 29.0527L14.404 21.1377Z" fill="#038057"/>
<rect width="23.4856" height="13.7959" transform="matrix(-0.98088 -0.194611 0.193775 -0.981046 78.3262 37.5419)" fill="white"/>
<path d="M67.0213 27.6451L60.4071 20.373L69.9979 18.2681L67.0213 27.6451Z" fill="#038057"/>
<path d="M33.312 24.3624H26.4897V23.0089L29.7095 19.5773C30.1515 19.0942 30.4774 18.6726 30.687 18.3126C30.9012 17.9526 31.0083 17.6108 31.0083 17.2872C31.0083 16.8452 30.8966 16.4988 30.6733 16.2482C30.45 15.993 30.131 15.8654 29.7163 15.8654C29.2697 15.8654 28.9165 16.0203 28.6567 16.3302C28.4015 16.6355 28.2739 17.0389 28.2739 17.5402H26.2915C26.2915 16.934 26.435 16.3803 26.7222 15.879C27.0138 15.3777 27.424 14.9858 27.9526 14.7032C28.4813 14.4161 29.0806 14.2726 29.7505 14.2726C30.7759 14.2726 31.5711 14.5187 32.1362 15.0109C32.7059 15.5031 32.9907 16.198 32.9907 17.0958C32.9907 17.588 32.8631 18.0893 32.6079 18.5997C32.3527 19.1101 31.9152 19.7049 31.2954 20.3839L29.0327 22.7697H33.312V24.3624ZM40.3735 20.6163H41.5015V22.2091H40.3735V24.3624H38.3979V22.2091H34.3169L34.228 20.965L38.3774 14.4093H40.3735V20.6163ZM36.1968 20.6163H38.3979V17.1027L38.2681 17.3282L36.1968 20.6163ZM43.272 25.2169H41.8022L45.4663 14.4093H46.936L43.272 25.2169ZM54.5718 15.5167L50.7231 24.3624H48.6382L52.4936 16.0089H47.5444V14.4093H54.5718V15.5167Z" fill="#038057"/>
<path d="M31.3638 34.7706H32.314C32.911 34.7615 33.3804 34.6043 33.7222 34.299C34.064 33.9936 34.2349 33.5812 34.2349 33.0616C34.2349 31.895 33.6538 31.3116 32.4917 31.3116C31.9448 31.3116 31.5073 31.4689 31.1792 31.7833C30.8556 32.0932 30.6938 32.5057 30.6938 33.0206H29.4292C29.4292 32.2322 29.7163 31.5782 30.2905 31.0587C30.8693 30.5346 31.603 30.2726 32.4917 30.2726C33.4305 30.2726 34.1665 30.521 34.6997 31.0177C35.2329 31.5144 35.4995 32.2049 35.4995 33.089C35.4995 33.5219 35.3582 33.9412 35.0757 34.3468C34.7977 34.7524 34.4171 35.0555 33.9341 35.256C34.4809 35.4292 34.9025 35.7163 35.1987 36.1173C35.4995 36.5184 35.6499 37.0083 35.6499 37.587C35.6499 38.4803 35.3582 39.1889 34.7749 39.713C34.1916 40.2371 33.4328 40.4991 32.4985 40.4991C31.5643 40.4991 30.8032 40.2462 30.2153 39.7404C29.632 39.2345 29.3403 38.5669 29.3403 37.7374H30.6118C30.6118 38.2615 30.7827 38.6808 31.1245 38.9952C31.4663 39.3097 31.9243 39.4669 32.4985 39.4669C33.1092 39.4669 33.5763 39.3074 33.8999 38.9884C34.2235 38.6694 34.3852 38.2114 34.3852 37.6144C34.3852 37.0356 34.2075 36.5913 33.852 36.2814C33.4966 35.9715 32.9839 35.812 32.314 35.8029H31.3638V34.7706ZM42.3491 30.4025V31.4757H42.1167C41.1323 31.4939 40.3485 31.7856 39.7651 32.3507C39.1818 32.9158 38.8446 33.7111 38.7534 34.7365C39.2775 34.1349 39.993 33.8341 40.8999 33.8341C41.7658 33.8341 42.4562 34.1394 42.9712 34.7501C43.4907 35.3608 43.7505 36.1492 43.7505 37.1154C43.7505 38.1407 43.4702 38.9611 42.9097 39.5763C42.3537 40.1915 41.6063 40.4991 40.6675 40.4991C39.715 40.4991 38.9425 40.1346 38.3501 39.4054C37.7576 38.6717 37.4614 37.7283 37.4614 36.5753V36.09C37.4614 34.2579 37.8511 32.8588 38.6304 31.8927C39.4142 30.922 40.5786 30.4253 42.1235 30.4025H42.3491ZM40.688 34.8868C40.255 34.8868 39.8563 35.0167 39.4917 35.2765C39.1271 35.5363 38.8742 35.8621 38.7329 36.254V36.7189C38.7329 37.5392 38.9175 38.2 39.2866 38.7013C39.6558 39.2026 40.116 39.4532 40.6675 39.4532C41.2371 39.4532 41.6837 39.2436 42.0073 38.8243C42.3354 38.4051 42.4995 37.8559 42.4995 37.1769C42.4995 36.4933 42.3332 35.9419 42.0005 35.5226C41.6724 35.0988 41.2349 34.8868 40.688 34.8868ZM45.8286 35.3722L46.3345 30.4093H51.4341V31.5782H47.4077L47.1069 34.2921C47.5946 34.005 48.1483 33.8615 48.7681 33.8615C49.675 33.8615 50.395 34.1622 50.9282 34.7638C51.4614 35.3608 51.728 36.1697 51.728 37.1906C51.728 38.2159 51.45 39.0249 50.894 39.6173C50.3426 40.2052 49.5701 40.4991 48.5767 40.4991C47.6971 40.4991 46.9793 40.2553 46.4233 39.7677C45.8673 39.2801 45.5506 38.6056 45.4731 37.7443H46.6694C46.7469 38.3139 46.9497 38.7446 47.2778 39.0363C47.6059 39.3234 48.0389 39.4669 48.5767 39.4669C49.1645 39.4669 49.6248 39.2664 49.9575 38.8654C50.2947 38.4643 50.4634 37.9106 50.4634 37.2042C50.4634 36.5389 50.2811 36.0057 49.9165 35.6046C49.5565 35.199 49.0757 34.9962 48.4741 34.9962C47.9227 34.9962 47.4897 35.117 47.1753 35.3585L46.8403 35.632L45.8286 35.3722Z" fill="#EDC200"/>
</svg>
