<svg width="49" height="57" viewBox="0 0 49 57" fill="none" xmlns="http://www.w3.org/2000/svg">
<path d="M18.7129 54.9996H42.9998L46.9999 50.9996V23.4998C46.9999 20.9999 45.4999 14.4999 42.9998 12.4998C42.9998 3.49999 42.9998 7.16652 42.9998 7.99985H46.9999V2H19.9998V7.99985H24.4998V12.4998C22.4998 14.4998 20.4998 19.0997 20.4998 23.4998C20.4998 27.8998 20.4536 30.2459 20.4536 31.2458" stroke="#038057" stroke-width="3"/>
<path d="M20.5 20.4991H46.5001V39.999H27" stroke="#038057" stroke-width="3"/>
<path d="M27.5001 42.5003C27.5001 49.6799 21.6798 55.5002 14.5001 55.5002C7.32031 55.5002 1.5 49.6799 1.5 42.5003C1.5 35.3206 7.32031 29.5004 14.5001 29.5004C21.6798 29.5004 27.5001 35.3206 27.5001 42.5003Z" stroke="#FFCB00" stroke-width="3"/>
</svg>
