<svg width="21" height="20" viewBox="0 0 21 20"  xmlns="http://www.w3.org/2000/svg">
<path fill-rule="evenodd" clip-rule="evenodd" d="M19.5514 17.1469L15.2218 12.8021C15.1988 12.779 15.1718 12.7629 15.1477 12.7414C15.9997 11.4445 16.4969 9.89213 16.4969 8.2227C16.4969 3.68141 12.8284 0 8.30314 0C3.77786 0 0.109375 3.68141 0.109375 8.22262C0.109375 12.7638 3.77778 16.4452 8.30306 16.4452C9.96672 16.4452 11.5136 15.9463 12.8059 15.0913C12.8273 15.1154 12.8433 15.1425 12.8663 15.1656L17.1961 19.5105C17.8465 20.1632 18.901 20.1632 19.5514 19.5105C20.2018 18.8578 20.2018 17.7996 19.5514 17.1469ZM8.30314 13.5947C5.34654 13.5947 2.94982 11.1896 2.94982 8.22262C2.94982 5.2556 5.34662 2.85044 8.30314 2.85044C11.2596 2.85044 13.6564 5.25568 13.6564 8.22262C13.6564 11.1896 11.2596 13.5947 8.30314 13.5947Z" />
</svg>
