<svg width="26" height="26" viewBox="0 0 26 26" xmlns="http://www.w3.org/2000/svg">
<path d="M25.6808 8.05104L25.6802 8.04788C25.6795 8.04499 25.6784 8.03947 25.6774 8.03377C25.6767 8.02987 25.6759 8.02407 25.6754 8.01718C25.6747 8.0146 25.6734 8.00946 25.6722 8.00387C25.6721 8.00321 25.672 8.00251 25.6718 8.00179C25.669 7.9936 25.6674 7.98687 25.6665 7.98297L25.6664 7.98261C25.6655 7.97869 25.665 7.97656 25.6646 7.9752C25.6592 7.96255 25.6566 7.95186 25.6557 7.94857L25.6808 8.05104ZM25.6808 8.05104V8.07072L25.6865 8.08134V8.08143V8.08152V8.08161V8.0817V8.08179V8.08187V8.08196V8.08205V8.08214V8.08223V8.08232V8.08241V8.08249V8.08258V8.08267V8.08276V8.08285V8.08293V8.08302V8.08311V8.0832V8.08328V8.08337V8.08346V8.08355V8.08363V8.08372V8.08381V8.08389V8.08398V8.08407V8.08415V8.08424V8.08433V8.08441V8.0845V8.08459V8.08467V8.08476V8.08484V8.08493V8.08501V8.0851V8.08519V8.08527V8.08536V8.08544V8.08553V8.08561V8.0857V8.08578V8.08587V8.08595V8.08603V8.08612V8.0862V8.08629V8.08637V8.08646V8.08654V8.08663V8.08671V8.08679V8.08688V8.08696V8.08704V8.08713V8.08721V8.0873V8.08738V8.08746V8.08755V8.08763V8.08771V8.0878V8.08788V8.08796V8.08804V8.08813V8.08821V8.08829V8.08838V8.08846V8.08854V8.08862V8.08871V8.08879V8.08887V8.08895V8.08903V8.08912V8.0892V8.08928V8.08936V8.08944V8.08953V8.08961V8.08969V8.08977V8.08985V8.08993V8.09002V8.0901V8.09018V8.09026V8.09034V8.09042V8.0905V8.09058V8.09067V8.09075V8.09083V8.09091V8.09099V8.09107V8.09115V8.09123V8.09131V8.09139V8.09147V8.09155V8.09163V8.09171V8.09179V8.09188V8.09196V8.09204V8.09212V8.0922V8.09228V8.09236V8.09244V8.09252V8.0926V8.09268V8.09276V8.09284V8.09292V8.093V8.09307V8.09315V8.09323V8.09331V8.09339V8.09347V8.09355V8.09363V8.09371V8.09379V8.09387V8.09395V8.09403V8.09411V8.09419V8.09427V8.09435V8.09442V8.0945V8.09458V8.09466V8.09474V8.09482V8.0949V8.09498V8.09506V8.09514V8.09521V8.09529V8.09537V8.09545V8.09553V8.09561V8.09569V8.09577V8.09585V8.09592V8.096V8.09608V8.09616V8.09624V8.09632V8.0964V8.09647V8.09655V8.09663V8.09671V8.09679V8.09687V8.09694V8.09702V8.0971V8.09718V8.09726V8.09734V8.09741V8.09749V8.09757V8.09765V8.09773V8.09781V8.09789V8.09796V8.09804V8.09812V8.0982V8.09828V8.09836V8.09843V8.09851V8.09859V8.09867V8.09875V8.09883V8.0989V8.09898V8.09906V8.09914V8.09922V8.09929V8.09937V8.09945V8.09953V8.09961V8.09969V8.09976V8.09984V8.09992V8.1V8.10008V8.10016V8.10023V8.10031V8.10039V8.10047V8.10055V8.10063V8.1007V8.10078V8.10086V8.10094V8.10102V8.1011V8.10117V8.10125V8.10133V8.10141V8.10149V8.10157V8.10165V8.10172V8.1018V8.10188V8.10196V8.10204V8.10212V8.1022V8.10227V8.10235V8.10243V8.10251V8.10259V8.10267V8.10275V8.10283V8.1029V8.10298V8.10306V8.10314V8.10322V8.1033V8.10338V8.10346V8.10354V8.10361V8.10369V8.10377V8.10385V8.10393V8.10401V8.10409V8.10417V8.10425V8.10433V8.10441V8.10449V8.10457V8.10464V8.10472V8.1048V8.10488V8.10496V8.10504V8.10512V8.1052V8.10528V8.10536V8.10544V8.10552V8.1056V8.10568V8.10576V8.10584V8.10592V8.106V8.10608V8.10616V8.10624V8.10632V8.1064V8.10648V8.10656V8.10664V8.10672V8.1068V8.10688V8.10696V8.10705V8.10713V8.10721V8.10729V8.10737V8.10745V8.10753V8.10761V8.10769V8.10777V8.10785V8.10794V8.10802V8.1081V8.10818V8.10826V8.10834V8.10842V8.10851V8.10859V8.10867V8.10875V8.10883V8.10891V8.109V8.10908V8.10916V8.10924V8.10932V8.10941V8.10949V8.10957V8.10965V8.10974V8.10982V8.1099V8.10998V8.11007V8.11015V8.11023V8.11032V8.1104V8.11048V8.11056V8.11065V8.11073V8.11081V8.1109V8.11098V8.11106V8.11115V8.11123V8.11132V8.1114V8.11148V8.11157V8.11165V8.11174V8.11182V8.1119V8.11199V8.11207V8.11216V8.11224V8.11233V8.11241V8.1125V8.11258V8.11267V8.11275V8.11284V8.11292V8.11301V8.11309V8.11318V8.11326V8.11335V8.11343V8.11352V8.11361V8.11369V8.11378V8.11386V8.11395V8.11404V8.11412V8.11421V8.1143V8.11438V8.11447V8.11456V8.11464V8.11473V8.11482V8.1149V8.11499V8.11508V8.11517V8.11525V8.11534V8.11543V8.11552V8.11561V8.11569V8.11578V8.11587V8.11596V8.11605V8.11614V8.11622V8.11631V8.1164V8.11649V8.11658V8.11667V8.11676V8.11685V8.11694V8.11703V8.11712V8.11721V8.1173V8.11739V8.11748V8.11757V8.11766V8.11775V8.11784V8.11793V8.11802V8.11811V8.1182V8.11829V8.11838V8.11847V8.11857V8.11866V8.11875V8.11884V8.11893V8.11902V8.11912V8.11921V8.1193V8.11939V8.11949V8.11958V8.11967V8.11976V8.11986V8.11995V8.12004V8.12014V8.12023V8.12032V8.12042V8.12051V8.12054V8.12057V8.12061V8.12064V8.12067V8.1207V8.12073V8.12077V8.1208V8.12083V8.12086V8.1209V8.12093V8.12096V8.121V8.12103V8.12106V8.12109V8.12113V8.12116V8.1212V8.12123V8.12126V8.1213V8.12133V8.12137V8.1214V8.12144V8.12147V8.1215V8.12154V8.12157V8.12161V8.12164V8.12168V8.12171V8.12175V8.12179V8.12182V8.12186V8.12189V8.12193V8.12197V8.122V8.12204V8.12207V8.12211V8.12215V8.12218V8.12222V8.12226V8.12229V8.12233V8.12237V8.12241V8.12244V8.12248V8.12252V8.12256V8.12259V8.12263V8.12267V8.12271V8.12275V8.12278V8.12282V8.12286V8.1229V8.12294V8.12298V8.12301V8.12305V8.12309V8.12313V8.12317V8.12321V8.12325V8.12329V8.12333V8.12337V8.12341V8.12345V8.12349V8.12353V8.12357V8.12361V8.12365V8.12369V8.12373V8.12377V8.12381V8.12385V8.12389V8.12393V8.12397V8.12401V8.12405V8.12409V8.12413V8.12418V8.12422V8.12426V8.1243V8.12434V8.12438V8.12442V8.12446V8.12451V8.12455V8.12459V8.12463V8.12467V8.12472V8.12476V8.1248V8.12484V8.12488V8.12493V8.12497V8.12501V8.12505V8.1251V8.12514V8.12518V8.12523V8.12527V8.12531V8.12535V8.1254V8.12544V8.12548V8.12553V8.12557V8.12561V8.12566V8.1257V8.12574V8.12579V8.12583V8.12588V8.12592V8.12596V8.12601V8.12605V8.12609V8.12614V8.12618V8.12623V8.12627V8.12632V8.12636V8.1264V8.12645V8.12649V8.12654V8.12658V8.12663V8.12667V8.12672V8.12676V8.12681V8.12685V8.1269V8.12694V8.12699V8.12703V8.12708V8.12712V8.12717V8.12721V8.12726V8.1273V8.12735V8.12739V8.12744V8.12748V8.12753V8.12757V8.12762V8.12766V8.12771V8.12776V8.1278V8.12785V8.12789V8.12794V8.12799V8.12803V8.12808V8.12812V8.12817V8.12821V8.12826V8.12831V8.12835V8.1284V8.12844V8.12849V8.12854V8.12858V8.12863V8.12868V8.12872V8.12877V8.12881V8.12886V8.12891V8.12895V8.129V8.12905V8.12909V8.12914V8.12919V8.12923V8.12928V8.12933V8.12937V8.12942V8.12947V8.12951V8.12956V8.12961V8.12965V8.1297V8.12975V8.12979V8.12984V8.12989V8.12993V8.12998V8.13003V8.13007V8.13012V8.13017V8.13021V8.13026V8.13031V8.13035V8.1304V8.13045V8.1305V8.13054V8.13059V8.13064V8.13068V8.13073V8.13078V8.13082V8.13087V8.13092V8.13096V8.13101V8.13106V8.13111V8.13115V8.1312V8.13125V8.13129V8.13134V8.13139V8.13143V8.13148V8.13153V8.13157V8.13162V8.13167V8.13172V8.13176V8.13181V8.13186V8.1319V8.13195V8.132V8.13204V8.13209V8.13214V8.13218V8.13223V8.13228V8.13233V8.13237V8.13242V8.13247V8.13251V8.13256V8.13261V8.13265V8.1327V8.13275V8.13279V8.13284V8.13289V8.13293V8.13298V8.13303V8.13307V8.13312V8.13317V8.13321V8.13326V8.13331V8.13335V8.1334V8.13344V8.13349V8.13354V8.13358V8.13363V8.13368V8.13372V8.13377V8.13382V8.13386V8.13391V8.13395V8.134V8.13405V8.13409V8.13414V8.13418V8.13423V8.13428V8.13432V8.13437V8.13441V8.13446V8.13451V8.13455V8.1346V8.13464V8.13469V8.13473V8.13478V8.13482V8.13487V8.13492V8.13496V8.13501V8.13505V8.1351V8.13514V8.13519V8.13523V8.13528V8.13532V8.13537V8.13541V8.13546V8.1355V8.13555V8.13559V8.13564V8.13568V8.13573V8.13577V8.13582V8.13586V8.13591V8.13595V8.13599V8.13604V8.13608V8.13613V8.13617V8.13622V8.13626V8.1363V8.13635V8.13639V8.13644V8.13648V8.13652V8.13657V8.13661V8.13665V8.1367V8.13674V8.13678V8.13683V8.13687V8.13691V8.13696V8.137V8.13704V8.13709V8.13713V8.13717V8.13722V8.13726V8.1373V8.13734V8.13739V8.13743V8.13747V8.13751V8.13756V8.1376V8.13764V8.13768V8.13772V8.13777V8.13781V8.13785V8.13789V8.13793V8.13798V8.13802V8.13806V8.1381V8.13814V8.13818V8.13822V8.13826V8.13831V8.13835V8.13839V8.13843V8.13847V8.13851V8.13855V8.13859V8.13863V8.13867V8.13871V8.13875V8.13879V8.13883V8.13887V8.13891V8.13895V8.13899V8.13903V8.13907V8.13911V8.13915V8.13919V8.13923V8.13927V8.13931V8.13935V8.13938V8.13942V8.13946V8.1395V8.13954V8.13958V8.13962V8.13965V8.13969V8.13973V8.13977V8.1398V8.13984V8.13988V8.13992V8.13996V8.13999V8.14003V8.14007V8.1401V8.14014V8.14018V8.14021V8.14025V8.14029V8.14032V8.14036V8.1404V8.14043V8.14047V8.14051V8.14054V8.14058V8.14061V8.14065V8.14068V8.14072V8.14075V8.14079V8.14083V8.14086V8.14089V8.14093V8.14096V8.141V8.14103V8.14107V8.1411V8.14114V8.14117V8.1412V8.14124V8.14127V8.1413V8.14134V8.14137V8.1414V8.14144V8.14147V8.1415V8.14153V8.14157V8.1416V8.14163V8.14166V8.1417V8.14173V8.14176V8.14179V8.14182V8.14186V8.14189V14.1694C25.6865 15.7326 24.3232 17.019 22.6385 17.019H7.34919C6.77872 17.019 6.24207 16.8737 5.78908 16.6252L5.64099 16.544V16.7129V18.6687C5.64099 19.5579 6.41031 20.2755 7.34919 20.2755H21.8915C23.5533 20.2755 24.8995 21.546 24.8995 23.0878C24.8995 24.6296 23.5533 25.9 21.8915 25.9C20.2295 25.9 18.8834 24.6348 18.8834 23.0878C18.8834 22.573 19.0317 22.0892 19.2956 21.6717L19.3927 21.5183H19.2111H12.2879H12.1051L12.2036 21.6722C12.4672 22.0838 12.6156 22.5727 12.6156 23.0878C12.6156 24.6296 11.2694 25.9 9.60752 25.9C7.94554 25.9 6.59947 24.6348 6.59947 23.0878C6.59947 22.5633 6.75857 22.0688 7.0286 21.6453L7.11404 21.5114L6.95631 21.4923C5.45513 21.3106 4.30122 20.1085 4.30122 18.6687V14.1801V10.6266V6.65104V6.13271V2.86247V2.79448L4.23799 2.76947L0.508327 1.29466L0.508197 1.29461C0.163771 1.15897 0.0118865 0.795565 0.152191 0.482771C0.293972 0.166683 0.685862 0.0131824 1.03369 0.150144C1.0337 0.150147 1.0337 0.150151 1.03371 0.150154L5.23394 1.80556C5.24648 1.81133 5.25977 1.81687 5.27103 1.82156L5.27198 1.82195C5.28164 1.82597 5.28992 1.82943 5.2972 1.83265C5.29977 1.83429 5.30216 1.8357 5.30429 1.83688L5.30781 1.84018L5.32218 1.84691C5.32217 1.84691 5.32225 1.84694 5.32242 1.84703L5.32316 1.84741L5.32577 1.84881L5.33406 1.8536C5.33904 1.85657 5.34448 1.85993 5.35049 1.86367C5.35814 1.87004 5.36494 1.87481 5.36899 1.87765L5.36984 1.87825C5.37483 1.88176 5.3759 1.88262 5.37606 1.88276L25.6808 8.05104ZM25.6445 7.91745C25.6457 7.92214 25.649 7.93462 25.6556 7.94846L5.5422 2.05155L5.5426 2.05212C5.54382 2.05383 5.54442 2.0547 5.54467 2.05506L5.5522 2.06917L5.56339 2.07966C5.56391 2.08051 5.56487 2.08223 5.56722 2.08664L5.56992 2.0917C5.57084 2.09396 5.57203 2.09671 5.57349 2.09974C5.57628 2.10547 5.58078 2.1137 5.58784 2.12245C5.5903 2.12606 5.59149 2.1281 5.59217 2.12939C5.59247 2.12994 5.59279 2.13058 5.59317 2.13142C5.59366 2.13337 5.59413 2.13508 5.59454 2.13648C5.59481 2.1374 5.59509 2.13832 5.59537 2.13921V2.14232L5.60115 2.15857L5.60971 2.18262L5.61461 2.1964C5.61568 2.20229 5.61699 2.20735 5.61818 2.2113V2.21713L5.62396 2.23339C5.62438 2.23455 5.62466 2.23544 5.62608 2.24212L5.62625 2.24291C5.62715 2.24712 5.62847 2.25332 5.63054 2.26079C5.63148 2.27033 5.63292 2.27826 5.63374 2.28281C5.63383 2.2833 5.63391 2.28376 5.63398 2.28418C5.63487 2.28917 5.63519 2.29137 5.63529 2.29199V2.31572L5.64164 2.32762L5.64437 2.33786C5.64599 2.34392 5.64669 2.35608 5.64669 2.38689V4.91973V5.00763L5.73387 5.01891L25.1108 7.52484L25.112 7.5253C25.1121 7.52531 25.1121 7.52532 25.1121 7.52533L25.1121 7.52585H25.1137C25.1203 7.52792 25.1325 7.5312 25.1478 7.5312L25.1575 7.53125L25.1613 7.53143L25.1613 7.53143C25.1615 7.53144 25.1619 7.53146 25.1636 7.53199L25.1782 7.53654H25.1825C25.1859 7.53741 25.1904 7.5385 25.1956 7.53944C25.201 7.54042 25.2078 7.54138 25.2156 7.54174L25.2177 7.54244L25.2189 7.54292C25.2193 7.54305 25.2194 7.54313 25.2194 7.54312C25.236 7.55088 25.2516 7.55422 25.2562 7.55528C25.2566 7.55539 25.257 7.55549 25.2574 7.55558L25.2708 7.56183L25.2879 7.56984L25.305 7.57786L25.3221 7.58587L25.3447 7.59645C25.3628 7.61033 25.3796 7.61817 25.389 7.62255L25.3905 7.62326C25.3908 7.62343 25.3917 7.62399 25.3942 7.62555C25.3982 7.62803 25.406 7.633 25.4165 7.63808L25.4211 7.64126C25.4236 7.64305 25.4281 7.64624 25.433 7.64935C25.4359 7.65123 25.4395 7.65348 25.4437 7.65581C25.4462 7.65807 25.45 7.66155 25.4544 7.66502C25.457 7.66712 25.4601 7.66939 25.4635 7.67172L25.4843 7.69119C25.4879 7.69458 25.4912 7.69725 25.4935 7.69905L25.4962 7.70104C25.4998 7.70613 25.5034 7.71037 25.5065 7.71379C25.5102 7.71791 25.5139 7.72152 25.5163 7.72382C25.5208 7.7307 25.5254 7.73624 25.5293 7.74051C25.5324 7.74394 25.5355 7.74702 25.5378 7.74929L25.5407 7.7547L25.5528 7.766L25.558 7.77099C25.5618 7.77757 25.5656 7.783 25.5685 7.78692C25.5719 7.79158 25.5754 7.79591 25.5773 7.79827L25.5803 7.80207C25.5859 7.81208 25.5913 7.81954 25.5938 7.82313C25.595 7.82484 25.5956 7.82572 25.5959 7.82608L25.6042 7.84164L25.6127 7.85767L25.6205 7.87226L25.626 7.87738L25.6269 7.87901C25.6331 7.8952 25.6394 7.90751 25.6444 7.91694L25.6445 7.91745ZM5.52549 2.0254C5.52672 2.02712 5.52732 2.02799 5.52756 2.02835L5.3933 1.89643C5.3972 1.8991 5.40109 1.90151 5.40287 1.90262L5.40315 1.9028L5.406 1.90546L5.41427 1.91063C5.42234 1.91567 5.42757 1.92034 5.4388 1.93085C5.4388 1.93085 5.4388 1.93085 5.4388 1.93086L5.45591 1.94689L5.47302 1.96292L5.49012 1.97894L5.49013 1.97895L5.49828 1.98659C5.49894 1.98751 5.49956 1.98838 5.50015 1.98918C5.50357 1.99384 5.50706 1.99817 5.50894 2.00053L5.51193 2.00433C5.51726 2.01384 5.5224 2.02106 5.52509 2.02483L5.52549 2.0254ZM25.6865 8.07308L25.6865 8.0734L25.6865 8.07308ZM5.31415 1.84183C5.31417 1.84185 5.31382 1.84169 5.31319 1.84137C5.31336 1.84144 5.3135 1.84151 5.31362 1.84157C5.31397 1.84173 5.31414 1.84182 5.31415 1.84183ZM5.40577 1.90445L5.40574 1.90443L5.40577 1.90445ZM5.64099 2.31208V2.3121C5.64097 2.31142 5.64099 2.31134 5.64099 2.31208ZM25.4873 7.68667C25.4874 7.68696 25.4876 7.68725 25.4877 7.68753L25.4873 7.68667ZM25.6326 7.88356C25.6325 7.88342 25.6323 7.88329 25.6322 7.88315L25.6326 7.88356ZM25.6813 8.05342L25.6813 8.05348L25.6813 8.05342ZM5.75379 6.274L5.64099 6.25944V6.37317V6.64035V10.6159V14.1694C5.64099 15.0587 6.41031 15.7763 7.34919 15.7763H22.6385C23.5715 15.7763 24.3467 15.0643 24.3467 14.1641V8.76174V8.67381L24.2595 8.66256L5.75379 6.274ZM9.61323 24.6519C10.5231 24.6519 11.2815 23.9561 11.2815 23.0824C11.2815 22.2087 10.5231 21.513 9.61323 21.513C8.7031 21.513 7.94494 22.2143 7.94494 23.0824C7.94494 23.9506 8.7031 24.6519 9.61323 24.6519ZM21.8972 24.6519C22.8071 24.6519 23.5655 23.9561 23.5655 23.0824C23.5655 22.2087 22.8071 21.513 21.8972 21.513C20.987 21.513 20.2289 22.2143 20.2289 23.0824C20.2289 23.9506 20.987 24.6519 21.8972 24.6519Z"  stroke-width="0.2"/>
</svg>
