<?xml version="1.0" encoding="utf-8"?><svg viewBox="0 0 320 80" xmlns="http://www.w3.org/2000/svg" xmlns:xlink="http://www.w3.org/1999/xlink"><style>:root>svg{display:none}:root>svg:target{display:block}</style><svg fill="none" viewBox="0 0 16 16" id="arrow-down" xmlns="http://www.w3.org/2000/svg"><path d="M2.294 5.143l5.715 5.714 5.714-5.714"/></svg><svg fill="none" viewBox="0 0 24 24" id="arrow-right" xmlns="http://www.w3.org/2000/svg"><path d="M4 12h16m0 0l-6-6m6 6l-6 6"/></svg><svg fill="none" viewBox="0 0 24 24" id="chevron-down" xmlns="http://www.w3.org/2000/svg"><defs><clipPath id="aca"><path fill="#fff" fill-opacity="0" d="M0 0h24v24H0z"/></clipPath></defs><path fill="none" d="M0 0h24v24H0z"/><g clip-path="url(#aca)"><path d="M6 9l6 6 6-6" stroke="#000" stroke-width="2" stroke-linejoin="round" stroke-linecap="round"/></g></svg><svg fill="none" viewBox="0 0 16 17" id="chevron-right" xmlns="http://www.w3.org/2000/svg"><path d="M6 12.5l4-4-4-4" stroke="#282828" stroke-linecap="round" stroke-linejoin="round"/></svg><svg fill="none" viewBox="0 0 16 17" id="home-smile" xmlns="http://www.w3.org/2000/svg"><path d="M5.417 9.833a2.668 2.668 0 005.166 0m-3.238-7.49L2.824 5.859c-.303.236-.454.353-.563.5-.096.13-.168.278-.212.434C2 6.969 2 7.16 2 7.543v4.824c0 .746 0 1.12.145 1.405.128.25.332.455.583.583.285.145.659.145 1.405.145h7.734c.746 0 1.12 0 1.405-.145.25-.128.455-.332.583-.583.145-.285.145-.659.145-1.405V7.543c0-.383 0-.574-.05-.75a1.332 1.332 0 00-.211-.434c-.11-.147-.26-.264-.563-.5L8.655 2.343c-.234-.183-.351-.274-.48-.309a.667.667 0 00-.35 0c-.129.035-.246.127-.48.309z" stroke="#282828" stroke-linecap="round" stroke-linejoin="round"/></svg><svg fill="none" viewBox="0 0 67.5 75" id="i-1" xmlns="http://www.w3.org/2000/svg"><path d="M61.25 2.5h-5V1.25A1.25 1.25 0 0055 0H25a1.25 1.25 0 00-1.25 1.25V2.5h-5a6.258 6.258 0 00-6.25 6.25v18.809a6.256 6.256 0 00-4.397 2.68l-5.71 8.375A13.698 13.698 0 000 46.359V73.75A1.25 1.25 0 001.25 75h15a1.25 1.25 0 001.25-1.25v-3.892c.41.09.83.138 1.25.142h42.5a6.257 6.257 0 006.25-6.25v-55a6.258 6.258 0 00-6.25-6.25zm-35 0h27.5v6.25A1.25 1.25 0 0152.5 10h-25a1.25 1.25 0 01-1.25-1.25V2.5zm1.25 10h25a3.75 3.75 0 003.52-2.5h2.73A1.25 1.25 0 0160 11.25v50a1.25 1.25 0 01-1.25 1.25h-37.5a1.219 1.219 0 01-.486-.111c.319-1.047.482-2.134.486-3.228v-.806a11.21 11.21 0 00-.965-4.563l-.625-1.39 5.792-11.768a5.014 5.014 0 00.173-4.67A4.986 4.986 0 0020 33.274V11.25A1.25 1.25 0 0121.25 10h2.73a3.75 3.75 0 003.52 2.5zM18.75 5h5v2.5h-2.5a3.75 3.75 0 00-3.75 3.75v23.47a5.286 5.286 0 00-.744.983L15 39.212V8.75A3.75 3.75 0 0118.75 5zM15 67.5v5H2.5V46.359a11.21 11.21 0 011.958-6.342l5.71-8.375a3.736 3.736 0 012.332-1.536V44.21L9.875 49.44l2.236 1.125 6.84-13.674a2.5 2.5 0 014.668 1.25 2.623 2.623 0 01-.375 1.323l-6.089 12.362a1.314 1.314 0 00-.125.517v.043c0 .212.053.42.156.604l.805 1.815a8.706 8.706 0 01.75 3.549v.806a8.796 8.796 0 01-1.75 5.241L15.25 66.75a1.25 1.25 0 00-.25.75zm50-3.75a3.75 3.75 0 01-3.75 3.75h-42.5a3.709 3.709 0 01-.855-.112l1.113-1.488c.286-.387.546-.792.78-1.213.46.203.958.309 1.462.313h37.5a3.75 3.75 0 003.75-3.75v-50a3.75 3.75 0 00-3.75-3.75h-2.5V5h5A3.75 3.75 0 0165 8.75v55z" fill="green"/><path d="M38.75 16.25h2.5v2.5h-2.5v-2.5zm5 0h2.5v2.5h-2.5v-2.5zm-10 0h2.5v2.5h-2.5v-2.5zm3.75 18.017l2.866 2.867a1.25 1.25 0 001.768 0l5.366-5.367v1.983H50v-5a1.25 1.25 0 00-1.25-1.25h-5V30h1.982l-4.482 4.483-2.866-2.867a1.25 1.25 0 00-1.768 0l-5 5 1.768 1.768 4.116-4.117z" fill="green"/><path d="M28.75 45h22.5v-2.5H30V23.75h-2.5v20A1.25 1.25 0 0028.75 45zm0 5h7.5v2.5h-7.5V50zm10 0h12.5v2.5h-12.5V50zm-10 5h22.5v2.5h-22.5V55z" fill="green"/></svg><svg fill="none" viewBox="0 0 62.5 75" id="i-2" xmlns="http://www.w3.org/2000/svg"><path d="M26.25 20h2.5v2.5h-2.5V20zm5 0h2.5v2.5h-2.5V20zm-10 0h2.5v2.5h-2.5V20zm-3.619 44.309a1.248 1.248 0 002.238 0l2.5-5c.086-.174.131-.365.131-.559V27.5A2.499 2.499 0 0020 25h-2.5a2.5 2.5 0 00-2.5 2.5v31.25c0 .194.045.385.131.559l2.5 5zm1.119-3.354l-1.25-2.5V35H20v23.455l-1.25 2.5zM20 27.5v5h-2.5v-5H20zM55 45H35a2.5 2.5 0 00-2.5 2.5v20A2.499 2.499 0 0035 70h20a2.5 2.5 0 002.5-2.5v-20A2.499 2.499 0 0055 45zm0 7.5h-5v-5h5v5zM42.5 60v-5h5v5h-5zm5 2.5v5h-5v-5h5zM40 60h-5v-5h5v5zm2.5-7.5v-5h5v5h-5zM50 55h5v5h-5v-5zm-10-7.5v5h-5v-5h5zm-5 15h5v5h-5v-5zm15 5v-5h5v5h-5z" fill="green"/><path d="M58.75 27.5H55V13.75a6.257 6.257 0 00-6.25-6.25h-5V6.25A1.25 1.25 0 0042.5 5H31.02c.148-.4.226-.823.23-1.25a3.75 3.75 0 10-7.5 0c.004.427.082.85.23 1.25H12.5a1.25 1.25 0 00-1.25 1.25V7.5h-5A6.256 6.256 0 000 13.75v55A6.257 6.257 0 006.25 75h52.5a3.751 3.751 0 003.75-3.75v-40a3.75 3.75 0 00-3.75-3.75zm-10-17.5a3.751 3.751 0 013.75 3.75V27.5H50V16.25a3.75 3.75 0 00-3.75-3.75h-2.5V10h5zm-22.5-6.25a1.25 1.25 0 112.502 0 1.25 1.25 0 01-2.502 0zM13.75 7.5h27.5v6.25A1.25 1.25 0 0140 15H15a1.25 1.25 0 01-1.25-1.25V7.5zm1.25 10h25a3.75 3.75 0 003.52-2.5h2.73a1.25 1.25 0 011.25 1.25V27.5H31.25a3.751 3.751 0 00-3.75 3.75V67.5H8.75a1.25 1.25 0 01-1.25-1.25v-50A1.25 1.25 0 018.75 15h2.73A3.75 3.75 0 0015 17.5zM2.5 68.75v-55A3.75 3.75 0 016.25 10h5v2.5h-2.5A3.751 3.751 0 005 16.25v50A3.75 3.75 0 008.75 70H27.5v1.25c.004.427.082.85.23 1.25H6.25a3.751 3.751 0 01-3.75-3.75zm57.5 2.5a1.25 1.25 0 01-1.25 1.25h-27.5A1.25 1.25 0 0130 71.25v-40A1.25 1.25 0 0131.25 30h27.5A1.25 1.25 0 0160 31.25v40z" fill="green"/><path d="M56.25 32.5h-22.5a1.25 1.25 0 00-1.25 1.25v7.5a1.25 1.25 0 001.25 1.25h22.5a1.25 1.25 0 001.25-1.25v-7.5a1.25 1.25 0 00-1.25-1.25zM55 40H35v-5h20v5z" fill="green"/></svg><svg fill="none" viewBox="0 0 75 75" id="i-3" xmlns="http://www.w3.org/2000/svg"><path d="M68.75 0H6.25A6.256 6.256 0 000 6.25v45a6.257 6.257 0 006.25 6.25h21.125l-1 10H23.75a3.751 3.751 0 00-2.652 6.402A3.751 3.751 0 0023.75 75h27.5a3.751 3.751 0 002.652-6.402A3.751 3.751 0 0051.25 67.5h-2.619l-1-10H68.75A6.256 6.256 0 0075 51.25v-45A6.257 6.257 0 0068.75 0zM6.25 2.5h62.5a3.751 3.751 0 013.75 3.75V45h-70V6.25A3.75 3.75 0 016.25 2.5zM52.5 71.25a1.25 1.25 0 01-1.25 1.25h-27.5a1.25 1.25 0 010-2.5h27.5a1.25 1.25 0 011.25 1.25zm-6.375-3.75H28.881l1-10h15.244l1 10zM68.75 55H6.25a3.751 3.751 0 01-3.75-3.75V47.5h70v3.75A3.75 3.75 0 0168.75 55z" fill="green"/><path d="M65 50h2.5v2.5H65V50zM36.25 37.5A12.515 12.515 0 0048.75 25a1.25 1.25 0 00-1.25-1.25h-10v-10a1.25 1.25 0 00-1.25-1.25 12.5 12.5 0 100 25zM35 15.078V25a1.25 1.25 0 001.25 1.25h9.922a10.002 10.002 0 01-12.178 8.49A9.998 9.998 0 0126.79 21.76 10.002 10.002 0 0135 15.078z" fill="green"/><path d="M40 22.5h11.25a1.25 1.25 0 001.25-1.25A12.513 12.513 0 0040 8.75 1.25 1.25 0 0038.75 10v11.25A1.25 1.25 0 0040 22.5zm1.25-11.172A10.023 10.023 0 0149.922 20H41.25v-8.672zM52.5 10H60v2.5h-7.5V10zm10 0h5v2.5h-5V10zm0 5h5v2.5h-5V15zm-55 15h5v2.5h-5V30zm0 5h5v2.5h-5V35zm7.5-5h7.5v2.5H15V30zm40 7.5h10V40H55v-2.5zm0-5h2.5V35H55v-2.5zm5 0h5V35h-5v-2.5z" fill="green"/></svg><svg fill="none" viewBox="0 0 75 75" id="i-4" xmlns="http://www.w3.org/2000/svg"><path d="M58.75 36.25A1.25 1.25 0 0057.5 35h-5a1.25 1.25 0 00-1.25 1.25V57.5h-2.5V43.75a1.25 1.25 0 00-1.25-1.25h-5a1.25 1.25 0 00-1.25 1.25V57.5h-2.5v-8.75a1.25 1.25 0 00-1.25-1.25h-5a1.25 1.25 0 00-1.25 1.25v8.75h-2.5V31.25h-2.5v27.5A1.25 1.25 0 0027.5 60h35v-2.5h-3.75V36.25zm-2.5 1.25v8.75h-2.5V37.5h2.5zm-2.5 11.25h2.5v8.75h-2.5v-8.75zM46.25 45v5h-2.5v-5h2.5zm-2.5 7.5h2.5v5h-2.5v-5zm-7.5-2.5v2.5h-2.5V50h2.5zm-2.5 5h2.5v2.5h-2.5V55z" fill="green"/><path d="M46.25 35.517V37.5h2.5v-5a1.25 1.25 0 00-1.25-1.25h-5v2.5h1.982l-9.116 9.116 1.768 1.768 9.116-9.117z" fill="green"/><path d="M68.75 7.5H12.5V1.25A1.25 1.25 0 0011.25 0h-5A6.258 6.258 0 000 6.25v52.5A6.257 6.257 0 006.25 65H62.5v8.75A1.25 1.25 0 0063.75 75h5A6.257 6.257 0 0075 68.75v-55a6.257 6.257 0 00-6.25-6.25zM2.5 6.25A3.75 3.75 0 016.25 2.5H10v50H6.25a6.225 6.225 0 00-3.75 1.25V6.25zM6.25 62.5a3.75 3.75 0 110-7.5h5a1.25 1.25 0 001.25-1.25V10h56.25a3.75 3.75 0 013.75 3.75v50.032a6.184 6.184 0 00-3.75-1.282H6.25zm62.5 10H65V65h3.75a3.75 3.75 0 110 7.5z" fill="green"/><path d="M37.5 23.75h15v2.5h-15v-2.5zm0-5h5v2.5h-5v-2.5zm7.5 0h7.5v2.5H45v-2.5z" fill="green"/></svg><svg fill="none" viewBox="0 0 60 75" id="i-5" xmlns="http://www.w3.org/2000/svg"><path d="M56.25 0h-45A3.751 3.751 0 007.5 3.75V7.5H3.75A3.751 3.751 0 000 11.25v60A3.75 3.75 0 003.75 75h45a3.751 3.751 0 003.75-3.75V67.5h3.75A3.751 3.751 0 0060 63.75v-60A3.75 3.75 0 0056.25 0zM50 71.25a1.25 1.25 0 01-1.25 1.25h-45a1.25 1.25 0 01-1.25-1.25v-60A1.25 1.25 0 013.75 10H37.5v10a1.251 1.251 0 002.29.694l1.46-2.194 1.46 2.19A1.251 1.251 0 0045 20V10h3.75A1.25 1.25 0 0150 11.25v60zM40 10h2.5v5.875l-.21-.315a1.25 1.25 0 00-2.08 0l-.21.315V10zm17.5 53.75A1.25 1.25 0 0156.25 65H52.5V11.25a3.75 3.75 0 00-3.75-3.75H10V3.75a1.25 1.25 0 011.25-1.25h45a1.25 1.25 0 011.25 1.25v60z" fill="green"/><path d="M43.75 30h-35a1.25 1.25 0 00-1.25 1.25v27.5A1.25 1.25 0 008.75 60h35A1.25 1.25 0 0045 58.75v-27.5A1.25 1.25 0 0043.75 30zm-1.25 7.5H20v-5h22.5v5zM26.25 40H30v17.5h-3.75V40zm-2.5 17.5H20V40h3.75v17.5zM32.5 40h3.75v17.5H32.5V40zm-15-7.5v5H10v-5h7.5zM10 40h7.5v17.5H10V40zm28.75 17.5V40h3.75v17.5h-3.75zM7.5 20h10v2.5h-10V20zm0-5H10v2.5H7.5V15zm5 0h5v2.5h-5V15zm8.75 10h10v2.5h-10V25zm21.375 39.2a3.58 3.58 0 00-3.043-1.699 3.574 3.574 0 00-3.043 1.699c-.5.606-.703.801-1.125.801-.423 0-.62-.195-1.125-.8A3.812 3.812 0 0031.25 62.5V65c.422 0 .625.195 1.125.801a3.577 3.577 0 006.089 0c.5-.605.702-.8 1.125-.8.401 0 .589.16 1.125.8A3.805 3.805 0 0043.75 67.5V65c-.401 0-.589-.16-1.125-.8z" fill="green"/></svg><svg fill="none" viewBox="0 0 80 80" id="i-6" xmlns="http://www.w3.org/2000/svg"><defs><clipPath id="aka"><path fill="#fff" fill-opacity="0" d="M0 0h80v80H0z"/></clipPath></defs><path fill="none" d="M0 0h80v80H0z"/><g clip-path="url(#aka)" fill="green"><path d="M72.5 7.5h-15V6.25a3.75 3.75 0 10-7.5 0V7.5h-6.25V6.25a3.75 3.75 0 10-7.5 0V7.5H30V6.25a3.75 3.75 0 10-7.5 0V7.5H15a1.25 1.25 0 00-1.25 1.25V57.5H7.5a1.25 1.25 0 00-1.25 1.25v5A6.257 6.257 0 0012.5 70h1.25v6.25A1.25 1.25 0 0015 77.5h57.5a1.25 1.25 0 001.25-1.25V8.75A1.25 1.25 0 0072.5 7.5zm-1.25 10h-5V10h5v7.5zM52.5 6.25a1.25 1.25 0 012.5 0V7.5h-2.5V6.25zm-13.75 0a1.25 1.25 0 012.5 0V7.5h-2.5V6.25zM25 6.25a1.25 1.25 0 012.5 0V7.5H25V6.25zM22.5 10v1.25A3.75 3.75 0 0026.25 15v-2.5A1.25 1.25 0 0125 11.25V10h11.25v1.25A3.75 3.75 0 0040 15v-2.5a1.25 1.25 0 01-1.25-1.25V10H50v1.25A3.75 3.75 0 0053.75 15v-2.5a1.25 1.25 0 01-1.25-1.25V10h11.25v7.5h-47.5V10h6.25zM55 57.5H16.25V20h47.5v43.75a3.75 3.75 0 11-7.5 0v-5A1.25 1.25 0 0055 57.5zM8.75 63.75V60h45v3.75A6.217 6.217 0 0055 67.5H12.5a3.751 3.751 0 01-3.75-3.75zm7.5 6.25H60a6.185 6.185 0 003.75-1.282V75h-47.5v-5zm50 5V20h5v55h-5z"/><path d="M40 25a12.5 12.5 0 1012.5 12.5A12.513 12.513 0 0040 25zm0 22.5a10 10 0 1110-10 10.011 10.011 0 01-10 10zm16.25-11.25h2.5v2.5h-2.5v-2.5zm0-5h2.5v2.5h-2.5v-2.5zm0 10h2.5v2.5h-2.5v-2.5zm-35-5h2.5v2.5h-2.5v-2.5zm0-5h2.5v2.5h-2.5v-2.5zm0 10h2.5v2.5h-2.5v-2.5z"/><path d="M40.882 38.898H35v-1.504h5.843c.523 0 .946-.078 1.266-.234.322-.161.557-.385.707-.672.15-.287.226-.622.226-1.005 0-.343-.075-.662-.226-.96a1.758 1.758 0 00-.699-.725c-.316-.191-.727-.287-1.235-.287h-2.347V43h-1.95V32h4.297c.87 0 1.61.149 2.222.446.611.297 1.08.707 1.406 1.231.327.519.49 1.116.49 1.79 0 .721-.166 1.338-.497 1.852-.327.508-.798.899-1.415 1.17-.61.273-1.346.409-2.206.409zm.186.808v1.503H35v-1.503h6.068z"/></g></svg><svg fill="none" viewBox="0 0 80 80" id="i-7" xmlns="http://www.w3.org/2000/svg"><defs><clipPath id="ala"><path fill="#fff" fill-opacity="0" d="M0 0h80v80H0z"/></clipPath></defs><path fill="none" d="M0 0h80v80H0z"/><g clip-path="url(#ala)" fill="green"><path d="M70 53.455V26.449A12.5 12.5 0 1053.551 10H13.75A3.75 3.75 0 0010 13.75v39.705L2.631 68.191a1.247 1.247 0 00-.131.559V75A2.5 2.5 0 005 77.5h70a2.5 2.5 0 002.5-2.5v-6.25a1.25 1.25 0 00-.125-.559L70 53.455zM36.25 70h7.5v1.25h-7.5V70zM5.772 67.5l6.25-12.5h55.956l6.25 12.5H5.772zM65 5a10 10 0 11-7.438 16.666 1.249 1.249 0 00-.93-.416h-3.265l1.75-3.183c.147-.266.192-.577.125-.875A9.978 9.978 0 0165 5zm-52.5 8.75a1.25 1.25 0 011.25-1.25h39a12.33 12.33 0 00-.04 4.762l-2.556 4.634a1.247 1.247 0 00.476 1.69c.189.108.402.164.62.164h4.841a12.465 12.465 0 0011.409 3.5V52.5h-55V13.75zM5 75v-5h28.75v1.25a2.5 2.5 0 002.5 2.5h7.5a2.5 2.5 0 002.5-2.5V70H75v5H5z"/><path d="M12.5 62.5H15V65h-2.5v-2.5zm5 0H20V65h-2.5v-2.5zm5 0h35V65h-35v-2.5zm37.5 0h2.5V65H60v-2.5zm5 0h2.5V65H65v-2.5zm-46.25-5h2.5V60h-2.5v-2.5zm-5 0h2.5V60h-2.5v-2.5zm10 0h2.5V60h-2.5v-2.5zm5 0h2.5V60h-2.5v-2.5zm5 0h2.5V60h-2.5v-2.5zm5 0h2.5V60h-2.5v-2.5zm5 0h2.5V60h-2.5v-2.5zm5 0h2.5V60h-2.5v-2.5zm5 0h2.5V60h-2.5v-2.5zm5 0h2.5V60h-2.5v-2.5zm5 0h2.5V60h-2.5v-2.5zm-17.5-40h-27.5a1.25 1.25 0 00-1.25 1.25v27.5a1.25 1.25 0 001.25 1.25h27.5a1.25 1.25 0 001.25-1.25v-27.5a1.25 1.25 0 00-1.25-1.25zM45 25H28.75v-5H45v5zm-10 2.5h3.75V45H35V27.5zM32.5 45h-3.75V27.5h3.75V45zm-6.25-25v5H20v-5h6.25zM20 27.5h6.25V45H20V27.5zM41.25 45V27.5H45V45h-3.75zM52.5 30H55v2.5h-2.5V30zm5 0h5v2.5h-5V30zm-5 5h10v2.5h-10V35zm0 5h10v2.5h-10V40zM66.882 15.898H61v-1.504h5.843c.523 0 .945-.078 1.267-.234.32-.161.556-.385.707-.672a2.14 2.14 0 00.225-1.005 2.1 2.1 0 00-.225-.96 1.76 1.76 0 00-.7-.725c-.316-.191-.727-.287-1.235-.287h-2.347V20h-1.95V9h4.297c.87 0 1.61.149 2.222.446.611.297 1.08.707 1.406 1.231.327.519.49 1.116.49 1.79 0 .721-.166 1.338-.497 1.852-.327.508-.798.899-1.414 1.17-.612.273-1.347.409-2.207.409zm.186.808v1.503H61v-1.503h6.068z"/></g></svg><svg fill="none" viewBox="0 0 320 60" id="logo" xmlns="http://www.w3.org/2000/svg"><path d="M97.733 41.498l-1.267-3.988h-9.411l-1.268 3.988h-6.336l8.61-25.345h7.38l8.61 25.345h-6.318zm-8.945-9.41h5.945l-2.964-9.3-2.981 9.3zM120.73 16.153v5.573h-8.685v19.772h-5.795V16.153h14.48zM132.862 16.153c2.478 0 4.584.839 6.299 2.535 1.714 1.696 2.571 3.746 2.571 6.15 0 2.422-.857 4.472-2.571 6.15-1.715 1.695-3.821 2.534-6.299 2.534h-3.802v7.958h-5.796V16.135h9.598v.018zm0 11.946c.894 0 1.621-.317 2.217-.95.578-.634.876-1.398.876-2.311s-.298-1.696-.876-2.311c-.577-.634-1.323-.95-2.217-.95h-3.802v6.522h3.802zM165.884 38.2c-2.553 2.534-5.665 3.801-9.336 3.801-3.672 0-6.784-1.267-9.337-3.801-2.553-2.535-3.839-5.666-3.839-9.374 0-3.709 1.286-6.84 3.839-9.374 2.553-2.535 5.665-3.802 9.337-3.802 3.671 0 6.783 1.268 9.336 3.802s3.839 5.665 3.839 9.374c0 3.727-1.286 6.84-3.839 9.374zm-14.61-3.933c1.416 1.398 3.168 2.106 5.274 2.106s3.857-.708 5.274-2.105c1.416-1.398 2.124-3.206 2.124-5.424 0-2.217-.708-4.025-2.124-5.423-1.417-1.397-3.168-2.105-5.274-2.105s-3.858.708-5.274 2.105c-1.417 1.398-2.125 3.206-2.125 5.423 0 2.2.708 4.007 2.125 5.423z" fill="#F60"/><path d="M182.75 25.564c2.609 0 4.715.727 6.299 2.2 1.584 1.453 2.385 3.391 2.385 5.777 0 2.385-.801 4.323-2.385 5.777-1.584 1.453-3.69 2.199-6.299 2.199h-9.784V16.172h16.288v5.572h-10.492v3.84h3.988v-.02zm0 10.511c1.938 0 2.889-.838 2.889-2.534 0-1.696-.969-2.535-2.889-2.535h-3.988v5.07h3.988zM206.827 16.153h5.796l-7.305 17.89c-2.143 5.238-5.703 7.716-10.641 7.455v-5.423c2.348.224 4.025-.615 5.069-2.497l-8.107-17.425h5.796l4.957 11.089 4.435-11.089zM235.08 41.498h-6.598l-4.267-7.305-4.268 7.305h-6.597l7.566-13.008-7.212-12.355h6.597l3.914 6.69 3.913-6.69h6.597l-7.212 12.355 7.567 13.008zM251.367 16.153h5.796l-7.305 17.89c-2.143 5.238-5.703 7.716-10.641 7.455v-5.423c2.348.224 4.025-.615 5.069-2.497l-8.107-17.425h5.796l4.957 11.089 4.435-11.089zM272.556 16.153h5.796v25.345h-5.796v-8.833c-1.379.54-2.814.801-4.304.801-2.609 0-4.771-.727-6.504-2.199-1.734-1.453-2.591-3.485-2.591-6.057v-9.057h5.796v8.181c0 1.137.317 2.013.95 2.628.634.615 1.454.932 2.498.932 1.528 0 2.907-.28 4.155-.839V16.153zM288.472 35.926h10.137v5.572h-15.933V16.153h15.747v5.573h-9.951v4.193h9.057v5.497h-9.057v4.51zM318.885 16.153v5.573h-6.522v19.772h-5.796V21.726h-6.523v-5.573h18.841zM28.21 15.325C6.706 26.078-6.125 43.221 3.21 56.64c-5.385-13.418 7.045-26.947 27.302-36.014 20.118-9 42.593-10.957 46.926-1.024-2.069-17.528-27.73-15.03-49.227-4.277z" fill="green"/><path d="M46.101 22.714c-43.3 6.27-60.352 46.673-13.576 35.23-34.15 2.936-27.339-22.418 13.576-35.23z" fill="green"/><path d="M53.258 15.492c-8.21 1.11-29.902 7.222-40.058 18.804 10.296-8.312 27.478-13.781 41.52-14.545l-1.462-4.259z" fill="#F60"/><path d="M74.53 25.919c-5.479-9.98-38.688-1.593-55.078 12.756l-4.995 14.5c.02.018.047.036.075.055h15.105l7.705-22.372a87.674 87.674 0 015.256-2.209l8.47 24.581h15.197L56.584 25.1c6.495-.625 11.07.819 12.672 4.276 1.51 3.27 1.202 7.725-2.6 11.526 5.498-2.478 10.754-9.746 7.874-14.983zM63.414 5.336c-3.932-1.528-8.898-2.078-14.219-1.64L47.937.052H32.74l-3.299 9.58c-5.022 2.72-9.644 6.335-13.26 10.892C29.74 10.46 51.6 3.565 63.415 5.336z" fill="#F60"/><path d="M73.347 2.186c.922-.12 1.873-.12 2.767.159a5.821 5.821 0 01-1.547 2.683c-.698.7-1.556 1.23-2.469 1.612-.754.317-1.575.513-2.404.494a4.286 4.286 0 01-1.77-.41c.242-1.025.838-1.938 1.593-2.665.429-.42.913-.773 1.435-1.071a6.446 6.446 0 012.395-.802z" fill="green"/></svg><svg fill="none" viewBox="0 0 24 24" id="mail" xmlns="http://www.w3.org/2000/svg"><path d="M13.744 2.634l7.528 4.893c.266.173.399.26.495.374a1 1 0 01.189.348c.044.143.044.302.044.62V16.2c0 1.68 0 2.52-.327 3.162a3 3 0 01-1.311 1.311C19.72 21 18.88 21 17.2 21H6.8c-1.68 0-2.52 0-3.162-.327a3 3 0 01-1.311-1.311C2 18.72 2 17.88 2 16.2V8.868c0-.317 0-.476.044-.62a1 1 0 01.189-.347c.096-.115.229-.201.495-.374l7.528-4.893m3.488 0c-.631-.41-.947-.616-1.287-.696a2 2 0 00-.914 0c-.34.08-.656.285-1.287.696m3.488 0l6.192 4.024c.688.448 1.032.671 1.151.955a1 1 0 010 .774c-.12.284-.463.507-1.15.955l-6.193 4.024c-.631.41-.947.616-1.287.696-.3.07-.613.07-.914 0-.34-.08-.656-.285-1.287-.696L4.064 9.342c-.688-.448-1.032-.671-1.151-.955a1 1 0 010-.774c.12-.284.463-.507 1.15-.955l6.193-4.024M21.5 19l-6.643-6m-5.714 0L2.5 19"/></svg><svg fill="none" viewBox="0 0 24 24" id="phone" xmlns="http://www.w3.org/2000/svg"><path d="M8.38 8.853a14.605 14.605 0 002.847 4.01 14.605 14.605 0 004.01 2.846c.124.06.187.09.265.113.28.082.625.023.862-.147.067-.048.124-.105.239-.22.35-.349.524-.524.7-.638a2 2 0 012.18 0c.176.114.35.29.7.639l.195.195c.532.531.797.797.942 1.082a2 2 0 010 1.806c-.145.285-.41.55-.942 1.082l-.157.158c-.53.53-.795.794-1.155.997-.4.224-1.02.385-1.478.384-.413-.001-.695-.081-1.26-.241a19.038 19.038 0 01-8.283-4.874A19.038 19.038 0 013.17 7.761c-.16-.564-.24-.846-.241-1.26a3.377 3.377 0 01.384-1.478c.202-.36.467-.624.997-1.154l.157-.158c.532-.531.798-.797 1.083-.941a2 2 0 011.805 0c.286.144.551.41 1.083.941l.195.195c.35.35.524.525.638.7a2 2 0 010 2.18c-.114.177-.289.351-.638.701a2.02 2.02 0 00-.22.238c-.17.238-.228.582-.147.862.023.08.053.142.113.266z"/></svg><svg fill="currentColor" class="apbi apbi-x" viewBox="0 0 16 16" id="x" xmlns="http://www.w3.org/2000/svg"><path d="M4.646 4.646a.5.5 0 01.708 0L8 7.293l2.646-2.647a.5.5 0 01.708.708L8.707 8l2.647 2.646a.5.5 0 01-.708.708L8 8.707l-2.646 2.647a.5.5 0 01-.708-.708L7.293 8 4.646 5.354a.5.5 0 010-.708z"/></svg></svg>