<?xml version="1.0" encoding="utf-8"?><svg viewBox="0 0 320 60" xmlns="http://www.w3.org/2000/svg" xmlns:xlink="http://www.w3.org/1999/xlink"><style>:root>svg{display:none}:root>svg:target{display:block}</style><svg fill="none" viewBox="0 0 16 16" id="arrow-down" xmlns="http://www.w3.org/2000/svg"><path d="M2.294 5.143l5.715 5.714 5.714-5.714"/></svg><svg fill="none" viewBox="0 0 24 24" id="arrow-right" xmlns="http://www.w3.org/2000/svg"><path d="M4 12h16m0 0l-6-6m6 6l-6 6"/></svg><svg fill="none" viewBox="0 0 16 17" id="chevron-right" xmlns="http://www.w3.org/2000/svg"><path d="M6 12.5l4-4-4-4" stroke="#282828" stroke-linecap="round" stroke-linejoin="round"/></svg><svg fill="none" viewBox="0 0 16 17" id="home-smile" xmlns="http://www.w3.org/2000/svg"><path d="M5.417 9.833a2.668 2.668 0 005.166 0m-3.238-7.49L2.824 5.859c-.303.236-.454.353-.563.5-.096.13-.168.278-.212.434C2 6.969 2 7.16 2 7.543v4.824c0 .746 0 1.12.145 1.405.128.25.332.455.583.583.285.145.659.145 1.405.145h7.734c.746 0 1.12 0 1.405-.145.25-.128.455-.332.583-.583.145-.285.145-.659.145-1.405V7.543c0-.383 0-.574-.05-.75a1.332 1.332 0 00-.211-.434c-.11-.147-.26-.264-.563-.5L8.655 2.343c-.234-.183-.351-.274-.48-.309a.667.667 0 00-.35 0c-.129.035-.246.127-.48.309z" stroke="#282828" stroke-linecap="round" stroke-linejoin="round"/></svg><svg fill="none" viewBox="0 0 320 60" id="logo" xmlns="http://www.w3.org/2000/svg"><path d="M97.733 41.498l-1.267-3.988h-9.411l-1.268 3.988h-6.336l8.61-25.345h7.38l8.61 25.345h-6.318zm-8.945-9.41h5.945l-2.964-9.3-2.981 9.3zM120.73 16.153v5.573h-8.685v19.772h-5.795V16.153h14.48zM132.862 16.153c2.478 0 4.584.839 6.299 2.535 1.714 1.696 2.571 3.746 2.571 6.15 0 2.422-.857 4.472-2.571 6.15-1.715 1.695-3.821 2.534-6.299 2.534h-3.802v7.958h-5.796V16.135h9.598v.018zm0 11.946c.894 0 1.621-.317 2.217-.95.578-.634.876-1.398.876-2.311s-.298-1.696-.876-2.311c-.577-.634-1.323-.95-2.217-.95h-3.802v6.522h3.802zM165.884 38.2c-2.553 2.534-5.665 3.801-9.336 3.801-3.672 0-6.784-1.267-9.337-3.801-2.553-2.535-3.839-5.666-3.839-9.374 0-3.709 1.286-6.84 3.839-9.374 2.553-2.535 5.665-3.802 9.337-3.802 3.671 0 6.783 1.268 9.336 3.802s3.839 5.665 3.839 9.374c0 3.727-1.286 6.84-3.839 9.374zm-14.61-3.933c1.416 1.398 3.168 2.106 5.274 2.106s3.857-.708 5.274-2.105c1.416-1.398 2.124-3.206 2.124-5.424 0-2.217-.708-4.025-2.124-5.423-1.417-1.397-3.168-2.105-5.274-2.105s-3.858.708-5.274 2.105c-1.417 1.398-2.125 3.206-2.125 5.423 0 2.2.708 4.007 2.125 5.423z" fill="#F60"/><path d="M182.75 25.564c2.609 0 4.715.727 6.299 2.2 1.584 1.453 2.385 3.391 2.385 5.777 0 2.385-.801 4.323-2.385 5.777-1.584 1.453-3.69 2.199-6.299 2.199h-9.784V16.172h16.288v5.572h-10.492v3.84h3.988v-.02zm0 10.511c1.938 0 2.889-.838 2.889-2.534 0-1.696-.969-2.535-2.889-2.535h-3.988v5.07h3.988zM206.827 16.153h5.796l-7.305 17.89c-2.143 5.238-5.703 7.716-10.641 7.455v-5.423c2.348.224 4.025-.615 5.069-2.497l-8.107-17.425h5.796l4.957 11.089 4.435-11.089zM235.08 41.498h-6.598l-4.267-7.305-4.268 7.305h-6.597l7.566-13.008-7.212-12.355h6.597l3.914 6.69 3.913-6.69h6.597l-7.212 12.355 7.567 13.008zM251.367 16.153h5.796l-7.305 17.89c-2.143 5.238-5.703 7.716-10.641 7.455v-5.423c2.348.224 4.025-.615 5.069-2.497l-8.107-17.425h5.796l4.957 11.089 4.435-11.089zM272.556 16.153h5.796v25.345h-5.796v-8.833c-1.379.54-2.814.801-4.304.801-2.609 0-4.771-.727-6.504-2.199-1.734-1.453-2.591-3.485-2.591-6.057v-9.057h5.796v8.181c0 1.137.317 2.013.95 2.628.634.615 1.454.932 2.498.932 1.528 0 2.907-.28 4.155-.839V16.153zM288.472 35.926h10.137v5.572h-15.933V16.153h15.747v5.573h-9.951v4.193h9.057v5.497h-9.057v4.51zM318.885 16.153v5.573h-6.522v19.772h-5.796V21.726h-6.523v-5.573h18.841zM28.21 15.325C6.706 26.078-6.125 43.221 3.21 56.64c-5.385-13.418 7.045-26.947 27.302-36.014 20.118-9 42.593-10.957 46.926-1.024-2.069-17.528-27.73-15.03-49.227-4.277z" fill="green"/><path d="M46.101 22.714c-43.3 6.27-60.352 46.673-13.576 35.23-34.15 2.936-27.339-22.418 13.576-35.23z" fill="green"/><path d="M53.258 15.492c-8.21 1.11-29.902 7.222-40.058 18.804 10.296-8.312 27.478-13.781 41.52-14.545l-1.462-4.259z" fill="#F60"/><path d="M74.53 25.919c-5.479-9.98-38.688-1.593-55.078 12.756l-4.995 14.5c.02.018.047.036.075.055h15.105l7.705-22.372a87.674 87.674 0 015.256-2.209l8.47 24.581h15.197L56.584 25.1c6.495-.625 11.07.819 12.672 4.276 1.51 3.27 1.202 7.725-2.6 11.526 5.498-2.478 10.754-9.746 7.874-14.983zM63.414 5.336c-3.932-1.528-8.898-2.078-14.219-1.64L47.937.052H32.74l-3.299 9.58c-5.022 2.72-9.644 6.335-13.26 10.892C29.74 10.46 51.6 3.565 63.415 5.336z" fill="#F60"/><path d="M73.347 2.186c.922-.12 1.873-.12 2.767.159a5.821 5.821 0 01-1.547 2.683c-.698.7-1.556 1.23-2.469 1.612-.754.317-1.575.513-2.404.494a4.286 4.286 0 01-1.77-.41c.242-1.025.838-1.938 1.593-2.665.429-.42.913-.773 1.435-1.071a6.446 6.446 0 012.395-.802z" fill="green"/></svg><svg fill="none" viewBox="0 0 24 24" id="mail" xmlns="http://www.w3.org/2000/svg"><path d="M13.744 2.634l7.528 4.893c.266.173.399.26.495.374a1 1 0 01.189.348c.044.143.044.302.044.62V16.2c0 1.68 0 2.52-.327 3.162a3 3 0 01-1.311 1.311C19.72 21 18.88 21 17.2 21H6.8c-1.68 0-2.52 0-3.162-.327a3 3 0 01-1.311-1.311C2 18.72 2 17.88 2 16.2V8.868c0-.317 0-.476.044-.62a1 1 0 01.189-.347c.096-.115.229-.201.495-.374l7.528-4.893m3.488 0c-.631-.41-.947-.616-1.287-.696a2 2 0 00-.914 0c-.34.08-.656.285-1.287.696m3.488 0l6.192 4.024c.688.448 1.032.671 1.151.955a1 1 0 010 .774c-.12.284-.463.507-1.15.955l-6.193 4.024c-.631.41-.947.616-1.287.696-.3.07-.613.07-.914 0-.34-.08-.656-.285-1.287-.696L4.064 9.342c-.688-.448-1.032-.671-1.151-.955a1 1 0 010-.774c.12-.284.463-.507 1.15-.955l6.193-4.024M21.5 19l-6.643-6m-5.714 0L2.5 19"/></svg><svg fill="none" viewBox="0 0 24 24" id="phone" xmlns="http://www.w3.org/2000/svg"><path d="M8.38 8.853a14.605 14.605 0 002.847 4.01 14.605 14.605 0 004.01 2.846c.124.06.187.09.265.113.28.082.625.023.862-.147.067-.048.124-.105.239-.22.35-.349.524-.524.7-.638a2 2 0 012.18 0c.176.114.35.29.7.639l.195.195c.532.531.797.797.942 1.082a2 2 0 010 1.806c-.145.285-.41.55-.942 1.082l-.157.158c-.53.53-.795.794-1.155.997-.4.224-1.02.385-1.478.384-.413-.001-.695-.081-1.26-.241a19.038 19.038 0 01-8.283-4.874A19.038 19.038 0 013.17 7.761c-.16-.564-.24-.846-.241-1.26a3.377 3.377 0 01.384-1.478c.202-.36.467-.624.997-1.154l.157-.158c.532-.531.798-.797 1.083-.941a2 2 0 011.805 0c.286.144.551.41 1.083.941l.195.195c.35.35.524.525.638.7a2 2 0 010 2.18c-.114.177-.289.351-.638.701a2.02 2.02 0 00-.22.238c-.17.238-.228.582-.147.862.023.08.053.142.113.266z"/></svg></svg>