<?xml version="1.0" encoding="utf-8"?><svg viewBox="0 0 30 30" xmlns="http://www.w3.org/2000/svg" xmlns:xlink="http://www.w3.org/1999/xlink"><style>:root>svg{display:none}:root>svg:target{display:block}</style><svg viewBox="0 0 26 25" id="Star-1" xmlns="http://www.w3.org/2000/svg"><path d="M11.616 1.393c.435-.942 1.774-.942 2.208 0l2.764 5.993c.177.384.541.648.961.698l6.553.777c1.03.122 1.444 1.396.683 2.1l-4.845 4.48c-.31.288-.45.715-.367 1.13l1.286 6.473c.202 1.017-.881 1.804-1.787 1.298l-5.758-3.224a1.216 1.216 0 00-1.188 0l-5.758 3.224c-.906.506-1.989-.28-1.786-1.298l1.286-6.473a1.216 1.216 0 00-.367-1.13l-4.845-4.48c-.762-.704-.348-1.978.682-2.1l6.553-.777c.42-.05.784-.314.961-.698l2.764-5.993z"/></svg><svg fill="none" viewBox="0 0 20 14" id="Union" xmlns="http://www.w3.org/2000/svg"><path fill-rule="evenodd" clip-rule="evenodd" d="M19.39 2.795L16.902.308 8.264 8.947 3.29 3.973.803 6.46l7.461 7.461 2.488-2.487 8.638-8.639z" fill="#006B36"/></svg><svg fill="none" viewBox="0 0 12 6" id="arrow-down" xmlns="http://www.w3.org/2000/svg"><path d="M6 5.618L11.46.19H.54L6 5.618z" fill="#4B4B4B"/></svg><svg viewBox="0 0 30 30" id="image" xmlns="http://www.w3.org/2000/svg"><g clip-path="url(#dclip0_1981_2125)"><path fill-rule="evenodd" clip-rule="evenodd" d="M12.394 16.328c1.46 2.506 5.639 5.448 6.834 5.203 1.192-.247 1.624-1.197 1.666-1.67.042-.468-2.194-2.37-2.772-2.76-.579-.39-1.472.332-1.892.637-.431.285-1.61-1.07-2.103-1.737 0 0-1.256-1.972-.823-2.26.431-.285 1.472-.824 1.267-1.465-.202-.642-1.345-3.272-1.845-3.4-.482-.124-1.577-.059-2.223.91-.647.97.684 5.413 2.709 7.55"/></g><defs><clipPath id="dclip0_1981_2125"><path fill="#fff" d="M0 0h30v30H0z"/></clipPath></defs></svg><svg viewBox="0 0 30 30" id="imagecerckle" xmlns="http://www.w3.org/2000/svg"><path d="M15 29.063c7.767 0 14.063-6.296 14.063-14.063C29.063 7.234 22.767.937 15 .937 7.234.938.937 7.234.937 15S7.234 29.063 15 29.063z"/></svg><svg viewBox="0 0 19 18" id="telegram" xmlns="http://www.w3.org/2000/svg"><g clip-path="url(#fclip0_1960_2141)"><path d="M9.561.262a8.393 8.393 0 110 16.786 8.393 8.393 0 010-16.786zm2.895 11.814c.155-.473.878-5.194.967-6.124.027-.282-.062-.469-.236-.553-.211-.101-.523-.05-.886.08-.497.18-6.85 2.878-7.218 3.034-.348.147-.677.309-.677.542 0 .165.097.257.366.353.28.1.983.313 1.399.428.4.11.856.014 1.111-.145.271-.168 3.396-2.259 3.62-2.442.224-.183.403.051.22.235-.184.183-2.328 2.265-2.611 2.553-.344.35-.1.713.13.858.264.166 2.156 1.435 2.44 1.639.286.203.575.295.84.295.264 0 .403-.348.535-.753z"/></g><defs><clipPath id="fclip0_1960_2141"><path fill="#fff" transform="translate(.904)" d="M0 0h17.311v17.311H0z"/></clipPath></defs></svg><svg viewBox="0 0 18 18" id="vk" xmlns="http://www.w3.org/2000/svg"><g clip-path="url(#gclip0_1960_2135)"><path fill-rule="evenodd" clip-rule="evenodd" d="M0 8.655C0 3.895 3.895 0 8.655 0s8.656 3.895 8.656 8.655-3.895 8.656-8.656 8.656C3.895 17.31 0 13.416 0 8.655zM2.986 5.54c.087 4.458 2.294 7.098 6.189 7.098h.13v-2.554c1.428.174 2.51 1.212 2.942 2.554h2.034c-.519-1.991-1.99-3.116-2.9-3.549.91-.52 2.208-1.818 2.51-3.549h-1.817c-.39 1.429-1.558 2.684-2.683 2.813V5.54H7.573v4.89c-1.125-.259-2.596-1.644-2.64-4.89H2.987z"/></g><defs><clipPath id="gclip0_1960_2135"><path fill="#fff" d="M0 0h17.311v17.311H0z"/></clipPath></defs></svg></svg>