<?xml version="1.0" encoding="utf-8"?><!DOCTYPE svg  PUBLIC '-//W3C//DTD SVG 1.1//EN'  'http://www.w3.org/Graphics/SVG/1.1/DTD/svg11.dtd'><svg viewBox="0 0 512 512" xmlns="http://www.w3.org/2000/svg" xmlns:xlink="http://www.w3.org/1999/xlink"><style>:root>svg{display:none}:root>svg:target{display:block}</style><svg fill="none" viewBox="0 0 194 194" id="Label" xmlns="http://www.w3.org/2000/svg"><path fill-rule="evenodd" clip-rule="evenodd" d="M93.745.944c-2.624.909-4.799 2.709-10.334 8.551-2.82 2.976-5.695 5.763-6.39 6.192-2.088 1.29-4.8 1.02-11.431-1.137-5.834-1.9-9.096-2.65-11.502-2.65-2.321 0-5.032 1.034-6.81 2.6-2.471 2.174-3.746 5.192-5.489 12.995-1.553 6.955-2.462 9.61-3.645 10.648-1.243 1.092-3.553 1.838-10.29 3.325-7.76 1.712-10.869 3.025-13.065 5.52-3.435 3.903-3.396 7.803.188 18.77 1.834 5.612 2.186 8.84 1.175 10.793-.289.56-3.159 3.522-6.378 6.582-6.354 6.042-7.606 7.589-8.61 10.644-.874 2.654-.615 5.027.878 8.061.998 2.027 2.183 3.362 7.386 8.326 3.409 3.251 6.435 6.369 6.724 6.928 1.01 1.955.66 5.182-1.175 10.795-2.84 8.691-3.271 11.693-2.196 15.312.795 2.678 3.597 5.472 6.705 6.689 1.233.483 5.106 1.523 8.605 2.313 6.683 1.507 9.316 2.421 10.341 3.589 1.082 1.231 1.825 3.526 3.354 10.359 1.747 7.803 3.023 10.823 5.492 12.996 3.91 3.441 7.797 3.398 18.835-.21 5.545-1.812 8.683-2.209 10.444-1.322.502.252 3.776 3.385 7.274 6.961 5.27 5.387 6.744 6.68 8.604 7.542 3.252 1.506 6.275 1.458 9.548-.154 2.421-1.192 3.819-2.481 11.617-10.72 1.528-1.615 3.278-3.195 3.889-3.512 1.941-1.009 4.859-.678 10.621 1.205 11.039 3.608 14.926 3.651 18.836.21 2.471-2.175 3.745-5.193 5.488-12.996 1.552-6.948 2.46-9.602 3.645-10.655.962-.855 3.984-2.002 6.689-2.537 10.183-2.017 14.249-3.554 16.667-6.301 3.44-3.908 3.397-7.798-.207-18.826-1.896-5.801-2.233-8.715-1.227-10.619.326-.617 3.381-3.782 6.789-7.034 5.28-5.037 6.377-6.28 7.426-8.409 1.719-3.493 1.727-6.383.025-9.84-1.199-2.434-2.627-3.985-10.505-11.4-1.502-1.413-3.077-3.13-3.501-3.815-1.252-2.026-.996-4.813 1.003-10.93 3.603-11.025 3.638-14.886.166-18.83-2.103-2.389-5.264-3.783-11.705-5.163-6.669-1.429-10.119-2.475-11.344-3.438-1.26-.991-2.28-3.43-3.161-7.56-2.301-10.78-3.481-13.857-6.248-16.293-3.905-3.437-7.801-3.396-18.796.197-6.116 2-8.903 2.255-10.929 1.002-.685-.423-2.404-1.998-3.819-3.5-8.679-9.208-9.8-10.174-13.083-11.277-2.251-.756-4.347-.749-6.574.023z" fill="#FE306B"/><mask id="aa" style="mask-type:alpha" maskUnits="userSpaceOnUse" x="0" y="0" width="194" height="194"><path fill-rule="evenodd" clip-rule="evenodd" d="M93.745.944c-2.624.909-4.799 2.709-10.334 8.551-2.82 2.976-5.695 5.763-6.39 6.192-2.088 1.29-4.8 1.02-11.431-1.137-5.834-1.9-9.096-2.65-11.502-2.65-2.321 0-5.032 1.034-6.81 2.6-2.471 2.174-3.746 5.192-5.489 12.995-1.553 6.955-2.462 9.61-3.645 10.648-1.243 1.092-3.553 1.838-10.29 3.325-7.76 1.712-10.869 3.025-13.065 5.52-3.435 3.903-3.396 7.803.188 18.77 1.834 5.612 2.186 8.84 1.175 10.793-.289.56-3.159 3.522-6.378 6.582-6.354 6.042-7.606 7.589-8.61 10.644-.874 2.654-.615 5.027.878 8.061.998 2.027 2.183 3.362 7.386 8.326 3.409 3.251 6.435 6.369 6.724 6.928 1.01 1.955.66 5.182-1.175 10.795-2.84 8.691-3.271 11.693-2.196 15.312.795 2.678 3.597 5.472 6.705 6.689 1.233.483 5.106 1.523 8.605 2.313 6.683 1.507 9.316 2.421 10.341 3.589 1.082 1.231 1.825 3.526 3.354 10.359 1.747 7.803 3.023 10.823 5.492 12.996 3.91 3.441 7.797 3.398 18.835-.21 5.545-1.812 8.683-2.209 10.444-1.322.502.252 3.776 3.385 7.274 6.961 5.27 5.387 6.744 6.68 8.604 7.542 3.252 1.506 6.275 1.458 9.548-.154 2.421-1.192 3.819-2.481 11.617-10.72 1.528-1.615 3.278-3.195 3.889-3.512 1.941-1.009 4.859-.678 10.621 1.205 11.039 3.608 14.926 3.651 18.836.21 2.471-2.175 3.745-5.193 5.488-12.996 1.552-6.948 2.46-9.602 3.645-10.655.962-.855 3.984-2.002 6.689-2.537 10.183-2.017 14.249-3.554 16.667-6.301 3.44-3.908 3.397-7.798-.207-18.826-1.896-5.801-2.233-8.715-1.227-10.619.326-.617 3.381-3.782 6.789-7.034 5.28-5.037 6.377-6.28 7.426-8.409 1.719-3.493 1.727-6.383.025-9.84-1.199-2.434-2.627-3.985-10.505-11.4-1.502-1.413-3.077-3.13-3.501-3.815-1.252-2.026-.996-4.813 1.003-10.93 3.603-11.025 3.638-14.886.166-18.83-2.103-2.389-5.264-3.783-11.705-5.163-6.669-1.429-10.119-2.475-11.344-3.438-1.26-.991-2.28-3.43-3.161-7.56-2.301-10.78-3.481-13.857-6.248-16.293-3.905-3.437-7.801-3.396-18.796.197-6.116 2-8.903 2.255-10.929 1.002-.685-.423-2.404-1.998-3.819-3.5-8.679-9.208-9.8-10.174-13.083-11.277-2.251-.756-4.347-.749-6.574.023z" fill="#FE306B"/></mask><g mask="url(#aa)"><path d="M29.99 123.285V83.922l-9.29 5.712V79.312l9.29-5.575h9.565v49.548h-9.566zm41.02 1.032c-3.67 0-6.88-.768-9.634-2.305a16.38 16.38 0 01-6.434-6.434c-1.537-2.753-2.305-5.964-2.305-9.635V91.079c0-3.67.768-6.881 2.305-9.634a16.375 16.375 0 016.434-6.434c2.753-1.537 5.965-2.306 9.635-2.306s6.881.769 9.634 2.306a16.376 16.376 0 016.434 6.434c1.537 2.753 2.306 5.964 2.306 9.634v14.864c0 3.671-.769 6.882-2.306 9.635a16.38 16.38 0 01-6.434 6.434c-2.753 1.537-5.964 2.305-9.634 2.305zm0-8.877c1.652 0 3.143-.39 4.474-1.17a8.73 8.73 0 003.165-3.165c.78-1.331 1.17-2.822 1.17-4.473v-16.31c0-1.651-.39-3.142-1.17-4.473a8.726 8.726 0 00-3.165-3.165c-1.33-.78-2.822-1.17-4.473-1.17-1.652 0-3.143.39-4.473 1.17a8.726 8.726 0 00-3.166 3.165c-.78 1.33-1.17 2.822-1.17 4.473v16.31c0 1.651.39 3.142 1.17 4.473a8.729 8.729 0 003.166 3.165c1.33.78 2.821 1.17 4.473 1.17zm46.371 8.877c-3.67 0-6.882-.768-9.634-2.305a16.38 16.38 0 01-6.435-6.434c-1.537-2.753-2.305-5.964-2.305-9.635V91.079c0-3.67.768-6.881 2.305-9.634a16.376 16.376 0 016.435-6.434c2.752-1.537 5.964-2.306 9.634-2.306s6.882.769 9.634 2.306a16.376 16.376 0 016.435 6.434c1.536 2.753 2.305 5.964 2.305 9.634v14.864c0 3.671-.769 6.882-2.305 9.635a16.38 16.38 0 01-6.435 6.434c-2.752 1.537-5.964 2.305-9.634 2.305zm0-8.877c1.652 0 3.143-.39 4.473-1.17a8.734 8.734 0 003.166-3.165c.78-1.331 1.169-2.822 1.169-4.473v-16.31c0-1.651-.389-3.142-1.169-4.473a8.731 8.731 0 00-3.166-3.165c-1.33-.78-2.821-1.17-4.473-1.17-1.652 0-3.143.39-4.473 1.17a8.724 8.724 0 00-3.166 3.165c-.78 1.33-1.169 2.822-1.169 4.473v16.31c0 1.651.389 3.142 1.169 4.473a8.727 8.727 0 003.166 3.165c1.33.78 2.821 1.17 4.473 1.17zm35.566 7.845l-6.193-6.193 43.354-43.355L196.301 80l-43.354 43.285zm33.032 1.032c-2.271 0-4.347-.55-6.228-1.651a13.044 13.044 0 01-4.473-4.473c-1.124-1.881-1.686-3.969-1.686-6.263 0-2.248.573-4.312 1.72-6.193a13.142 13.142 0 014.542-4.507 11.729 11.729 0 016.125-1.686c2.271 0 4.347.562 6.228 1.686a12.299 12.299 0 014.473 4.473c1.124 1.858 1.686 3.934 1.686 6.227 0 2.294-.562 4.382-1.686 6.263a12.66 12.66 0 01-4.473 4.473c-1.881 1.101-3.957 1.651-6.228 1.651zm0-7.913c.803 0 1.537-.207 2.202-.62a4.852 4.852 0 001.652-1.617 4.27 4.27 0 00.619-2.237c0-.802-.206-1.536-.619-2.202a4.748 4.748 0 00-1.652-1.651 4.092 4.092 0 00-2.202-.62c-.803 0-1.548.207-2.237.62a4.85 4.85 0 00-1.617 1.651 4.096 4.096 0 00-.619 2.202c0 .803.206 1.549.619 2.237a4.958 4.958 0 001.617 1.617c.689.413 1.434.62 2.237.62zm-28.903-18.925c-2.271 0-4.347-.55-6.228-1.651a12.946 12.946 0 01-4.507-4.474c-1.101-1.88-1.652-3.968-1.652-6.262 0-2.248.574-4.312 1.721-6.193a13.14 13.14 0 014.541-4.508 11.728 11.728 0 016.125-1.686c2.271 0 4.336.562 6.194 1.686a12.57 12.57 0 014.507 4.473c1.124 1.858 1.686 3.934 1.686 6.228 0 2.294-.562 4.382-1.686 6.262a12.946 12.946 0 01-4.507 4.474c-1.858 1.1-3.923 1.651-6.194 1.651zm0-7.914c.803 0 1.537-.206 2.202-.62a4.85 4.85 0 001.652-1.616 4.268 4.268 0 00.619-2.237c0-.803-.206-1.537-.619-2.202a4.748 4.748 0 00-1.652-1.651 4.092 4.092 0 00-2.202-.62c-.803 0-1.548.207-2.236.62a4.842 4.842 0 00-1.618 1.651 4.092 4.092 0 00-.619 2.202c0 .803.206 1.549.619 2.237a4.95 4.95 0 001.618 1.617c.688.413 1.433.62 2.236.62z" fill="#DF1E55"/></g><path d="M77.501 90.785V79.301l-2.439 1.467v-1.485l2.44-1.458h1.34v12.96h-1.34zm8.985.27c-.798 0-1.518-.186-2.16-.558a4.152 4.152 0 01-1.512-1.512c-.372-.642-.558-1.362-.558-2.16v-5.04c0-.798.186-1.515.558-2.15a4.131 4.131 0 011.512-1.522c.642-.372 1.362-.558 2.16-.558s1.515.186 2.151.558a4.11 4.11 0 011.521 1.521c.372.636.558 1.353.558 2.151v5.04c0 .798-.186 1.518-.558 2.16a4.131 4.131 0 01-1.52 1.512c-.637.372-1.354.558-2.152.558zm0-1.278a2.82 2.82 0 001.458-.387 2.975 2.975 0 001.044-1.053c.258-.438.387-.92.387-1.449v-5.166a2.82 2.82 0 00-.387-1.458 2.902 2.902 0 00-1.044-1.044 2.77 2.77 0 00-1.458-.396 2.77 2.77 0 00-1.458.396 2.902 2.902 0 00-1.044 1.044 2.82 2.82 0 00-.387 1.458v5.166c0 .528.13 1.011.387 1.45.258.437.606.788 1.044 1.052a2.82 2.82 0 001.458.387zm10.986 1.278c-.798 0-1.518-.186-2.16-.558a4.152 4.152 0 01-1.512-1.512c-.372-.642-.558-1.362-.558-2.16v-5.04c0-.798.186-1.515.558-2.15a4.131 4.131 0 011.512-1.522c.642-.372 1.362-.558 2.16-.558s1.515.186 2.151.558a4.113 4.113 0 011.521 1.521c.372.636.558 1.353.558 2.151v5.04c0 .798-.186 1.518-.558 2.16a4.133 4.133 0 01-1.52 1.512c-.637.372-1.354.558-2.152.558zm0-1.278a2.82 2.82 0 001.458-.387 2.975 2.975 0 001.044-1.053c.258-.438.387-.92.387-1.449v-5.166c0-.534-.129-1.02-.387-1.458a2.902 2.902 0 00-1.044-1.044 2.77 2.77 0 00-1.458-.396 2.77 2.77 0 00-1.458.396 2.902 2.902 0 00-1.044 1.044 2.82 2.82 0 00-.387 1.458v5.166c0 .528.13 1.011.387 1.45.258.437.606.788 1.044 1.052a2.82 2.82 0 001.458.387zm8.017 1.008l-.9-.9 12.087-12.06.9.891-12.087 12.07zm9.387.27a3.166 3.166 0 01-1.629-.432 3.412 3.412 0 01-1.17-1.17 3.133 3.133 0 01-.441-1.638c0-.588.15-1.128.45-1.62.3-.492.696-.885 1.188-1.179a3.067 3.067 0 011.602-.44c.594 0 1.137.146 1.629.44.492.288.882.678 1.17 1.17.294.486.441 1.03.441 1.63 0 .6-.147 1.145-.441 1.637a3.312 3.312 0 01-1.17 1.17 3.166 3.166 0 01-1.629.432zm0-1.197a1.95 1.95 0 001.017-.279c.312-.186.561-.432.747-.738.186-.312.279-.654.279-1.026a1.92 1.92 0 00-.279-1.017 2.121 2.121 0 00-.747-.747 1.95 1.95 0 00-1.017-.279c-.372 0-.714.093-1.026.28a2.224 2.224 0 00-.747.746 1.92 1.92 0 00-.279 1.017c0 .372.093.714.279 1.026.192.306.441.552.747.738.312.186.654.28 1.026.28zm-7.587-5.823a3.166 3.166 0 01-1.629-.432 3.387 3.387 0 01-1.179-1.17 3.183 3.183 0 01-.432-1.638c0-.588.15-1.128.45-1.62.3-.492.696-.885 1.188-1.179a3.067 3.067 0 011.602-.44 3.07 3.07 0 011.62.44c.492.288.885.678 1.179 1.17.294.486.441 1.03.441 1.63 0 .6-.147 1.145-.441 1.637a3.387 3.387 0 01-1.179 1.17 3.118 3.118 0 01-1.62.432zm0-1.197a1.92 1.92 0 001.017-.279c.312-.186.561-.432.747-.738.186-.312.279-.654.279-1.026a1.92 1.92 0 00-.279-1.017 2.121 2.121 0 00-.747-.747 1.92 1.92 0 00-1.017-.279c-.372 0-.714.093-1.026.28a2.146 2.146 0 00-.738.746 1.92 1.92 0 00-.279 1.017c0 .372.093.714.279 1.026.186.306.432.552.738.738.312.186.654.28 1.026.28zm-71.167 33.947l.018-9.72h2.484v4.68l3.294-4.68h3.024l-3.51 4.86 3.744 4.86H41.99l-3.366-4.68v4.68h-2.502zm14.148.27c-.978 0-1.836-.219-2.574-.657a4.6 4.6 0 01-1.728-1.809c-.408-.774-.612-1.662-.612-2.664 0-1.014.21-1.905.63-2.673a4.584 4.584 0 011.737-1.809c.738-.432 1.587-.648 2.547-.648.978 0 1.836.219 2.574.657a4.565 4.565 0 011.737 1.818c.414.768.62 1.653.62 2.655 0 1.008-.21 1.899-.63 2.673a4.58 4.58 0 01-1.736 1.809c-.738.432-1.593.648-2.565.648zm0-2.286c.786 0 1.37-.264 1.755-.792.39-.534.585-1.218.585-2.052 0-.864-.198-1.554-.594-2.07-.39-.516-.972-.774-1.746-.774-.534 0-.972.12-1.314.36-.342.24-.597.573-.765.999-.162.426-.243.921-.243 1.485 0 .87.195 1.563.585 2.079.396.51.975.765 1.737.765zm6.893 2.016v-9.72h8.676v9.72H63.39v-7.434h-3.78v7.434h-2.448zm19.856-9.72v9.72h-2.34v-5.94l-4.392 5.94h-1.944v-9.72h2.34v5.742l4.41-5.742h1.926zm8.245 9.72v-3.096h-1.566c-.204 0-.483-.003-.837-.009a7.047 7.047 0 01-.98-.099c-.775-.138-1.41-.474-1.909-1.008-.492-.534-.738-1.26-.738-2.178 0-.894.237-1.614.711-2.16s1.107-.894 1.9-1.044c.323-.066.656-.102.998-.108.348-.012.633-.018.855-.018h4.014v9.72h-2.448zm-6.264 0l2.196-3.6h2.52l-2.16 3.6H79zm4.428-4.986h1.836v-2.844h-1.836c-.108 0-.228.006-.36.018a2.517 2.517 0 00-.396.072 1.163 1.163 0 00-.468.27 1.455 1.455 0 00-.35.468 1.31 1.31 0 00-.136.594c0 .342.102.633.306.873.204.234.432.387.684.459.126.036.252.06.378.072.132.012.246.018.342.018zm10.385 4.986v-9.72h4.554c.36 0 .675.021.945.063.27.036.495.081.675.135.444.132.849.39 1.215.774.366.384.549.942.549 1.674 0 .432-.069.783-.207 1.053a1.951 1.951 0 01-.549.657 2.35 2.35 0 01-.324.198 1.805 1.805 0 01-.324.126c.252.036.48.102.684.198.324.144.606.372.846.684.24.306.36.762.36 1.368 0 .648-.159 1.2-.477 1.656-.312.456-.783.774-1.413.954-.216.06-.47.105-.765.135-.288.03-.59.045-.909.045h-4.86zm2.484-1.854h2.196c.126 0 .255-.012.387-.036.138-.03.261-.066.37-.108a.656.656 0 00.368-.369c.078-.174.117-.351.117-.531 0-.252-.057-.45-.17-.594a.928.928 0 00-.37-.306.972.972 0 00-.378-.09 3.72 3.72 0 00-.324-.018h-2.196v2.052zm0-3.942h1.494c.192 0 .372-.009.54-.027.174-.024.318-.063.432-.117a.72.72 0 00.351-.342c.078-.162.117-.342.117-.54 0-.21-.045-.399-.135-.567a.657.657 0 00-.423-.351 1.638 1.638 0 00-.504-.081 17.024 17.024 0 00-.378-.009h-1.494v2.034zm10.447 6.066c-.696 0-1.287-.132-1.773-.396a2.816 2.816 0 01-1.098-1.071 3.045 3.045 0 01-.369-1.485c0-.45.069-.861.207-1.233.138-.372.36-.699.666-.981.312-.288.729-.528 1.251-.72.36-.132.789-.249 1.287-.351a28.814 28.814 0 011.692-.288l2.079-.315-.882.486c0-.576-.138-.999-.414-1.269-.276-.27-.738-.405-1.386-.405-.36 0-.735.087-1.125.261-.39.174-.663.483-.819.927l-2.214-.702a3.756 3.756 0 011.386-1.962c.678-.504 1.602-.756 2.772-.756.858 0 1.62.132 2.286.396.666.264 1.17.72 1.512 1.368.192.36.306.72.342 1.08.036.36.054.762.054 1.206v5.94h-2.142v-1.998l.306.414c-.474.654-.987 1.128-1.539 1.422-.546.288-1.239.432-2.079.432zm.522-1.926c.45 0 .828-.078 1.134-.234.312-.162.558-.345.738-.549.186-.204.312-.375.378-.513.126-.264.198-.57.216-.918.024-.354.036-.648.036-.882l.72.18c-.726.12-1.314.222-1.764.306-.45.078-.813.15-1.089.216a6.353 6.353 0 00-.729.216 2.51 2.51 0 00-.585.315 1.135 1.135 0 00-.324.36.972.972 0 00-.099.441c0 .222.054.414.162.576.114.156.273.276.477.36.204.084.447.126.729.126zm7.272 1.656v-9.72h7.02v2.286h-4.572v7.434h-2.448zm17.395-9.72v9.72h-2.34v-5.94l-4.392 5.94h-1.944v-9.72h2.34v5.742l4.41-5.742h1.926zm2.503 9.72v-9.72h2.448v3.708h3.996v-3.708h2.448v9.72h-2.448v-3.726h-3.996v3.726h-2.448zm11.391 0v-9.72h2.448v3.096h.882c.27 0 .585.006.945.018.36.012.657.042.891.09.57.126 1.05.327 1.44.603.39.276.684.633.882 1.071.204.432.306.948.306 1.548 0 .864-.225 1.56-.675 2.088-.444.522-1.089.882-1.935 1.08-.234.054-.534.09-.9.108-.366.012-.684.018-.954.018h-3.33zm2.448-1.89h1.152c.108 0 .228-.006.36-.018.132-.012.264-.036.396-.072.252-.072.474-.231.666-.477.192-.246.288-.525.288-.837 0-.342-.099-.633-.297-.873a1.337 1.337 0 00-.693-.477 2.098 2.098 0 00-.378-.072 3.638 3.638 0 00-.342-.018h-1.152v2.844zm6.318 1.89v-9.72h2.448v9.72h-2.448zm-91.427 26v-9.72h1.98l3.384 6.3 3.384-6.3h1.98v9.72h-2.34v-4.842l-2.592 4.842h-.864l-2.592-4.842v4.842h-2.34zm17.628.27c-.978 0-1.836-.219-2.574-.657a4.6 4.6 0 01-1.728-1.809c-.408-.774-.612-1.662-.612-2.664 0-1.014.21-1.905.63-2.673a4.584 4.584 0 011.737-1.809c.738-.432 1.587-.648 2.547-.648.978 0 1.836.219 2.574.657a4.565 4.565 0 011.737 1.818c.414.768.621 1.653.621 2.655 0 1.008-.21 1.899-.63 2.673a4.58 4.58 0 01-1.737 1.809c-.738.432-1.593.648-2.565.648zm0-2.286c.786 0 1.371-.264 1.755-.792.39-.534.585-1.218.585-2.052 0-.864-.198-1.554-.594-2.07-.39-.516-.972-.774-1.746-.774-.534 0-.972.12-1.314.36-.342.24-.597.573-.765.999-.162.426-.243.921-.243 1.485 0 .87.195 1.563.585 2.079.396.51.975.765 1.737.765zm6.191 4.176v-4.05c.516 0 .882-.18 1.098-.54.222-.36.396-1.002.522-1.926.072-.534.132-1.095.18-1.683.054-.588.1-1.191.135-1.809.036-.618.07-1.242.1-1.872h7.505v7.83h.99v4.05h-2.304v-2.16H89.29v2.16h-2.304zm3.132-4.05h3.96v-5.94h-2.934c-.018.33-.039.66-.063.99-.018.33-.042.657-.072.981l-.072.945c-.024.3-.05.588-.08.864a7.466 7.466 0 01-.226 1.287c-.096.33-.267.621-.513.873zm13.708 2.16c-.996 0-1.875-.213-2.637-.639a4.725 4.725 0 01-1.782-1.773c-.426-.756-.64-1.62-.64-2.592 0-1.062.21-1.986.63-2.772.42-.786 1-1.395 1.738-1.827.738-.438 1.587-.657 2.547-.657 1.02 0 1.887.24 2.601.72s1.242 1.155 1.584 2.025c.342.87.462 1.893.36 3.069h-2.421v-.9c0-.99-.159-1.701-.477-2.133-.312-.438-.825-.657-1.539-.657-.834 0-1.449.255-1.845.765-.39.504-.585 1.251-.585 2.241 0 .906.195 1.608.585 2.106.396.492.975.738 1.737.738.48 0 .891-.105 1.233-.315a2.01 2.01 0 00.783-.909l2.448.702a4.299 4.299 0 01-1.737 2.07 4.774 4.774 0 01-2.583.738zm-3.222-4.446v-1.818h6.444v1.818h-6.444zm8.755 4.176v-2.034c.354.066.627.063.819-.009.192-.078.336-.228.432-.45.102-.228.189-.537.261-.927.096-.516.18-1.119.252-1.809.078-.69.144-1.419.198-2.187.054-.774.102-1.542.144-2.304h7.344v9.72h-2.448v-7.434h-2.754a56.74 56.74 0 01-.099 1.116c-.036.432-.078.882-.126 1.35-.042.462-.09.906-.144 1.332-.054.42-.111.78-.171 1.08-.144.762-.357 1.362-.639 1.8a1.865 1.865 0 01-1.161.837c-.492.126-1.128.099-1.908-.081zm20.632-9.72v9.72h-2.34v-5.94l-4.392 5.94h-1.944v-9.72h2.34v5.742l4.41-5.742h1.926z" fill="#fff"/><path fill-rule="evenodd" clip-rule="evenodd" d="M94.41 33.21a5.828 5.828 0 00-2.213.987c-1.075.796-2.018 2.002-3.094 3.956-.226.41-.438.65-1.524 1.727-.694.688-1.391 1.425-1.549 1.638a5.044 5.044 0 00-.772 1.608c-.132.5-.132 1.685.001 2.841.192 1.666.112 3.015-.28 4.695-.292 1.259-.354 1.693-.349 2.44.008 1.075.273 1.843.918 2.659.138.174.64.721 1.117 1.215.997 1.033 1.243 1.34 1.67 2.081.599 1.041 1.142 1.697 1.924 2.325 1.726 1.388 3.853 2.12 6.413 2.211 4.047.143 7.474-1.528 9.115-4.446.423-.753.727-1.134 1.775-2.227 1.657-1.729 1.985-2.37 1.983-3.877 0-.739-.055-1.138-.315-2.294-.427-1.906-.48-2.738-.289-4.616.252-2.484.067-3.465-.898-4.75-.167-.22-.771-.85-1.343-1.4-1.208-1.157-1.363-1.346-1.899-2.306-.614-1.1-1.191-1.905-1.862-2.6-.854-.885-1.639-1.406-2.574-1.708-.42-.136-1.18-.28-1.227-.233-.016.016.25.454.592.974 2.582 3.93 4.121 7.87 4.718 12.083.147 1.035.179 3.55.06 4.675-.446 4.223-2.233 7.988-5.178 10.91-.841.835-2.038 1.778-2.252 1.775-.13-.002-1.074-.71-1.736-1.3a17.953 17.953 0 01-1.18-1.18c-2.394-2.68-3.838-5.778-4.409-9.459-.172-1.111-.215-3.594-.084-4.836.245-2.31.781-4.468 1.685-6.78.701-1.79 2.074-4.385 3.239-6.122.26-.386.471-.714.471-.73 0-.043-.243-.02-.655.063zm2.502.678c-.18.05-.505.47-1.17 1.511l-.502.788.234.104c.913.406 2.226.408 3.232.005l.231-.093-.13-.216c-.403-.67-1.278-1.935-1.385-2.002-.178-.112-.34-.143-.51-.097zm-3.04 4.85c-1.388 2.879-2.204 5.736-2.444 8.547-.098 1.155-.043 3.127.118 4.179.49 3.216 1.787 5.974 3.95 8.402.516.58 1.488 1.484 1.593 1.484.106 0 1.077-.904 1.586-1.476 1.947-2.187 3.231-4.733 3.797-7.53.449-2.215.438-4.78-.029-7.283-.394-2.107-1.252-4.581-2.341-6.749l-.267-.532-.494.197c-.753.3-1.326.402-2.252.402-.927 0-1.498-.102-2.255-.404l-.498-.198-.464.962zm4.11 2.63v.924h-1.786v-1.846h1.787v.923zm-.434 3.084c1.47 2.497 2.396 5.013 2.643 7.19.258 2.275-.507 4.612-1.79 5.47-.478.319-.75.397-1.375.396-.458-.002-.552-.022-.923-.204-1.034-.505-1.8-1.814-2.088-3.568-.112-.683-.083-2.014.063-2.807.265-1.447.805-3.057 1.56-4.647.327-.689 1.387-2.562 1.448-2.56.018.001.226.33.462.73zm-.707 3.543c-.775 1.846-1.182 3.676-1.103 4.952.081 1.293.6 2.508 1.172 2.745.497.206 1.04-.475 1.38-1.732.111-.414.135-.652.134-1.365 0-.954-.12-1.702-.446-2.809-.189-.64-.83-2.313-.886-2.313-.018 0-.13.235-.251.522z" fill="#fff"/></svg><svg fill="none" viewBox="0 0 26 25" id="Star-1" xmlns="http://www.w3.org/2000/svg"><path d="M11.616 1.393c.435-.942 1.774-.942 2.208 0l2.764 5.993c.177.384.541.648.961.698l6.553.777c1.03.122 1.444 1.396.683 2.1l-4.845 4.48c-.31.288-.45.715-.367 1.13l1.286 6.473c.202 1.017-.881 1.804-1.787 1.298l-5.758-3.224a1.216 1.216 0 00-1.188 0l-5.758 3.224c-.906.506-1.989-.28-1.786-1.298l1.286-6.473a1.216 1.216 0 00-.367-1.13l-4.845-4.48c-.762-.704-.348-1.978.682-2.1l6.553-.777c.42-.05.784-.314.961-.698l2.764-5.993z" fill="#D9D9D9"/></svg><svg fill="none" viewBox="0 0 26 24" id="Star-2" xmlns="http://www.w3.org/2000/svg"><path d="M11.616.834c.435-.942 1.774-.942 2.208 0l2.764 5.992c.177.384.541.648.961.698l6.553.777c1.03.122 1.444 1.396.683 2.1l-4.845 4.48c-.31.288-.45.716-.367 1.13l1.286 6.473c.202 1.018-.881 1.805-1.787 1.298l-5.758-3.224a1.216 1.216 0 00-1.188 0l-5.758 3.224c-.906.507-1.989-.28-1.786-1.298l1.286-6.473a1.215 1.215 0 00-.367-1.13l-4.845-4.48c-.762-.704-.348-1.978.682-2.1l6.553-.777c.42-.05.784-.314.961-.698L11.616.834z" fill="#FFB802"/></svg><svg fill="none" viewBox="0 0 20 14" id="Union" xmlns="http://www.w3.org/2000/svg"><path fill-rule="evenodd" clip-rule="evenodd" d="M19.39 2.795L16.902.308 8.264 8.947 3.29 3.973.803 6.46l7.461 7.461 2.488-2.487 8.638-8.639z" fill="#006B36"/></svg><svg fill="none" viewBox="0 0 12 6" id="arrow-down" xmlns="http://www.w3.org/2000/svg"><path d="M6 5.618L11.46.19H.54L6 5.618z" fill="#4B4B4B"/></svg><svg viewBox="0 0 512 512" id="footer-cheap" xmlns="http://www.w3.org/2000/svg"><g stroke="#3B3A3E" stroke-linecap="round" stroke-linejoin="round" stroke-miterlimit="10" stroke-width="20"><path fill="#D9DCE1" d="M148 80h216v352H148z"/><path fill="none" d="M218.335 203l75.329 43.49-75.329 43.492zM64 80h84v352H64z"/><path fill="none" d="M64 197h84v129H64zM364 80h84v352h-84z"/><path fill="none" d="M364 197h84v129h-84zM148 80h216v352H148z"/><path fill="#65A0D6" d="M218.335 203l75.329 43.49-75.329 43.492zM64 80h84v352H64z"/><path fill="none" d="M64 197h84v129H64z"/><path fill="#65A0D6" d="M364 80h84v352h-84z"/><path fill="none" d="M364 197h84v129h-84z"/></g></svg><svg fill="currentColor" class="gbi gbi-list" viewBox="0 0 16 16" id="list" xmlns="http://www.w3.org/2000/svg"><path fill-rule="evenodd" d="M2.5 12a.5.5 0 01.5-.5h10a.5.5 0 010 1H3a.5.5 0 01-.5-.5zm0-4a.5.5 0 01.5-.5h10a.5.5 0 010 1H3a.5.5 0 01-.5-.5zm0-4a.5.5 0 01.5-.5h10a.5.5 0 010 1H3a.5.5 0 01-.5-.5z"/></svg><svg viewBox="0 0 512 512" id="logo" xmlns="http://www.w3.org/2000/svg"><g stroke="#3B3A3E" stroke-linecap="round" stroke-linejoin="round" stroke-miterlimit="10" stroke-width="20"><path d="M443 170.865v235H69v-235h112v-52.73c0-6.63 5.37-12 12-12h126c6.63 0 12 5.37 12 12v52.73h112z" fill="none"/><circle cx="256" cy="287.229" fill="none" r="83.708"/><path d="M256 323.938c-20.24 0-36.708-16.467-36.708-36.708S235.76 250.521 256 250.521c20.241 0 36.708 16.467 36.708 36.708S276.241 323.938 256 323.938zM369 203.521h42M87 138.865h53v32H87z" fill="none"/><path d="M443 170.865v235H69v-235h112v-52.73c0-6.63 5.37-12 12-12h126c6.63 0 12 5.37 12 12v52.73h112z" fill="#65A0D6"/><circle cx="256" cy="287.229" fill="#D9DCE1" r="83.708"/><path d="M256 323.938c-20.24 0-36.708-16.467-36.708-36.708S235.76 250.521 256 250.521c20.241 0 36.708 16.467 36.708 36.708S276.241 323.938 256 323.938z" fill="#3C74BA"/><path fill="none" d="M369 203.521h42"/><path fill="#3C74BA" d="M87 138.865h53v32H87z"/></g></svg><svg fill="none" viewBox="0 0 21 37" id="play" xmlns="http://www.w3.org/2000/svg"><path d="M.005 18.668v18.177l20.449-18.177L.004.491v18.177z" fill="#272727"/></svg><svg fill="currentColor" class="jbi jbi-arrow-right" viewBox="0 0 16 16" id="right" xmlns="http://www.w3.org/2000/svg"><path fill-rule="evenodd" d="M1 8a.5.5 0 01.5-.5h11.793l-3.147-3.146a.5.5 0 01.708-.708l4 4a.5.5 0 010 .708l-4 4a.5.5 0 01-.708-.708L13.293 8.5H1.5A.5.5 0 011 8z"/></svg><svg class="kbi kbi-search" viewBox="0 0 16 16" id="search" xmlns="http://www.w3.org/2000/svg"><path d="M11.742 10.344a6.5 6.5 0 10-1.397 1.398h-.001c.03.04.062.078.098.115l3.85 3.85a1 1 0 001.415-1.414l-3.85-3.85a1.007 1.007 0 00-.115-.1zM12 6.5a5.5 5.5 0 11-11 0 5.5 5.5 0 0111 0z"/></svg><svg fill="currentColor" class="lbi lbi-x-lg" viewBox="0 0 16 16" id="x-lg" xmlns="http://www.w3.org/2000/svg"><path d="M2.146 2.854a.5.5 0 11.708-.708L8 7.293l5.146-5.147a.5.5 0 01.708.708L8.707 8l5.147 5.146a.5.5 0 01-.708.708L8 8.707l-5.146 5.147a.5.5 0 01-.708-.708L7.293 8 2.146 2.854z"/></svg></svg>