<?xml version="1.0" encoding="utf-8"?><!DOCTYPE svg  PUBLIC '-//W3C//DTD SVG 1.1//EN'  'http://www.w3.org/Graphics/SVG/1.1/DTD/svg11.dtd'><svg viewBox="0 0 512 512" xmlns="http://www.w3.org/2000/svg" xmlns:xlink="http://www.w3.org/1999/xlink"><style>:root>svg{display:none}:root>svg:target{display:block}</style><svg fill="none" viewBox="0 0 86 65" id="Group" xmlns="http://www.w3.org/2000/svg"><path d="M85.92 31.89l-2.18-8.64c-1.96-7.8-9-13.25-17.11-13.25h-8.35c-3.28 0-6.08 2.09-7.13 5h-3.28V2.5c0-1.39-1.13-2.5-2.52-2.5H15.11c-1.39 0-2.52 1.11-2.52 2.5V15H7.55c-1.39 0-2.52 1.11-2.52 2.5V30H2.51C1.12 30 0 31.11 0 32.5v15C0 51.63 3.39 55 7.55 55h2.52c0 5.51 4.52 10 10.08 10 5.56 0 10.08-4.49 10.08-10h25.53c0 5.51 4.52 10 10.08 10 5.56 0 10.08-4.49 10.08-10h2.52C82.6 55 86 51.63 86 47.5v-15c0-.21-.03-.41-.08-.61zM32.75 5h10.08v10H32.75V5zm2.52 15v10H25.19V20h10.08zM17.63 5h10.08v10H17.63V5zm-7.56 15h10.08v10H10.07V20zm10.08 40c-2.78 0-5.04-2.25-5.04-5 0-2.76 2.26-5 5.04-5 2.78 0 5.04 2.24 5.04 5 0 2.75-2.26 5-5.04 5zm30.57-10H28.87c-1.74-2.99-5-5-8.72-5-3.72 0-6.98 2.01-8.72 5H7.55c-1.39 0-2.52-1.13-2.52-2.5V35h45.69v15zm0-20H40.31V20h10.41v10zm15.12 30c-2.78 0-5.04-2.25-5.04-5 0-2.76 2.26-5 5.04-5 2.78 0 5.04 2.24 5.04 5 0 2.75-2.26 5-5.04 5zm15.12-12.5c0 1.37-1.13 2.5-2.52 2.5h-3.88c-1.74-2.99-5-5-8.72-5-3.72 0-6.98 2.01-8.72 5h-1.36V17.5c0-1.38 1.13-2.5 2.52-2.5h2.52v17.5c0 4.13 3.39 7.5 7.56 7.5h12.6v7.5zm0-12.5h-3.49l.7-1.39c.62-1.23.12-2.73-1.13-3.35a2.526 2.526 0 00-3.38 1.12L71.84 35h-3.48c-1.39 0-2.52-1.13-2.52-2.5V15h.79c5.79 0 10.82 3.89 12.22 9.46l2.11 8.34V35z" fill="#5F5F5F"/></svg><svg fill="none" viewBox="0 0 104 104" id="Group-1" xmlns="http://www.w3.org/2000/svg"><path d="M82.58 73.41L104 52 90.23 38.23l-9.18 9.18L78 44.35c5.05-5.06 5.05-13.3 0-18.35-5.06-5.06-13.3-5.06-18.36 0l-3.06-3.06 9.18-9.18L52 0 30.58 21.41l13.77 13.76L53.52 26l3.06 3.05-13.02 13.03c-7.23-3.45-16.17-2.18-22.15 3.8l-1.53 1.53L36.7 64.23l-3.32 3.32c-2.41-1.15-5.39-.73-7.38 1.27A6.5 6.5 0 0026 78a6.488 6.488 0 0010.44-7.39l3.32-3.32 16.82 16.82 1.53-1.53c5.98-5.98 7.25-14.92 3.8-22.15 2.3-2.29 10.12-10.12 13.03-13.02L78 50.47l-9.18 9.17 13.76 13.77zM59.64 13.76l-3.06 3.06-7.64-7.65L52 6.11l7.64 7.65zm-6.12 6.12l-3.05 3.06-7.65-7.65 3.06-3.06 7.64 7.65zM36.7 21.41l3.06-3.06L47.41 26l-3.06 3.05-7.65-7.64zm-7.65 53.53c-.84-.85-.84-2.22 0-3.06.85-.85 2.22-.85 3.06 0 .85.84.85 2.21 0 3.06-.84.84-2.21.84-3.06 0zm45.89-45.89c3.37 3.38 3.37 8.87 0 12.24l-3.06 3.06-12.24-12.24 3.06-3.06c3.37-3.37 8.86-3.37 12.24 0zM45.88 48.94l9.17 9.17c2.91 2.91 4.39 6.72 4.43 10.55L35.33 44.51c3.83.04 7.64 1.52 10.55 4.43zM26.1 47.52c1.24-.93 2.58-1.64 3.99-2.14L58.61 73.9c-.5 1.41-1.21 2.75-2.14 3.99L26.1 47.52zm33.54 9.06L47.41 44.35c1.07-1.08 7.72-7.72 9.17-9.18l12.24 12.24-9.18 9.17zm15.3 3.06L78 56.58l7.64 7.65-3.06 3.06-7.64-7.65zm6.11-6.12l3.06-3.05 7.65 7.64-3.06 3.06-7.65-7.65zM97.88 52l-3.06 3.05-7.65-7.64 3.06-3.06L97.88 52z" fill="#5F5F5F"/></svg><svg fill="none" viewBox="0 0 90 56" id="Group_14" xmlns="http://www.w3.org/2000/svg"><path d="M2.9 0h54.97c1.6 0 2.9 1.25 2.9 2.79v7.36h15c1.06 0 2.03.56 2.54 1.45l6.63 11.6h2.15c1.61 0 2.91 1.25 2.9 2.79v19.85c0 1.54-1.29 2.79-2.9 2.79h-4.33C81.57 52.87 77.54 56 72.77 56c-4.77 0-8.8-3.13-10-7.37H29.05C27.86 52.87 23.83 56 19.06 56c-4.77 0-8.8-3.13-10-7.37H2.9c-1.61 0-2.9-1.25-2.9-2.79V2.79C0 1.25 1.29 0 2.9 0zm75.41 23.2l-4.26-7.46H60.77v7.46h17.54zM9.18 43.04c1.32-4.04 5.25-6.98 9.88-6.98 4.63 0 8.56 2.94 9.88 6.98h26.02V5.59H5.8v37.45h3.38zm51.59 0V28.79h23.42v14.25h-1.54c-1.32-4.04-5.25-6.98-9.88-6.98-4.63 0-8.56 2.94-9.88 6.98h-2.12zm-46.26 2.98c0 2.42 2.04 4.38 4.55 4.38s4.55-1.96 4.55-4.38c0-2.41-2.04-4.37-4.55-4.37s-4.55 1.96-4.55 4.37zm58.26 4.38c-2.51 0-4.55-1.96-4.55-4.38 0-2.41 2.04-4.37 4.55-4.37s4.55 1.96 4.55 4.37c0 2.42-2.04 4.38-4.55 4.38z" fill="#5F5F5F" fill-rule="evenodd"/></svg><svg fill="none" viewBox="0 0 72 90" id="Group_15" xmlns="http://www.w3.org/2000/svg"><path d="M65.54 15.64C58.74 5.7 47.97 0 36 0 24.02 0 13.25 5.7 6.46 15.64c-6.76 9.9-8.32 22.42-4.19 33.49 1.11 3.02 2.87 5.96 5.22 8.71l26.14 31.05c.59.7 1.45 1.11 2.37 1.11.91 0 1.77-.41 2.37-1.11L64.5 57.85c2.36-2.77 4.11-5.7 5.21-8.7 4.15-11.09 2.59-23.61-4.17-33.51zm-1.66 31.31c-.84 2.31-2.22 4.59-4.1 6.79-.01.01-.01.01-.01.02L36 81.99 12.21 53.74c-1.87-2.19-3.25-4.48-4.11-6.82-3.42-9.15-2.12-19.5 3.48-27.7C17.19 11 26.09 6.29 36 6.29c9.9 0 18.8 4.71 24.42 12.93 5.59 8.2 6.89 18.55 3.46 27.73z" fill="#5F5F5F"/><path d="M36 18.67c-9.61 0-17.43 7.9-17.43 17.62S26.39 53.91 36 53.91s17.42-7.9 17.42-17.62S45.6 18.67 36 18.67zm0 28.95c-6.18 0-11.21-5.08-11.21-11.33S29.82 24.96 36 24.96c6.17 0 11.2 5.08 11.2 11.33S42.17 47.62 36 47.62z" fill="#5F5F5F"/></svg><svg fill="none" viewBox="0 0 80 80" id="Group_16" xmlns="http://www.w3.org/2000/svg"><path d="M36.4 55.86c.46.44 1.07.69 1.71.69.64 0 1.26-.25 1.71-.69l8.63-8.44c.95-.92.95-2.42 0-3.34-.94-.92-2.47-.92-3.42 0l-6.92 6.76-3.15-3.08c-.95-.92-2.48-.92-3.42 0-.95.92-.95 2.42 0 3.34l4.86 4.76z" fill="#5F5F5F"/><path d="M40 68.72c10.58 0 19.19-8.41 19.19-18.75S50.58 31.22 40 31.22c-10.59 0-19.2 8.41-19.2 18.75S29.41 68.72 40 68.72zm0-32.78c7.91 0 14.35 6.29 14.35 14.03C54.35 57.7 47.91 64 40 64c-7.92 0-14.36-6.3-14.36-14.03 0-7.74 6.44-14.03 14.36-14.03z" fill="#5F5F5F"/><path d="M72.18 5.02h-4.41V2.36c0-1.31-1.09-2.36-2.42-2.36-1.34 0-2.42 1.05-2.42 2.36v2.66h-4.75V2.36C58.18 1.05 57.1 0 55.76 0c-1.33 0-2.42 1.05-2.42 2.36v2.66H26.65V2.36c0-1.31-1.09-2.36-2.42-2.36-1.34 0-2.42 1.05-2.42 2.36v2.66h-4.75V2.36c0-1.31-1.08-2.36-2.42-2.36-1.33 0-2.42 1.05-2.42 2.36v2.66H7.81C3.5 5.02 0 8.45 0 12.66v59.7C0 76.57 3.5 80 7.81 80h64.37c4.31 0 7.82-3.43 7.82-7.64v-59.7c0-4.21-3.51-7.64-7.82-7.64zm2.98 67.34c0 1.6-1.34 2.91-2.98 2.91H7.81c-1.64 0-2.98-1.31-2.98-2.91V24.67h70.33v47.69zM4.83 12.66c0-1.6 1.34-2.91 2.98-2.91h4.41v2.67c0 1.3 1.09 2.36 2.42 2.36 1.34 0 2.42-1.06 2.42-2.36V9.75h4.75v2.67c0 1.3 1.08 2.36 2.42 2.36 1.33 0 2.42-1.06 2.42-2.36V9.75h26.69v2.67c0 1.3 1.09 2.36 2.42 2.36 1.34 0 2.42-1.06 2.42-2.36V9.75h4.75v2.67c0 1.3 1.08 2.36 2.42 2.36 1.33 0 2.42-1.06 2.42-2.36V9.75h4.41c1.64 0 2.98 1.31 2.98 2.91v7.28H4.83v-7.28z" fill="#5F5F5F"/></svg><svg fill="none" viewBox="0 0 194 194" id="Label" xmlns="http://www.w3.org/2000/svg"><path fill-rule="evenodd" clip-rule="evenodd" d="M93.745.944c-2.624.909-4.799 2.709-10.334 8.551-2.82 2.976-5.695 5.763-6.39 6.192-2.088 1.29-4.8 1.02-11.431-1.137-5.834-1.9-9.096-2.65-11.502-2.65-2.321 0-5.032 1.034-6.81 2.6-2.471 2.174-3.746 5.192-5.489 12.995-1.553 6.955-2.462 9.61-3.645 10.648-1.243 1.092-3.553 1.838-10.29 3.325-7.76 1.712-10.869 3.025-13.065 5.52-3.435 3.903-3.396 7.803.188 18.77 1.834 5.612 2.186 8.84 1.175 10.793-.289.56-3.159 3.522-6.378 6.582-6.354 6.042-7.606 7.589-8.61 10.644-.874 2.654-.615 5.027.878 8.061.998 2.027 2.183 3.362 7.386 8.326 3.409 3.251 6.435 6.369 6.724 6.928 1.01 1.955.66 5.182-1.175 10.795-2.84 8.691-3.271 11.693-2.196 15.312.795 2.678 3.597 5.472 6.705 6.689 1.233.483 5.106 1.523 8.605 2.313 6.683 1.507 9.316 2.421 10.341 3.589 1.082 1.231 1.825 3.526 3.354 10.359 1.747 7.803 3.023 10.823 5.492 12.996 3.91 3.441 7.797 3.398 18.835-.21 5.545-1.812 8.683-2.209 10.444-1.322.502.252 3.776 3.385 7.274 6.961 5.27 5.387 6.744 6.68 8.604 7.542 3.252 1.506 6.275 1.458 9.548-.154 2.421-1.192 3.819-2.481 11.617-10.72 1.528-1.615 3.278-3.195 3.889-3.512 1.941-1.009 4.859-.678 10.621 1.205 11.039 3.608 14.926 3.651 18.836.21 2.471-2.175 3.745-5.193 5.488-12.996 1.552-6.948 2.46-9.602 3.645-10.655.962-.855 3.984-2.002 6.689-2.537 10.183-2.017 14.249-3.554 16.667-6.301 3.44-3.908 3.397-7.798-.207-18.826-1.896-5.801-2.233-8.715-1.227-10.619.326-.617 3.381-3.782 6.789-7.034 5.28-5.037 6.377-6.28 7.426-8.409 1.719-3.493 1.727-6.383.025-9.84-1.199-2.434-2.627-3.985-10.505-11.4-1.502-1.413-3.077-3.13-3.501-3.815-1.252-2.026-.996-4.813 1.003-10.93 3.603-11.025 3.638-14.886.166-18.83-2.103-2.389-5.264-3.783-11.705-5.163-6.669-1.429-10.119-2.475-11.344-3.438-1.26-.991-2.28-3.43-3.161-7.56-2.301-10.78-3.481-13.857-6.248-16.293-3.905-3.437-7.801-3.396-18.796.197-6.116 2-8.903 2.255-10.929 1.002-.685-.423-2.404-1.998-3.819-3.5-8.679-9.208-9.8-10.174-13.083-11.277-2.251-.756-4.347-.749-6.574.023z" fill="#FE306B"/><mask id="fa" style="mask-type:alpha" maskUnits="userSpaceOnUse" x="0" y="0" width="194" height="194"><path fill-rule="evenodd" clip-rule="evenodd" d="M93.745.944c-2.624.909-4.799 2.709-10.334 8.551-2.82 2.976-5.695 5.763-6.39 6.192-2.088 1.29-4.8 1.02-11.431-1.137-5.834-1.9-9.096-2.65-11.502-2.65-2.321 0-5.032 1.034-6.81 2.6-2.471 2.174-3.746 5.192-5.489 12.995-1.553 6.955-2.462 9.61-3.645 10.648-1.243 1.092-3.553 1.838-10.29 3.325-7.76 1.712-10.869 3.025-13.065 5.52-3.435 3.903-3.396 7.803.188 18.77 1.834 5.612 2.186 8.84 1.175 10.793-.289.56-3.159 3.522-6.378 6.582-6.354 6.042-7.606 7.589-8.61 10.644-.874 2.654-.615 5.027.878 8.061.998 2.027 2.183 3.362 7.386 8.326 3.409 3.251 6.435 6.369 6.724 6.928 1.01 1.955.66 5.182-1.175 10.795-2.84 8.691-3.271 11.693-2.196 15.312.795 2.678 3.597 5.472 6.705 6.689 1.233.483 5.106 1.523 8.605 2.313 6.683 1.507 9.316 2.421 10.341 3.589 1.082 1.231 1.825 3.526 3.354 10.359 1.747 7.803 3.023 10.823 5.492 12.996 3.91 3.441 7.797 3.398 18.835-.21 5.545-1.812 8.683-2.209 10.444-1.322.502.252 3.776 3.385 7.274 6.961 5.27 5.387 6.744 6.68 8.604 7.542 3.252 1.506 6.275 1.458 9.548-.154 2.421-1.192 3.819-2.481 11.617-10.72 1.528-1.615 3.278-3.195 3.889-3.512 1.941-1.009 4.859-.678 10.621 1.205 11.039 3.608 14.926 3.651 18.836.21 2.471-2.175 3.745-5.193 5.488-12.996 1.552-6.948 2.46-9.602 3.645-10.655.962-.855 3.984-2.002 6.689-2.537 10.183-2.017 14.249-3.554 16.667-6.301 3.44-3.908 3.397-7.798-.207-18.826-1.896-5.801-2.233-8.715-1.227-10.619.326-.617 3.381-3.782 6.789-7.034 5.28-5.037 6.377-6.28 7.426-8.409 1.719-3.493 1.727-6.383.025-9.84-1.199-2.434-2.627-3.985-10.505-11.4-1.502-1.413-3.077-3.13-3.501-3.815-1.252-2.026-.996-4.813 1.003-10.93 3.603-11.025 3.638-14.886.166-18.83-2.103-2.389-5.264-3.783-11.705-5.163-6.669-1.429-10.119-2.475-11.344-3.438-1.26-.991-2.28-3.43-3.161-7.56-2.301-10.78-3.481-13.857-6.248-16.293-3.905-3.437-7.801-3.396-18.796.197-6.116 2-8.903 2.255-10.929 1.002-.685-.423-2.404-1.998-3.819-3.5-8.679-9.208-9.8-10.174-13.083-11.277-2.251-.756-4.347-.749-6.574.023z" fill="#FE306B"/></mask><g mask="url(#fa)"><path d="M29.99 123.285V83.922l-9.29 5.712V79.312l9.29-5.575h9.565v49.548h-9.566zm41.02 1.032c-3.67 0-6.88-.768-9.634-2.305a16.38 16.38 0 01-6.434-6.434c-1.537-2.753-2.305-5.964-2.305-9.635V91.079c0-3.67.768-6.881 2.305-9.634a16.375 16.375 0 016.434-6.434c2.753-1.537 5.965-2.306 9.635-2.306s6.881.769 9.634 2.306a16.376 16.376 0 016.434 6.434c1.537 2.753 2.306 5.964 2.306 9.634v14.864c0 3.671-.769 6.882-2.306 9.635a16.38 16.38 0 01-6.434 6.434c-2.753 1.537-5.964 2.305-9.634 2.305zm0-8.877c1.652 0 3.143-.39 4.474-1.17a8.73 8.73 0 003.165-3.165c.78-1.331 1.17-2.822 1.17-4.473v-16.31c0-1.651-.39-3.142-1.17-4.473a8.726 8.726 0 00-3.165-3.165c-1.33-.78-2.822-1.17-4.473-1.17-1.652 0-3.143.39-4.473 1.17a8.726 8.726 0 00-3.166 3.165c-.78 1.33-1.17 2.822-1.17 4.473v16.31c0 1.651.39 3.142 1.17 4.473a8.729 8.729 0 003.166 3.165c1.33.78 2.821 1.17 4.473 1.17zm46.371 8.877c-3.67 0-6.882-.768-9.634-2.305a16.38 16.38 0 01-6.435-6.434c-1.537-2.753-2.305-5.964-2.305-9.635V91.079c0-3.67.768-6.881 2.305-9.634a16.376 16.376 0 016.435-6.434c2.752-1.537 5.964-2.306 9.634-2.306s6.882.769 9.634 2.306a16.376 16.376 0 016.435 6.434c1.536 2.753 2.305 5.964 2.305 9.634v14.864c0 3.671-.769 6.882-2.305 9.635a16.38 16.38 0 01-6.435 6.434c-2.752 1.537-5.964 2.305-9.634 2.305zm0-8.877c1.652 0 3.143-.39 4.473-1.17a8.734 8.734 0 003.166-3.165c.78-1.331 1.169-2.822 1.169-4.473v-16.31c0-1.651-.389-3.142-1.169-4.473a8.731 8.731 0 00-3.166-3.165c-1.33-.78-2.821-1.17-4.473-1.17-1.652 0-3.143.39-4.473 1.17a8.724 8.724 0 00-3.166 3.165c-.78 1.33-1.169 2.822-1.169 4.473v16.31c0 1.651.389 3.142 1.169 4.473a8.727 8.727 0 003.166 3.165c1.33.78 2.821 1.17 4.473 1.17zm35.566 7.845l-6.193-6.193 43.354-43.355L196.301 80l-43.354 43.285zm33.032 1.032c-2.271 0-4.347-.55-6.228-1.651a13.044 13.044 0 01-4.473-4.473c-1.124-1.881-1.686-3.969-1.686-6.263 0-2.248.573-4.312 1.72-6.193a13.142 13.142 0 014.542-4.507 11.729 11.729 0 016.125-1.686c2.271 0 4.347.562 6.228 1.686a12.299 12.299 0 014.473 4.473c1.124 1.858 1.686 3.934 1.686 6.227 0 2.294-.562 4.382-1.686 6.263a12.66 12.66 0 01-4.473 4.473c-1.881 1.101-3.957 1.651-6.228 1.651zm0-7.913c.803 0 1.537-.207 2.202-.62a4.852 4.852 0 001.652-1.617 4.27 4.27 0 00.619-2.237c0-.802-.206-1.536-.619-2.202a4.748 4.748 0 00-1.652-1.651 4.092 4.092 0 00-2.202-.62c-.803 0-1.548.207-2.237.62a4.85 4.85 0 00-1.617 1.651 4.096 4.096 0 00-.619 2.202c0 .803.206 1.549.619 2.237a4.958 4.958 0 001.617 1.617c.689.413 1.434.62 2.237.62zm-28.903-18.925c-2.271 0-4.347-.55-6.228-1.651a12.946 12.946 0 01-4.507-4.474c-1.101-1.88-1.652-3.968-1.652-6.262 0-2.248.574-4.312 1.721-6.193a13.14 13.14 0 014.541-4.508 11.728 11.728 0 016.125-1.686c2.271 0 4.336.562 6.194 1.686a12.57 12.57 0 014.507 4.473c1.124 1.858 1.686 3.934 1.686 6.228 0 2.294-.562 4.382-1.686 6.262a12.946 12.946 0 01-4.507 4.474c-1.858 1.1-3.923 1.651-6.194 1.651zm0-7.914c.803 0 1.537-.206 2.202-.62a4.85 4.85 0 001.652-1.616 4.268 4.268 0 00.619-2.237c0-.803-.206-1.537-.619-2.202a4.748 4.748 0 00-1.652-1.651 4.092 4.092 0 00-2.202-.62c-.803 0-1.548.207-2.236.62a4.842 4.842 0 00-1.618 1.651 4.092 4.092 0 00-.619 2.202c0 .803.206 1.549.619 2.237a4.95 4.95 0 001.618 1.617c.688.413 1.433.62 2.236.62z" fill="#DF1E55"/></g><path d="M77.501 90.785V79.301l-2.439 1.467v-1.485l2.44-1.458h1.34v12.96h-1.34zm8.985.27c-.798 0-1.518-.186-2.16-.558a4.152 4.152 0 01-1.512-1.512c-.372-.642-.558-1.362-.558-2.16v-5.04c0-.798.186-1.515.558-2.15a4.131 4.131 0 011.512-1.522c.642-.372 1.362-.558 2.16-.558s1.515.186 2.151.558a4.11 4.11 0 011.521 1.521c.372.636.558 1.353.558 2.151v5.04c0 .798-.186 1.518-.558 2.16a4.131 4.131 0 01-1.52 1.512c-.637.372-1.354.558-2.152.558zm0-1.278a2.82 2.82 0 001.458-.387 2.975 2.975 0 001.044-1.053c.258-.438.387-.92.387-1.449v-5.166a2.82 2.82 0 00-.387-1.458 2.902 2.902 0 00-1.044-1.044 2.77 2.77 0 00-1.458-.396 2.77 2.77 0 00-1.458.396 2.902 2.902 0 00-1.044 1.044 2.82 2.82 0 00-.387 1.458v5.166c0 .528.13 1.011.387 1.45.258.437.606.788 1.044 1.052a2.82 2.82 0 001.458.387zm10.986 1.278c-.798 0-1.518-.186-2.16-.558a4.152 4.152 0 01-1.512-1.512c-.372-.642-.558-1.362-.558-2.16v-5.04c0-.798.186-1.515.558-2.15a4.131 4.131 0 011.512-1.522c.642-.372 1.362-.558 2.16-.558s1.515.186 2.151.558a4.113 4.113 0 011.521 1.521c.372.636.558 1.353.558 2.151v5.04c0 .798-.186 1.518-.558 2.16a4.133 4.133 0 01-1.52 1.512c-.637.372-1.354.558-2.152.558zm0-1.278a2.82 2.82 0 001.458-.387 2.975 2.975 0 001.044-1.053c.258-.438.387-.92.387-1.449v-5.166c0-.534-.129-1.02-.387-1.458a2.902 2.902 0 00-1.044-1.044 2.77 2.77 0 00-1.458-.396 2.77 2.77 0 00-1.458.396 2.902 2.902 0 00-1.044 1.044 2.82 2.82 0 00-.387 1.458v5.166c0 .528.13 1.011.387 1.45.258.437.606.788 1.044 1.052a2.82 2.82 0 001.458.387zm8.017 1.008l-.9-.9 12.087-12.06.9.891-12.087 12.07zm9.387.27a3.166 3.166 0 01-1.629-.432 3.412 3.412 0 01-1.17-1.17 3.133 3.133 0 01-.441-1.638c0-.588.15-1.128.45-1.62.3-.492.696-.885 1.188-1.179a3.067 3.067 0 011.602-.44c.594 0 1.137.146 1.629.44.492.288.882.678 1.17 1.17.294.486.441 1.03.441 1.63 0 .6-.147 1.145-.441 1.637a3.312 3.312 0 01-1.17 1.17 3.166 3.166 0 01-1.629.432zm0-1.197a1.95 1.95 0 001.017-.279c.312-.186.561-.432.747-.738.186-.312.279-.654.279-1.026a1.92 1.92 0 00-.279-1.017 2.121 2.121 0 00-.747-.747 1.95 1.95 0 00-1.017-.279c-.372 0-.714.093-1.026.28a2.224 2.224 0 00-.747.746 1.92 1.92 0 00-.279 1.017c0 .372.093.714.279 1.026.192.306.441.552.747.738.312.186.654.28 1.026.28zm-7.587-5.823a3.166 3.166 0 01-1.629-.432 3.387 3.387 0 01-1.179-1.17 3.183 3.183 0 01-.432-1.638c0-.588.15-1.128.45-1.62.3-.492.696-.885 1.188-1.179a3.067 3.067 0 011.602-.44 3.07 3.07 0 011.62.44c.492.288.885.678 1.179 1.17.294.486.441 1.03.441 1.63 0 .6-.147 1.145-.441 1.637a3.387 3.387 0 01-1.179 1.17 3.118 3.118 0 01-1.62.432zm0-1.197a1.92 1.92 0 001.017-.279c.312-.186.561-.432.747-.738.186-.312.279-.654.279-1.026a1.92 1.92 0 00-.279-1.017 2.121 2.121 0 00-.747-.747 1.92 1.92 0 00-1.017-.279c-.372 0-.714.093-1.026.28a2.146 2.146 0 00-.738.746 1.92 1.92 0 00-.279 1.017c0 .372.093.714.279 1.026.186.306.432.552.738.738.312.186.654.28 1.026.28zm-71.167 33.947l.018-9.72h2.484v4.68l3.294-4.68h3.024l-3.51 4.86 3.744 4.86H41.99l-3.366-4.68v4.68h-2.502zm14.148.27c-.978 0-1.836-.219-2.574-.657a4.6 4.6 0 01-1.728-1.809c-.408-.774-.612-1.662-.612-2.664 0-1.014.21-1.905.63-2.673a4.584 4.584 0 011.737-1.809c.738-.432 1.587-.648 2.547-.648.978 0 1.836.219 2.574.657a4.565 4.565 0 011.737 1.818c.414.768.62 1.653.62 2.655 0 1.008-.21 1.899-.63 2.673a4.58 4.58 0 01-1.736 1.809c-.738.432-1.593.648-2.565.648zm0-2.286c.786 0 1.37-.264 1.755-.792.39-.534.585-1.218.585-2.052 0-.864-.198-1.554-.594-2.07-.39-.516-.972-.774-1.746-.774-.534 0-.972.12-1.314.36-.342.24-.597.573-.765.999-.162.426-.243.921-.243 1.485 0 .87.195 1.563.585 2.079.396.51.975.765 1.737.765zm6.893 2.016v-9.72h8.676v9.72H63.39v-7.434h-3.78v7.434h-2.448zm19.856-9.72v9.72h-2.34v-5.94l-4.392 5.94h-1.944v-9.72h2.34v5.742l4.41-5.742h1.926zm8.245 9.72v-3.096h-1.566c-.204 0-.483-.003-.837-.009a7.047 7.047 0 01-.98-.099c-.775-.138-1.41-.474-1.909-1.008-.492-.534-.738-1.26-.738-2.178 0-.894.237-1.614.711-2.16s1.107-.894 1.9-1.044c.323-.066.656-.102.998-.108.348-.012.633-.018.855-.018h4.014v9.72h-2.448zm-6.264 0l2.196-3.6h2.52l-2.16 3.6H79zm4.428-4.986h1.836v-2.844h-1.836c-.108 0-.228.006-.36.018a2.517 2.517 0 00-.396.072 1.163 1.163 0 00-.468.27 1.455 1.455 0 00-.35.468 1.31 1.31 0 00-.136.594c0 .342.102.633.306.873.204.234.432.387.684.459.126.036.252.06.378.072.132.012.246.018.342.018zm10.385 4.986v-9.72h4.554c.36 0 .675.021.945.063.27.036.495.081.675.135.444.132.849.39 1.215.774.366.384.549.942.549 1.674 0 .432-.069.783-.207 1.053a1.951 1.951 0 01-.549.657 2.35 2.35 0 01-.324.198 1.805 1.805 0 01-.324.126c.252.036.48.102.684.198.324.144.606.372.846.684.24.306.36.762.36 1.368 0 .648-.159 1.2-.477 1.656-.312.456-.783.774-1.413.954-.216.06-.47.105-.765.135-.288.03-.59.045-.909.045h-4.86zm2.484-1.854h2.196c.126 0 .255-.012.387-.036.138-.03.261-.066.37-.108a.656.656 0 00.368-.369c.078-.174.117-.351.117-.531 0-.252-.057-.45-.17-.594a.928.928 0 00-.37-.306.972.972 0 00-.378-.09 3.72 3.72 0 00-.324-.018h-2.196v2.052zm0-3.942h1.494c.192 0 .372-.009.54-.027.174-.024.318-.063.432-.117a.72.72 0 00.351-.342c.078-.162.117-.342.117-.54 0-.21-.045-.399-.135-.567a.657.657 0 00-.423-.351 1.638 1.638 0 00-.504-.081 17.024 17.024 0 00-.378-.009h-1.494v2.034zm10.447 6.066c-.696 0-1.287-.132-1.773-.396a2.816 2.816 0 01-1.098-1.071 3.045 3.045 0 01-.369-1.485c0-.45.069-.861.207-1.233.138-.372.36-.699.666-.981.312-.288.729-.528 1.251-.72.36-.132.789-.249 1.287-.351a28.814 28.814 0 011.692-.288l2.079-.315-.882.486c0-.576-.138-.999-.414-1.269-.276-.27-.738-.405-1.386-.405-.36 0-.735.087-1.125.261-.39.174-.663.483-.819.927l-2.214-.702a3.756 3.756 0 011.386-1.962c.678-.504 1.602-.756 2.772-.756.858 0 1.62.132 2.286.396.666.264 1.17.72 1.512 1.368.192.36.306.72.342 1.08.036.36.054.762.054 1.206v5.94h-2.142v-1.998l.306.414c-.474.654-.987 1.128-1.539 1.422-.546.288-1.239.432-2.079.432zm.522-1.926c.45 0 .828-.078 1.134-.234.312-.162.558-.345.738-.549.186-.204.312-.375.378-.513.126-.264.198-.57.216-.918.024-.354.036-.648.036-.882l.72.18c-.726.12-1.314.222-1.764.306-.45.078-.813.15-1.089.216a6.353 6.353 0 00-.729.216 2.51 2.51 0 00-.585.315 1.135 1.135 0 00-.324.36.972.972 0 00-.099.441c0 .222.054.414.162.576.114.156.273.276.477.36.204.084.447.126.729.126zm7.272 1.656v-9.72h7.02v2.286h-4.572v7.434h-2.448zm17.395-9.72v9.72h-2.34v-5.94l-4.392 5.94h-1.944v-9.72h2.34v5.742l4.41-5.742h1.926zm2.503 9.72v-9.72h2.448v3.708h3.996v-3.708h2.448v9.72h-2.448v-3.726h-3.996v3.726h-2.448zm11.391 0v-9.72h2.448v3.096h.882c.27 0 .585.006.945.018.36.012.657.042.891.09.57.126 1.05.327 1.44.603.39.276.684.633.882 1.071.204.432.306.948.306 1.548 0 .864-.225 1.56-.675 2.088-.444.522-1.089.882-1.935 1.08-.234.054-.534.09-.9.108-.366.012-.684.018-.954.018h-3.33zm2.448-1.89h1.152c.108 0 .228-.006.36-.018.132-.012.264-.036.396-.072.252-.072.474-.231.666-.477.192-.246.288-.525.288-.837 0-.342-.099-.633-.297-.873a1.337 1.337 0 00-.693-.477 2.098 2.098 0 00-.378-.072 3.638 3.638 0 00-.342-.018h-1.152v2.844zm6.318 1.89v-9.72h2.448v9.72h-2.448zm-91.427 26v-9.72h1.98l3.384 6.3 3.384-6.3h1.98v9.72h-2.34v-4.842l-2.592 4.842h-.864l-2.592-4.842v4.842h-2.34zm17.628.27c-.978 0-1.836-.219-2.574-.657a4.6 4.6 0 01-1.728-1.809c-.408-.774-.612-1.662-.612-2.664 0-1.014.21-1.905.63-2.673a4.584 4.584 0 011.737-1.809c.738-.432 1.587-.648 2.547-.648.978 0 1.836.219 2.574.657a4.565 4.565 0 011.737 1.818c.414.768.621 1.653.621 2.655 0 1.008-.21 1.899-.63 2.673a4.58 4.58 0 01-1.737 1.809c-.738.432-1.593.648-2.565.648zm0-2.286c.786 0 1.371-.264 1.755-.792.39-.534.585-1.218.585-2.052 0-.864-.198-1.554-.594-2.07-.39-.516-.972-.774-1.746-.774-.534 0-.972.12-1.314.36-.342.24-.597.573-.765.999-.162.426-.243.921-.243 1.485 0 .87.195 1.563.585 2.079.396.51.975.765 1.737.765zm6.191 4.176v-4.05c.516 0 .882-.18 1.098-.54.222-.36.396-1.002.522-1.926.072-.534.132-1.095.18-1.683.054-.588.1-1.191.135-1.809.036-.618.07-1.242.1-1.872h7.505v7.83h.99v4.05h-2.304v-2.16H89.29v2.16h-2.304zm3.132-4.05h3.96v-5.94h-2.934c-.018.33-.039.66-.063.99-.018.33-.042.657-.072.981l-.072.945c-.024.3-.05.588-.08.864a7.466 7.466 0 01-.226 1.287c-.096.33-.267.621-.513.873zm13.708 2.16c-.996 0-1.875-.213-2.637-.639a4.725 4.725 0 01-1.782-1.773c-.426-.756-.64-1.62-.64-2.592 0-1.062.21-1.986.63-2.772.42-.786 1-1.395 1.738-1.827.738-.438 1.587-.657 2.547-.657 1.02 0 1.887.24 2.601.72s1.242 1.155 1.584 2.025c.342.87.462 1.893.36 3.069h-2.421v-.9c0-.99-.159-1.701-.477-2.133-.312-.438-.825-.657-1.539-.657-.834 0-1.449.255-1.845.765-.39.504-.585 1.251-.585 2.241 0 .906.195 1.608.585 2.106.396.492.975.738 1.737.738.48 0 .891-.105 1.233-.315a2.01 2.01 0 00.783-.909l2.448.702a4.299 4.299 0 01-1.737 2.07 4.774 4.774 0 01-2.583.738zm-3.222-4.446v-1.818h6.444v1.818h-6.444zm8.755 4.176v-2.034c.354.066.627.063.819-.009.192-.078.336-.228.432-.45.102-.228.189-.537.261-.927.096-.516.18-1.119.252-1.809.078-.69.144-1.419.198-2.187.054-.774.102-1.542.144-2.304h7.344v9.72h-2.448v-7.434h-2.754a56.74 56.74 0 01-.099 1.116c-.036.432-.078.882-.126 1.35-.042.462-.09.906-.144 1.332-.054.42-.111.78-.171 1.08-.144.762-.357 1.362-.639 1.8a1.865 1.865 0 01-1.161.837c-.492.126-1.128.099-1.908-.081zm20.632-9.72v9.72h-2.34v-5.94l-4.392 5.94h-1.944v-9.72h2.34v5.742l4.41-5.742h1.926z" fill="#fff"/><path fill-rule="evenodd" clip-rule="evenodd" d="M94.41 33.21a5.828 5.828 0 00-2.213.987c-1.075.796-2.018 2.002-3.094 3.956-.226.41-.438.65-1.524 1.727-.694.688-1.391 1.425-1.549 1.638a5.044 5.044 0 00-.772 1.608c-.132.5-.132 1.685.001 2.841.192 1.666.112 3.015-.28 4.695-.292 1.259-.354 1.693-.349 2.44.008 1.075.273 1.843.918 2.659.138.174.64.721 1.117 1.215.997 1.033 1.243 1.34 1.67 2.081.599 1.041 1.142 1.697 1.924 2.325 1.726 1.388 3.853 2.12 6.413 2.211 4.047.143 7.474-1.528 9.115-4.446.423-.753.727-1.134 1.775-2.227 1.657-1.729 1.985-2.37 1.983-3.877 0-.739-.055-1.138-.315-2.294-.427-1.906-.48-2.738-.289-4.616.252-2.484.067-3.465-.898-4.75-.167-.22-.771-.85-1.343-1.4-1.208-1.157-1.363-1.346-1.899-2.306-.614-1.1-1.191-1.905-1.862-2.6-.854-.885-1.639-1.406-2.574-1.708-.42-.136-1.18-.28-1.227-.233-.016.016.25.454.592.974 2.582 3.93 4.121 7.87 4.718 12.083.147 1.035.179 3.55.06 4.675-.446 4.223-2.233 7.988-5.178 10.91-.841.835-2.038 1.778-2.252 1.775-.13-.002-1.074-.71-1.736-1.3a17.953 17.953 0 01-1.18-1.18c-2.394-2.68-3.838-5.778-4.409-9.459-.172-1.111-.215-3.594-.084-4.836.245-2.31.781-4.468 1.685-6.78.701-1.79 2.074-4.385 3.239-6.122.26-.386.471-.714.471-.73 0-.043-.243-.02-.655.063zm2.502.678c-.18.05-.505.47-1.17 1.511l-.502.788.234.104c.913.406 2.226.408 3.232.005l.231-.093-.13-.216c-.403-.67-1.278-1.935-1.385-2.002-.178-.112-.34-.143-.51-.097zm-3.04 4.85c-1.388 2.879-2.204 5.736-2.444 8.547-.098 1.155-.043 3.127.118 4.179.49 3.216 1.787 5.974 3.95 8.402.516.58 1.488 1.484 1.593 1.484.106 0 1.077-.904 1.586-1.476 1.947-2.187 3.231-4.733 3.797-7.53.449-2.215.438-4.78-.029-7.283-.394-2.107-1.252-4.581-2.341-6.749l-.267-.532-.494.197c-.753.3-1.326.402-2.252.402-.927 0-1.498-.102-2.255-.404l-.498-.198-.464.962zm4.11 2.63v.924h-1.786v-1.846h1.787v.923zm-.434 3.084c1.47 2.497 2.396 5.013 2.643 7.19.258 2.275-.507 4.612-1.79 5.47-.478.319-.75.397-1.375.396-.458-.002-.552-.022-.923-.204-1.034-.505-1.8-1.814-2.088-3.568-.112-.683-.083-2.014.063-2.807.265-1.447.805-3.057 1.56-4.647.327-.689 1.387-2.562 1.448-2.56.018.001.226.33.462.73zm-.707 3.543c-.775 1.846-1.182 3.676-1.103 4.952.081 1.293.6 2.508 1.172 2.745.497.206 1.04-.475 1.38-1.732.111-.414.135-.652.134-1.365 0-.954-.12-1.702-.446-2.809-.189-.64-.83-2.313-.886-2.313-.018 0-.13.235-.251.522z" fill="#fff"/></svg><svg viewBox="0 0 26 25" id="Star-1" xmlns="http://www.w3.org/2000/svg"><path d="M11.616 1.393c.435-.942 1.774-.942 2.208 0l2.764 5.993c.177.384.541.648.961.698l6.553.777c1.03.122 1.444 1.396.683 2.1l-4.845 4.48c-.31.288-.45.715-.367 1.13l1.286 6.473c.202 1.017-.881 1.804-1.787 1.298l-5.758-3.224a1.216 1.216 0 00-1.188 0l-5.758 3.224c-.906.506-1.989-.28-1.786-1.298l1.286-6.473a1.216 1.216 0 00-.367-1.13l-4.845-4.48c-.762-.704-.348-1.978.682-2.1l6.553-.777c.42-.05.784-.314.961-.698l2.764-5.993z"/></svg><svg fill="none" viewBox="0 0 20 14" id="Union" xmlns="http://www.w3.org/2000/svg"><path fill-rule="evenodd" clip-rule="evenodd" d="M19.39 2.795L16.902.308 8.264 8.947 3.29 3.973.803 6.46l7.461 7.461 2.488-2.487 8.638-8.639z" fill="#006B36"/></svg><svg fill="none" viewBox="0 0 80 64" id="Vector" xmlns="http://www.w3.org/2000/svg"><path d="M77.65 9.94h-1.42C75.26 4.3 70.31 0 64.37 0H15.62C9.68 0 4.73 4.3 3.76 9.94H2.34C1.04 9.94 0 10.98 0 12.27v49.39C0 62.95 1.04 64 2.34 64h75.31c1.3 0 2.35-1.05 2.35-2.34V12.27c0-1.29-1.05-2.33-2.35-2.33zm-26.09 9.32V14.6H62.5v4.66H51.56zm-15.63 0V14.6h10.94v4.66H35.93zm-15.62 0V14.6h10.94v4.66H20.31zm-15.63 0V14.6h10.94v4.66H4.68zm62.5-4.66h8.13v4.66h-8.13V14.6zM15.62 4.66h48.75c3.34 0 6.17 2.23 7.06 5.28H8.56a7.359 7.359 0 017.06-5.28zm17.19 45.35H14.06v-4.66h18.75v4.66zm-18.75 4.66h18.75v4.66H14.06v-4.66zm18.75-13.98H14.06v-4.66h18.75v4.66zm33.12 9.32H47.18v-4.66h18.75v4.66zm-18.75 4.66h18.75v4.66H47.18v-4.66zm18.75-13.98H47.18v-4.66h18.75v4.66zm4.69 18.64V33.7a2.34 2.34 0 00-2.34-2.33H44.84c-1.3 0-2.34 1.05-2.34 2.33v25.63h-5V33.7c0-1.28-1.05-2.33-2.35-2.33H11.71a2.34 2.34 0 00-2.34 2.33v25.63H4.68V23.92h70.63v35.41h-4.69z" fill="#5F5F5F"/></svg><svg fill="none" viewBox="0 0 65.625 41.563" id="Vector-1" xmlns="http://www.w3.org/2000/svg"><path d="M63.28 18.12h-2.09a7.08 7.08 0 01-3.49-.92L38.86 1.84C37.83 1 35.2 0 32.55 0H7.03C3.02 0 0 2.82 0 6.56c0 3.22 2.16 5.86 5.17 6.64-.31.8-.49 1.67-.49 2.58 0 3.23 2.2 5.97 5.19 6.78-.32.8-.5 1.68-.5 2.59 0 3.88 3.15 7.03 7.03 7.03h15.84l5.94 5.94c2.22 2.22 5.16 3.44 8.29 3.44h16.81c1.29 0 2.34-1.05 2.34-2.35V20.46c0-1.29-1.05-2.34-2.34-2.34zm-51.57-4.69h14.07c.62 0 1.21.25 1.65.69-.71.34-1.36.8-1.94 1.37a7.16 7.16 0 00-1.66 2.63H11.71a2.345 2.345 0 010-4.69zM16.4 27.5c-1.29 0-2.34-1.06-2.34-2.35s1.05-2.34 2.34-2.34h7.43c.35.97.91 1.87 1.66 2.63l2.06 2.06H16.4zm44.53 9.37H46.47c-1.88 0-3.65-.73-4.97-2.06L28.81 22.12a2.33 2.33 0 010-3.31 2.33 2.33 0 013.31 0l8 8c.92.91 2.4.91 3.32 0 .91-.92.91-2.4 0-3.32L30.75 10.8a7 7 0 00-4.96-2.05h-.01H7.03c-1.34 0-2.35-.95-2.35-2.19 0-1.39 1.26-1.88 2.35-1.88h25.52c1.25 0 2.45.32 3.49.91C56.1 21.93 54.88 20.97 55.16 21.14c1.74 1.05 3.74 1.62 5.77 1.67v14.06z" fill="#5F5F5F"/></svg><svg fill="none" viewBox="0 0 80 80" id="Vector-2" xmlns="http://www.w3.org/2000/svg"><path d="M80 17.02c0-1.01-.65-1.93-1.64-2.31L41 .18c-.64-.25-1.37-.25-2.01 0L1.63 14.71C.64 15.09 0 16.01 0 17.02v45.95c0 1.01.64 1.93 1.63 2.31l37.36 14.53c.64.24 1.35.25 2.01 0 .03-.01-1.39.54 37.36-14.53.99-.38 1.64-1.3 1.64-2.31V17.02zM40 29.05L26.23 23.7l29.75-12.28 14.68 5.71L40 29.05zM5.28 20.97l11.88 4.61v13.03c0 1.38 1.18 2.5 2.64 2.5 1.47 0 2.65-1.12 2.65-2.5V27.64l14.9 5.79v40.33L5.28 61.29V20.97zM40 5.2l9.16 3.57-29.74 12.28-10.09-3.92L40 5.2zm2.64 28.23l32.07-12.46v40.32L42.64 73.76V33.43z" fill="#5F5F5F"/></svg><svg fill="none" viewBox="0 0 12 6" id="arrow-down" xmlns="http://www.w3.org/2000/svg"><path d="M6 5.618L11.46.19H.54L6 5.618z" fill="#4B4B4B"/></svg><svg fill="currentColor" class="mbi mbi-chevron-right" viewBox="0 0 16 16" id="chevron-right" xmlns="http://www.w3.org/2000/svg"><path fill-rule="evenodd" d="M4.646 1.646a.5.5 0 01.708 0l6 6a.5.5 0 010 .708l-6 6a.5.5 0 01-.708-.708L10.293 8 4.646 2.354a.5.5 0 010-.708z"/></svg><svg class="nbi nbi-caret-down-fill" viewBox="0 0 16 16" id="down" xmlns="http://www.w3.org/2000/svg"><path d="M7.247 11.14L2.451 5.658C1.885 5.013 2.345 4 3.204 4h9.592a1 1 0 01.753 1.659l-4.796 5.48a1 1 0 01-1.506 0z"/></svg><svg viewBox="0 0 512 512" id="footer-cheap" xmlns="http://www.w3.org/2000/svg"><g stroke="#3B3A3E" stroke-linecap="round" stroke-linejoin="round" stroke-miterlimit="10" stroke-width="20"><path fill="#D9DCE1" d="M148 80h216v352H148z"/><path fill="none" d="M218.335 203l75.329 43.49-75.329 43.492zM64 80h84v352H64z"/><path fill="none" d="M64 197h84v129H64zM364 80h84v352h-84z"/><path fill="none" d="M364 197h84v129h-84zM148 80h216v352H148z"/><path fill="#65A0D6" d="M218.335 203l75.329 43.49-75.329 43.492zM64 80h84v352H64z"/><path fill="none" d="M64 197h84v129H64z"/><path fill="#65A0D6" d="M364 80h84v352h-84z"/><path fill="none" d="M364 197h84v129h-84z"/></g></svg><svg class="pbi pbi-arrow-left" viewBox="0 0 16 16" id="left" xmlns="http://www.w3.org/2000/svg"><path fill-rule="evenodd" d="M15 8a.5.5 0 00-.5-.5H2.707l3.147-3.146a.5.5 0 10-.708-.708l-4 4a.5.5 0 000 .708l4 4a.5.5 0 00.708-.708L2.707 8.5H14.5A.5.5 0 0015 8z"/></svg><svg fill="currentColor" class="qbi qbi-list" viewBox="0 0 16 16" id="list" xmlns="http://www.w3.org/2000/svg"><path fill-rule="evenodd" d="M2.5 12a.5.5 0 01.5-.5h10a.5.5 0 010 1H3a.5.5 0 01-.5-.5zm0-4a.5.5 0 01.5-.5h10a.5.5 0 010 1H3a.5.5 0 01-.5-.5zm0-4a.5.5 0 01.5-.5h10a.5.5 0 010 1H3a.5.5 0 01-.5-.5z"/></svg><svg fill="currentColor" class="rbi rbi-arrow-clockwise" viewBox="0 0 16 16" id="load" xmlns="http://www.w3.org/2000/svg"><path fill-rule="evenodd" d="M8 3a5 5 0 104.546 2.914.5.5 0 01.908-.417A6 6 0 118 2v1z"/><path d="M8 4.466V.534a.25.25 0 01.41-.192l2.36 1.966c.12.1.12.284 0 .384L8.41 4.658A.25.25 0 018 4.466z"/></svg><svg fill="none" viewBox="0 0 110 110" id="logo" xmlns="http://www.w3.org/2000/svg"><path d="M55.63 11.6c-23.89 0-43.28 19.39-43.28 43.28s19.39 43.28 43.28 43.28 43.28-19.39 43.28-43.28C98.86 30.93 79.52 11.6 55.63 11.6z" fill="#FFF" fill-rule="evenodd"/><path d="M16.1 16.1C26.02 6.17 39.76 0 55 0c15.17 0 28.91 6.17 38.89 16.1A54.902 54.902 0 01110 55c0 15.17-6.18 28.91-16.11 38.89A54.896 54.896 0 0155 110c-15.18 0-28.92-6.18-38.9-16.11C6.17 83.91 0 70.17 0 55c0-15.24 6.17-28.98 16.1-38.9zM55 10.04c-12.41 0-23.61 5.02-31.75 13.16-8.13 8.13-13.16 19.33-13.16 31.74s5.03 23.6 13.16 31.74C31.39 94.82 42.59 99.84 55 99.84c12.4 0 23.6-5.02 31.74-13.16 8.13-8.14 13.16-19.33 13.16-31.74S94.87 31.33 86.74 23.2C78.6 15.12 67.35 10.04 55 10.04z" fill="#83BB32"/><path d="M21.29 21.29C29.89 12.69 41.84 7.32 55 7.32c13.15 0 25.04 5.31 33.7 13.97 8.6 8.6 13.97 20.55 13.97 33.71 0 13.15-5.31 25.04-13.97 33.7-8.6 8.6-20.55 13.97-33.7 13.97-13.16 0-25.05-5.31-33.71-13.97C12.69 80.1 7.32 68.15 7.32 55c0-13.16 5.31-25.11 13.97-33.71zM55 16.04c-10.74 0-20.49 4.33-27.53 11.43C20.43 34.51 16.04 44.2 16.04 55c0 10.73 4.33 20.48 11.43 27.52C34.51 89.56 44.26 93.95 55 93.95c10.73 0 20.48-4.33 27.52-11.43C89.56 75.48 93.95 65.73 93.95 55c0-10.74-4.33-20.49-11.43-27.53C75.43 20.43 65.73 16.04 55 16.04z" fill="#83BB32"/><path d="M44.32 71.1h-1.5l-.98 1.38c-.06.12-.18.23-.23.29-.06.06-.18.12-.24.17-.05.06-.11.06-.17.06-.06 0-.11.06-.23.06h-.06v-2.02h-1.32v5.19h1.32v-2.19h.23c.06 0 .12 0 .18.06.05 0 .11.06.17.06.06.05.12.05.17.11.06.06.12.12.18.17.05.06.11.18.17.23l.87 1.51h1.5l-.93-1.74c-.06-.17-.17-.28-.23-.4-.11-.12-.17-.23-.29-.29-.05-.06-.11-.11-.17-.11-.06-.06-.12-.06-.23-.12l-.12-.06.12-.05c.06 0 .11-.06.11-.06l.12-.12c.06-.06.12-.11.23-.23.06-.11.17-.17.23-.29l1.1-1.61zm2.71-.12c-.81 0-1.44.12-1.79.41-.4.28-.58.63-.58 1.15v2.25c0 .12 0 .23.06.35 0 .11.06.23.12.29.06.11.11.17.17.23.06.05.12.11.23.17.06.06.17.11.29.11.12.06.23.06.35.12.11 0 .23.06.28.06.12 0 .18.06.29.06H47.09c.29 0 .52 0 .81-.06.28 0 .57-.06.8-.12h.06v-1.04h-.06c-.34.06-.63.12-.86.18-.23.05-.46.05-.64.05-.57 0-.86-.11-1.04-.23-.17-.17-.17-.29-.17-.4v-2.14c0-.11 0-.23.06-.34.06-.06.11-.18.23-.18.06 0 .12-.05.17-.05h.58c.23 0 .46 0 .75.05.29.06.52.12.87.18h.05v-1.04h-.05c-.35-.06-.64-.12-.93-.12-.23.12-.46.06-.69.06zm6.93.12H49.4v5.19h1.32v-4.21h1.91v4.21h1.33V71.1zm3.11 0h-2.08v5.19h1.33v-1.67h.64c.29 0 .52 0 .69-.06.23 0 .4-.06.58-.12.17-.05.29-.11.4-.17.12-.06.23-.17.29-.23.06-.12.11-.23.17-.35.06-.11.06-.28.06-.46v-.98c0-.17 0-.29-.06-.4-.06-.12-.11-.23-.17-.29-.06-.12-.17-.17-.29-.23-.11-.06-.23-.12-.4-.18-.18-.05-.35-.05-.52-.05h-.64zm-.69.98h1.04c.11 0 .23.06.29.06.06 0 .06.05.11.11 0 .06.06.12.06.17v.81c0 .12 0 .18-.06.23-.05.06-.05.12-.11.12s-.12.06-.29.06h-1.16v-1.62h.12v.06zm7.45-.98h-3.99v5.19h4.04v-.98h-2.71V74.1h2.37v-.98h-2.37v-1.04h2.66v-.98zm3.11-.12c-.81 0-1.44.12-1.79.41-.4.28-.57.63-.57 1.15v2.25c0 .12 0 .23.05.35 0 .11.06.23.12.29.06.11.11.17.17.23.06.05.12.11.23.17.06.06.18.11.29.11.12.06.23.06.35.12.11 0 .23.06.29.06.11 0 .17.06.28.06H67c.29 0 .52 0 .81-.06.29 0 .57-.06.81-.12h.05v-1.04h-.05c-.35.06-.64.12-.87.18-.23.05-.46.05-.64.05-.57 0-.86-.11-1.03-.23-.18-.17-.18-.29-.18-.4v-2.14c0-.11 0-.23.06-.34.06-.12.12-.18.23-.18.06 0 .12-.05.17-.05h.58c.23 0 .46 0 .75.05.29.06.52.12.87.18h.06v-1.04h-.06c-.35-.06-.64-.12-.93-.12-.23.12-.46.06-.69.06zm4.68 0c-.81 0-1.45.12-1.79.41-.41.28-.58.63-.58 1.15v2.25c0 .12 0 .23.06.35 0 .11.06.23.11.29.06.11.12.17.18.23.05.05.11.11.23.17.05.06.17.11.29.11.11.06.23.06.34.12.12 0 .23.06.29.06.12 0 .17.06.29.06h.63c.29 0 .52 0 .81-.06.29 0 .58-.06.81-.12h.06v-1.04h-.06c-.35.06-.64.12-.87.18-.23.05-.46.05-.63.05-.58 0-.87-.11-1.04-.23-.17-.17-.17-.29-.17-.4v-2.14c0-.11 0-.23.06-.34.05-.06.11-.18.23-.18.05 0 .11-.05.17-.05h.58c.23 0 .46 0 .75.05.28.06.52.12.86.18h.06v-1.04h-.06c-.34-.06-.63-.12-.92-.12-.23.12-.52.06-.69.06zm-35.21 0c-.23 0-.46 0-.75.06s-.58.06-.92.11h-.06v1.04h.06c.34-.05.63-.11.86-.17.23-.06.47-.06.64-.06.23 0 .46 0 .58.06.05 0 .11.06.23.06.05 0 .11.06.17.11.06.06.12.12.12.18 0 .05.05.11.05.23v.52h-2.08v.98h2.08v.63c0 .18 0 .64-1.21.64-.17 0-.4 0-.63-.06-.24-.06-.52-.12-.87-.17h-.06v1.04h.06c.29.05.58.11.81.11.29 0 .52.06.81.06h.52c.17 0 .34-.06.46-.06.17-.06.29-.06.46-.11.11-.06.29-.12.35-.18.05-.06.17-.11.23-.17.05-.06.11-.17.17-.29.06-.11.11-.17.11-.29 0-.11.06-.23.06-.34v-2.26c0-.23 0-.4-.06-.57a.831.831 0 00-.23-.41c-.11-.11-.23-.23-.34-.28-.12-.06-.29-.12-.46-.18-.18-.06-.35-.06-.58-.06-.06-.17-.35-.17-.58-.17zm40.8 7.56H30.76c-.41 0-.75-.17-1.04-.4-.29-.29-.41-.64-.41-1.04v-7.04c0-.41.18-.75.41-1.04.29-.29.63-.4 1.04-.4h46.45c.41 0 .75.17 1.04.4.29.29.41.63.41 1.04v7.04c0 .4-.18.75-.41 1.04-.29.23-.63.4-1.04.4zM66.94 40.68c-.98 0-1.9.12-2.83.35v-7.79h9.35c1.62 0 2.95-1.33 2.95-2.95H61.17V41.2c0 1.27.81 2.43 2.02 2.83.4.12.87.06 1.21 0 .06 0 .18-.06.29-.06.64-.17 1.33-.29 2.08-.29H67c5.02 0 9.06 4.27 8.71 9.41-.28 4.27-3.75 7.73-8.02 8.08-4.04.29-7.62-2.13-8.89-5.71l-2.65-7.33-1.33-3.52-1.04-2.83-3.92-12.01c-.52-1.38-1.73-2.25-3.18-2.3h-.11c-1.39 0-2.66.8-3.23 2.13L30.81 60.65c-.34.75.06 1.62.81 1.96a2 2 0 00.58.12c.58 0 1.1-.35 1.33-.87l1.55-3.69c1.5-2.83 6.47-11.37 15.18-17.55l.58 1.79.98 2.77 4.04 11.2c.98 2.71 2.94 4.91 5.43 6.29 1.84.98 3.98 1.5 6.23 1.39 5.94-.35 10.73-5.14 11.02-11.08.41-6.7-4.96-12.3-11.6-12.3zm-26.49 4.56l5.6-14.48a.53.53 0 01.52-.35c.11 0 .4.06.46.35l2.71 8.31c-3.06 1.67-6.4 3.81-9.29 6.17z" fill="#83BB32"/><path d="M90.2 81.37l3.52 3.12-.75.86-.06-.06c-.06.24-.11.41-.23.58-.29.35-.69.58-1.1.58-.4.06-.86-.12-1.32-.46-.18-.18-.46-.41-.81-.7-.52-.46-1.04-.86-1.44-1.21l.75-.81c1.15 1.04 1.84 1.68 2.19 1.91.17.17.4.23.63.23.18 0 .35-.06.52-.23.12-.12.12-.29.12-.46l-1.39-1.27c-.4-.41-.86-.75-1.32-1.16l.69-.92zm-3.98 5.42l-.18 1.04c-.28-.05-.46-.05-.63.06-.23.23-.29.52-.17.87l1.09 1.27c.18.17.52.57 1.1 1.21l-.92.81-2.95-3.58.81-.75v.06c.12-.29.29-.52.46-.7.41-.23.87-.34 1.39-.29zm-5.6 7.91c.17-.11.35-.11.52-.11.17.05.35.17.46.34.12.18.12.35.06.52-.06.17-.12.35-.29.46-.17.12-.35.12-.58.12-.17-.06-.34-.12-.46-.29-.11-.17-.17-.35-.11-.58.11-.17.23-.34.4-.46zm-3.75 2.37c.11.34.11.69 0 1.04-.18.34-.41.63-.81.8-.52.18-1.21.29-2.08.24l.18-1.16c.17.06.34.12.57.12.29 0 .52 0 .7-.06.23-.12.28-.23.23-.41-.12-.23-.29-.34-.64-.28l-.52.05c-.29.06-.58 0-.81-.05-.28-.12-.52-.35-.69-.7-.17-.46-.23-.86-.06-1.21.18-.34.41-.58.81-.75.69-.29 1.39-.17 2.02.41l-.81.86c-.23-.29-.46-.4-.63-.29-.23.12-.35.29-.23.58.06.11.17.11.4.06l.81-.06c.75-.12 1.27.17 1.56.81zm-6.41 2.77c.06.4.06.69-.17.98-.17.35-.52.58-.92.69-.52.12-1.22.12-2.08-.11l.34-1.16c.18.12.35.18.58.23.29.06.52.06.69 0 .23-.05.35-.17.29-.34-.06-.23-.29-.35-.57-.35h-.52c-.29 0-.58-.06-.81-.17-.29-.18-.46-.41-.58-.75-.11-.47-.06-.87.12-1.22.23-.28.52-.51.86-.63.75-.23 1.39 0 1.91.69l-.93.75c-.23-.34-.4-.46-.63-.4-.29.06-.35.23-.29.52.06.11.17.17.35.11l.8.06c.87.06 1.33.41 1.56 1.1zm-8.02.06c-.06-.18-.12-.35-.23-.47-.12-.11-.23-.11-.4-.11-.24 0-.41.17-.52.46 0 .06-.06.17-.06.23l1.21-.11zm1.39 1.9c-.58.87-1.1 1.33-1.68 1.39-.52.05-1.04-.12-1.38-.52-.35-.35-.52-.87-.64-1.56-.11-.75 0-1.33.29-1.85.29-.46.69-.75 1.27-.81.58-.06.98.12 1.38.52.35.41.52.98.64 1.79-.17 0-.35 0-.64.06-.57.06-1.15.17-1.84.29.06.29.11.52.23.75.17.29.4.46.63.4.23 0 .35-.17.52-.46.12-.23.18-.46.23-.75l.99.75zm-7.28-2.25l-.8.63c-.18-.23-.35-.34-.52-.34-.29 0-.52.17-.75.52l-.06 1.67v1.62h-1.21l.23-4.68h1.09v.06c.29-.12.52-.23.81-.23.46.11.87.29 1.21.75zm-7.79 1.21c.06-.34 0-.63-.06-.92-.05-.29-.17-.41-.28-.46-.12 0-.23 0-.35.11-.12.06-.17.17-.23.29l-.23 1.33c0 .57.17.86.46.92.12 0 .29-.06.4-.29.12-.29.23-.63.29-.98zm1.1.12c-.06.69-.29 1.21-.69 1.61-.35.35-.75.52-1.22.46-.23 0-.4-.11-.57-.28-.06.23-.12.63-.18 1.21l-1.21-.18.81-4.32c.12-.47.17-.81.17-1.04l1.04.17c.18-.06.41-.12.58-.06.46.06.81.29 1.1.75.17.46.23 1.04.17 1.68zm-6-2.95l-1.73 1.45.28 1.04c.12.46.23.8.35.98l-1.15.34-.35-1.61-1.33 1.09-.81-.8c.41-.29.75-.52 1.1-.87l.75-.64-.52-2.19h1.04l.4 1.5 1.27-1.04.7.75zm-7.91-1.61c.06-.18.06-.35.06-.52a.818.818 0 00-.29-.35c-.17-.11-.4-.06-.69.17l-.18.18 1.1.52zm.23 2.31c-.92.46-1.62.57-2.13.34-.52-.23-.81-.63-.93-1.15-.11-.52 0-1.04.29-1.62.29-.69.69-1.15 1.21-1.44.46-.29.98-.29 1.5-.06.52.23.81.64.87 1.16.06.52-.06 1.09-.35 1.84-.11-.06-.34-.17-.52-.29-.52-.23-1.09-.46-1.73-.75-.11.29-.17.52-.17.75 0 .35.11.58.34.7.18.05.41.05.64-.12.23-.17.4-.35.58-.52l.4 1.16zm-8.31-6.41l.4-.64 2.83 1.79-.4.64-2.83-1.79zm-2.6-1.56c-.4.41-.92.69-1.44.81-.63.11-1.15 0-1.56-.4-.34-.29-.46-.7-.46-1.16 0-.4.23-.81.64-1.21.11-.12.17-.17.28-.23l.75.81c-.05 0-.11.05-.23.17-.11.17-.23.29-.29.4-.05.18 0 .29.12.41.12.11.35.11.64 0 .28-.12.51-.29.75-.52.28-.35.4-.64.23-.81-.18-.17-.41-.23-.7-.17l-.69-.87 2.6-2.13.63.8-.11.12.17.17c.46.46.87.81 1.15 1.04l-.8.75c-.35-.29-.7-.63-1.1-.98-.06-.06-.12-.11-.23-.29l-.58.52c.18.06.29.17.35.23.4.41.58.81.58 1.27-.06.46-.29.87-.7 1.27zm-6-5.77c-.06-.12-.11-.23-.17-.35-.18-.23-.35-.34-.58-.4-.23-.06-.4 0-.58.12-.17.11-.23.28-.23.4 0 .11.06.29.18.46.11.17.28.23.52.35l.86-.58zm-.98 2.19l-.69-.98.06-.06c-.18-.11-.35-.23-.47-.34-.29-.41-.4-.81-.4-1.21 0-.47.17-.81.52-1.1.46-.35.98-.4 1.56-.23.34.11.69.4.98.75.06.11.17.23.23.4.35-.29.35-.63.17-.92-.17-.23-.4-.35-.63-.46l.29-.93c.52.24.92.47 1.15.81.35.41.46.87.35 1.33-.12.4-.35.81-.75 1.15-.18.12-.35.29-.52.41l-.52.4c-.18.12-.46.35-.87.64-.23.17-.34.29-.46.34z" fill="#FFF"/><path d="M98.05 71.67c-1.04 0-1.91.87-1.91 1.91s.87 1.9 1.91 1.9 1.9-.86 1.9-1.9c0-1.1-.86-1.91-1.9-1.91zM11.83 71.67c1.03 0 1.9.87 1.9 1.91s-.87 1.9-1.9 1.9c-1.04 0-1.91-.86-1.91-1.9 0-1.1.87-1.91 1.91-1.91z" fill="#FFF" fill-rule="evenodd"/></svg><svg fill="none" viewBox="0 0 21 37" id="play" xmlns="http://www.w3.org/2000/svg"><path d="M.005 18.668v18.177l20.449-18.177L.004.491v18.177z" fill="#272727"/></svg><svg class="ubi ubi-arrow-right" viewBox="0 0 16 16" id="right" xmlns="http://www.w3.org/2000/svg"><path fill-rule="evenodd" d="M1 8a.5.5 0 01.5-.5h11.793l-3.147-3.146a.5.5 0 01.708-.708l4 4a.5.5 0 010 .708l-4 4a.5.5 0 01-.708-.708L13.293 8.5H1.5A.5.5 0 011 8z"/></svg><svg class="vbi vbi-search" viewBox="0 0 16 16" id="search" xmlns="http://www.w3.org/2000/svg"><path d="M11.742 10.344a6.5 6.5 0 10-1.397 1.398h-.001c.03.04.062.078.098.115l3.85 3.85a1 1 0 001.415-1.414l-3.85-3.85a1.007 1.007 0 00-.115-.1zM12 6.5a5.5 5.5 0 11-11 0 5.5 5.5 0 0111 0z"/></svg><svg fill="none" viewBox="0 0 27 26" id="star-empty" xmlns="http://www.w3.org/2000/svg"><path d="M9.108 8.488l.218-.048.11-.195L13.523.98l4.553 7.285.11.175.2.047 7.665 1.803-5.418 5.87-.165.179.038.239 1.364 8.64-8.189-3.184-.181-.07-.181.07-8.236 3.203.914-8.685.023-.212-.138-.163-4.966-5.868 8.192-1.82z" stroke="#FDCF00"/></svg><svg fill="currentColor" class="xbi xbi-x-lg" viewBox="0 0 16 16" id="x-lg" xmlns="http://www.w3.org/2000/svg"><path d="M2.146 2.854a.5.5 0 11.708-.708L8 7.293l5.146-5.147a.5.5 0 01.708.708L8.707 8l5.147 5.146a.5.5 0 01-.708.708L8 8.707l-5.146 5.147a.5.5 0 01-.708-.708L7.293 8 2.146 2.854z"/></svg></svg>