<?xml version="1.0" encoding="utf-8"?><svg viewBox="0 0 26 25" xmlns="http://www.w3.org/2000/svg" xmlns:xlink="http://www.w3.org/1999/xlink"><style>:root>svg{display:none}:root>svg:target{display:block}</style><svg fill="none" viewBox="0 0 26 25" id="Star-1" xmlns="http://www.w3.org/2000/svg"><path d="M11.616 1.393c.435-.942 1.774-.942 2.208 0l2.764 5.993c.177.384.541.648.961.698l6.553.777c1.03.122 1.444 1.396.683 2.1l-4.845 4.48c-.31.288-.45.715-.367 1.13l1.286 6.473c.202 1.017-.881 1.804-1.787 1.298l-5.758-3.224a1.216 1.216 0 00-1.188 0l-5.758 3.224c-.906.506-1.989-.28-1.786-1.298l1.286-6.473a1.216 1.216 0 00-.367-1.13l-4.845-4.48c-.762-.704-.348-1.978.682-2.1l6.553-.777c.42-.05.784-.314.961-.698l2.764-5.993z" fill="#D9D9D9"/></svg><svg fill="none" viewBox="0 0 26 24" id="Star-2" xmlns="http://www.w3.org/2000/svg"><path d="M11.616.834c.435-.942 1.774-.942 2.208 0l2.764 5.992c.177.384.541.648.961.698l6.553.777c1.03.122 1.444 1.396.683 2.1l-4.845 4.48c-.31.288-.45.716-.367 1.13l1.286 6.473c.202 1.018-.881 1.805-1.787 1.298l-5.758-3.224a1.216 1.216 0 00-1.188 0l-5.758 3.224c-.906.507-1.989-.28-1.786-1.298l1.286-6.473a1.215 1.215 0 00-.367-1.13l-4.845-4.48c-.762-.704-.348-1.978.682-2.1l6.553-.777c.42-.05.784-.314.961-.698L11.616.834z" fill="#FFB802"/></svg><svg fill="none" viewBox="0 0 12 6" id="arrow-down" xmlns="http://www.w3.org/2000/svg"><path d="M6 5.618L11.46.19H.54L6 5.618z" fill="#4B4B4B"/></svg></svg>