<?xml version="1.0" encoding="utf-8"?><!DOCTYPE svg  PUBLIC '-//W3C//DTD SVG 1.1//EN'  'http://www.w3.org/Graphics/SVG/1.1/DTD/svg11.dtd'><svg viewBox="0 0 512 512" xmlns="http://www.w3.org/2000/svg" xmlns:xlink="http://www.w3.org/1999/xlink"><style>:root>svg{display:none}:root>svg:target{display:block}</style><svg class="abi abi-caret-down" viewBox="0 0 16 16" id="caret-down" xmlns="http://www.w3.org/2000/svg"><path d="M3.204 5h9.592L8 10.481 3.204 5zm-.753.659l4.796 5.48a1 1 0 001.506 0l4.796-5.48c.566-.647.106-1.659-.753-1.659H3.204a1 1 0 00-.753 1.659z"/></svg><svg fill="currentColor" class="bbi bbi-chevron-left" viewBox="0 0 16 16" id="chevron-left" xmlns="http://www.w3.org/2000/svg"><path fill-rule="evenodd" d="M11.354 1.646a.5.5 0 010 .708L5.707 8l5.647 5.646a.5.5 0 01-.708.708l-6-6a.5.5 0 010-.708l6-6a.5.5 0 01.708 0z"/></svg><svg fill="currentColor" class="cbi cbi-chevron-right" viewBox="0 0 16 16" id="chevron-right" xmlns="http://www.w3.org/2000/svg"><path fill-rule="evenodd" d="M4.646 1.646a.5.5 0 01.708 0l6 6a.5.5 0 010 .708l-6 6a.5.5 0 01-.708-.708L10.293 8 4.646 2.354a.5.5 0 010-.708z"/></svg><svg fill="none" viewBox="0 0 10 18" id="fb" xmlns="http://www.w3.org/2000/svg"><path d="M8.882 9.802l.493-3.154H6.293V4.602c0-.863.43-1.704 1.811-1.704h1.401V.213S8.234 0 7.018 0C4.48 0 2.821 1.51 2.821 4.245v2.403H0v3.154h2.821v7.624h3.472V9.802h2.59z" fill="#E8E8E8"/></svg><svg fill="none" viewBox="0 0 10 6" id="i-5" xmlns="http://www.w3.org/2000/svg"><path d="M4.829.828h4.828L4.829 5.657 0 .828H4.83z" fill="#fff"/></svg><svg viewBox="0 0 24 24" id="left" xmlns="http://www.w3.org/2000/svg"><path fill-rule="evenodd" clip-rule="evenodd" d="M9.414 12l7.293 7.293-1.414 1.414L6.586 12l8.707-8.707 1.414 1.414L9.414 12z"/></svg><svg fill="currentColor" class="gbi gbi-list" viewBox="0 0 16 16" id="list" xmlns="http://www.w3.org/2000/svg"><path fill-rule="evenodd" d="M2.5 12a.5.5 0 01.5-.5h10a.5.5 0 010 1H3a.5.5 0 01-.5-.5zm0-4a.5.5 0 01.5-.5h10a.5.5 0 010 1H3a.5.5 0 01-.5-.5zm0-4a.5.5 0 01.5-.5h10a.5.5 0 010 1H3a.5.5 0 01-.5-.5z"/></svg><svg fill="currentColor" class="hbi hbi-arrow-clockwise" viewBox="0 0 16 16" id="load" xmlns="http://www.w3.org/2000/svg"><path fill-rule="evenodd" d="M8 3a5 5 0 104.546 2.914.5.5 0 01.908-.417A6 6 0 118 2v1z"/><path d="M8 4.466V.534a.25.25 0 01.41-.192l2.36 1.966c.12.1.12.284 0 .384L8.41 4.658A.25.25 0 018 4.466z"/></svg><svg viewBox="0 0 512 512" id="logo" xmlns="http://www.w3.org/2000/svg"><g stroke="#3B3A3E" stroke-linecap="round" stroke-linejoin="round" stroke-miterlimit="10" stroke-width="20"><path d="M443 170.865v235H69v-235h112v-52.73c0-6.63 5.37-12 12-12h126c6.63 0 12 5.37 12 12v52.73h112z" fill="none"/><circle cx="256" cy="287.229" fill="none" r="83.708"/><path d="M256 323.938c-20.24 0-36.708-16.467-36.708-36.708S235.76 250.521 256 250.521c20.241 0 36.708 16.467 36.708 36.708S276.241 323.938 256 323.938zM369 203.521h42M87 138.865h53v32H87z" fill="none"/><path d="M443 170.865v235H69v-235h112v-52.73c0-6.63 5.37-12 12-12h126c6.63 0 12 5.37 12 12v52.73h112z" fill="#65A0D6"/><circle cx="256" cy="287.229" fill="#D9DCE1" r="83.708"/><path d="M256 323.938c-20.24 0-36.708-16.467-36.708-36.708S235.76 250.521 256 250.521c20.241 0 36.708 16.467 36.708 36.708S276.241 323.938 256 323.938z" fill="#3C74BA"/><path fill="none" d="M369 203.521h42"/><path fill="#3C74BA" d="M87 138.865h53v32H87z"/></g></svg><svg viewBox="0 0 24 24" id="right" xmlns="http://www.w3.org/2000/svg"><path fill-rule="evenodd" clip-rule="evenodd" d="M14.586 12L7.293 4.707l1.414-1.414L17.414 12l-8.707 8.707-1.414-1.414L14.586 12z"/></svg><svg fill="currentColor" class="kbi kbi-search" viewBox="0 0 16 16" id="search" xmlns="http://www.w3.org/2000/svg"><path d="M11.742 10.344a6.5 6.5 0 10-1.397 1.398h-.001c.03.04.062.078.098.115l3.85 3.85a1 1 0 001.415-1.414l-3.85-3.85a1.007 1.007 0 00-.115-.1zM12 6.5a5.5 5.5 0 11-11 0 5.5 5.5 0 0111 0z"/></svg><svg fill="none" viewBox="0 0 18 16" id="tw" xmlns="http://www.w3.org/2000/svg"><path d="M15.635 4.274c.01.168.01.337.01.506 0 5.15-3.593 11.085-10.16 11.085A9.492 9.492 0 010 14.116c.287.037.564.049.862.049 1.67 0 3.207-.615 4.434-1.665-1.57-.036-2.886-1.158-3.339-2.702.221.036.442.06.675.06.32 0 .64-.048.94-.132C1.934 9.364.707 7.796.707 5.902v-.048c.475.29 1.028.47 1.614.494C1.36 5.648.73 4.455.73 3.104c0-.724.177-1.388.486-1.967 1.758 2.365 4.4 3.909 7.364 4.077a4.783 4.783 0 01-.088-.892c0-2.147 1.592-3.896 3.571-3.896 1.028 0 1.957.47 2.61 1.23a6.685 6.685 0 002.266-.94 3.844 3.844 0 01-1.57 2.146 6.696 6.696 0 002.057-.603 8.094 8.094 0 01-1.791 2.015z" fill="#E8E8E8"/></svg><svg fill="currentColor" class="mbi mbi-x-lg" viewBox="0 0 16 16" id="x-lg" xmlns="http://www.w3.org/2000/svg"><path d="M2.146 2.854a.5.5 0 11.708-.708L8 7.293l5.146-5.147a.5.5 0 01.708.708L8.707 8l5.147 5.146a.5.5 0 01-.708.708L8 8.707l-5.146 5.147a.5.5 0 01-.708-.708L7.293 8 2.146 2.854z"/></svg></svg>