<svg width="26" height="24" viewBox="0 0 26 24" fill="none" xmlns="http://www.w3.org/2000/svg">
<path d="M11.6162 0.833564C12.0507 -0.108452 13.3895 -0.108451 13.8241 0.833565L16.5882 6.8262C16.7653 7.21013 17.1291 7.47448 17.549 7.52426L24.1025 8.30128C25.1327 8.42342 25.5464 9.69674 24.7848 10.4011L19.9396 14.8818C19.6292 15.1688 19.4902 15.5965 19.5726 16.0112L20.8587 22.4841C21.0609 23.5016 19.9778 24.2886 19.0725 23.7818L13.3139 20.5584C12.945 20.3519 12.4953 20.3519 12.1263 20.5584L6.36771 23.7818C5.46248 24.2886 4.37933 23.5016 4.58151 22.4841L5.86766 16.0112C5.95006 15.5965 5.81109 15.1688 5.50067 14.8818L0.655501 10.4011C-0.106139 9.69674 0.307587 8.42342 1.33777 8.30128L7.89127 7.52426C8.31113 7.47448 8.67497 7.21013 8.85206 6.8262L11.6162 0.833564Z" fill="#FFB802"/>
</svg>
