<svg width="30" height="30" viewBox="0 0 30 30" fill="none" xmlns="http://www.w3.org/2000/svg">
<g id="image" clip-path="url(#clip0_1960_2125)">
<g id="Group">
<path id="Vector" fill-rule="evenodd" clip-rule="evenodd" d="M12.3936 16.3275C13.8542 18.8344 18.0327 21.7763 19.228 21.5306C20.4205 21.2841 20.8517 20.3335 20.8939 19.8619C20.9361 19.3931 18.7002 17.4919 18.1217 17.1019C17.5433 16.7119 16.6498 17.4328 16.2298 17.7375C15.7986 18.0235 14.6202 16.6688 14.127 16.0013C14.127 16.0013 12.8708 14.0288 13.3039 13.7419C13.7352 13.456 14.7758 12.9169 14.5714 12.2756C14.3689 11.6344 13.2261 9.00377 12.7264 8.87627C12.2436 8.75158 11.1495 8.8172 10.5027 9.78564C9.85578 10.7569 11.187 15.1988 13.212 17.3363" fill="#006B36"/>
<path id="Vector_2" d="M15 29.0625C22.7665 29.0625 29.0625 22.7665 29.0625 15C29.0625 7.2335 22.7665 0.9375 15 0.9375C7.2335 0.9375 0.9375 7.2335 0.9375 15C0.9375 22.7665 7.2335 29.0625 15 29.0625Z" stroke="#006B36" stroke-width="0.9375"/>
</g>
</g>
<defs>
<clipPath id="clip0_1960_2125">
<rect width="30" height="30" fill="white"/>
</clipPath>
</defs>
</svg>
