<svg width="19" height="18" viewBox="0 0 19 18"  xmlns="http://www.w3.org/2000/svg">
<g id="telegram" clip-path="url(#clip0_1960_2141)">
<path id="Vector" d="M9.56099 0.262207C14.1964 0.262207 17.954 4.01983 17.954 8.65523C17.954 13.2906 14.1964 17.0483 9.56099 17.0483C4.9256 17.0483 1.16797 13.2906 1.16797 8.65523C1.16797 4.01983 4.9256 0.262207 9.56099 0.262207ZM12.4562 12.0764C12.6105 11.6029 13.334 6.88221 13.4232 5.95198C13.4501 5.67011 13.3613 5.48302 13.1868 5.39944C12.9759 5.29802 12.6636 5.34873 12.301 5.47952C11.804 5.65857 5.45016 8.35658 5.08296 8.51255C4.735 8.66048 4.40558 8.82169 4.40558 9.0553C4.40558 9.21966 4.50315 9.31199 4.77172 9.40781C5.05114 9.50747 5.75511 9.7208 6.17091 9.8355C6.57133 9.94601 7.027 9.85019 7.28229 9.69142C7.55296 9.52321 10.678 7.4323 10.9021 7.24905C11.1263 7.0658 11.305 7.30046 11.1217 7.48406C10.9385 7.6673 8.79373 9.74912 8.51082 10.0373C8.1674 10.3873 8.41115 10.75 8.64161 10.8951C8.90459 11.0609 10.7969 12.33 11.0819 12.5335C11.3669 12.737 11.6558 12.8294 11.9205 12.8294C12.1852 12.8294 12.3244 12.4811 12.4562 12.0764Z" />
</g>
<defs>
<clipPath id="clip0_1960_2141">
<rect width="17.3106" height="17.3106" fill="white" transform="translate(0.904297)"/>
</clipPath>
</defs>
</svg>
