<svg width="80.000000" height="80.000000" viewBox="0 0 80 80" fill="none" xmlns="http://www.w3.org/2000/svg" xmlns:xlink="http://www.w3.org/1999/xlink">
	<desc>
			Created with Pixso.
	</desc>
	<defs/>
	<path id="Vector" d="M80 17.02C80 16.01 79.35 15.09 78.36 14.71L41 0.18C40.36 -0.07 39.63 -0.07 38.99 0.18L1.63 14.71C0.64 15.09 0 16.01 0 17.02L0 62.97C0 63.98 0.64 64.9 1.63 65.28L38.99 79.81C39.63 80.05 40.34 80.06 41 79.81C41.03 79.8 39.61 80.35 78.36 65.28C79.35 64.9 80 63.98 80 62.97L80 17.02ZM40 29.05L26.23 23.7L55.98 11.42L70.66 17.13L40 29.05ZM5.28 20.97L17.16 25.58L17.16 38.61C17.16 39.99 18.34 41.11 19.8 41.11C21.27 41.11 22.45 39.99 22.45 38.61L22.45 27.64L37.35 33.43L37.35 73.76L5.28 61.29L5.28 20.97ZM40 5.2L49.16 8.77L19.42 21.05L9.33 17.13L40 5.2ZM42.64 33.43L74.71 20.97L74.71 61.29L42.64 73.76L42.64 33.43Z" fill="#5F5F5F" fill-opacity="1.000000" fill-rule="nonzero"/>
</svg>
