<svg width="65.625000" height="41.562500" viewBox="0 0 65.625 41.5625" fill="none" xmlns="http://www.w3.org/2000/svg" xmlns:xlink="http://www.w3.org/1999/xlink">
	<desc>
			Created with Pixso.
	</desc>
	<defs/>
	<path id="Vector" d="M63.28 18.12L61.19 18.12C59.96 18.12 58.76 17.8 57.7 17.2L38.86 1.84C37.83 1 35.2 0 32.55 0L7.03 0C3.02 0 0 2.82 0 6.56C0 9.78 2.16 12.42 5.17 13.2C4.86 14 4.68 14.87 4.68 15.78C4.68 19.01 6.88 21.75 9.87 22.56C9.55 23.36 9.37 24.24 9.37 25.15C9.37 29.03 12.52 32.18 16.4 32.18L32.24 32.18L38.18 38.12C40.4 40.34 43.34 41.56 46.47 41.56L63.28 41.56C64.57 41.56 65.62 40.51 65.62 39.21L65.62 20.46C65.62 19.17 64.57 18.12 63.28 18.12ZM11.71 13.43L25.78 13.43C26.4 13.43 26.99 13.68 27.43 14.12C26.72 14.46 26.07 14.92 25.49 15.49C24.74 16.25 24.18 17.14 23.83 18.12L11.71 18.12C10.42 18.12 9.37 17.07 9.37 15.78C9.37 14.48 10.42 13.43 11.71 13.43ZM16.4 27.5C15.11 27.5 14.06 26.44 14.06 25.15C14.06 23.86 15.11 22.81 16.4 22.81L23.83 22.81C24.18 23.78 24.74 24.68 25.49 25.44L27.55 27.5L16.4 27.5ZM60.93 36.87L46.47 36.87C44.59 36.87 42.82 36.14 41.5 34.81C40.01 33.32 30.09 23.4 28.81 22.12C27.89 21.2 27.89 19.72 28.81 18.81C29.72 17.89 31.2 17.89 32.12 18.81L40.12 26.81C41.04 27.72 42.52 27.72 43.44 26.81C44.35 25.89 44.35 24.41 43.44 23.49L30.75 10.8C29.42 9.48 27.66 8.75 25.79 8.75C25.79 8.75 25.79 8.75 25.78 8.75C25.78 8.75 9.55 8.75 7.03 8.75C5.69 8.75 4.68 7.8 4.68 6.56C4.68 5.17 5.94 4.68 7.03 4.68L32.55 4.68C33.8 4.68 35 5 36.04 5.59C56.1 21.93 54.88 20.97 55.16 21.14C56.9 22.19 58.9 22.76 60.93 22.81L60.93 36.87Z" fill="#5F5F5F" fill-opacity="1.000000" fill-rule="nonzero"/>
</svg>
