<svg width="18" height="18" viewBox="0 0 18 18"  xmlns="http://www.w3.org/2000/svg">
<g id="vk" clip-path="url(#clip0_1960_2135)">
<path id="Subtract" fill-rule="evenodd" clip-rule="evenodd" d="M0 8.65524C0 3.89483 3.89489 -6.10352e-05 8.6553 -6.10352e-05C13.4157 -6.10352e-05 17.3106 3.89483 17.3106 8.65524C17.3106 13.4157 13.4157 17.3105 8.6553 17.3105C3.89489 17.3105 0 13.4157 0 8.65524ZM2.98615 5.5394C3.0727 9.99688 5.2798 12.6367 9.17469 12.6367H9.30452V10.0834C10.7326 10.2565 11.8146 11.2952 12.2473 12.6367H14.2813C13.762 10.646 12.2906 9.52084 11.3818 9.08807C12.2906 8.56875 13.5889 7.27046 13.8918 5.5394H12.0742C11.6847 6.96752 10.5163 8.22254 9.39107 8.35237V5.5394H7.57346V10.4296C6.44827 10.17 4.97687 8.78514 4.93359 5.5394H2.98615Z" />
</g>
<defs>
<clipPath id="clip0_1960_2135">
<rect width="17.3106" height="17.3106" fill="white"/>
</clipPath>
</defs>
</svg>
