<svg width="19" height="18" viewBox="0 0 19 18" fill="none" xmlns="http://www.w3.org/2000/svg">
<path d="M3.28292 4.28571C3.28292 4.47917 3.21224 4.64658 3.07087 4.78795C2.9295 4.92932 2.76209 5 2.56864 5C2.36775 5 2.19661 4.92932 2.05525 4.78795C1.92132 4.64658 1.85435 4.47917 1.85435 4.28571C1.85435 4.08482 1.92132 3.91741 2.05525 3.78348C2.19661 3.64211 2.36775 3.57143 2.56864 3.57143C2.76209 3.57143 2.9295 3.64211 3.07087 3.78348C3.21224 3.91741 3.28292 4.08482 3.28292 4.28571ZM5.06864 10V2.85714C5.06864 2.66369 4.99795 2.49628 4.85658 2.35491C4.71522 2.21354 4.54781 2.14286 4.35435 2.14286H1.14007C0.946615 2.14286 0.779204 2.21354 0.637835 2.35491C0.496466 2.49628 0.425781 2.66369 0.425781 2.85714V10C0.425781 10.1935 0.496466 10.3609 0.637835 10.5022C0.779204 10.6436 0.946615 10.7143 1.14007 10.7143H4.35435C4.54781 10.7143 4.71522 10.6436 4.85658 10.5022C4.99795 10.3609 5.06864 10.1935 5.06864 10ZM17.6691 8.33705C18.0783 8.79092 18.2829 9.34524 18.2829 10C18.2755 10.5804 18.0597 11.0826 17.6356 11.5067C17.2189 11.9308 16.7204 12.1429 16.1401 12.1429H13.0486C13.0783 12.247 13.1081 12.3363 13.1378 12.4107C13.1676 12.4851 13.2085 12.567 13.2606 12.6562C13.3127 12.7455 13.3499 12.8125 13.3722 12.8571C13.5061 13.1324 13.6066 13.3445 13.6736 13.4933C13.7405 13.6421 13.8112 13.8616 13.8856 14.1518C13.96 14.4345 13.9972 14.7173 13.9972 15C13.9972 15.1786 13.9935 15.3237 13.9861 15.4353C13.9861 15.5469 13.9674 15.7143 13.9302 15.9375C13.9005 16.1607 13.8558 16.3467 13.7963 16.4955C13.7442 16.6443 13.6549 16.8118 13.5285 16.9978C13.4094 17.1838 13.2606 17.3326 13.082 17.4442C12.9109 17.5632 12.6877 17.66 12.4124 17.7344C12.1445 17.8162 11.8395 17.8571 11.4972 17.8571C11.3038 17.8571 11.1363 17.7865 10.995 17.6451C10.8462 17.4963 10.7197 17.3103 10.6155 17.0871C10.5113 16.8638 10.4369 16.6704 10.3923 16.5067C10.3551 16.343 10.3105 16.1161 10.2584 15.8259C10.1914 15.5134 10.1393 15.2865 10.1021 15.1451C10.0724 15.0112 10.0091 14.8326 9.91239 14.6094C9.81566 14.3862 9.70034 14.2076 9.56641 14.0737C9.32087 13.8281 8.94513 13.3817 8.43917 12.7344C8.07459 12.2582 7.69885 11.808 7.31194 11.3839C6.92504 10.9598 6.6423 10.7403 6.46373 10.7254C6.27772 10.7106 6.11775 10.6362 5.98382 10.5022C5.84989 10.3609 5.78292 10.1972 5.78292 10.0112V2.85714C5.78292 2.66369 5.85361 2.5 5.99498 2.36607C6.13635 2.2247 6.30376 2.1503 6.49721 2.14286C6.75763 2.13542 7.34542 1.97173 8.2606 1.65179C8.83352 1.45833 9.27995 1.31324 9.59989 1.21652C9.92727 1.11235 10.3811 1.00446 10.9615 0.892856C11.5419 0.773809 12.0776 0.714285 12.5686 0.714285H12.7584H13.6066H14.0084C14.998 0.729166 15.7308 1.01934 16.207 1.58482C16.6386 2.09821 16.8209 2.77158 16.7539 3.60491C17.0441 3.88021 17.245 4.22991 17.3566 4.65402C17.4831 5.10789 17.4831 5.54315 17.3566 5.95982C17.6988 6.41369 17.8588 6.92336 17.8365 7.48884C17.8365 7.72693 17.7807 8.00967 17.6691 8.33705Z" fill="#C4C4C4"/>
</svg>
