<svg width="67.500000" height="75.000000" viewBox="0 0 67.5 75" fill="none" xmlns="http://www.w3.org/2000/svg" xmlns:xlink="http://www.w3.org/1999/xlink">
	<desc>
			Created with Pixso.
	</desc>
	<defs/>
	<path id="Vector" d="M61.25 2.5L56.25 2.5L56.25 1.25C56.25 0.918457 56.1184 0.600525 55.8838 0.366089C55.6494 0.131714 55.3315 0 55 0L25 0C24.6685 0 24.3506 0.131714 24.1162 0.366089C23.8816 0.600525 23.75 0.918457 23.75 1.25L23.75 2.5L18.75 2.5C17.093 2.50201 15.5044 3.16113 14.3328 4.33276C13.1611 5.50446 12.502 7.09302 12.5 8.75L12.5 27.5588C11.6189 27.6678 10.771 27.9632 10.0127 28.4253C9.25439 28.8874 8.60327 29.5056 8.10254 30.2388L2.39258 38.6138C0.832031 40.895 -0.00219727 43.5948 0 46.3588L0 73.75C0 74.0815 0.131592 74.3995 0.366211 74.6339C0.600586 74.8683 0.918457 75 1.25 75L16.25 75C16.5815 75 16.8994 74.8683 17.1338 74.6339C17.3684 74.3995 17.5 74.0815 17.5 73.75L17.5 69.8575C17.9106 69.948 18.3296 69.9958 18.75 70L61.25 70C62.907 69.998 64.4956 69.3389 65.6672 68.1672C66.8389 66.9955 67.498 65.407 67.5 63.75L67.5 8.75C67.498 7.09302 66.8389 5.50446 65.6672 4.33276C64.4956 3.16113 62.907 2.50201 61.25 2.5ZM26.25 2.5L53.75 2.5L53.75 8.75C53.75 9.08154 53.6184 9.39948 53.3838 9.63391C53.1494 9.86829 52.8315 10 52.5 10L27.5 10C27.1685 10 26.8506 9.86829 26.6162 9.63391C26.3816 9.39948 26.25 9.08154 26.25 8.75L26.25 2.5ZM27.5 12.5L52.5 12.5C53.2729 12.4968 54.0259 12.2549 54.6558 11.8074C55.2859 11.3599 55.7625 10.7286 56.02 10L58.75 10C59.0815 10 59.3994 10.1317 59.6338 10.3661C59.8684 10.6005 60 10.9185 60 11.25L60 61.25C60 61.5815 59.8684 61.8995 59.6338 62.1339C59.3994 62.3683 59.0815 62.5 58.75 62.5L21.25 62.5C21.082 62.4968 20.9165 62.459 20.7637 62.3887C21.0825 61.3424 21.2463 60.2551 21.25 59.1613L21.25 58.355C21.2517 56.7833 20.9229 55.2289 20.2849 53.7925L19.6599 52.4025L25.4524 40.6337C25.8894 39.873 26.1191 39.011 26.1187 38.1337C26.1199 37.3822 25.9509 36.6401 25.6248 35.9631C25.2983 35.2861 24.8232 34.6917 24.2346 34.2243C23.6462 33.7569 22.9595 33.4288 22.2261 33.2643C21.4927 33.1 20.7317 33.1036 20 33.275L20 11.25C20 10.9185 20.1316 10.6005 20.3662 10.3661C20.6006 10.1317 20.9185 10 21.25 10L23.98 10C24.2375 10.7286 24.7141 11.3599 25.3442 11.8074C25.9741 12.2549 26.7273 12.4968 27.5 12.5ZM18.75 5L23.75 5L23.75 7.5L21.25 7.5C20.2554 7.5 19.3015 7.89508 18.5984 8.59833C17.895 9.30164 17.5 10.2554 17.5 11.25L17.5 34.72C17.2146 35.0174 16.9651 35.3471 16.7563 35.7025L15 39.2125L15 8.75C15 7.75543 15.395 6.80164 16.0984 6.09833C16.8015 5.39508 17.7554 5 18.75 5ZM15 67.5L15 72.5L2.5 72.5L2.5 46.3588C2.49756 44.0959 3.17993 41.8853 4.45752 40.0175L10.1675 31.6425C10.7173 30.8481 11.5532 30.2975 12.5 30.1063L12.5 44.2087L9.875 49.44L12.1113 50.565L18.9512 36.8912C19.2258 36.4135 19.6506 36.0397 20.1597 35.8283C20.6687 35.6169 21.2332 35.5795 21.7654 35.7221C22.2979 35.8647 22.7681 36.1792 23.1033 36.6166C23.4385 37.0541 23.6196 37.5901 23.6187 38.1412C23.6135 38.6075 23.4841 39.064 23.2437 39.4637L17.155 51.8262C17.0786 51.988 17.0361 52.1637 17.03 52.3425L17.03 52.3862C17.0293 52.5976 17.0833 52.8055 17.1863 52.99L17.9912 54.805C18.4875 55.9222 18.7432 57.1313 18.7412 58.3538L18.7412 59.16C18.7361 61.0497 18.1223 62.8875 16.9912 64.4012L15.25 66.75C15.0876 66.9664 15 67.2296 15 67.5ZM65 63.75C65 64.7446 64.605 65.6984 63.9016 66.4017C63.1985 67.1049 62.2446 67.5 61.25 67.5L18.75 67.5C18.4617 67.4959 18.1746 67.4581 17.895 67.3875L19.0076 65.9C19.2935 65.5131 19.554 65.1082 19.7876 64.6875C20.2488 64.8895 20.7463 64.9958 21.25 65L58.75 65C59.7446 65 60.6985 64.6049 61.4016 63.9017C62.105 63.1984 62.5 62.2446 62.5 61.25L62.5 11.25C62.5 10.2554 62.105 9.30164 61.4016 8.59833C60.6985 7.89508 59.7446 7.5 58.75 7.5L56.25 7.5L56.25 5L61.25 5C62.2446 5 63.1985 5.39508 63.9016 6.09833C64.605 6.80164 65 7.75543 65 8.75L65 63.75Z" fill="#008000" fill-opacity="1.000000" fill-rule="nonzero"/>
	<path id="Vector" d="M38.75 16.25L41.25 16.25L41.25 18.75L38.75 18.75L38.75 16.25ZM43.75 16.25L46.25 16.25L46.25 18.75L43.75 18.75L43.75 16.25ZM33.75 16.25L36.25 16.25L36.25 18.75L33.75 18.75L33.75 16.25ZM37.5 34.2675L40.3662 37.1337C40.6006 37.3681 40.9185 37.4998 41.25 37.4998C41.5813 37.4998 41.8994 37.3681 42.1338 37.1337L47.5 31.7675L47.5 33.75L50 33.75L50 28.75C50 28.4185 49.8682 28.1005 49.6338 27.8661C49.3994 27.6317 49.0815 27.5 48.75 27.5L43.75 27.5L43.75 30L45.7324 30L41.25 34.4825L38.3838 31.6163C38.1494 31.3819 37.8313 31.2502 37.5 31.2502C37.1685 31.2502 36.8506 31.3819 36.6162 31.6163L31.6162 36.6163L33.3838 38.3837L37.5 34.2675Z" fill="#008000" fill-opacity="1.000000" fill-rule="nonzero"/>
	<path id="Vector" d="M28.75 45L51.25 45L51.25 42.5L30 42.5L30 23.75L27.5 23.75L27.5 43.75C27.5 44.0815 27.6316 44.3995 27.8662 44.6339C28.1006 44.8683 28.4185 45 28.75 45ZM28.75 50L36.25 50L36.25 52.5L28.75 52.5L28.75 50ZM38.75 50L51.25 50L51.25 52.5L38.75 52.5L38.75 50ZM28.75 55L51.25 55L51.25 57.5L28.75 57.5L28.75 55Z" fill="#008000" fill-opacity="1.000000" fill-rule="nonzero"/>
</svg>
