<svg width="62.500000" height="75.000000" viewBox="0 0 62.5 75" fill="none" xmlns="http://www.w3.org/2000/svg" xmlns:xlink="http://www.w3.org/1999/xlink">
	<desc>
			Created with Pixso.
	</desc>
	<defs/>
	<path id="Vector" d="M26.25 20L28.75 20L28.75 22.5L26.25 22.5L26.25 20ZM31.25 20L33.75 20L33.75 22.5L31.25 22.5L31.25 20ZM21.25 20L23.75 20L23.75 22.5L21.25 22.5L21.25 20ZM17.6313 64.3088C17.7349 64.5168 17.8945 64.6918 18.0923 64.8141C18.2896 64.9364 18.5176 65.0012 18.75 65.0012C18.9824 65.0012 19.2104 64.9364 19.4077 64.8141C19.6055 64.6918 19.7651 64.5168 19.8687 64.3088L22.3687 59.3087C22.4551 59.1352 22.5 58.9439 22.5 58.75L22.5 27.5C22.5 26.837 22.2368 26.201 21.7676 25.7322C21.2988 25.2634 20.6631 25 20 25L17.5 25C16.8369 25 16.2012 25.2634 15.7324 25.7322C15.2632 26.201 15 26.837 15 27.5L15 58.75C15 58.9439 15.0449 59.1352 15.1313 59.3087L17.6313 64.3088ZM18.75 60.955L17.5 58.455L17.5 35L20 35L20 58.455L18.75 60.955ZM20 27.5L20 32.5L17.5 32.5L17.5 27.5L20 27.5ZM55 45L35 45C34.3369 45 33.7012 45.2634 33.2324 45.7322C32.7632 46.201 32.5 46.837 32.5 47.5L32.5 67.5C32.5 68.163 32.7632 68.799 33.2324 69.2678C33.7012 69.7366 34.3369 70 35 70L55 70C55.6631 70 56.2988 69.7366 56.7676 69.2678C57.2368 68.799 57.5 68.163 57.5 67.5L57.5 47.5C57.5 46.837 57.2368 46.201 56.7676 45.7322C56.2988 45.2634 55.6631 45 55 45ZM55 52.5L50 52.5L50 47.5L55 47.5L55 52.5ZM42.5 60L42.5 55L47.5 55L47.5 60L42.5 60ZM47.5 62.5L47.5 67.5L42.5 67.5L42.5 62.5L47.5 62.5ZM40 60L35 60L35 55L40 55L40 60ZM42.5 52.5L42.5 47.5L47.5 47.5L47.5 52.5L42.5 52.5ZM50 55L55 55L55 60L50 60L50 55ZM40 47.5L40 52.5L35 52.5L35 47.5L40 47.5ZM35 62.5L40 62.5L40 67.5L35 67.5L35 62.5ZM50 67.5L50 62.5L55 62.5L55 67.5L50 67.5Z" fill="#008000" fill-opacity="1.000000" fill-rule="nonzero"/>
	<path id="Vector" d="M58.75 27.5L55 27.5L55 13.75C54.998 12.093 54.3389 10.5045 53.167 9.33276C51.9956 8.16113 50.4072 7.50201 48.75 7.5L43.75 7.5L43.75 6.25C43.75 5.91846 43.6182 5.60052 43.3838 5.36609C43.1494 5.13171 42.8315 5 42.5 5L31.02 5C31.168 4.59967 31.2461 4.17682 31.25 3.75C31.25 2.75543 30.855 1.80164 30.1519 1.09833C29.4482 0.395081 28.4946 0 27.5 0C26.5054 0 25.5518 0.395081 24.8481 1.09833C24.145 1.80164 23.75 2.75543 23.75 3.75C23.7539 4.17682 23.832 4.59967 23.98 5L12.5 5C12.1685 5 11.8506 5.13171 11.6162 5.36609C11.3818 5.60052 11.25 5.91846 11.25 6.25L11.25 7.5L6.25 7.5C4.59277 7.50201 3.00439 8.16113 1.83301 9.33276C0.661133 10.5045 0.00195312 12.093 0 13.75L0 68.75C0.00195312 70.407 0.661133 71.9955 1.83301 73.1672C3.00439 74.3389 4.59277 74.998 6.25 75L58.75 75C59.7446 75 60.6982 74.6049 61.4019 73.9017C62.105 73.1984 62.5 72.2446 62.5 71.25L62.5 31.25C62.5 30.2554 62.105 29.3016 61.4019 28.5983C60.6982 27.8951 59.7446 27.5 58.75 27.5ZM48.75 10C49.7446 10 50.6982 10.3951 51.4019 11.0983C52.105 11.8016 52.5 12.7554 52.5 13.75L52.5 27.5L50 27.5L50 16.25C50 15.2554 49.605 14.3016 48.9019 13.5983C48.1982 12.8951 47.2446 12.5 46.25 12.5L43.75 12.5L43.75 10L48.75 10ZM26.25 3.75C26.25 3.50275 26.3232 3.26111 26.4604 3.05554C26.5981 2.84998 26.7935 2.68976 27.0215 2.59515C27.25 2.50055 27.5015 2.47577 27.7437 2.52405C27.9863 2.57227 28.209 2.69128 28.3838 2.86609C28.5586 3.04095 28.6777 3.26367 28.7261 3.50616C28.7744 3.7486 28.7495 3.99994 28.6548 4.22833C28.5601 4.45679 28.3999 4.65198 28.1943 4.78931C27.9888 4.9267 27.7471 5 27.5 5C27.1685 5 26.8506 4.86829 26.6162 4.63391C26.3818 4.39948 26.25 4.08154 26.25 3.75ZM13.75 7.5L41.25 7.5L41.25 13.75C41.25 14.0815 41.1182 14.3995 40.8838 14.6339C40.6494 14.8683 40.3315 15 40 15L15 15C14.6685 15 14.3506 14.8683 14.1162 14.6339C13.8818 14.3995 13.75 14.0815 13.75 13.75L13.75 7.5ZM15 17.5L40 17.5C40.7729 17.4968 41.5259 17.2549 42.1558 16.8074C42.7861 16.3599 43.2622 15.7286 43.52 15L46.25 15C46.5815 15 46.8994 15.1317 47.1338 15.3661C47.3682 15.6005 47.5 15.9185 47.5 16.25L47.5 27.5L31.25 27.5C30.2554 27.5 29.3018 27.8951 28.5981 28.5983C27.895 29.3016 27.5 30.2554 27.5 31.25L27.5 67.5L8.75 67.5C8.41846 67.5 8.10059 67.3683 7.86621 67.1339C7.63184 66.8995 7.5 66.5815 7.5 66.25L7.5 16.25C7.5 15.9185 7.63184 15.6005 7.86621 15.3661C8.10059 15.1317 8.41846 15 8.75 15L11.48 15C11.7378 15.7286 12.2139 16.3599 12.8442 16.8074C13.4741 17.2549 14.2271 17.4968 15 17.5ZM2.5 68.75L2.5 13.75C2.5 12.7554 2.89502 11.8016 3.59814 11.0983C4.30176 10.3951 5.25537 10 6.25 10L11.25 10L11.25 12.5L8.75 12.5C7.75537 12.5 6.80176 12.8951 6.09814 13.5983C5.39502 14.3016 5 15.2554 5 16.25L5 66.25C5 67.2446 5.39502 68.1984 6.09814 68.9017C6.80176 69.6049 7.75537 70 8.75 70L27.5 70L27.5 71.25C27.5039 71.6768 27.582 72.0997 27.73 72.5L6.25 72.5C5.25537 72.5 4.30176 72.1049 3.59814 71.4017C2.89502 70.6984 2.5 69.7446 2.5 68.75ZM60 71.25C60 71.5815 59.8682 71.8995 59.6338 72.1339C59.3994 72.3683 59.0815 72.5 58.75 72.5L31.25 72.5C30.9185 72.5 30.6006 72.3683 30.3662 72.1339C30.1318 71.8995 30 71.5815 30 71.25L30 31.25C30 30.9185 30.1318 30.6005 30.3662 30.3661C30.6006 30.1317 30.9185 30 31.25 30L58.75 30C59.0815 30 59.3994 30.1317 59.6338 30.3661C59.8682 30.6005 60 30.9185 60 31.25L60 71.25Z" fill="#008000" fill-opacity="1.000000" fill-rule="nonzero"/>
	<path id="Vector" d="M56.25 32.5L33.75 32.5C33.4185 32.5 33.1006 32.6317 32.8662 32.8661C32.6318 33.1005 32.5 33.4185 32.5 33.75L32.5 41.25C32.5 41.5815 32.6318 41.8995 32.8662 42.1339C33.1006 42.3683 33.4185 42.5 33.75 42.5L56.25 42.5C56.5815 42.5 56.8994 42.3683 57.1338 42.1339C57.3682 41.8995 57.5 41.5815 57.5 41.25L57.5 33.75C57.5 33.4185 57.3682 33.1005 57.1338 32.8661C56.8994 32.6317 56.5815 32.5 56.25 32.5ZM55 40L35 40L35 35L55 35L55 40Z" fill="#008000" fill-opacity="1.000000" fill-rule="nonzero"/>
</svg>
