<svg width="75.000000" height="75.000000" viewBox="0 0 75 75" fill="none" xmlns="http://www.w3.org/2000/svg" xmlns:xlink="http://www.w3.org/1999/xlink">
	<desc>
			Created with Pixso.
	</desc>
	<defs/>
	<path id="Vector" d="M68.75 0L6.25 0C4.59277 0.00201416 3.00439 0.661133 1.83301 1.83276C0.661133 3.00446 0.00195312 4.59302 0 6.25L0 51.25C0.00195312 52.907 0.661133 54.4955 1.83301 55.6672C3.00439 56.8389 4.59277 57.498 6.25 57.5L27.375 57.5L26.375 67.5L23.75 67.5C22.7554 67.5 21.8018 67.8951 21.0981 68.5983C20.395 69.3016 20 70.2554 20 71.25C20 72.2446 20.395 73.1984 21.0981 73.9017C21.8018 74.6049 22.7554 75 23.75 75L51.25 75C52.2446 75 53.1982 74.6049 53.9019 73.9017C54.605 73.1984 55 72.2446 55 71.25C55 70.2554 54.605 69.3016 53.9019 68.5983C53.1982 67.8951 52.2446 67.5 51.25 67.5L48.6313 67.5L47.6313 57.5L68.75 57.5C70.4072 57.498 71.9956 56.8389 73.167 55.6672C74.3389 54.4955 74.998 52.907 75 51.25L75 6.25C74.998 4.59302 74.3389 3.00446 73.167 1.83276C71.9956 0.661133 70.4072 0.00201416 68.75 0ZM6.25 2.5L68.75 2.5C69.7446 2.5 70.6982 2.89508 71.4019 3.59833C72.105 4.30164 72.5 5.25543 72.5 6.25L72.5 45L2.5 45L2.5 6.25C2.5 5.25543 2.89502 4.30164 3.59814 3.59833C4.30176 2.89508 5.25537 2.5 6.25 2.5ZM52.5 71.25C52.5 71.5815 52.3682 71.8995 52.1338 72.1339C51.8994 72.3683 51.5815 72.5 51.25 72.5L23.75 72.5C23.4185 72.5 23.1006 72.3683 22.8662 72.1339C22.6318 71.8995 22.5 71.5815 22.5 71.25C22.5 70.9185 22.6318 70.6005 22.8662 70.3661C23.1006 70.1317 23.4185 70 23.75 70L51.25 70C51.5815 70 51.8994 70.1317 52.1338 70.3661C52.3682 70.6005 52.5 70.9185 52.5 71.25ZM46.125 67.5L28.8813 67.5L29.8813 57.5L45.125 57.5L46.125 67.5ZM68.75 55L6.25 55C5.25537 55 4.30176 54.6049 3.59814 53.9017C2.89502 53.1984 2.5 52.2446 2.5 51.25L2.5 47.5L72.5 47.5L72.5 51.25C72.5 52.2446 72.105 53.1984 71.4019 53.9017C70.6982 54.6049 69.7446 55 68.75 55Z" fill="#008000" fill-opacity="1.000000" fill-rule="nonzero"/>
	<path id="Vector" d="M65 50L67.5 50L67.5 52.5L65 52.5L65 50ZM36.25 37.5C39.564 37.4963 42.7412 36.1782 45.085 33.8348C47.4282 31.4914 48.7466 28.3141 48.75 25C48.75 24.6685 48.6182 24.3505 48.3838 24.1161C48.1494 23.8817 47.8315 23.75 47.5 23.75L37.5 23.75L37.5 13.75C37.5 13.4185 37.3682 13.1005 37.1338 12.8661C36.8994 12.6317 36.5815 12.5 36.25 12.5C32.9346 12.5 29.7554 13.817 27.4111 16.1612C25.0669 18.5054 23.75 21.6848 23.75 25C23.75 28.3152 25.0669 31.4946 27.4111 33.8388C29.7554 36.183 32.9346 37.5 36.25 37.5ZM35 15.0775L35 25C35 25.3315 35.1318 25.6495 35.3662 25.8839C35.6006 26.1183 35.9185 26.25 36.25 26.25L46.1724 26.25C45.9385 28.1064 45.188 29.8599 44.0073 31.3112C42.8262 32.7624 41.2617 33.8531 39.4912 34.4594C37.7212 35.0657 35.8164 35.1632 33.9937 34.7408C32.1709 34.3184 30.5029 33.3931 29.1802 32.07C27.8569 30.7469 26.9316 29.0792 26.5093 27.2564C26.0869 25.4336 26.1841 23.5288 26.7905 21.7587C27.397 19.9885 28.4878 18.424 29.939 17.2429C31.3901 16.0618 33.1436 15.3116 35 15.0775Z" fill="#008000" fill-opacity="1.000000" fill-rule="nonzero"/>
	<path id="Vector" d="M40 22.5L51.25 22.5C51.5815 22.5 51.8994 22.3683 52.1338 22.1339C52.3682 21.8995 52.5 21.5815 52.5 21.25C52.4966 17.9359 51.1782 14.7586 48.835 12.4152C46.4912 10.0718 43.314 8.75366 40 8.75C39.6685 8.75 39.3506 8.88171 39.1162 9.11609C38.8818 9.35052 38.75 9.66846 38.75 10L38.75 21.25C38.75 21.5815 38.8818 21.8995 39.1162 22.1339C39.3506 22.3683 39.6685 22.5 40 22.5ZM41.25 11.3275C43.4517 11.6088 45.498 12.613 47.0674 14.1826C48.6372 15.7521 49.6411 17.7982 49.9224 20L41.25 20L41.25 11.3275ZM52.5 10L60 10L60 12.5L52.5 12.5L52.5 10ZM62.5 10L67.5 10L67.5 12.5L62.5 12.5L62.5 10ZM62.5 15L67.5 15L67.5 17.5L62.5 17.5L62.5 15ZM7.5 30L12.5 30L12.5 32.5L7.5 32.5L7.5 30ZM7.5 35L12.5 35L12.5 37.5L7.5 37.5L7.5 35ZM15 30L22.5 30L22.5 32.5L15 32.5L15 30ZM55 37.5L65 37.5L65 40L55 40L55 37.5ZM55 32.5L57.5 32.5L57.5 35L55 35L55 32.5ZM60 32.5L65 32.5L65 35L60 35L60 32.5Z" fill="#008000" fill-opacity="1.000000" fill-rule="nonzero"/>
</svg>
