<svg width="80.000000" height="80.000000" viewBox="0 0 80 80" fill="none" xmlns="http://www.w3.org/2000/svg" xmlns:xlink="http://www.w3.org/1999/xlink">
	<desc>
			Created with Pixso.
	</desc>
	<defs>
		<clipPath id="clip22_5875">
			<rect id="Frame" width="80.000000" height="80.000000" fill="white" fill-opacity="0"/>
		</clipPath>
	</defs>
	<rect id="Frame" width="80.000000" height="80.000000" fill="#FFFFFF" fill-opacity="0"/>
	<g clip-path="url(#clip22_5875)">
		<path id="Vector" d="M72.5 7.5L57.5 7.5L57.5 6.25C57.5 5.25549 57.105 4.30164 56.4019 3.59839C55.6982 2.89514 54.7446 2.5 53.75 2.5C52.7554 2.5 51.8018 2.89514 51.0981 3.59839C50.395 4.30164 50 5.25549 50 6.25L50 7.5L43.75 7.5L43.75 6.25C43.75 5.25549 43.355 4.30164 42.6519 3.59839C41.9482 2.89514 40.9946 2.5 40 2.5C39.0054 2.5 38.0518 2.89514 37.3481 3.59839C36.645 4.30164 36.25 5.25549 36.25 6.25L36.25 7.5L30 7.5L30 6.25C30 5.25549 29.605 4.30164 28.9019 3.59839C28.1982 2.89514 27.2446 2.5 26.25 2.5C25.2554 2.5 24.3018 2.89514 23.5981 3.59839C22.895 4.30164 22.5 5.25549 22.5 6.25L22.5 7.5L15 7.5C14.6685 7.5 14.3506 7.63171 14.1162 7.86609C13.8818 8.10059 13.75 8.41846 13.75 8.75L13.75 57.5L7.5 57.5C7.16846 57.5 6.85059 57.6317 6.61621 57.8661C6.38184 58.1006 6.25 58.4185 6.25 58.75L6.25 63.75C6.25195 65.407 6.91113 66.9956 8.08301 68.1672C9.25439 69.3389 10.8428 69.998 12.5 70L13.75 70L13.75 76.25C13.75 76.5815 13.8818 76.8994 14.1162 77.1339C14.3506 77.3683 14.6685 77.5 15 77.5L72.5 77.5C72.8315 77.5 73.1494 77.3683 73.3838 77.1339C73.6182 76.8994 73.75 76.5815 73.75 76.25L73.75 8.75C73.75 8.41846 73.6182 8.10059 73.3838 7.86609C73.1494 7.63171 72.8315 7.5 72.5 7.5ZM71.25 17.5L66.25 17.5L66.25 10L71.25 10L71.25 17.5ZM52.5 6.25C52.5 5.91846 52.6318 5.60059 52.8662 5.36609C53.1006 5.13171 53.4185 5 53.75 5C54.0815 5 54.3994 5.13171 54.6338 5.36609C54.8682 5.60059 55 5.91846 55 6.25L55 7.5L52.5 7.5L52.5 6.25ZM38.75 6.25C38.75 5.91846 38.8818 5.60059 39.1162 5.36609C39.3506 5.13171 39.6685 5 40 5C40.3315 5 40.6494 5.13171 40.8838 5.36609C41.1182 5.60059 41.25 5.91846 41.25 6.25L41.25 7.5L38.75 7.5L38.75 6.25ZM25 6.25C25 5.91846 25.1318 5.60059 25.3662 5.36609C25.6006 5.13171 25.9185 5 26.25 5C26.5815 5 26.8994 5.13171 27.1338 5.36609C27.3682 5.60059 27.5 5.91846 27.5 6.25L27.5 7.5L25 7.5L25 6.25ZM22.5 10L22.5 11.25C22.5 12.2445 22.895 13.1984 23.5981 13.9016C24.3018 14.6049 25.2554 15 26.25 15L26.25 12.5C25.9185 12.5 25.6006 12.3683 25.3662 12.1339C25.1318 11.8994 25 11.5815 25 11.25L25 10L36.25 10L36.25 11.25C36.25 12.2445 36.645 13.1984 37.3481 13.9016C38.0518 14.6049 39.0054 15 40 15L40 12.5C39.6685 12.5 39.3506 12.3683 39.1162 12.1339C38.8818 11.8994 38.75 11.5815 38.75 11.25L38.75 10L50 10L50 11.25C50 12.2445 50.395 13.1984 51.0981 13.9016C51.8018 14.6049 52.7554 15 53.75 15L53.75 12.5C53.4185 12.5 53.1006 12.3683 52.8662 12.1339C52.6318 11.8994 52.5 11.5815 52.5 11.25L52.5 10L63.75 10L63.75 17.5L16.25 17.5L16.25 10L22.5 10ZM55 57.5L16.25 57.5L16.25 20L63.75 20L63.75 63.75C63.75 64.7445 63.355 65.6984 62.6519 66.4016C61.9482 67.1049 60.9946 67.5 60 67.5C59.0054 67.5 58.0518 67.1049 57.3481 66.4016C56.645 65.6984 56.25 64.7445 56.25 63.75L56.25 58.75C56.25 58.4185 56.1182 58.1006 55.8838 57.8661C55.6494 57.6317 55.3315 57.5 55 57.5ZM8.75 63.75L8.75 60L53.75 60L53.75 63.75C53.7476 65.1027 54.1865 66.4193 55 67.5L12.5 67.5C11.5054 67.5 10.5518 67.1049 9.84814 66.4016C9.14502 65.6984 8.75 64.7445 8.75 63.75ZM16.25 70L60 70C61.3569 69.9954 62.6743 69.5448 63.75 68.7175L63.75 75L16.25 75L16.25 70ZM66.25 75L66.25 20L71.25 20L71.25 75L66.25 75Z" fill="#008000" fill-opacity="1.000000" fill-rule="nonzero"/>
		<path id="Vector" d="M40 25C37.5278 25 35.1108 25.7332 33.0552 27.1067C31 28.4801 29.3975 30.4324 28.4517 32.7164C27.5054 35.0005 27.2578 37.5139 27.7402 39.9386C28.2227 42.3634 29.4131 44.5907 31.1611 46.3389C32.9092 48.087 35.1367 49.2775 37.5615 49.7598C39.9863 50.2422 42.4995 49.9946 44.7837 49.0485C47.0674 48.1024 49.02 46.5002 50.3936 44.4446C51.7671 42.389 52.5 39.9723 52.5 37.5C52.4966 34.1859 51.1782 31.0085 48.835 28.6652C46.4912 26.3218 43.314 25.0037 40 25ZM40 47.5C38.022 47.5 36.0889 46.9135 34.4443 45.8147C32.7998 44.7158 31.5181 43.1541 30.7612 41.3268C30.0044 39.4995 29.8062 37.4889 30.1924 35.5491C30.5781 33.6093 31.5303 31.8275 32.9287 30.429C34.3276 29.0304 36.1094 28.078 38.0493 27.6921C39.9888 27.3063 41.9995 27.5043 43.8267 28.2612C45.6543 29.0181 47.2158 30.2998 48.3145 31.9443C49.4136 33.5887 50 35.5222 50 37.5C49.9971 40.1512 48.9424 42.6931 47.0679 44.5677C45.1929 46.4425 42.6514 47.4971 40 47.5ZM56.25 36.25L58.75 36.25L58.75 38.75L56.25 38.75L56.25 36.25ZM56.25 31.25L58.75 31.25L58.75 33.75L56.25 33.75L56.25 31.25ZM56.25 41.25L58.75 41.25L58.75 43.75L56.25 43.75L56.25 41.25ZM21.25 36.25L23.75 36.25L23.75 38.75L21.25 38.75L21.25 36.25ZM21.25 31.25L23.75 31.25L23.75 33.75L21.25 33.75L21.25 31.25ZM21.25 41.25L23.75 41.25L23.75 43.75L21.25 43.75L21.25 41.25Z" fill="#008000" fill-opacity="1.000000" fill-rule="nonzero"/>
		<path id="₽" d="M40.8818 38.8977L35 38.8977L35 37.3943L40.8433 37.3943C41.3662 37.3943 41.7886 37.3162 42.1094 37.16C42.4307 36.9989 42.6665 36.7748 42.8164 36.4877C42.9668 36.2006 43.042 35.8656 43.042 35.4828C43.042 35.1404 42.9668 34.8206 42.8164 34.5233C42.6665 34.2262 42.4331 33.9844 42.1172 33.7981C41.8013 33.6067 41.3896 33.511 40.8818 33.511L38.5352 33.511L38.5352 43L36.585 43L36.585 32L40.8818 32C41.752 32 42.4927 32.1486 43.104 32.4458C43.7153 32.7429 44.1841 33.1534 44.5103 33.6772C44.8369 34.1959 45 34.7928 45 35.4678C45 36.188 44.8345 36.8049 44.5029 37.3187C44.1763 37.8274 43.7051 38.2178 43.0884 38.4897C42.4775 38.7617 41.7417 38.8977 40.8818 38.8977ZM41.0684 39.7061L41.0684 41.2095L35 41.2095L35 39.7061L41.0684 39.7061Z" fill="#008000" fill-opacity="1.000000" fill-rule="nonzero"/>
	</g>
</svg>
