<?xml version="1.0" encoding="utf-8"?><svg width="21" height="17" fill="none" xmlns="http://www.w3.org/2000/svg" viewBox="0 0 21 17"><path d="M20.5 8.626c0 3.456-2.813 6.26-6.286 6.26-3.474 0-6.286-2.804-6.286-6.26s2.812-6.26 6.286-6.26c3.473 0 6.286 2.804 6.286 6.26z" stroke="#CE0C36"/><path fill="#EEE" d="M7.336 0l8.173 4.932L8.173 17l-8.174-4.932z"/><path d="M9.58 3.042L12.385.665l.665 3.613L9.58 3.042zM4.314 8.256c0-.228.06-.36.21-.486.33-.288.798-.396 1.206-.774.264-.246.42-.552.42-.948a1.13 1.13 0 00-.294-.78c-.234-.252-.594-.408-1.014-.408-.624 0-1.026.216-1.356.426-.054.042-.06.072-.036.12l.24.492c.03.066.09.048.144.018.3-.204.606-.342.936-.342.198 0 .336.054.432.15a.505.505 0 01.138.348c0 .204-.084.342-.228.468-.342.3-.864.42-1.272.822-.324.318-.45.666-.45 1.248v.3c0 .048.036.09.09.09h2.55c.054 0 .096-.042.096-.09v-.564c0-.048-.042-.09-.096-.09H4.314zM9.316 9c.048 0 .09-.042.09-.09v-.696h.516c.048 0 .09-.036.09-.09v-.522c0-.054-.042-.096-.09-.096h-.516V4.998c0-.054-.042-.096-.09-.096H8.74c-.078 0-.12.03-.156.084L6.808 7.47a.24.24 0 00-.054.162v.492c0 .054.042.09.09.09h1.734v.696c0 .048.042.09.09.09h.648zm-.738-2.796v1.302H7.66l.918-1.302zM14.415 7.329a.108.108 0 00-.105.105V8.77c0 .056.049.105.105.105h.665a.108.108 0 00.105-.105v-.567h1.47c-.224.385-.462.777-.658 1.162l-1.253 2.555c-.042.09-.028.175.091.175h.833c.091 0 .14-.028.175-.105l1.729-3.766a.42.42 0 00.042-.21v-.581a.103.103 0 00-.105-.105h-3.094z" fill="#CE0C36"/><path d="M11 11l3-6" stroke="#CE0C36"/></svg>