<?xml version="1.0" encoding="utf-8"?><svg width="20" height="26" xmlns="http://www.w3.org/2000/svg" viewBox="0 0 20 26"><path d="M9.902 3.75c.409 0 .74-.336.74-.75a.746.746 0 00-.74-.75.746.746 0 00-.742.75c0 .414.332.75.742.75z"/><path d="M19.77 6c0-1.105-.886-2-1.977-2h-2.745a2.954 2.954 0 00-1.377-.884 1.368 1.368 0 01-.936-.947A2.972 2.972 0 009.885 0a2.972 2.972 0 00-2.85 2.17 1.37 1.37 0 01-.938.947c-.54.157-1.01.472-1.376.883H1.977A1.989 1.989 0 000 6v18c0 1.105.885 2 1.977 2h15.816a1.989 1.989 0 001.977-2V6zM4.942 5.984A2.008 2.008 0 016.37 4.078a2.36 2.36 0 001.615-1.632A1.989 1.989 0 019.885 1c.877 0 1.658.594 1.9 1.446a2.357 2.357 0 001.613 1.632A2.005 2.005 0 0114.828 6v1H4.941V5.984zM17.792 25H1.978a.995.995 0 01-.989-1V6c0-.551.444-1 .989-1h2.146a3.022 3.022 0 00-.169.976V8h11.862V6c0-.351-.062-.687-.171-1h2.148c.545 0 .988.449.988 1v18c0 .551-.443 1-.988 1z"/><path d="M15.816 11H6.92v1h8.896v-1zM15.816 14H6.92v1h8.896v-1zM15.816 17H6.92v1h8.896v-1zM15.816 20H6.92v1h8.896v-1zM4.45 12a.497.497 0 00.494-.5c0-.276-.222-.5-.495-.5a.497.497 0 00-.494.5c0 .276.221.5.494.5zM4.45 15a.497.497 0 00.494-.5c0-.276-.222-.5-.495-.5a.497.497 0 00-.494.5c0 .276.221.5.494.5zM4.45 18a.497.497 0 00.494-.5c0-.276-.222-.5-.495-.5a.497.497 0 00-.494.5c0 .277.221.5.494.5zM4.45 21a.497.497 0 00.494-.5c0-.276-.222-.5-.495-.5a.497.497 0 00-.494.5c0 .276.221.5.494.5z"/></svg>