<?xml version="1.0" encoding="utf-8"?><svg width="20" height="18" fill="none" xmlns="http://www.w3.org/2000/svg" viewBox="0 0 20 18"><path d="M18.66 4.275C19.555 5.368 20 6.562 20 7.857s-.446 2.493-1.34 3.594c-.892 1.094-2.105 1.96-3.638 2.6C13.49 14.684 11.815 15 10 15c-.52 0-1.06-.03-1.618-.09-1.474 1.303-3.185 2.203-5.134 2.702a8.403 8.403 0 01-1.273.245.455.455 0 01-.346-.1.573.573 0 01-.19-.324v-.011c-.022-.03-.025-.075-.01-.134.022-.06.03-.097.022-.112a.35.35 0 01.056-.111c.037-.052.06-.086.067-.1a2.98 2.98 0 00.078-.09 82.336 82.336 0 01.435-.491c.179-.194.305-.335.38-.424.081-.082.197-.227.345-.435.157-.209.28-.399.369-.57.09-.17.19-.39.301-.658.112-.268.208-.55.29-.848-1.168-.662-2.09-1.481-2.768-2.456C.334 10.02 0 8.973 0 7.857c0-.967.264-1.89.792-2.768a7.588 7.588 0 012.132-2.288c.893-.64 1.957-1.145 3.192-1.518A13.15 13.15 0 0110 .714c1.816 0 3.49.32 5.022.96 1.533.633 2.746 1.5 3.639 2.6z" fill="#C4C4C4"/></svg>