<?xml version="1.0" encoding="utf-8"?><svg width="345.97" height="2000" fill="none" xmlns="http://www.w3.org/2000/svg" viewBox="0 0 1314 7596"><path stroke="#038057" stroke-width="3" d="M587.5 6849.5h37v39h-37z"/><path stroke="#038057" stroke-width="2" d="M609.473 6860h8.526v8.526h-8.526zM609.473 6874.47h8.526v8.526h-8.526zM595 6860h8.526v8.526H595zM595 6874.47h8.526v8.526H595z"/><path d="M580.5 6729.5l16 19" stroke="#FFCB00" stroke-width="3"/><path d="M587 6849l19-12 19 12" stroke="#038057" stroke-width="3"/><path fill="#FDCF00" d="M600 6848.62h12v2.769h-12z"/><path fill="#FDCF00" d="M607.385 6844v12h-2.769v-12z"/><g filter="url(#abfilter0_d_8313_3)"><path fill-rule="evenodd" clip-rule="evenodd" d="M1278.5 7583c15.19 0 27.5-12.31 27.5-27.5s-12.31-27.5-27.5-27.5-27.5 12.31-27.5 27.5 12.31 27.5 27.5 27.5z" fill="#fff"/></g><path d="M1267.25 7561.75c.33.33.86.33 1.19 0l10.55-10.7 10.56 10.7c.33.33.87.33 1.2 0 .33-.34.33-.88 0-1.22l-11.14-11.28a.816.816 0 00-.6-.25c-.21 0-.44.08-.6.25l-11.14 11.28a.84.84 0 00-.02 1.22z" fill="#038057"/><defs><filter id="abfilter0_d_8313_3" x="1243" y="7525" width="71" height="71" filterUnits="userSpaceOnUse" color-interpolation-filters="sRGB"><feFlood flood-opacity="0" result="BackgroundImageFix"/><feColorMatrix in="SourceAlpha" values="0 0 0 0 0 0 0 0 0 0 0 0 0 0 0 0 0 0 127 0" result="hardAlpha"/><feOffset dy="5"/><feGaussianBlur stdDeviation="4"/><feColorMatrix values="0 0 0 0 0.52923 0 0 0 0 0.52923 0 0 0 0 0.52923 0 0 0 0.2 0"/><feBlend in2="BackgroundImageFix" result="effect1_dropShadow_8313_3"/><feBlend in="SourceGraphic" in2="effect1_dropShadow_8313_3" result="shape"/></filter></defs></svg>