<?xml version="1.0" ?><!DOCTYPE svg  PUBLIC '-//W3C//DTD SVG 1.1//EN'  'http://www.w3.org/Graphics/SVG/1.1/DTD/svg11.dtd'><svg width="512" height="512" xmlns="http://www.w3.org/2000/svg" viewBox="0 0 512 512"><g stroke="#3B3A3E" stroke-linecap="round" stroke-linejoin="round" stroke-miterlimit="10" stroke-width="20"><path fill="#D9DCE1" d="M148 80h216v352H148z"/><path fill="none" d="M218.335 203l75.329 43.49-75.329 43.492zM64 80h84v352H64z"/><path fill="none" d="M64 197h84v129H64zM364 80h84v352h-84z"/><path fill="none" d="M364 197h84v129h-84zM148 80h216v352H148z"/><path fill="#65A0D6" d="M218.335 203l75.329 43.49-75.329 43.492zM64 80h84v352H64z"/><path fill="none" d="M64 197h84v129H64z"/><path fill="#65A0D6" d="M364 80h84v352h-84z"/><path fill="none" d="M364 197h84v129h-84z"/></g></svg>