<?xml version="1.0" encoding="utf-8"?><svg width="14" height="20" xmlns="http://www.w3.org/2000/svg" viewBox="0 0 14 20"><path fill-rule="evenodd" clip-rule="evenodd" d="M.008 8.695c0-.619.008-1.237.015-1.859.004-.315.008-.63.01-.948C.034 2.483 2.167 0 5.11 0h3.782c2.943 0 5.075 2.483 5.075 5.888.026 1.364.034 2.728.034 4.102s-.008 2.758-.034 4.122c0 3.405-2.132 5.888-5.075 5.888H5.109C2.166 20 .034 17.517.034 14.102.017 12.816 0 11.502 0 10.167l.008-1.472zM8.28 17.64v.16c0 .674-.563 1.2-1.28 1.2-.7 0-1.28-.526-1.28-1.2v-.16c0-.656.58-1.2 1.28-1.2.717 0 1.28.544 1.28 1.2zM2.017 6.444c-.006.404-.011.806-.011 1.208L2 8.609c0 .867.012 1.722.024 2.558C2.024 13.387 3.547 15 5.65 15h2.7c2.103 0 3.626-1.614 3.626-3.827.018-.887.024-1.786.024-2.68 0-.892-.006-1.779-.024-2.665C11.976 3.614 10.453 2 8.35 2h-2.7C3.547 2 2.024 3.614 2.024 5.828l-.007.616z"/></svg>