<?xml version="1.0" encoding="utf-8"?><svg width="18" height="20" xmlns="http://www.w3.org/2000/svg" viewBox="0 0 18 20"><path fill-rule="evenodd" clip-rule="evenodd" d="M9.03 0c2.26.01 4.42.91 6 2.49a8.398 8.398 0 012.47 5.97v.05c-.06 3.03-1.76 5.82-3.88 8a22.12 22.12 0 01-3.98 3.24c-.39.33-.96.33-1.35 0-2.15-1.4-4.05-3.16-5.59-5.21A10.807 10.807 0 01.5 8.39C.52 3.74 4.34-.01 9.03 0zm0 11.26c.71 0 1.39-.27 1.89-.76.52-.51.811-1.189.811-1.9 0-1.48-1.211-2.67-2.701-2.67S6.34 7.12 6.34 8.6c0 1.461 1.18 2.64 2.66 2.66h.03z"/></svg>