<?xml version="1.0" encoding="utf-8"?><svg xmlns="http://www.w3.org/2000/svg" width="26" height="26" viewBox="0 0 26 26"><path fill-rule="evenodd" clip-rule="evenodd" d="M19.455 18.355l6.32 6.319A.779.779 0 0125.228 26a.783.783 0 01-.548-.23l-6.32-6.319a11.047 11.047 0 01-7.272 2.72C4.976 22.172 0 17.198 0 11.087 0 4.976 4.97 0 11.088 0c6.113 0 11.089 4.97 11.089 11.086 0 2.779-1.027 5.321-2.722 7.27zM11.083 1.556c-5.253 0-9.532 4.272-9.532 9.53 0 5.257 4.279 9.535 9.532 9.535 5.259 0 9.531-4.284 9.531-9.536 0-5.251-4.272-9.529-9.531-9.529z"/></svg>