<?xml version="1.0" encoding="utf-8"?><svg width="55" height="53" fill="none" xmlns="http://www.w3.org/2000/svg" viewBox="0 0 55 53"><path d="M37.412 14.682h4.619c.898 0 2.694.54 2.694 2.704v3.864c-.385.644.539 4.173 7.313 13.136C56.272 44.818 45.495 51 40.106 51H15.857" stroke="#038057" stroke-width="3"/><path d="M17.59 14.682h-4.619c-.898 0-2.694.54-2.694 2.704v3.864c.385.644-.539 4.173-7.313 13.136C-1.27 44.818 9.507 51 14.896 51h24.248" stroke="#038057" stroke-width="3"/><path d="M16.242 14.682h12.702c1.54.13 4.465-.772 3.849-5.409" stroke="#038057" stroke-width="3"/><path d="M28.943 14.682H24.41c-1.54.13-4.465-.772-3.85-5.409M24.365 5.023a3.513 3.513 0 01-3.504 3.522 3.513 3.513 0 01-3.504-3.522A3.513 3.513 0 0120.861 1.5a3.513 3.513 0 013.504 3.523zM35.912 5.023a3.513 3.513 0 01-3.504 3.522 3.513 3.513 0 01-3.504-3.522A3.513 3.513 0 0132.408 1.5a3.513 3.513 0 013.504 3.523z" stroke="#038057" stroke-width="3"/><path d="M38.99 39.023a3.513 3.513 0 01-3.504 3.522 3.513 3.513 0 01-3.504-3.522 3.513 3.513 0 013.504-3.523 3.513 3.513 0 013.504 3.523zM23.593 26.66a3.513 3.513 0 01-3.503 3.522 3.513 3.513 0 01-3.504-3.523 3.513 3.513 0 013.504-3.522 3.513 3.513 0 013.503 3.522zM20.861 41.341l13.472-16.614" stroke="#FFCB00" stroke-width="3"/></svg>