<?xml version="1.0" encoding="utf-8"?><svg width="24" height="24" fill="none" xmlns="http://www.w3.org/2000/svg" viewBox="0 0 24 24"><circle cx="12" cy="12" r="12" fill="#2C96DE"/><path d="M18.232 8.58c-.447.197-.911.33-1.393.402a2.48 2.48 0 001.071-1.366c-.482.286-1 .482-1.553.59-.465-.5-1.072-.76-1.822-.777-.678.018-1.25.259-1.714.723-.464.464-.705 1.045-.723 1.741 0 .196.026.384.08.563a7.35 7.35 0 01-2.866-.777 6.893 6.893 0 01-2.196-1.795 2.44 2.44 0 00-.322 1.232c0 .429.098.822.295 1.179a2.4 2.4 0 00.777.857 2.447 2.447 0 01-1.099-.295v.027c0 .607.179 1.134.536 1.58.375.429.848.706 1.42.83-.197.054-.411.081-.643.081-.16 0-.313-.018-.456-.053.161.5.447.91.858 1.232.41.303.884.464 1.42.482a4.44 4.44 0 01-1.394.777 4.976 4.976 0 01-1.634.268 6.49 6.49 0 01-.589-.027c.536.339 1.116.607 1.741.803a6.837 6.837 0 002.01.295c2.267-.09 3.99-.848 5.169-2.277 1.196-1.428 1.803-2.99 1.821-4.687L17 9.866a5.27 5.27 0 001.233-1.285z" fill="#fff"/></svg>