<?xml version="1.0" encoding="utf-8"?><svg width="80" height="80" fill="none" xmlns="http://www.w3.org/2000/svg" viewBox="0 0 80 80"><path d="M36.4 55.86c.46.44 1.07.69 1.71.69.64 0 1.26-.25 1.71-.69l8.63-8.44c.95-.92.95-2.42 0-3.34-.94-.92-2.47-.92-3.42 0l-6.92 6.76-3.15-3.08c-.95-.92-2.48-.92-3.42 0-.95.92-.95 2.42 0 3.34l4.86 4.76z" fill="#5F5F5F"/><path d="M40 68.72c10.58 0 19.19-8.41 19.19-18.75S50.58 31.22 40 31.22c-10.59 0-19.2 8.41-19.2 18.75S29.41 68.72 40 68.72zm0-32.78c7.91 0 14.35 6.29 14.35 14.03C54.35 57.7 47.91 64 40 64c-7.92 0-14.36-6.3-14.36-14.03 0-7.74 6.44-14.03 14.36-14.03z" fill="#5F5F5F"/><path d="M72.18 5.02h-4.41V2.36c0-1.31-1.09-2.36-2.42-2.36-1.34 0-2.42 1.05-2.42 2.36v2.66h-4.75V2.36C58.18 1.05 57.1 0 55.76 0c-1.33 0-2.42 1.05-2.42 2.36v2.66H26.65V2.36c0-1.31-1.09-2.36-2.42-2.36-1.34 0-2.42 1.05-2.42 2.36v2.66h-4.75V2.36c0-1.31-1.08-2.36-2.42-2.36-1.33 0-2.42 1.05-2.42 2.36v2.66H7.81C3.5 5.02 0 8.45 0 12.66v59.7C0 76.57 3.5 80 7.81 80h64.37c4.31 0 7.82-3.43 7.82-7.64v-59.7c0-4.21-3.51-7.64-7.82-7.64zm2.98 67.34c0 1.6-1.34 2.91-2.98 2.91H7.81c-1.64 0-2.98-1.31-2.98-2.91V24.67h70.33v47.69zM4.83 12.66c0-1.6 1.34-2.91 2.98-2.91h4.41v2.67c0 1.3 1.09 2.36 2.42 2.36 1.34 0 2.42-1.06 2.42-2.36V9.75h4.75v2.67c0 1.3 1.08 2.36 2.42 2.36 1.33 0 2.42-1.06 2.42-2.36V9.75h26.69v2.67c0 1.3 1.09 2.36 2.42 2.36 1.34 0 2.42-1.06 2.42-2.36V9.75h4.75v2.67c0 1.3 1.08 2.36 2.42 2.36 1.33 0 2.42-1.06 2.42-2.36V9.75h4.41c1.64 0 2.98 1.31 2.98 2.91v7.28H4.83v-7.28z" fill="#5F5F5F"/></svg>