<?xml version="1.0" encoding="utf-8"?><svg width="16" height="24" fill="none" xmlns="http://www.w3.org/2000/svg" viewBox="0 0 16 24"><path d="M8 11.496a3.938 3.938 0 003.934-3.934A3.938 3.938 0 008 3.63a3.938 3.938 0 00-3.934 3.933A3.939 3.939 0 008 11.496zm0-6.461a2.53 2.53 0 012.528 2.527A2.53 2.53 0 018 10.09a2.53 2.53 0 01-2.528-2.528A2.53 2.53 0 018 5.035z" fill="#3448AD"/><path d="M3.716 14.631c1.066 1.443.638.882 3.707 5.264.28.4.873.402 1.153.001 3.084-4.403 2.66-3.846 3.708-5.265 1.062-1.438 2.16-2.924 2.762-4.667.87-2.521.494-5.017-1.06-7.026A7.62 7.62 0 008 0a7.62 7.62 0 00-5.986 2.938C.46 4.948.084 7.443.954 9.965c.602 1.742 1.7 3.228 2.762 4.666zM3.126 3.8A6.204 6.204 0 018 1.406c1.892 0 3.714.895 4.873 2.393 1.255 1.621 1.555 3.648.844 5.707-.532 1.538-1.565 2.937-2.564 4.29-.778 1.053-.546.73-3.153 4.469-2.605-3.735-2.375-3.416-3.153-4.47-.999-1.352-2.032-2.75-2.563-4.29-.711-2.058-.412-4.085.843-5.706z" fill="#3448AD"/><path d="M4.294 17.68a.703.703 0 00-.97-.22l-2 1.264a.703.703 0 000 1.188l6.3 3.98c.23.144.522.144.752 0l6.3-3.98a.703.703 0 000-1.188l-2-1.263a.703.703 0 00-.75 1.189l1.057.668L8 22.465l-4.983-3.147 1.058-.668a.703.703 0 00.219-.97z" fill="#3448AD"/></svg>