<?xml version="1.0" encoding="utf-8"?><svg width="58" height="57" fill="none" xmlns="http://www.w3.org/2000/svg" viewBox="0 0 58 57"><path fill-rule="evenodd" clip-rule="evenodd" d="M54.104 41.487c-2.434 4.38-5.679 7.156-9.156 9.25-4.21 2.528-8.418-.682-14.029-.682-4.396 0-8.71 2.127-13.467.583C9.924 48.193 4.21 38.874 4.21 30.448c0-8.455 1.767-15.191 9.01-19.548 6.35-3.822 15.013.793 15.013.793s-6.191-6.764-14.659-3.716C3.972 11.431.273 20.872.273 30.641c0 9.693 6.854 21.82 16.396 25.109 6.956 1.899 6.864-.712 14.158-.712s9.068 3.192 14.031.956c6.514-3.235 10.19-7.79 12.735-14.575-.599.038-2.555.068-3.489.068zM32.74 8.937c.073-.292.457-1.617-.065-3.097-.476-1.677-2.15-3.552-3.853-3.69.019.054.672.035 1.824.986 1.049.91 2.595 2.776 2.094 5.8zm-.53 2.359c.277-.732.364-1.617.319-1.87 0-.005-.857-.484-1.61-1.268-.8-.812-1.498-1.929-2.304-3.905C27.91 2.67 26.83 1.934 26.059 1.6c-.798-.33-1.29-.26-1.528-.2.543-.217 2.87-.976 5.682.057 1.343.508 2.69 1.471 3.405 2.9.707 1.406.776 3.286-.611 5.088.01.019-.42 1-.674 2.121a1.501 1.501 0 00-.162-.153c.014-.035.025-.076.04-.117z" fill="#008E62"/><path fill-rule="evenodd" clip-rule="evenodd" d="M41.017 4.352c-3.218 1.223-5.429 4.064-5.306 4.052 4.77-4.697 8.917-4.63 11.133-4.421 2.338.379 2.745.895 2.885.995-1.463-1.828-5.592-2.035-8.712-.626zm6.155 5.99c-6.891 6.43-11.876-.736-12.011-.92-.424.15-1.762 1.17-2.554 2.375l-.502-.133c1.313-1.357 2.667-3.595 2.69-3.581C36.953 2.205 40.34.657 43.127.27c2.86-.298 5.118.572 6.746 1.555 3.037 1.954 4.398 4.662 4.832 5.953-.33-.55-1.82-2.152-7.533 2.562zM33.676 24.28h7.26v-7.603h6.244v7.604h7.302v6.498H47.18v7.557h-6.243v-7.557h-7.261V24.28z" fill="#008E62"/><path fill-rule="evenodd" clip-rule="evenodd" d="M33.762 32.575c0-3.869-.72-4.556-2.548-4.556-.78 0-1.32.092-1.891.279v7.524c.032.655.72 1.124 1.952 1.124 1.707 0 2.487-.996 2.487-4.37zm-9.052 3.217v-7.495c-.541-.186-1.108-.278-1.887-.278-1.83 0-2.55.688-2.55 4.556 0 3.375.81 4.371 2.49 4.371 1.257 0 1.947-.505 1.947-1.154zm0-17.696h4.613v6.12c.571-.162 1.17-.19 1.89-.19 5.066-.001 6.953 1.902 6.953 8.43 0 6.454-2.275 8.42-5.906 8.42-1.348 0-2.247-.345-2.937-.714v6.271H24.71v-6.272c-.662.37-1.56.714-2.937.714-3.628 0-5.906-1.964-5.906-8.42 0-6.527 1.888-8.43 6.956-8.43.718 0 1.316.03 1.887.191v-6.12z" fill="#CE0C36"/></svg>