<?xml version="1.0" encoding="utf-8"?><svg width="81" height="56" fill="none" xmlns="http://www.w3.org/2000/svg" viewBox="0 0 81 56"><path d="M66.523 28c0 14.639-11.84 26.5-26.437 26.5-14.598 0-26.438-11.861-26.438-26.5S25.488 1.5 40.086 1.5c14.598 0 26.437 11.861 26.437 26.5z" stroke="#038057" stroke-width="3"/><path fill="#fff" d="M6.883 8.117L27.22 19.885l-6.883 11.948L0 20.065z"/><path d="M14.404 21.138l3.923 9.02-9.756-1.105 5.833-7.915z" fill="#038057"/><path fill="#fff" d="M78.326 37.542l-23.037-4.57 2.674-13.535L81 24.007z"/><path d="M67.021 27.645l-6.614-7.272 9.59-2.105-2.976 9.377zM33.312 24.362H26.49V23.01l3.22-3.432c.441-.483.767-.904.977-1.264.214-.36.321-.702.321-1.026 0-.442-.111-.788-.335-1.039-.223-.255-.542-.383-.957-.383-.446 0-.8.155-1.06.465-.255.306-.382.709-.382 1.21H26.29c0-.606.144-1.16.431-1.661a3.06 3.06 0 011.23-1.176c.53-.287 1.129-.43 1.798-.43 1.026 0 1.821.246 2.386.738.57.492.855 1.187.855 2.085 0 .492-.128.993-.383 1.504-.255.51-.693 1.105-1.313 1.784l-2.262 2.386h4.279v1.592zm7.062-3.746H41.5v1.593h-1.127v2.153h-1.976V22.21h-4.081l-.089-1.244 4.15-6.556h1.995v6.207zm-4.177 0h2.2v-3.513l-.129.225-2.071 3.288zm7.075 4.6h-1.47l3.664-10.807h1.47l-3.664 10.808zm11.3-9.7l-3.849 8.846h-2.085l3.856-8.353h-4.95v-1.6h7.028v1.108z" fill="#038057"/><path d="M31.364 34.77h.95c.597-.009 1.066-.166 1.408-.471.342-.305.513-.718.513-1.237 0-1.167-.581-1.75-1.743-1.75-.547 0-.985.157-1.313.471-.323.31-.485.723-.485 1.238h-1.265c0-.789.287-1.443.862-1.962.578-.524 1.312-.786 2.2-.786.94 0 1.675.248 2.209.745.533.496.8 1.187.8 2.071 0 .433-.142.852-.424 1.258a2.517 2.517 0 01-1.142.909c.547.173.969.46 1.265.861.3.401.45.891.45 1.47 0 .893-.29 1.602-.874 2.126-.583.524-1.342.786-2.276.786-.935 0-1.696-.253-2.284-.759-.583-.506-.875-1.173-.875-2.003h1.272c0 .524.17.944.513 1.258.341.315.8.472 1.373.472.611 0 1.078-.16 1.402-.479.324-.319.485-.777.485-1.374 0-.578-.177-1.023-.533-1.333-.355-.31-.868-.469-1.538-.478h-.95V34.77zm10.985-4.368v1.074h-.232c-.985.018-1.768.31-2.352.875-.583.565-.92 1.36-1.012 2.386.525-.602 1.24-.903 2.147-.903.866 0 1.556.305 2.071.916.52.61.78 1.4.78 2.365 0 1.026-.28 1.846-.841 2.461-.556.615-1.304.923-2.242.923-.953 0-1.725-.364-2.318-1.094-.592-.733-.889-1.677-.889-2.83v-.485c0-1.832.39-3.231 1.17-4.197.783-.971 1.948-1.468 3.492-1.49h.226zm-1.661 4.485c-.433 0-.832.13-1.196.39a2.03 2.03 0 00-.76.977v.465c0 .82.185 1.481.555 1.982.369.502.829.752 1.38.752.57 0 1.017-.21 1.34-.629.328-.419.492-.968.492-1.647 0-.684-.166-1.235-.498-1.654-.329-.424-.766-.636-1.313-.636zm5.14.485l.506-4.963h5.1v1.17h-4.026l-.301 2.713c.488-.287 1.041-.43 1.661-.43.907 0 1.627.3 2.16.902.533.597.8 1.406.8 2.427 0 1.025-.278 1.834-.834 2.426-.551.588-1.324.882-2.317.882-.88 0-1.598-.244-2.154-.731-.556-.488-.872-1.162-.95-2.024h1.196c.078.57.28 1 .609 1.292.328.287.76.43 1.299.43.587 0 1.048-.2 1.38-.6.338-.402.506-.955.506-1.662 0-.665-.182-1.198-.547-1.6-.36-.405-.84-.608-1.442-.608-.551 0-.984.121-1.299.362l-.335.274-1.011-.26z" fill="#EDC200"/></svg>