<?xml version="1.0" encoding="utf-8"?><svg width="24" height="24" fill="none" xmlns="http://www.w3.org/2000/svg" viewBox="0 0 24 24"><circle cx="12" cy="12" r="12" fill="#D53C36"/><path d="M18.867 11.437h-1.152v-1.151h-1.152v1.151h-1.125v1.125h1.125v1.152h1.152v-1.152h1.152v-1.125zm-8.572 0v1.366h2.277c-.054.322-.25.679-.59 1.072-.339.393-.901.607-1.687.643-.714-.018-1.303-.268-1.768-.75-.446-.482-.67-1.072-.67-1.768 0-.697.224-1.286.67-1.768.465-.482 1.054-.732 1.768-.75.393.018.714.09.964.214.268.125.474.268.617.429l1.098-1.045c-.697-.696-1.59-1.053-2.679-1.071-1.143.018-2.09.402-2.84 1.152-.75.75-1.142 1.696-1.178 2.839.036 1.143.429 2.09 1.179 2.84s1.696 1.133 2.84 1.15c1.16-.017 2.08-.374 2.758-1.07.697-.715 1.054-1.652 1.072-2.813l-.027-.348c0-.107-.018-.215-.054-.322h-3.75z" fill="#fff"/></svg>