<?xml version="1.0" encoding="utf-8"?><svg width="72" height="90" fill="none" xmlns="http://www.w3.org/2000/svg" viewBox="0 0 72 90"><path d="M65.54 15.64C58.74 5.7 47.97 0 36 0 24.02 0 13.25 5.7 6.46 15.64c-6.76 9.9-8.32 22.42-4.19 33.49 1.11 3.02 2.87 5.96 5.22 8.71l26.14 31.05c.59.7 1.45 1.11 2.37 1.11.91 0 1.77-.41 2.37-1.11L64.5 57.85c2.36-2.77 4.11-5.7 5.21-8.7 4.15-11.09 2.59-23.61-4.17-33.51zm-1.66 31.31c-.84 2.31-2.22 4.59-4.1 6.79-.01.01-.01.01-.01.02L36 81.99 12.21 53.74c-1.87-2.19-3.25-4.48-4.11-6.82-3.42-9.15-2.12-19.5 3.48-27.7C17.19 11 26.09 6.29 36 6.29c9.9 0 18.8 4.71 24.42 12.93 5.59 8.2 6.89 18.55 3.46 27.73z" fill="#5F5F5F"/><path d="M36 18.67c-9.61 0-17.43 7.9-17.43 17.62S26.39 53.91 36 53.91s17.42-7.9 17.42-17.62S45.6 18.67 36 18.67zm0 28.95c-6.18 0-11.21-5.08-11.21-11.33S29.82 24.96 36 24.96c6.17 0 11.2 5.08 11.2 11.33S42.17 47.62 36 47.62z" fill="#5F5F5F"/></svg>