<?xml version="1.0" encoding="utf-8"?><svg width="90" height="56" fill="none" xmlns="http://www.w3.org/2000/svg" viewBox="0 0 90 56"><path d="M2.9 0h54.97c1.6 0 2.9 1.25 2.9 2.79v7.36h15c1.06 0 2.03.56 2.54 1.45l6.63 11.6h2.15c1.61 0 2.91 1.25 2.9 2.79v19.85c0 1.54-1.29 2.79-2.9 2.79h-4.33C81.57 52.87 77.54 56 72.77 56c-4.77 0-8.8-3.13-10-7.37H29.05C27.86 52.87 23.83 56 19.06 56c-4.77 0-8.8-3.13-10-7.37H2.9c-1.61 0-2.9-1.25-2.9-2.79V2.79C0 1.25 1.29 0 2.9 0zm75.41 23.2l-4.26-7.46H60.77v7.46h17.54zM9.18 43.04c1.32-4.04 5.25-6.98 9.88-6.98 4.63 0 8.56 2.94 9.88 6.98h26.02V5.59H5.8v37.45h3.38zm51.59 0V28.79h23.42v14.25h-1.54c-1.32-4.04-5.25-6.98-9.88-6.98-4.63 0-8.56 2.94-9.88 6.98h-2.12zm-46.26 2.98c0 2.42 2.04 4.38 4.55 4.38s4.55-1.96 4.55-4.38c0-2.41-2.04-4.37-4.55-4.37s-4.55 1.96-4.55 4.37zm58.26 4.38c-2.51 0-4.55-1.96-4.55-4.38 0-2.41 2.04-4.37 4.55-4.37s4.55 1.96 4.55 4.37c0 2.42-2.04 4.38-4.55 4.38z" fill="#5F5F5F" fill-rule="evenodd"/></svg>