<?xml version="1.0" encoding="utf-8"?><svg width="19" height="18" fill="none" xmlns="http://www.w3.org/2000/svg" viewBox="0 0 19 18"><path d="M3.283 13.857c0-.193-.07-.36-.212-.502a.686.686 0 00-.502-.212.706.706 0 00-.714.714c0 .201.066.372.2.513.142.135.313.201.514.201a.705.705 0 00.714-.714zm1.786-5.714v7.143c0 .193-.071.36-.212.502a.686.686 0 01-.503.212H1.14a.686.686 0 01-.502-.212.686.686 0 01-.212-.502V8.143c0-.194.07-.361.212-.502a.686.686 0 01.502-.212h3.214c.194 0 .361.07.503.212a.686.686 0 01.212.502zm13.214 0c0 .64-.205 1.194-.614 1.663.112.327.168.61.168.848a2.317 2.317 0 01-.48 1.529c.126.417.126.852 0 1.306a2.173 2.173 0 01-.603 1.049c.067.833-.115 1.507-.547 2.02-.476.566-1.209.856-2.199.87h-1.44c-.49 0-1.026-.059-1.607-.178-.58-.112-1.034-.22-1.361-.324a46.96 46.96 0 01-1.34-.435c-.915-.32-1.502-.484-1.763-.491a.75.75 0 01-.502-.212.686.686 0 01-.212-.502V8.132c0-.186.067-.346.2-.48a.722.722 0 01.48-.235c.18-.014.462-.234.849-.658.387-.424.763-.874 1.127-1.35.506-.648.882-1.094 1.127-1.34a1.71 1.71 0 00.346-.536 3.17 3.17 0 00.19-.535c.037-.142.09-.369.156-.681.053-.29.097-.517.134-.68.045-.165.12-.358.224-.581.104-.223.23-.41.379-.558a.686.686 0 01.502-.212c.342 0 .648.04.915.122.276.075.499.172.67.29.179.112.327.261.446.447a2.238 2.238 0 01.402 1.06c.037.224.056.391.056.503.007.111.011.256.011.435 0 .283-.037.565-.111.848a3.78 3.78 0 01-.212.67 7.372 7.372 0 01-.413.826 1.885 1.885 0 00-.212.513h3.091c.58 0 1.083.212 1.507.636.424.424.636.926.636 1.507z" fill="#C4C4C4"/></svg>