<?xml version="1.0" encoding="utf-8"?><svg width="16" height="17" fill="none" xmlns="http://www.w3.org/2000/svg" viewBox="0 0 16 17"><path d="M5.417 9.833a2.668 2.668 0 005.166 0m-3.238-7.49L2.824 5.859c-.303.236-.454.353-.563.5-.096.13-.168.278-.212.434C2 6.969 2 7.16 2 7.543v4.824c0 .746 0 1.12.145 1.405.128.25.332.455.583.583.285.145.659.145 1.405.145h7.734c.746 0 1.12 0 1.405-.145.25-.128.455-.332.583-.583.145-.285.145-.659.145-1.405V7.543c0-.383 0-.574-.05-.75a1.332 1.332 0 00-.211-.434c-.11-.147-.26-.264-.563-.5L8.655 2.343c-.234-.183-.351-.274-.48-.309a.667.667 0 00-.35 0c-.129.035-.246.127-.48.309z" stroke="#282828" stroke-linecap="round" stroke-linejoin="round"/></svg>