<?xml version="1.0" encoding="utf-8"?><svg width="67.5" height="75" fill="none" xmlns="http://www.w3.org/2000/svg" viewBox="0 0 67.5 75"><path d="M61.25 2.5h-5V1.25A1.25 1.25 0 0055 0H25a1.25 1.25 0 00-1.25 1.25V2.5h-5a6.258 6.258 0 00-6.25 6.25v18.809a6.256 6.256 0 00-4.397 2.68l-5.71 8.375A13.698 13.698 0 000 46.359V73.75A1.25 1.25 0 001.25 75h15a1.25 1.25 0 001.25-1.25v-3.892c.41.09.83.138 1.25.142h42.5a6.257 6.257 0 006.25-6.25v-55a6.258 6.258 0 00-6.25-6.25zm-35 0h27.5v6.25A1.25 1.25 0 0152.5 10h-25a1.25 1.25 0 01-1.25-1.25V2.5zm1.25 10h25a3.75 3.75 0 003.52-2.5h2.73A1.25 1.25 0 0160 11.25v50a1.25 1.25 0 01-1.25 1.25h-37.5a1.219 1.219 0 01-.486-.111c.319-1.047.482-2.134.486-3.228v-.806a11.21 11.21 0 00-.965-4.563l-.625-1.39 5.792-11.768a5.014 5.014 0 00.173-4.67A4.986 4.986 0 0020 33.274V11.25A1.25 1.25 0 0121.25 10h2.73a3.75 3.75 0 003.52 2.5zM18.75 5h5v2.5h-2.5a3.75 3.75 0 00-3.75 3.75v23.47a5.286 5.286 0 00-.744.983L15 39.212V8.75A3.75 3.75 0 0118.75 5zM15 67.5v5H2.5V46.359a11.21 11.21 0 011.958-6.342l5.71-8.375a3.736 3.736 0 012.332-1.536V44.21L9.875 49.44l2.236 1.125 6.84-13.674a2.5 2.5 0 014.668 1.25 2.623 2.623 0 01-.375 1.323l-6.089 12.362a1.314 1.314 0 00-.125.517v.043c0 .212.053.42.156.604l.805 1.815a8.706 8.706 0 01.75 3.549v.806a8.796 8.796 0 01-1.75 5.241L15.25 66.75a1.25 1.25 0 00-.25.75zm50-3.75a3.75 3.75 0 01-3.75 3.75h-42.5a3.709 3.709 0 01-.855-.112l1.113-1.488c.286-.387.546-.792.78-1.213.46.203.958.309 1.462.313h37.5a3.75 3.75 0 003.75-3.75v-50a3.75 3.75 0 00-3.75-3.75h-2.5V5h5A3.75 3.75 0 0165 8.75v55z" fill="green"/><path d="M38.75 16.25h2.5v2.5h-2.5v-2.5zm5 0h2.5v2.5h-2.5v-2.5zm-10 0h2.5v2.5h-2.5v-2.5zm3.75 18.017l2.866 2.867a1.25 1.25 0 001.768 0l5.366-5.367v1.983H50v-5a1.25 1.25 0 00-1.25-1.25h-5V30h1.982l-4.482 4.483-2.866-2.867a1.25 1.25 0 00-1.768 0l-5 5 1.768 1.768 4.116-4.117z" fill="green"/><path d="M28.75 45h22.5v-2.5H30V23.75h-2.5v20A1.25 1.25 0 0028.75 45zm0 5h7.5v2.5h-7.5V50zm10 0h12.5v2.5h-12.5V50zm-10 5h22.5v2.5h-22.5V55z" fill="green"/></svg>