<?xml version="1.0" encoding="utf-8"?><svg width="62.5" height="75" fill="none" xmlns="http://www.w3.org/2000/svg" viewBox="0 0 62.5 75"><path d="M26.25 20h2.5v2.5h-2.5V20zm5 0h2.5v2.5h-2.5V20zm-10 0h2.5v2.5h-2.5V20zm-3.619 44.309a1.248 1.248 0 002.238 0l2.5-5c.086-.174.131-.365.131-.559V27.5A2.499 2.499 0 0020 25h-2.5a2.5 2.5 0 00-2.5 2.5v31.25c0 .194.045.385.131.559l2.5 5zm1.119-3.354l-1.25-2.5V35H20v23.455l-1.25 2.5zM20 27.5v5h-2.5v-5H20zM55 45H35a2.5 2.5 0 00-2.5 2.5v20A2.499 2.499 0 0035 70h20a2.5 2.5 0 002.5-2.5v-20A2.499 2.499 0 0055 45zm0 7.5h-5v-5h5v5zM42.5 60v-5h5v5h-5zm5 2.5v5h-5v-5h5zM40 60h-5v-5h5v5zm2.5-7.5v-5h5v5h-5zM50 55h5v5h-5v-5zm-10-7.5v5h-5v-5h5zm-5 15h5v5h-5v-5zm15 5v-5h5v5h-5z" fill="green"/><path d="M58.75 27.5H55V13.75a6.257 6.257 0 00-6.25-6.25h-5V6.25A1.25 1.25 0 0042.5 5H31.02c.148-.4.226-.823.23-1.25a3.75 3.75 0 10-7.5 0c.004.427.082.85.23 1.25H12.5a1.25 1.25 0 00-1.25 1.25V7.5h-5A6.256 6.256 0 000 13.75v55A6.257 6.257 0 006.25 75h52.5a3.751 3.751 0 003.75-3.75v-40a3.75 3.75 0 00-3.75-3.75zm-10-17.5a3.751 3.751 0 013.75 3.75V27.5H50V16.25a3.75 3.75 0 00-3.75-3.75h-2.5V10h5zm-22.5-6.25a1.25 1.25 0 112.502 0 1.25 1.25 0 01-2.502 0zM13.75 7.5h27.5v6.25A1.25 1.25 0 0140 15H15a1.25 1.25 0 01-1.25-1.25V7.5zm1.25 10h25a3.75 3.75 0 003.52-2.5h2.73a1.25 1.25 0 011.25 1.25V27.5H31.25a3.751 3.751 0 00-3.75 3.75V67.5H8.75a1.25 1.25 0 01-1.25-1.25v-50A1.25 1.25 0 018.75 15h2.73A3.75 3.75 0 0015 17.5zM2.5 68.75v-55A3.75 3.75 0 016.25 10h5v2.5h-2.5A3.751 3.751 0 005 16.25v50A3.75 3.75 0 008.75 70H27.5v1.25c.004.427.082.85.23 1.25H6.25a3.751 3.751 0 01-3.75-3.75zm57.5 2.5a1.25 1.25 0 01-1.25 1.25h-27.5A1.25 1.25 0 0130 71.25v-40A1.25 1.25 0 0131.25 30h27.5A1.25 1.25 0 0160 31.25v40z" fill="green"/><path d="M56.25 32.5h-22.5a1.25 1.25 0 00-1.25 1.25v7.5a1.25 1.25 0 001.25 1.25h22.5a1.25 1.25 0 001.25-1.25v-7.5a1.25 1.25 0 00-1.25-1.25zM55 40H35v-5h20v5z" fill="green"/></svg>