<?xml version="1.0" encoding="utf-8"?><svg width="75" height="75" fill="none" xmlns="http://www.w3.org/2000/svg" viewBox="0 0 75 75"><path d="M68.75 0H6.25A6.256 6.256 0 000 6.25v45a6.257 6.257 0 006.25 6.25h21.125l-1 10H23.75a3.751 3.751 0 00-2.652 6.402A3.751 3.751 0 0023.75 75h27.5a3.751 3.751 0 002.652-6.402A3.751 3.751 0 0051.25 67.5h-2.619l-1-10H68.75A6.256 6.256 0 0075 51.25v-45A6.257 6.257 0 0068.75 0zM6.25 2.5h62.5a3.751 3.751 0 013.75 3.75V45h-70V6.25A3.75 3.75 0 016.25 2.5zM52.5 71.25a1.25 1.25 0 01-1.25 1.25h-27.5a1.25 1.25 0 010-2.5h27.5a1.25 1.25 0 011.25 1.25zm-6.375-3.75H28.881l1-10h15.244l1 10zM68.75 55H6.25a3.751 3.751 0 01-3.75-3.75V47.5h70v3.75A3.75 3.75 0 0168.75 55z" fill="green"/><path d="M65 50h2.5v2.5H65V50zM36.25 37.5A12.515 12.515 0 0048.75 25a1.25 1.25 0 00-1.25-1.25h-10v-10a1.25 1.25 0 00-1.25-1.25 12.5 12.5 0 100 25zM35 15.078V25a1.25 1.25 0 001.25 1.25h9.922a10.002 10.002 0 01-12.178 8.49A9.998 9.998 0 0126.79 21.76 10.002 10.002 0 0135 15.078z" fill="green"/><path d="M40 22.5h11.25a1.25 1.25 0 001.25-1.25A12.513 12.513 0 0040 8.75 1.25 1.25 0 0038.75 10v11.25A1.25 1.25 0 0040 22.5zm1.25-11.172A10.023 10.023 0 0149.922 20H41.25v-8.672zM52.5 10H60v2.5h-7.5V10zm10 0h5v2.5h-5V10zm0 5h5v2.5h-5V15zm-55 15h5v2.5h-5V30zm0 5h5v2.5h-5V35zm7.5-5h7.5v2.5H15V30zm40 7.5h10V40H55v-2.5zm0-5h2.5V35H55v-2.5zm5 0h5V35h-5v-2.5z" fill="green"/></svg>