<?xml version="1.0" encoding="utf-8"?><svg width="75" height="75" fill="none" xmlns="http://www.w3.org/2000/svg" viewBox="0 0 75 75"><path d="M58.75 36.25A1.25 1.25 0 0057.5 35h-5a1.25 1.25 0 00-1.25 1.25V57.5h-2.5V43.75a1.25 1.25 0 00-1.25-1.25h-5a1.25 1.25 0 00-1.25 1.25V57.5h-2.5v-8.75a1.25 1.25 0 00-1.25-1.25h-5a1.25 1.25 0 00-1.25 1.25v8.75h-2.5V31.25h-2.5v27.5A1.25 1.25 0 0027.5 60h35v-2.5h-3.75V36.25zm-2.5 1.25v8.75h-2.5V37.5h2.5zm-2.5 11.25h2.5v8.75h-2.5v-8.75zM46.25 45v5h-2.5v-5h2.5zm-2.5 7.5h2.5v5h-2.5v-5zm-7.5-2.5v2.5h-2.5V50h2.5zm-2.5 5h2.5v2.5h-2.5V55z" fill="green"/><path d="M46.25 35.517V37.5h2.5v-5a1.25 1.25 0 00-1.25-1.25h-5v2.5h1.982l-9.116 9.116 1.768 1.768 9.116-9.117z" fill="green"/><path d="M68.75 7.5H12.5V1.25A1.25 1.25 0 0011.25 0h-5A6.258 6.258 0 000 6.25v52.5A6.257 6.257 0 006.25 65H62.5v8.75A1.25 1.25 0 0063.75 75h5A6.257 6.257 0 0075 68.75v-55a6.257 6.257 0 00-6.25-6.25zM2.5 6.25A3.75 3.75 0 016.25 2.5H10v50H6.25a6.225 6.225 0 00-3.75 1.25V6.25zM6.25 62.5a3.75 3.75 0 110-7.5h5a1.25 1.25 0 001.25-1.25V10h56.25a3.75 3.75 0 013.75 3.75v50.032a6.184 6.184 0 00-3.75-1.282H6.25zm62.5 10H65V65h3.75a3.75 3.75 0 110 7.5z" fill="green"/><path d="M37.5 23.75h15v2.5h-15v-2.5zm0-5h5v2.5h-5v-2.5zm7.5 0h7.5v2.5H45v-2.5z" fill="green"/></svg>