<?xml version="1.0" encoding="utf-8"?><svg width="60" height="75" fill="none" xmlns="http://www.w3.org/2000/svg" viewBox="0 0 60 75"><path d="M56.25 0h-45A3.751 3.751 0 007.5 3.75V7.5H3.75A3.751 3.751 0 000 11.25v60A3.75 3.75 0 003.75 75h45a3.751 3.751 0 003.75-3.75V67.5h3.75A3.751 3.751 0 0060 63.75v-60A3.75 3.75 0 0056.25 0zM50 71.25a1.25 1.25 0 01-1.25 1.25h-45a1.25 1.25 0 01-1.25-1.25v-60A1.25 1.25 0 013.75 10H37.5v10a1.251 1.251 0 002.29.694l1.46-2.194 1.46 2.19A1.251 1.251 0 0045 20V10h3.75A1.25 1.25 0 0150 11.25v60zM40 10h2.5v5.875l-.21-.315a1.25 1.25 0 00-2.08 0l-.21.315V10zm17.5 53.75A1.25 1.25 0 0156.25 65H52.5V11.25a3.75 3.75 0 00-3.75-3.75H10V3.75a1.25 1.25 0 011.25-1.25h45a1.25 1.25 0 011.25 1.25v60z" fill="green"/><path d="M43.75 30h-35a1.25 1.25 0 00-1.25 1.25v27.5A1.25 1.25 0 008.75 60h35A1.25 1.25 0 0045 58.75v-27.5A1.25 1.25 0 0043.75 30zm-1.25 7.5H20v-5h22.5v5zM26.25 40H30v17.5h-3.75V40zm-2.5 17.5H20V40h3.75v17.5zM32.5 40h3.75v17.5H32.5V40zm-15-7.5v5H10v-5h7.5zM10 40h7.5v17.5H10V40zm28.75 17.5V40h3.75v17.5h-3.75zM7.5 20h10v2.5h-10V20zm0-5H10v2.5H7.5V15zm5 0h5v2.5h-5V15zm8.75 10h10v2.5h-10V25zm21.375 39.2a3.58 3.58 0 00-3.043-1.699 3.574 3.574 0 00-3.043 1.699c-.5.606-.703.801-1.125.801-.423 0-.62-.195-1.125-.8A3.812 3.812 0 0031.25 62.5V65c.422 0 .625.195 1.125.801a3.577 3.577 0 006.089 0c.5-.605.702-.8 1.125-.8.401 0 .589.16 1.125.8A3.805 3.805 0 0043.75 67.5V65c-.401 0-.589-.16-1.125-.8z" fill="green"/></svg>