<?xml version="1.0" encoding="utf-8"?><svg width="80" height="80" fill="none" xmlns="http://www.w3.org/2000/svg" viewBox="0 0 80 80"><defs><clipPath id="aka"><path fill="#fff" fill-opacity="0" d="M0 0h80v80H0z"/></clipPath></defs><path fill="none" d="M0 0h80v80H0z"/><g clip-path="url(#aka)" fill="green"><path d="M72.5 7.5h-15V6.25a3.75 3.75 0 10-7.5 0V7.5h-6.25V6.25a3.75 3.75 0 10-7.5 0V7.5H30V6.25a3.75 3.75 0 10-7.5 0V7.5H15a1.25 1.25 0 00-1.25 1.25V57.5H7.5a1.25 1.25 0 00-1.25 1.25v5A6.257 6.257 0 0012.5 70h1.25v6.25A1.25 1.25 0 0015 77.5h57.5a1.25 1.25 0 001.25-1.25V8.75A1.25 1.25 0 0072.5 7.5zm-1.25 10h-5V10h5v7.5zM52.5 6.25a1.25 1.25 0 012.5 0V7.5h-2.5V6.25zm-13.75 0a1.25 1.25 0 012.5 0V7.5h-2.5V6.25zM25 6.25a1.25 1.25 0 012.5 0V7.5H25V6.25zM22.5 10v1.25A3.75 3.75 0 0026.25 15v-2.5A1.25 1.25 0 0125 11.25V10h11.25v1.25A3.75 3.75 0 0040 15v-2.5a1.25 1.25 0 01-1.25-1.25V10H50v1.25A3.75 3.75 0 0053.75 15v-2.5a1.25 1.25 0 01-1.25-1.25V10h11.25v7.5h-47.5V10h6.25zM55 57.5H16.25V20h47.5v43.75a3.75 3.75 0 11-7.5 0v-5A1.25 1.25 0 0055 57.5zM8.75 63.75V60h45v3.75A6.217 6.217 0 0055 67.5H12.5a3.751 3.751 0 01-3.75-3.75zm7.5 6.25H60a6.185 6.185 0 003.75-1.282V75h-47.5v-5zm50 5V20h5v55h-5z"/><path d="M40 25a12.5 12.5 0 1012.5 12.5A12.513 12.513 0 0040 25zm0 22.5a10 10 0 1110-10 10.011 10.011 0 01-10 10zm16.25-11.25h2.5v2.5h-2.5v-2.5zm0-5h2.5v2.5h-2.5v-2.5zm0 10h2.5v2.5h-2.5v-2.5zm-35-5h2.5v2.5h-2.5v-2.5zm0-5h2.5v2.5h-2.5v-2.5zm0 10h2.5v2.5h-2.5v-2.5z"/><path d="M40.882 38.898H35v-1.504h5.843c.523 0 .946-.078 1.266-.234.322-.161.557-.385.707-.672.15-.287.226-.622.226-1.005 0-.343-.075-.662-.226-.96a1.758 1.758 0 00-.699-.725c-.316-.191-.727-.287-1.235-.287h-2.347V43h-1.95V32h4.297c.87 0 1.61.149 2.222.446.611.297 1.08.707 1.406 1.231.327.519.49 1.116.49 1.79 0 .721-.166 1.338-.497 1.852-.327.508-.798.899-1.415 1.17-.61.273-1.346.409-2.206.409zm.186.808v1.503H35v-1.503h6.068z"/></g></svg>