<?xml version="1.0" encoding="utf-8"?><svg width="80" height="80" fill="none" xmlns="http://www.w3.org/2000/svg" viewBox="0 0 80 80"><defs><clipPath id="ala"><path fill="#fff" fill-opacity="0" d="M0 0h80v80H0z"/></clipPath></defs><path fill="none" d="M0 0h80v80H0z"/><g clip-path="url(#ala)" fill="green"><path d="M70 53.455V26.449A12.5 12.5 0 1053.551 10H13.75A3.75 3.75 0 0010 13.75v39.705L2.631 68.191a1.247 1.247 0 00-.131.559V75A2.5 2.5 0 005 77.5h70a2.5 2.5 0 002.5-2.5v-6.25a1.25 1.25 0 00-.125-.559L70 53.455zM36.25 70h7.5v1.25h-7.5V70zM5.772 67.5l6.25-12.5h55.956l6.25 12.5H5.772zM65 5a10 10 0 11-7.438 16.666 1.249 1.249 0 00-.93-.416h-3.265l1.75-3.183c.147-.266.192-.577.125-.875A9.978 9.978 0 0165 5zm-52.5 8.75a1.25 1.25 0 011.25-1.25h39a12.33 12.33 0 00-.04 4.762l-2.556 4.634a1.247 1.247 0 00.476 1.69c.189.108.402.164.62.164h4.841a12.465 12.465 0 0011.409 3.5V52.5h-55V13.75zM5 75v-5h28.75v1.25a2.5 2.5 0 002.5 2.5h7.5a2.5 2.5 0 002.5-2.5V70H75v5H5z"/><path d="M12.5 62.5H15V65h-2.5v-2.5zm5 0H20V65h-2.5v-2.5zm5 0h35V65h-35v-2.5zm37.5 0h2.5V65H60v-2.5zm5 0h2.5V65H65v-2.5zm-46.25-5h2.5V60h-2.5v-2.5zm-5 0h2.5V60h-2.5v-2.5zm10 0h2.5V60h-2.5v-2.5zm5 0h2.5V60h-2.5v-2.5zm5 0h2.5V60h-2.5v-2.5zm5 0h2.5V60h-2.5v-2.5zm5 0h2.5V60h-2.5v-2.5zm5 0h2.5V60h-2.5v-2.5zm5 0h2.5V60h-2.5v-2.5zm5 0h2.5V60h-2.5v-2.5zm5 0h2.5V60h-2.5v-2.5zm-17.5-40h-27.5a1.25 1.25 0 00-1.25 1.25v27.5a1.25 1.25 0 001.25 1.25h27.5a1.25 1.25 0 001.25-1.25v-27.5a1.25 1.25 0 00-1.25-1.25zM45 25H28.75v-5H45v5zm-10 2.5h3.75V45H35V27.5zM32.5 45h-3.75V27.5h3.75V45zm-6.25-25v5H20v-5h6.25zM20 27.5h6.25V45H20V27.5zM41.25 45V27.5H45V45h-3.75zM52.5 30H55v2.5h-2.5V30zm5 0h5v2.5h-5V30zm-5 5h10v2.5h-10V35zm0 5h10v2.5h-10V40zM66.882 15.898H61v-1.504h5.843c.523 0 .945-.078 1.267-.234.32-.161.556-.385.707-.672a2.14 2.14 0 00.225-1.005 2.1 2.1 0 00-.225-.96 1.76 1.76 0 00-.7-.725c-.316-.191-.727-.287-1.235-.287h-2.347V20h-1.95V9h4.297c.87 0 1.61.149 2.222.446.611.297 1.08.707 1.406 1.231.327.519.49 1.116.49 1.79 0 .721-.166 1.338-.497 1.852-.327.508-.798.899-1.414 1.17-.612.273-1.347.409-2.207.409zm.186.808v1.503H61v-1.503h6.068z"/></g></svg>