<?xml version="1.0" encoding="utf-8"?><svg width="7" height="13" fill="none" xmlns="http://www.w3.org/2000/svg" viewBox="0 0 7 13"><path d="M5.093 2.02h1.609c.148 0 .268-.113.268-.252V.252C6.97.113 6.85 0 6.702 0H5.093C3.468 0 2.144 1.246 2.144 2.778v1.769H.268C.12 4.547 0 4.66 0 4.799v1.516c0 .14.12.252.268.252h1.876v5.305c0 .14.12.253.269.253H4.02c.148 0 .268-.114.268-.253V6.567h1.876c.116 0 .218-.07.255-.172l.536-1.516a.241.241 0 00-.037-.228.275.275 0 00-.217-.104H4.289V2.778c0-.417.36-.757.804-.757z" fill="#fff"/></svg>