<?xml version="1.0" encoding="utf-8"?><svg width="30" height="30" xmlns="http://www.w3.org/2000/svg" viewBox="0 0 30 30"><g clip-path="url(#adclip0_1981_2125)"><path fill-rule="evenodd" clip-rule="evenodd" d="M12.394 16.328c1.46 2.506 5.639 5.448 6.834 5.203 1.192-.247 1.624-1.197 1.666-1.67.042-.468-2.194-2.37-2.772-2.76-.579-.39-1.472.332-1.892.637-.431.285-1.61-1.07-2.103-1.737 0 0-1.256-1.972-.823-2.26.431-.285 1.472-.824 1.267-1.465-.202-.642-1.345-3.272-1.845-3.4-.482-.124-1.577-.059-2.223.91-.647.97.684 5.413 2.709 7.55"/></g><defs><clipPath id="adclip0_1981_2125"><path fill="#fff" d="M0 0h30v30H0z"/></clipPath></defs></svg>