<?xml version="1.0" encoding="utf-8"?><svg width="18" height="18" fill="none" xmlns="http://www.w3.org/2000/svg" viewBox="0 0 18 18"><path d="M13.804 5.276a1.08 1.08 0 100-2.16 1.08 1.08 0 000 2.16zM9 4.378a4.622 4.622 0 100 9.244 4.622 4.622 0 000-9.244zM9 12a3 3 0 110-6 3 3 0 010 6z" fill="#fff"/><path d="M9 1.622c2.403 0 2.688.009 3.637.052.57.007 1.136.112 1.671.31a2.982 2.982 0 011.708 1.708c.198.535.303 1.1.31 1.671.043.95.052 1.234.052 3.637s-.009 2.688-.052 3.637a4.982 4.982 0 01-.31 1.671 2.98 2.98 0 01-1.708 1.708 4.98 4.98 0 01-1.671.31c-.95.043-1.234.052-3.637.052s-2.688-.009-3.637-.052a4.981 4.981 0 01-1.671-.31 2.981 2.981 0 01-1.708-1.708 4.982 4.982 0 01-.31-1.671c-.043-.95-.052-1.234-.052-3.637s.009-2.688.052-3.637c.007-.57.112-1.136.31-1.67a2.981 2.981 0 011.708-1.709 4.981 4.981 0 011.671-.31c.95-.043 1.234-.052 3.637-.052zM9 0C6.556 0 6.25.01 5.29.054a6.605 6.605 0 00-2.185.418A4.602 4.602 0 00.472 3.106 6.605 6.605 0 00.054 5.29C.01 6.25 0 6.556 0 9s.01 2.75.054 3.71c.015.747.157 1.486.418 2.185a4.602 4.602 0 002.633 2.633c.7.262 1.438.403 2.185.418C6.25 17.99 6.556 18 9 18s2.75-.01 3.71-.054a6.608 6.608 0 002.185-.419 4.602 4.602 0 002.633-2.632c.262-.7.403-1.438.418-2.185.044-.96.054-1.266.054-3.71s-.01-2.75-.054-3.71a6.606 6.606 0 00-.419-2.185A4.603 4.603 0 0014.896.473 6.605 6.605 0 0012.71.055C11.75.01 11.444 0 9 0z" fill="#fff"/></svg>