<?xml version="1.0" encoding="utf-8"?><svg width="43" height="43" fill="none" xmlns="http://www.w3.org/2000/svg" viewBox="0 0 43 43"><circle cx="21.5" cy="21.5" r="21.5" fill="url(#aipaint0_linear_8313_5)"/><path d="M24.75 12h-7.5A6.25 6.25 0 0011 18.25v7.5A6.25 6.25 0 0017.25 32h7.5A6.25 6.25 0 0031 25.75v-7.5A6.25 6.25 0 0024.75 12zm4.375 13.75a4.38 4.38 0 01-4.375 4.375h-7.5a4.38 4.38 0 01-4.375-4.375v-7.5a4.38 4.38 0 014.375-4.375h7.5a4.38 4.38 0 014.375 4.375v7.5z" fill="#fff"/><path d="M21 17a5 5 0 100 10 5 5 0 000-10zm0 8.125A3.13 3.13 0 0117.875 22 3.129 3.129 0 0121 18.875 3.129 3.129 0 0124.125 22 3.13 3.13 0 0121 25.125zM26.375 17.29a.666.666 0 100-1.332.666.666 0 000 1.333z" fill="#fff"/><defs><linearGradient id="aipaint0_linear_8313_5" x1="33.618" y1="4.3" x2="12.9" y2="39.873" gradientUnits="userSpaceOnUse"><stop stop-color="#5B6CB2"/><stop offset=".243" stop-color="#A04E98"/><stop offset=".492" stop-color="#D6466A"/><stop offset=".818" stop-color="#EF924D"/><stop offset="1" stop-color="#F9BC63"/></linearGradient></defs></svg>