<?xml version="1.0" encoding="utf-8"?><svg width="25" height="24" xmlns="http://www.w3.org/2000/svg" viewBox="0 0 25 24"><path d="M24.886 6.978C24.522 2.934 21.687 0 18.14 0c-2.364 0-4.528 1.285-5.745 3.343C11.188 1.258 9.113 0 6.787 0 3.24 0 .405 2.934.042 6.977c-.03.179-.147 1.119.211 2.652.517 2.21 1.711 4.222 3.452 5.814l8.684 7.957 8.833-7.956c1.74-1.593 2.935-3.604 3.451-5.815.359-1.533.241-2.473.213-2.651zM23.74 9.407c-.472 2.02-1.565 3.859-3.16 5.317l-8.185 7.374-8.046-7.372c-1.597-1.46-2.69-3.3-3.162-5.32-.34-1.45-.2-2.27-.2-2.275l.008-.049C1.306 3.54 3.742.968 6.787.968c2.247 0 4.225 1.394 5.164 3.637l.441 1.057.442-1.057C13.758 2.396 15.84.97 18.14.97c3.045 0 5.481 2.571 5.799 6.16 0 .007.14.827-.199 2.278z"/><path d="M7.669 2.942c-2.643 0-4.794 2.171-4.794 4.84 0 .268.214.484.48.484.264 0 .479-.216.479-.484 0-2.135 1.72-3.872 3.835-3.872.265 0 .48-.216.48-.484a.482.482 0 00-.48-.484z"/></svg>