<?xml version="1.0" encoding="utf-8"?><svg width="12" height="12" xmlns="http://www.w3.org/2000/svg" viewBox="0 0 12 12"><path d="M1.484 2.967a1.484 1.484 0 100-2.967 1.484 1.484 0 000 2.967zM2.72 3.958H.247A.247.247 0 000 4.205v7.418c0 .137.11.247.247.247H2.72c.136 0 .247-.11.247-.247V4.205a.247.247 0 00-.247-.247zM10.088 3.547c-1.056-.362-2.378-.044-3.17.526a.247.247 0 00-.24-.186H4.205a.247.247 0 00-.247.248v7.418c0 .136.11.247.247.247h2.473c.136 0 .247-.111.247-.248v-5.33c.4-.345.914-.454 1.336-.275.408.172.642.594.642 1.155v4.45c0 .137.11.248.247.248h2.473c.136 0 .247-.111.247-.248V6.604c-.028-2.032-.984-2.784-1.781-3.057z"/></svg>