<?xml version="1.0" encoding="utf-8"?><svg width="36" height="48" xmlns="http://www.w3.org/2000/svg" viewBox="0 0 36 48"><path d="M16.125 47.063a744.09 744.09 0 00-6.281-9c-3.125-4.5-5.188-7.532-6.188-9.094C2.22 26.719 1.25 24.844.75 23.344.25 21.78 0 20 0 18c0-3.25.813-6.25 2.438-9A18.344 18.344 0 019 2.437C11.75.813 14.75 0 18 0s6.25.813 9 2.438A18.344 18.344 0 0133.563 9C35.187 11.75 36 14.75 36 18c0 2-.25 3.781-.75 5.344-.5 1.5-1.469 3.375-2.906 5.625-1 1.562-3.063 4.593-6.188 9.093l-6.281 9c-.438.626-1.063.938-1.875.938-.813 0-1.438-.313-1.875-.938zM18 25.5c2.063 0 3.813-.719 5.25-2.156 1.5-1.5 2.25-3.282 2.25-5.344 0-2.063-.75-3.813-2.25-5.25-1.438-1.5-3.188-2.25-5.25-2.25-2.063 0-3.844.75-5.344 2.25C11.22 14.188 10.5 15.938 10.5 18c0 2.063.719 3.844 2.156 5.344C14.156 24.78 15.937 25.5 18 25.5z"/></svg>