<?xml version="1.0" ?><!DOCTYPE svg  PUBLIC '-//W3C//DTD SVG 1.1//EN'  'http://www.w3.org/Graphics/SVG/1.1/DTD/svg11.dtd'><svg width="512" height="512" xmlns="http://www.w3.org/2000/svg" viewBox="0 0 512 512"><g stroke="#3B3A3E" stroke-linecap="round" stroke-linejoin="round" stroke-miterlimit="10" stroke-width="20"><path d="M443 170.865v235H69v-235h112v-52.73c0-6.63 5.37-12 12-12h126c6.63 0 12 5.37 12 12v52.73h112z" fill="none"/><circle cx="256" cy="287.229" fill="none" r="83.708"/><path d="M256 323.938c-20.24 0-36.708-16.467-36.708-36.708S235.76 250.521 256 250.521c20.241 0 36.708 16.467 36.708 36.708S276.241 323.938 256 323.938zM369 203.521h42M87 138.865h53v32H87z" fill="none"/><path d="M443 170.865v235H69v-235h112v-52.73c0-6.63 5.37-12 12-12h126c6.63 0 12 5.37 12 12v52.73h112z" fill="#65A0D6"/><circle cx="256" cy="287.229" fill="#D9DCE1" r="83.708"/><path d="M256 323.938c-20.24 0-36.708-16.467-36.708-36.708S235.76 250.521 256 250.521c20.241 0 36.708 16.467 36.708 36.708S276.241 323.938 256 323.938z" fill="#3C74BA"/><path fill="none" d="M369 203.521h42"/><path fill="#3C74BA" d="M87 138.865h53v32H87z"/></g></svg>