<?xml version="1.0" encoding="utf-8"?><svg width="110" height="110" fill="none" xmlns="http://www.w3.org/2000/svg" viewBox="0 0 110 110"><path d="M55.63 11.6c-23.89 0-43.28 19.39-43.28 43.28s19.39 43.28 43.28 43.28 43.28-19.39 43.28-43.28C98.86 30.93 79.52 11.6 55.63 11.6z" fill="#FFF" fill-rule="evenodd"/><path d="M16.1 16.1C26.02 6.17 39.76 0 55 0c15.17 0 28.91 6.17 38.89 16.1A54.902 54.902 0 01110 55c0 15.17-6.18 28.91-16.11 38.89A54.896 54.896 0 0155 110c-15.18 0-28.92-6.18-38.9-16.11C6.17 83.91 0 70.17 0 55c0-15.24 6.17-28.98 16.1-38.9zM55 10.04c-12.41 0-23.61 5.02-31.75 13.16-8.13 8.13-13.16 19.33-13.16 31.74s5.03 23.6 13.16 31.74C31.39 94.82 42.59 99.84 55 99.84c12.4 0 23.6-5.02 31.74-13.16 8.13-8.14 13.16-19.33 13.16-31.74S94.87 31.33 86.74 23.2C78.6 15.12 67.35 10.04 55 10.04z" fill="#83BB32"/><path d="M21.29 21.29C29.89 12.69 41.84 7.32 55 7.32c13.15 0 25.04 5.31 33.7 13.97 8.6 8.6 13.97 20.55 13.97 33.71 0 13.15-5.31 25.04-13.97 33.7-8.6 8.6-20.55 13.97-33.7 13.97-13.16 0-25.05-5.31-33.71-13.97C12.69 80.1 7.32 68.15 7.32 55c0-13.16 5.31-25.11 13.97-33.71zM55 16.04c-10.74 0-20.49 4.33-27.53 11.43C20.43 34.51 16.04 44.2 16.04 55c0 10.73 4.33 20.48 11.43 27.52C34.51 89.56 44.26 93.95 55 93.95c10.73 0 20.48-4.33 27.52-11.43C89.56 75.48 93.95 65.73 93.95 55c0-10.74-4.33-20.49-11.43-27.53C75.43 20.43 65.73 16.04 55 16.04z" fill="#83BB32"/><path d="M44.32 71.1h-1.5l-.98 1.38c-.06.12-.18.23-.23.29-.06.06-.18.12-.24.17-.05.06-.11.06-.17.06-.06 0-.11.06-.23.06h-.06v-2.02h-1.32v5.19h1.32v-2.19h.23c.06 0 .12 0 .18.06.05 0 .11.06.17.06.06.05.12.05.17.11.06.06.12.12.18.17.05.06.11.18.17.23l.87 1.51h1.5l-.93-1.74c-.06-.17-.17-.28-.23-.4-.11-.12-.17-.23-.29-.29-.05-.06-.11-.11-.17-.11-.06-.06-.12-.06-.23-.12l-.12-.06.12-.05c.06 0 .11-.06.11-.06l.12-.12c.06-.06.12-.11.23-.23.06-.11.17-.17.23-.29l1.1-1.61zm2.71-.12c-.81 0-1.44.12-1.79.41-.4.28-.58.63-.58 1.15v2.25c0 .12 0 .23.06.35 0 .11.06.23.12.29.06.11.11.17.17.23.06.05.12.11.23.17.06.06.17.11.29.11.12.06.23.06.35.12.11 0 .23.06.28.06.12 0 .18.06.29.06H47.09c.29 0 .52 0 .81-.06.28 0 .57-.06.8-.12h.06v-1.04h-.06c-.34.06-.63.12-.86.18-.23.05-.46.05-.64.05-.57 0-.86-.11-1.04-.23-.17-.17-.17-.29-.17-.4v-2.14c0-.11 0-.23.06-.34.06-.06.11-.18.23-.18.06 0 .12-.05.17-.05h.58c.23 0 .46 0 .75.05.29.06.52.12.87.18h.05v-1.04h-.05c-.35-.06-.64-.12-.93-.12-.23.12-.46.06-.69.06zm6.93.12H49.4v5.19h1.32v-4.21h1.91v4.21h1.33V71.1zm3.11 0h-2.08v5.19h1.33v-1.67h.64c.29 0 .52 0 .69-.06.23 0 .4-.06.58-.12.17-.05.29-.11.4-.17.12-.06.23-.17.29-.23.06-.12.11-.23.17-.35.06-.11.06-.28.06-.46v-.98c0-.17 0-.29-.06-.4-.06-.12-.11-.23-.17-.29-.06-.12-.17-.17-.29-.23-.11-.06-.23-.12-.4-.18-.18-.05-.35-.05-.52-.05h-.64zm-.69.98h1.04c.11 0 .23.06.29.06.06 0 .06.05.11.11 0 .06.06.12.06.17v.81c0 .12 0 .18-.06.23-.05.06-.05.12-.11.12s-.12.06-.29.06h-1.16v-1.62h.12v.06zm7.45-.98h-3.99v5.19h4.04v-.98h-2.71V74.1h2.37v-.98h-2.37v-1.04h2.66v-.98zm3.11-.12c-.81 0-1.44.12-1.79.41-.4.28-.57.63-.57 1.15v2.25c0 .12 0 .23.05.35 0 .11.06.23.12.29.06.11.11.17.17.23.06.05.12.11.23.17.06.06.18.11.29.11.12.06.23.06.35.12.11 0 .23.06.29.06.11 0 .17.06.28.06H67c.29 0 .52 0 .81-.06.29 0 .57-.06.81-.12h.05v-1.04h-.05c-.35.06-.64.12-.87.18-.23.05-.46.05-.64.05-.57 0-.86-.11-1.03-.23-.18-.17-.18-.29-.18-.4v-2.14c0-.11 0-.23.06-.34.06-.12.12-.18.23-.18.06 0 .12-.05.17-.05h.58c.23 0 .46 0 .75.05.29.06.52.12.87.18h.06v-1.04h-.06c-.35-.06-.64-.12-.93-.12-.23.12-.46.06-.69.06zm4.68 0c-.81 0-1.45.12-1.79.41-.41.28-.58.63-.58 1.15v2.25c0 .12 0 .23.06.35 0 .11.06.23.11.29.06.11.12.17.18.23.05.05.11.11.23.17.05.06.17.11.29.11.11.06.23.06.34.12.12 0 .23.06.29.06.12 0 .17.06.29.06h.63c.29 0 .52 0 .81-.06.29 0 .58-.06.81-.12h.06v-1.04h-.06c-.35.06-.64.12-.87.18-.23.05-.46.05-.63.05-.58 0-.87-.11-1.04-.23-.17-.17-.17-.29-.17-.4v-2.14c0-.11 0-.23.06-.34.05-.06.11-.18.23-.18.05 0 .11-.05.17-.05h.58c.23 0 .46 0 .75.05.28.06.52.12.86.18h.06v-1.04h-.06c-.34-.06-.63-.12-.92-.12-.23.12-.52.06-.69.06zm-35.21 0c-.23 0-.46 0-.75.06s-.58.06-.92.11h-.06v1.04h.06c.34-.05.63-.11.86-.17.23-.06.47-.06.64-.06.23 0 .46 0 .58.06.05 0 .11.06.23.06.05 0 .11.06.17.11.06.06.12.12.12.18 0 .05.05.11.05.23v.52h-2.08v.98h2.08v.63c0 .18 0 .64-1.21.64-.17 0-.4 0-.63-.06-.24-.06-.52-.12-.87-.17h-.06v1.04h.06c.29.05.58.11.81.11.29 0 .52.06.81.06h.52c.17 0 .34-.06.46-.06.17-.06.29-.06.46-.11.11-.06.29-.12.35-.18.05-.06.17-.11.23-.17.05-.06.11-.17.17-.29.06-.11.11-.17.11-.29 0-.11.06-.23.06-.34v-2.26c0-.23 0-.4-.06-.57a.831.831 0 00-.23-.41c-.11-.11-.23-.23-.34-.28-.12-.06-.29-.12-.46-.18-.18-.06-.35-.06-.58-.06-.06-.17-.35-.17-.58-.17zm40.8 7.56H30.76c-.41 0-.75-.17-1.04-.4-.29-.29-.41-.64-.41-1.04v-7.04c0-.41.18-.75.41-1.04.29-.29.63-.4 1.04-.4h46.45c.41 0 .75.17 1.04.4.29.29.41.63.41 1.04v7.04c0 .4-.18.75-.41 1.04-.29.23-.63.4-1.04.4zM66.94 40.68c-.98 0-1.9.12-2.83.35v-7.79h9.35c1.62 0 2.95-1.33 2.95-2.95H61.17V41.2c0 1.27.81 2.43 2.02 2.83.4.12.87.06 1.21 0 .06 0 .18-.06.29-.06.64-.17 1.33-.29 2.08-.29H67c5.02 0 9.06 4.27 8.71 9.41-.28 4.27-3.75 7.73-8.02 8.08-4.04.29-7.62-2.13-8.89-5.71l-2.65-7.33-1.33-3.52-1.04-2.83-3.92-12.01c-.52-1.38-1.73-2.25-3.18-2.3h-.11c-1.39 0-2.66.8-3.23 2.13L30.81 60.65c-.34.75.06 1.62.81 1.96a2 2 0 00.58.12c.58 0 1.1-.35 1.33-.87l1.55-3.69c1.5-2.83 6.47-11.37 15.18-17.55l.58 1.79.98 2.77 4.04 11.2c.98 2.71 2.94 4.91 5.43 6.29 1.84.98 3.98 1.5 6.23 1.39 5.94-.35 10.73-5.14 11.02-11.08.41-6.7-4.96-12.3-11.6-12.3zm-26.49 4.56l5.6-14.48a.53.53 0 01.52-.35c.11 0 .4.06.46.35l2.71 8.31c-3.06 1.67-6.4 3.81-9.29 6.17z" fill="#83BB32"/><path d="M90.2 81.37l3.52 3.12-.75.86-.06-.06c-.06.24-.11.41-.23.58-.29.35-.69.58-1.1.58-.4.06-.86-.12-1.32-.46-.18-.18-.46-.41-.81-.7-.52-.46-1.04-.86-1.44-1.21l.75-.81c1.15 1.04 1.84 1.68 2.19 1.91.17.17.4.23.63.23.18 0 .35-.06.52-.23.12-.12.12-.29.12-.46l-1.39-1.27c-.4-.41-.86-.75-1.32-1.16l.69-.92zm-3.98 5.42l-.18 1.04c-.28-.05-.46-.05-.63.06-.23.23-.29.52-.17.87l1.09 1.27c.18.17.52.57 1.1 1.21l-.92.81-2.95-3.58.81-.75v.06c.12-.29.29-.52.46-.7.41-.23.87-.34 1.39-.29zm-5.6 7.91c.17-.11.35-.11.52-.11.17.05.35.17.46.34.12.18.12.35.06.52-.06.17-.12.35-.29.46-.17.12-.35.12-.58.12-.17-.06-.34-.12-.46-.29-.11-.17-.17-.35-.11-.58.11-.17.23-.34.4-.46zm-3.75 2.37c.11.34.11.69 0 1.04-.18.34-.41.63-.81.8-.52.18-1.21.29-2.08.24l.18-1.16c.17.06.34.12.57.12.29 0 .52 0 .7-.06.23-.12.28-.23.23-.41-.12-.23-.29-.34-.64-.28l-.52.05c-.29.06-.58 0-.81-.05-.28-.12-.52-.35-.69-.7-.17-.46-.23-.86-.06-1.21.18-.34.41-.58.81-.75.69-.29 1.39-.17 2.02.41l-.81.86c-.23-.29-.46-.4-.63-.29-.23.12-.35.29-.23.58.06.11.17.11.4.06l.81-.06c.75-.12 1.27.17 1.56.81zm-6.41 2.77c.06.4.06.69-.17.98-.17.35-.52.58-.92.69-.52.12-1.22.12-2.08-.11l.34-1.16c.18.12.35.18.58.23.29.06.52.06.69 0 .23-.05.35-.17.29-.34-.06-.23-.29-.35-.57-.35h-.52c-.29 0-.58-.06-.81-.17-.29-.18-.46-.41-.58-.75-.11-.47-.06-.87.12-1.22.23-.28.52-.51.86-.63.75-.23 1.39 0 1.91.69l-.93.75c-.23-.34-.4-.46-.63-.4-.29.06-.35.23-.29.52.06.11.17.17.35.11l.8.06c.87.06 1.33.41 1.56 1.1zm-8.02.06c-.06-.18-.12-.35-.23-.47-.12-.11-.23-.11-.4-.11-.24 0-.41.17-.52.46 0 .06-.06.17-.06.23l1.21-.11zm1.39 1.9c-.58.87-1.1 1.33-1.68 1.39-.52.05-1.04-.12-1.38-.52-.35-.35-.52-.87-.64-1.56-.11-.75 0-1.33.29-1.85.29-.46.69-.75 1.27-.81.58-.06.98.12 1.38.52.35.41.52.98.64 1.79-.17 0-.35 0-.64.06-.57.06-1.15.17-1.84.29.06.29.11.52.23.75.17.29.4.46.63.4.23 0 .35-.17.52-.46.12-.23.18-.46.23-.75l.99.75zm-7.28-2.25l-.8.63c-.18-.23-.35-.34-.52-.34-.29 0-.52.17-.75.52l-.06 1.67v1.62h-1.21l.23-4.68h1.09v.06c.29-.12.52-.23.81-.23.46.11.87.29 1.21.75zm-7.79 1.21c.06-.34 0-.63-.06-.92-.05-.29-.17-.41-.28-.46-.12 0-.23 0-.35.11-.12.06-.17.17-.23.29l-.23 1.33c0 .57.17.86.46.92.12 0 .29-.06.4-.29.12-.29.23-.63.29-.98zm1.1.12c-.06.69-.29 1.21-.69 1.61-.35.35-.75.52-1.22.46-.23 0-.4-.11-.57-.28-.06.23-.12.63-.18 1.21l-1.21-.18.81-4.32c.12-.47.17-.81.17-1.04l1.04.17c.18-.06.41-.12.58-.06.46.06.81.29 1.1.75.17.46.23 1.04.17 1.68zm-6-2.95l-1.73 1.45.28 1.04c.12.46.23.8.35.98l-1.15.34-.35-1.61-1.33 1.09-.81-.8c.41-.29.75-.52 1.1-.87l.75-.64-.52-2.19h1.04l.4 1.5 1.27-1.04.7.75zm-7.91-1.61c.06-.18.06-.35.06-.52a.818.818 0 00-.29-.35c-.17-.11-.4-.06-.69.17l-.18.18 1.1.52zm.23 2.31c-.92.46-1.62.57-2.13.34-.52-.23-.81-.63-.93-1.15-.11-.52 0-1.04.29-1.62.29-.69.69-1.15 1.21-1.44.46-.29.98-.29 1.5-.06.52.23.81.64.87 1.16.06.52-.06 1.09-.35 1.84-.11-.06-.34-.17-.52-.29-.52-.23-1.09-.46-1.73-.75-.11.29-.17.52-.17.75 0 .35.11.58.34.7.18.05.41.05.64-.12.23-.17.4-.35.58-.52l.4 1.16zm-8.31-6.41l.4-.64 2.83 1.79-.4.64-2.83-1.79zm-2.6-1.56c-.4.41-.92.69-1.44.81-.63.11-1.15 0-1.56-.4-.34-.29-.46-.7-.46-1.16 0-.4.23-.81.64-1.21.11-.12.17-.17.28-.23l.75.81c-.05 0-.11.05-.23.17-.11.17-.23.29-.29.4-.05.18 0 .29.12.41.12.11.35.11.64 0 .28-.12.51-.29.75-.52.28-.35.4-.64.23-.81-.18-.17-.41-.23-.7-.17l-.69-.87 2.6-2.13.63.8-.11.12.17.17c.46.46.87.81 1.15 1.04l-.8.75c-.35-.29-.7-.63-1.1-.98-.06-.06-.12-.11-.23-.29l-.58.52c.18.06.29.17.35.23.4.41.58.81.58 1.27-.06.46-.29.87-.7 1.27zm-6-5.77c-.06-.12-.11-.23-.17-.35-.18-.23-.35-.34-.58-.4-.23-.06-.4 0-.58.12-.17.11-.23.28-.23.4 0 .11.06.29.18.46.11.17.28.23.52.35l.86-.58zm-.98 2.19l-.69-.98.06-.06c-.18-.11-.35-.23-.47-.34-.29-.41-.4-.81-.4-1.21 0-.47.17-.81.52-1.1.46-.35.98-.4 1.56-.23.34.11.69.4.98.75.06.11.17.23.23.4.35-.29.35-.63.17-.92-.17-.23-.4-.35-.63-.46l.29-.93c.52.24.92.47 1.15.81.35.41.46.87.35 1.33-.12.4-.35.81-.75 1.15-.18.12-.35.29-.52.41l-.52.4c-.18.12-.46.35-.87.64-.23.17-.34.29-.46.34z" fill="#FFF"/><path d="M98.05 71.67c-1.04 0-1.91.87-1.91 1.91s.87 1.9 1.91 1.9 1.9-.86 1.9-1.9c0-1.1-.86-1.91-1.9-1.91zM11.83 71.67c1.03 0 1.9.87 1.9 1.91s-.87 1.9-1.9 1.9c-1.04 0-1.91-.86-1.91-1.9 0-1.1.87-1.91 1.91-1.91z" fill="#FFF" fill-rule="evenodd"/></svg>