<?xml version="1.0" encoding="utf-8"?><svg width="233" height="67" fill="none" xmlns="http://www.w3.org/2000/svg" viewBox="0 0 233 67"><path fill-rule="evenodd" clip-rule="evenodd" d="M0 0h233v67H0V0z" fill="#008E62"/><path fill-rule="evenodd" clip-rule="evenodd" d="M221.534 9.553c1.432 0 2.595 1.21 2.595 2.702s-1.163 2.701-2.595 2.701c-1.435 0-2.596-1.209-2.596-2.701s1.161-2.702 2.596-2.702zm5.86 13.13V7.839h-7.343c-1.776 0-3.745.06-4.862 1.718-.828 1.24-.889 3.243-.152 4.544.335.601.8 1.085 1.393 1.458.377.235.895.433 1.547.588-1.129.394-1.928 1.117-2.462 2.25l-2.142 4.288h4.981l2.353-4.527c.298-.586.563-.968.797-1.145.317-.227.679-.34 1.081-.34h.387v6.012h4.422zM78.45 16.778l3.906 1.227c-.262 1.139-.675 2.093-1.241 2.855a5.4 5.4 0 01-2.102 1.73c-.836.386-1.899.583-3.192.583-1.57 0-2.847-.237-3.845-.71-.992-.475-1.848-1.31-2.572-2.501-.72-1.193-1.082-2.721-1.082-4.58 0-2.48.634-4.39 1.902-5.723 1.271-1.332 3.067-2 5.39-2 1.816 0 3.244.381 4.285 1.147 1.037.764 1.811 1.94 2.315 3.526l-3.926.904c-.137-.454-.281-.786-.432-.995a2.633 2.633 0 00-.916-.815 2.537 2.537 0 00-1.212-.286c-1.015 0-1.79.423-2.326 1.265-.405.625-.61 1.61-.61 2.949 0 1.663.242 2.799.727 3.416.487.615 1.168.923 2.048.923.852 0 1.496-.248 1.932-.747.437-.496.752-1.22.95-2.167zM116.692 26.2h-3.563v-3.25h-11.688V8.027h4.421v11.254h4.866V8.028h4.424V19.51h1.54v6.69zM132.177 7.933v14.862h-4.148v-8.16l-5.304 8.16h-4.184V7.933h4.166v8.224l5.346-8.224h4.124zM142.93 17.049l-1.562-5.35-1.566 5.35h3.128zm.936 3.223h-5.005l-.721 2.452h-4.507l5.38-14.886h4.837l5.357 14.886h-4.625l-.716-2.452zM164.055 22.838h-4.446V11.526h-3.482v4.613c0 1.895-.096 3.288-.288 4.178-.195.89-.647 1.545-1.359 1.96-.71.415-1.856.625-3.443.625a9.997 9.997 0 01-1.67-.164v-3.041h.665c.602 0 1.028-.14 1.276-.416.249-.276.372-.782.372-1.52V7.839h12.375v15zM182.449 7.648h4.453v5.244h4.876V7.648h4.473v15.019h-4.473v-6.082h-4.876v6.082h-4.453V7.648zM206.942 16.985l-1.551-5.313-1.556 5.313h3.107zm.93 3.2h-4.973l-.713 2.436h-4.477l5.343-14.783h4.802l5.323 14.783h-4.596l-.709-2.435zM91.451 11.944c1.783 0 3.23 1.506 3.23 3.364 0 1.856-1.447 3.361-3.23 3.361-1.784 0-3.231-1.505-3.231-3.361 0-1.858 1.447-3.364 3.231-3.364zm0-4.284c-4.502 0-7.365 2.96-7.365 7.648 0 4.686 3.076 7.663 7.577 7.663 4.501 0 7.178-3.191 7.178-7.877S95.953 7.66 91.45 7.66zM173.324 15.334c1.471 0 2.664 1.24 2.664 2.772 0 1.53-1.193 2.774-2.664 2.774s-2.663-1.242-2.663-2.774 1.192-2.772 2.663-2.772zm-1.958 7.452c3.247 0 9.065.54 8.945-4.593-.12-5.133-5.377-4.727-8.945-4.768V7.554h-4.516v15.232h4.516z" fill="#FCCE00"/><path fill-rule="evenodd" clip-rule="evenodd" d="M218.971 48.58l-2.798-9.536-2.808 9.537h5.606zm1.676 5.745h-8.97l-1.288 4.373h-8.082l9.644-26.535h8.666l9.603 26.535h-8.291l-1.282-4.373zm-18.948 4.373h-8.916l-3.114-6.832c-.721-1.624-1.282-2.636-1.687-3.044-.401-.408-.962-.612-1.671-.612v10.488h-7.908V32.163h7.908v10.192c.687-.038 1.223-.29 1.605-.76.388-.47.984-1.822 1.801-4.052.596-1.648 1.193-2.835 1.801-3.551.603-.717 1.588-1.23 2.947-1.544 1.365-.316 3.5-.47 6.412-.47v5.595h-.401c-1.354 0-2.356.266-3.005.797-.65.532-1.188 1.39-1.604 2.583-.424 1.192-.872 2.075-1.355 2.661-.483.587-1.145 1.057-1.98 1.403 1.139.388 2.136 1.056 2.984 2.001.852.951 1.752 2.427 2.705 4.429l3.478 7.251zM152.56 32.163h21.185v5.67h-13.241v4.226h12.275v5.41h-12.275v5.225h13.635v6.004H152.56V32.163zm-27.632 0h24.083v6.56h-8.088v19.975h-7.908V38.723h-8.087v-6.56zm-3.472 26.535h-7.908V38.686h-8.696v20.012h-7.909V32.163h24.513v26.535zM83.16 48.581l-2.797-9.538-2.809 9.538h5.606zm1.676 5.744h-8.97l-1.289 4.373h-8.08l9.643-26.535h8.666l9.603 26.535h-8.29l-1.283-4.373z" fill="#CE0C36"/><path fill-rule="evenodd" clip-rule="evenodd" d="M1.563 1.878h60.742v63.244H1.563V1.878z" fill="#FEFEFE"/><path fill-rule="evenodd" clip-rule="evenodd" d="M57.104 46.487c-2.434 4.38-5.679 7.156-9.156 9.25-4.21 2.528-8.418-.682-14.029-.682-4.396 0-8.71 2.127-13.467.583C12.924 53.193 7.21 43.874 7.21 35.448c0-8.455 1.767-15.191 9.01-19.548 6.35-3.822 15.013.793 15.013.793s-6.191-6.764-14.659-3.716c-9.601 3.454-13.3 12.895-13.3 22.664 0 9.693 6.854 21.82 16.396 25.109 6.956 1.899 6.864-.712 14.158-.712s9.068 3.192 14.031.956c6.514-3.235 10.19-7.79 12.735-14.575-.599.038-2.555.068-3.489.068zM35.74 13.937c.073-.292.457-1.617-.065-3.096-.476-1.678-2.15-3.553-3.853-3.691.019.054.672.035 1.824.986 1.049.91 2.595 2.776 2.094 5.8zm-.53 2.359c.277-.732.364-1.617.319-1.87 0-.005-.857-.484-1.61-1.268-.8-.812-1.498-1.929-2.304-3.905C30.91 7.67 29.83 6.934 29.059 6.6c-.798-.33-1.29-.26-1.528-.2.543-.217 2.87-.976 5.682.057 1.343.508 2.69 1.471 3.405 2.9.707 1.406.776 3.286-.611 5.088.01.019-.42 1-.674 2.121a1.501 1.501 0 00-.162-.153c.014-.035.025-.076.04-.117z" fill="#008E62"/><path fill-rule="evenodd" clip-rule="evenodd" d="M44.017 9.352c-3.218 1.223-5.429 4.064-5.306 4.052 4.77-4.697 8.917-4.63 11.133-4.421 2.338.379 2.745.895 2.885.995-1.463-1.828-5.592-2.035-8.712-.626zm6.155 5.99c-6.891 6.43-11.876-.736-12.011-.92-.424.15-1.762 1.17-2.554 2.375l-.502-.133c1.313-1.357 2.667-3.595 2.69-3.582 2.158-5.877 5.546-7.425 8.332-7.811 2.86-.298 5.118.572 6.746 1.555 3.037 1.954 4.398 4.662 4.832 5.953-.33-.55-1.82-2.152-7.533 2.562zM36.676 29.28h7.26v-7.603h6.244v7.604h7.302v6.498H50.18v7.557h-6.243v-7.557h-7.261V29.28z" fill="#008E62"/><path fill-rule="evenodd" clip-rule="evenodd" d="M36.762 37.575c0-3.869-.72-4.556-2.548-4.556-.78 0-1.32.092-1.891.279v7.524c.032.655.72 1.124 1.952 1.124 1.707 0 2.487-.996 2.487-4.37zm-9.052 3.217v-7.495c-.541-.186-1.108-.278-1.887-.278-1.83 0-2.55.688-2.55 4.556 0 3.375.81 4.371 2.49 4.371 1.257 0 1.947-.505 1.947-1.154zm0-17.696h4.613v6.12c.571-.162 1.17-.19 1.89-.19 5.066-.001 6.953 1.902 6.953 8.43 0 6.454-2.275 8.42-5.906 8.42-1.348 0-2.247-.345-2.937-.714v6.271H27.71v-6.272c-.662.37-1.56.714-2.937.714-3.628 0-5.906-1.964-5.906-8.42 0-6.527 1.888-8.43 6.956-8.43.718 0 1.316.03 1.887.191v-6.12z" fill="#CE0C36"/></svg>