<?xml version="1.0" encoding="utf-8"?><svg width="24" height="24" fill="none" xmlns="http://www.w3.org/2000/svg" viewBox="0 0 24 24"><g clip-path="url(#kclip0_28_313)"><path d="M6.625 10.795a15.06 15.06 0 006.59 6.585l2.2-2.205c.275-.275.67-.355 1.015-.245 1.12.37 2.325.57 3.57.57.555 0 1 .445 1 1V20c0 .555-.445 1-1 1-9.39 0-17-7.61-17-17a1 1 0 011-1h3.5c.555 0 1 .445 1 1 0 1.245.2 2.45.57 3.57.11.345.03.74-.245 1.015l-2.2 2.21z" fill="#ED0000"/></g><defs><clipPath id="kclip0_28_313"><path fill="#fff" d="M0 0h24v24H0z"/></clipPath></defs></svg>