<?xml version="1.0" encoding="utf-8"?><svg width="26" height="26" xmlns="http://www.w3.org/2000/svg" viewBox="0 0 26 26"><path fill-rule="evenodd" clip-rule="evenodd" d="M18.582 15.356c.677 0 1.316.294 1.846.843l2.998 2.995c.551.544.84 1.19.84 1.865 0 .668-.283 1.32-.824 1.88a21.2 21.2 0 01-.71.702l-.07.068c-.319.306-.621.597-.885.916l-.011.014c-.004.004-.009.008-.011.013-.83.897-1.89 1.348-3.151 1.348-.109 0-.229-.005-.344-.01-1.873-.12-3.55-.821-4.805-1.414-3.287-1.582-6.165-3.827-8.557-6.67-1.97-2.36-3.292-4.561-4.177-6.937-.36-.967-.83-2.446-.699-4.033a3.97 3.97 0 011.185-2.528l1.857-1.865.01-.01c.547-.522 1.191-.8 1.857-.8.667 0 1.3.278 1.83.8.355.326.698.674 1.026 1.01.164.175.338.349.508.517l1.49 1.484c1.147 1.142 1.147 2.62 0 3.762l-.228.231-.23.231-.118.119c-.367.37-.745.752-1.149 1.12.333.734.792 1.457 1.475 2.316 1.408 1.723 2.877 3.055 4.493 4.077.153.095.33.184.52.278l.02.01.119.061c.1.05.201.103.302.157l1.726-1.713c.552-.549 1.196-.837 1.867-.837zm3.265 7.103c.186-.18.363-.351.536-.537.556-.576.556-1.147-.006-1.7l-3.008-2.996-.012-.011c-.169-.185-.447-.397-.786-.397-.344 0-.638.223-.825.408l-1.867 1.859c-.092.092-.377.375-.83.375-.18 0-.355-.044-.54-.136l-.032-.018c-.01-.007-.022-.015-.034-.02-.158-.098-.344-.19-.54-.288a7.528 7.528 0 01-.672-.364c-1.753-1.104-3.342-2.544-4.849-4.393l-.005-.005c-.83-1.05-1.377-1.93-1.764-2.865l-.016-.049c-.099-.31-.186-.766.283-1.234.004-.007.01-.012.016-.017l.012-.01c.475-.424.912-.859 1.37-1.327.11-.104.215-.21.322-.318l.148-.149c.579-.576.579-1.109 0-1.685l-1.49-1.484-.25-.253-.27-.274a27.03 27.03 0 00-.982-.973l-.017-.017c-.175-.174-.453-.38-.797-.38-.278 0-.562.135-.83.385L2.25 5.44a2.491 2.491 0 00-.753 1.615c-.082.995.104 2.05.611 3.403.825 2.218 2.07 4.284 3.932 6.518 2.255 2.68 4.969 4.794 8.06 6.284 1.13.538 2.637 1.169 4.258 1.272.082.005.17.005.251.005.852 0 1.502-.277 2.054-.864.338-.397.699-.75 1.053-1.087l.13-.127z"/><path d="M14.474 6.663a6.927 6.927 0 013.769 1.956 6.964 6.964 0 011.955 3.77c.06.36.372.611.727.611.044 0 .082-.005.125-.01a.738.738 0 00.607-.853 8.426 8.426 0 00-2.365-4.561A8.425 8.425 0 0014.73 5.21a.741.741 0 00-.852.601.73.73 0 00.596.852zM25.989 11.29a13.709 13.709 0 00-3.85-7.427A13.7 13.7 0 0014.714.01a.726.726 0 00-.838.594c-.064.4.2.773.6.843a12.268 12.268 0 016.637 3.441 12.24 12.24 0 013.44 6.64c.059.356.367.604.718.604.043 0 .08-.005.124-.01a.716.716 0 00.594-.832z"/></svg>