<?xml version="1.0" encoding="utf-8"?><svg width="9" height="12" fill="none" xmlns="http://www.w3.org/2000/svg" viewBox="0 0 9 12"><path d="M4.5 3.3c-.67 0-1.215.558-1.215 1.244 0 .685.545 1.243 1.215 1.243s1.216-.558 1.216-1.243C5.716 3.858 5.17 3.3 4.5 3.3z" fill="#008E62"/><path d="M4.5 0C2.019 0 0 2.066 0 4.605a4.65 4.65 0 00.969 2.852L4.5 12l3.531-4.543A4.65 4.65 0 009 4.605C9 2.065 6.981 0 4.5 0zm0 6.617c-1.117 0-2.026-.93-2.026-2.073 0-1.143.91-2.073 2.026-2.073 1.117 0 2.026.93 2.026 2.073 0 1.143-.91 2.073-2.026 2.073z" fill="#008E62"/></svg>