<?xml version="1.0" encoding="utf-8"?><svg width="35" height="35" fill="none" xmlns="http://www.w3.org/2000/svg" viewBox="0 0 35 35"><path d="M16.578 0c-2.963.04-9.33.502-12.886 3.598C1.05 6.106.118 9.77.022 14.317c-.098 4.544-.224 13.065 8.437 15.375h.005l-.007 3.524s-.057 1.425.938 1.716c1.195.353 1.898-.729 3.045-1.899a93.658 93.658 0 002.148-2.304c5.92.476 10.476-.607 10.995-.765 1.194-.368 7.96-1.19 9.06-9.709 1.139-8.78-.553-14.336-3.598-16.838C30.13 2.615 26.423.063 18.167.029c0 0-.608-.036-1.595-.025L16.578 0zm.09 2.469c.838-.006 1.353.025 1.353.025 6.984.029 10.329 2.024 11.105 2.692 2.576 2.093 3.89 7.1 2.931 14.433v.003c-.929 7.114-6.418 7.56-7.43 7.868-.43.131-4.432 1.075-9.462.764 0 0-3.746 4.288-4.916 5.402-.185.175-.4.244-.541.21-.2-.048-.256-.274-.254-.604l.03-5.86c-7.322-1.924-6.896-9.175-6.812-12.972.083-3.797.835-6.91 3.07-9.002 3.014-2.586 8.417-2.943 10.933-2.96l-.008.001zm.584 3.795a.479.479 0 00-.314.136.431.431 0 00-.13.304.43.43 0 00.125.305.478.478 0 00.313.14c2.497.014 4.53.783 6.194 2.322 1.65 1.525 2.49 3.599 2.51 6.32.004.244.216.438.473.438a.481.481 0 00.327-.132.432.432 0 00.134-.312c-.021-2.893-.95-5.244-2.792-6.947-1.83-1.692-4.14-2.557-6.839-2.574h-.001zm-6.09 1.013a1.579 1.579 0 00-.947.17l-.015.004A7.04 7.04 0 008.437 8.81c-.003.006-.009.006-.012.012-.41.47-.646.93-.707 1.382a.825.825 0 00-.011.204c0 .199.034.394.1.584l.02.014c.208.7.727 1.861 1.853 3.798a22.566 22.566 0 002.223 3.188c.416.502.862.981 1.338 1.435l.203.192c.477.45.984.875 1.513 1.27a24.012 24.012 0 003.362 2.11c2.042 1.068 3.27 1.56 4.004 1.758l.016.02c.267.083.55.11.83.08.477-.052.964-.276 1.458-.67.006 0 .004-.003.012-.007a6.87 6.87 0 001.43-1.675l.005-.014c.346-.63.23-1.228-.277-1.633-.006 0-1.073-.846-1.595-1.21a20.7 20.7 0 00-1.711-1.036c-.784-.416-1.587-.155-1.92.253l-.687.823c-.353.413-1.01.359-1.01.359-4.798-1.161-6.082-5.768-6.082-5.768s-.057-.621.382-.957l.865-.653c.426-.314.702-1.075.262-1.82a18.463 18.463 0 00-1.092-1.626 41.735 41.735 0 00-1.276-1.51 1.279 1.279 0 00-.772-.433l.001-.003zm6.905 1.284a.48.48 0 00-.334.12.43.43 0 00-.02.625.478.478 0 00.326.138c1.784.124 3.102.68 4.067 1.677.97 1.004 1.43 2.223 1.394 3.748a.437.437 0 00.143.296.486.486 0 00.639.013.44.44 0 00.156-.29c.038-1.713-.514-3.198-1.641-4.366-1.138-1.181-2.733-1.827-4.69-1.963h-.037l-.003.002zm.712 2.377a.483.483 0 00-.318.123.435.435 0 00-.144.295.456.456 0 00.443.467c.804.04 1.346.255 1.712.615.369.358.596.905.64 1.698.015.11.074.21.164.281a.485.485 0 00.631-.03.433.433 0 00.135-.295c-.046-.939-.33-1.718-.892-2.27-.564-.552-1.373-.838-2.337-.886h-.028l-.006.002z" fill="#fff"/></svg>