<?xml version="1.0" encoding="utf-8"?><svg width="35" height="35" fill="none" xmlns="http://www.w3.org/2000/svg" viewBox="0 0 35 35"><path d="M9.252 30.081l.572.284c2.385 1.419 5.055 2.081 7.725 2.081 8.393 0 15.26-6.81 15.26-15.135 0-3.973-1.622-7.851-4.483-10.69a15.212 15.212 0 00-10.777-4.445c-8.392 0-15.259 6.81-15.163 15.23 0 2.837.858 5.58 2.289 7.945l.381.568L3.53 31.5l5.722-1.419z" fill="#00E676"/><path d="M29.945 5.108C26.703 1.798 22.221 0 17.643 0 7.916 0 .095 7.851.191 17.405c0 3.027.858 5.96 2.289 8.608L0 35l9.25-2.365c2.576 1.42 5.437 2.081 8.298 2.081C27.18 34.716 35 26.865 35 17.311c0-4.635-1.812-8.987-5.054-12.203zM17.643 31.784c-2.575 0-5.15-.662-7.343-1.986l-.572-.284-5.532 1.419 1.43-5.392-.38-.568C1.048 18.257 3.051 9.365 9.917 5.203 16.785 1.04 25.654 3.027 29.85 9.838c4.196 6.81 2.194 15.608-4.673 19.77-2.193 1.42-4.864 2.176-7.534 2.176zm8.392-10.5l-1.049-.473s-1.525-.662-2.48-1.135c-.095 0-.19-.095-.285-.095-.287 0-.477.095-.668.19 0 0-.095.094-1.43 1.607a.525.525 0 01-.477.284h-.096c-.095 0-.286-.094-.381-.189l-.477-.189c-1.049-.473-2.003-1.04-2.766-1.797-.19-.19-.476-.379-.667-.568-.668-.662-1.335-1.419-1.812-2.27l-.095-.19c-.096-.094-.096-.189-.191-.378 0-.189 0-.378.095-.473 0 0 .382-.473.668-.756.19-.19.286-.473.476-.663.191-.283.287-.662.191-.946-.095-.473-1.24-3.027-1.525-3.594-.191-.284-.382-.379-.668-.473h-1.05c-.19 0-.38.094-.571.094l-.096.095c-.19.095-.381.284-.572.378-.19.19-.286.379-.477.568-.667.851-1.049 1.892-1.049 2.932 0 .757.19 1.514.477 2.176l.095.284a15.764 15.764 0 003.529 4.824l.382.378c.285.284.572.473.762.757 2.003 1.703 4.292 2.933 6.867 3.595.286.095.667.095.953.19h.954c.477 0 1.05-.19 1.43-.38.287-.188.477-.188.668-.378l.191-.189c.19-.19.382-.284.572-.473.19-.189.382-.378.477-.567.19-.379.286-.852.381-1.325v-.662s-.095-.095-.286-.189z" fill="#fff"/></svg>