<?xml version="1.0" encoding="utf-8"?><svg width="35" height="54" fill="none" xmlns="http://www.w3.org/2000/svg" viewBox="0 0 35 54"><path d="M34.888 47.156l-6.81-18.78 5.187-2.606c.812-.285 1.082-1.14.812-1.71l-2.164-6.274 2.164-6.273c.27-.57-.27-1.426-.812-1.711l-5.68-2.852L24.882.962C24.611.107 23.8-.178 23.26.107l-5.95 2.281-5.95-2.281c-.541-.285-1.352.285-1.623.855L7.032 6.95l-5.68 2.852c-.811.285-1.082 1.14-.811 1.71l2.163 6.274L.541 24.06c-.27.57.27 1.426.811 1.711l5.112 2.567L0 46.87c0 .57 0 1.14.27 1.426.27.57.812.57 1.353.57l6.49-1.14 4.057 5.418c.27.285.541.57 1.082.57h.27c.541 0 .812-.285 1.082-.856l2.74-7.852 2.94 8.138c.27.57.54.855 1.081.855h.27c.541 0 .812-.285 1.082-.57l4.057-5.418 6.49 1.14c.542 0 1.083-.285 1.353-.57.271-.285.541-.855.271-1.426zM3.786 11.798l5.139-2.566c.27 0 .54-.285.54-.57L11.9 3.243l5.138 1.996h.811l5.139-1.996 2.434 5.417c0 .286.27.57.54.57l5.14 2.567-1.894 5.418v.855l1.893 5.418-5.138 2.566c-.27 0-.541.285-.541.57l-2.434 5.418-5.139-1.996h-.81l-5.14 1.996-2.433-5.418c0-.285-.27-.57-.541-.57L3.786 23.49 5.68 18.07v-.855l-1.893-5.418zm9.196 37.925l-3.246-4.277c-.27-.57-.811-.57-1.352-.57l-5.139.855 5.009-14.403 1.482 3.282c.27.855 1.082 1.14 1.623.855l5.95-2.28 1.257.481-5.584 16.057zm13.252-5.133c-.541 0-1.082.285-1.353.57l-3.245 4.278-2.902-8.418 2.242-6.43 2.283.875h.54c.271 0 .812-.285 1.082-.855l1.54-3.405 4.95 14.24-5.137-.855z" fill="#038057"/><path d="M34.888 47.156l-6.81-18.78 5.187-2.606c.812-.285 1.082-1.14.812-1.71l-2.164-6.274 2.164-6.273c.27-.57-.27-1.426-.812-1.711l-5.68-2.852L24.882.962C24.611.107 23.8-.178 23.26.107l-5.95 2.281-5.95-2.281c-.541-.285-1.352.285-1.623.855L7.032 6.95l-5.68 2.852c-.811.285-1.082 1.14-.811 1.71l2.163 6.274L.541 24.06c-.27.57.27 1.426.811 1.711l5.112 2.567L0 46.87c0 .57 0 1.14.27 1.426.27.57.812.57 1.353.57l6.49-1.14 4.057 5.418c.27.285.541.57 1.082.57h.27c.541 0 .812-.285 1.082-.856l2.74-7.852 2.94 8.138c.27.57.54.855 1.081.855h.27c.541 0 .812-.285 1.082-.57l4.057-5.418 6.49 1.14c.542 0 1.083-.285 1.353-.57.271-.285.541-.855.271-1.426zM3.786 11.798l5.139-2.566c.27 0 .54-.285.54-.57L11.9 3.243l5.138 1.996h.811l5.139-1.996 2.434 5.417c0 .286.27.57.54.57l5.14 2.567-1.894 5.418v.855l1.893 5.418-5.138 2.566c-.27 0-.541.285-.541.57l-2.434 5.418-5.139-1.996h-.81l-5.14 1.996-2.433-5.418c0-.285-.27-.57-.541-.57L3.786 23.49 5.68 18.07v-.855l-1.893-5.418zm9.196 37.925l-3.246-4.277c-.27-.57-.811-.57-1.352-.57l-5.139.855 5.009-14.403 1.482 3.282c.27.855 1.082 1.14 1.623.855l5.95-2.28 1.257.481-5.584 16.057zm13.252-5.133c-.541 0-1.082.285-1.353.57l-3.245 4.278-2.902-8.418 2.242-6.43 2.283.875h.54c.271 0 .812-.285 1.082-.855l1.54-3.405 4.95 14.24-5.137-.855z" stroke="#E8ECF4"/><path d="M23.818 17.873c0 3.612-2.859 6.486-6.32 6.486-3.46 0-6.318-2.874-6.318-6.486 0-3.612 2.859-6.486 6.319-6.486s6.319 2.874 6.319 6.486z" stroke="#FFCB00" stroke-width="3"/></svg>