<?xml version="1.0" encoding="utf-8"?><svg width="21" height="20" xmlns="http://www.w3.org/2000/svg" viewBox="0 0 21 20"><path fill-rule="evenodd" clip-rule="evenodd" d="M19.551 17.147l-4.33-4.345c-.022-.023-.05-.04-.073-.06a8.202 8.202 0 001.349-4.52C16.497 3.683 12.828 0 8.303 0S.11 3.681.11 8.223c0 4.54 3.669 8.222 8.194 8.222 1.664 0 3.21-.499 4.503-1.354.021.024.037.052.06.075l4.33 4.345c.65.652 1.705.652 2.355 0 .65-.653.65-1.711 0-2.364zM8.303 13.595c-2.956 0-5.353-2.405-5.353-5.372S5.347 2.85 8.303 2.85c2.957 0 5.353 2.406 5.353 5.373s-2.396 5.372-5.353 5.372z"/></svg>