<?xml version="1.0" encoding="utf-8"?><svg width="26" height="26" fill="none" xmlns="http://www.w3.org/2000/svg" viewBox="0 0 26 26"><path d="M25.68 8.051v-.003a.267.267 0 01-.005-.03.28.28 0 01-.003-.014v-.002a.185.185 0 01-.006-.019h0a.153.153 0 00-.001-.008c-.006-.012-.008-.023-.01-.026l.026.102zm0 0v.02l.006.01V14.17c0 1.564-1.363 2.85-3.047 2.85H7.349c-.57 0-1.107-.145-1.56-.394l-.148-.081v2.125c0 .889.77 1.607 1.708 1.607h14.543c1.661 0 3.008 1.27 3.008 2.812 0 1.542-1.347 2.812-3.008 2.812-1.662 0-3.009-1.265-3.009-2.812 0-.515.149-.999.413-1.416l.097-.154h-7.288l.099.154c.263.412.412.9.412 1.416 0 1.542-1.347 2.812-3.008 2.812-1.662 0-3.009-1.265-3.009-2.812 0-.525.16-1.02.43-1.443l.085-.134-.158-.019c-1.5-.181-2.655-1.384-2.655-2.823V2.794l-.063-.025-3.73-1.474h0C.164 1.159.012.795.152.483.294.167.686.013 1.034.15c0 0 0 0 0 0l4.2 1.656c.012.005.026.01.037.016h.001a1.29 1.29 0 01.032.015l.004.003.014.007s0 0 0 0h.001l.003.002.008.005a1.044 1.044 0 01.035.024h0a.123.123 0 01.007.005L25.681 8.05zm-.035-.134a.171.171 0 00.01.031L5.543 2.052h0l.003.003.007.014.011.01.004.008.003.005a.142.142 0 00.022.037l.001.002a.137.137 0 00.002.008v.003l.006.017.009.024.005.013c0 .006.002.011.003.015v.006l.006.016.002.01h0l.005.018c0 .01.002.017.003.022v.001l.001.008v.024l.007.012.002.01a.248.248 0 01.003.049v2.621l.087.01L25.11 7.526h.001s0 0 0 0h.002a.114.114 0 00.034.006H25.16l.003.001.014.005h.005a.185.185 0 00.033.005h.002l.001.001c.017.008.033.011.037.012h.001l.014.007.017.008.017.008.017.008.023.01a.227.227 0 00.044.027h.002l.003.003.023.012.004.003a.262.262 0 00.023.015l.01.009a.147.147 0 00.01.007l.02.02a.132.132 0 00.01.007l.002.002a.135.135 0 00.02.023.131.131 0 00.022.025l.003.006.012.011.005.005a.169.169 0 00.01.016l.01.011.002.004.014.021.002.003.008.016.009.016.008.014.005.005v.002a.33.33 0 00.018.038h0zM5.524 2.025a.13.13 0 01.003.003l-.135-.132.01.007h0l.003.002.008.006a.15.15 0 01.025.02s0 0 0 0l.017.016.017.016.017.016h0l.008.008.002.002.009.012.003.003c.005.01.01.017.013.02v.001zm20.161 6.048h0zM5.314 1.842a.01.01 0 010 0zm.092.062h0zm.235.408v0s0 0 0 0zm19.846 5.375s0 0 0 0h0zm.146.197s0 0 0 0h0zm.048.17h0zM5.754 6.273l-.113-.015v7.91c0 .89.77 1.607 1.708 1.607h15.29c.933 0 1.708-.712 1.708-1.612v-5.49l-.088-.011L5.755 6.274zm3.86 18.378c.91 0 1.667-.696 1.667-1.57 0-.873-.758-1.569-1.668-1.569-.91 0-1.668.701-1.668 1.57 0 .868.758 1.569 1.668 1.569zm12.283 0c.91 0 1.669-.696 1.669-1.57 0-.873-.759-1.569-1.669-1.569s-1.668.701-1.668 1.57c0 .868.758 1.569 1.668 1.569z" fill="#fff" stroke="#008E62" stroke-width=".2"/></svg>