<?xml version="1.0" encoding="utf-8"?><svg width="22" height="22" xmlns="http://www.w3.org/2000/svg" viewBox="0 0 22 22"><path d="M11 15.125a4.125 4.125 0 110-8.25 4.125 4.125 0 010 8.25zm0 1.375a5.5 5.5 0 100-11 5.5 5.5 0 000 11zM11 0a.687.687 0 01.688.688v2.75a.687.687 0 11-1.376 0V.688A.687.687 0 0111 0zm0 17.875a.687.687 0 01.688.688v2.75a.687.687 0 11-1.376 0v-2.75a.687.687 0 01.688-.688zM22 11a.687.687 0 01-.688.688h-2.75a.687.687 0 110-1.376h2.75A.687.687 0 0122 11zM4.125 11a.687.687 0 01-.688.688H.688a.687.687 0 110-1.376h2.75a.687.687 0 01.688.688zm14.653-7.778a.687.687 0 010 .972l-1.944 1.945a.688.688 0 01-.972-.973l1.944-1.944a.688.688 0 01.972 0zm-12.64 12.64a.688.688 0 010 .972l-1.944 1.944a.687.687 0 01-.972-.972l1.944-1.944a.687.687 0 01.972 0zm12.64 2.916a.688.688 0 01-.972 0l-1.944-1.944a.688.688 0 01.972-.972l1.944 1.944a.688.688 0 010 .972zM6.138 6.14a.688.688 0 01-.972 0L3.222 4.194a.687.687 0 11.972-.972l1.944 1.944a.688.688 0 010 .973z"/></svg>