<?xml version="1.0" encoding="utf-8"?><svg width="19" height="18" xmlns="http://www.w3.org/2000/svg" viewBox="0 0 19 18"><g clip-path="url(#jclip0_1960_2141)"><path d="M9.561.262a8.393 8.393 0 110 16.786 8.393 8.393 0 010-16.786zm2.895 11.814c.155-.473.878-5.194.967-6.124.027-.282-.062-.469-.236-.553-.211-.101-.523-.05-.886.08-.497.18-6.85 2.878-7.218 3.034-.348.147-.677.309-.677.542 0 .165.097.257.366.353.28.1.983.313 1.399.428.4.11.856.014 1.111-.145.271-.168 3.396-2.259 3.62-2.442.224-.183.403.051.22.235-.184.183-2.328 2.265-2.611 2.553-.344.35-.1.713.13.858.264.166 2.156 1.435 2.44 1.639.286.203.575.295.84.295.264 0 .403-.348.535-.753z"/></g><defs><clipPath id="jclip0_1960_2141"><path fill="#fff" transform="translate(.904)" d="M0 0h17.311v17.311H0z"/></clipPath></defs></svg>