<?xml version="1.0" encoding="utf-8"?><svg width="18" height="16" fill="none" xmlns="http://www.w3.org/2000/svg" viewBox="0 0 18 16"><path d="M15.635 4.274c.01.168.01.337.01.506 0 5.15-3.593 11.085-10.16 11.085A9.492 9.492 0 010 14.116c.287.037.564.049.862.049 1.67 0 3.207-.615 4.434-1.665-1.57-.036-2.886-1.158-3.339-2.702.221.036.442.06.675.06.32 0 .64-.048.94-.132C1.934 9.364.707 7.796.707 5.902v-.048c.475.29 1.028.47 1.614.494C1.36 5.648.73 4.455.73 3.104c0-.724.177-1.388.486-1.967 1.758 2.365 4.4 3.909 7.364 4.077a4.783 4.783 0 01-.088-.892c0-2.147 1.592-3.896 3.571-3.896 1.028 0 1.957.47 2.61 1.23a6.685 6.685 0 002.266-.94 3.844 3.844 0 01-1.57 2.146 6.696 6.696 0 002.057-.603 8.094 8.094 0 01-1.791 2.015z" fill="#E8E8E8"/></svg>