<?xml version="1.0" encoding="utf-8"?><svg width="86" height="65" fill="none" xmlns="http://www.w3.org/2000/svg" viewBox="0 0 86 65"><path d="M85.92 31.89l-2.18-8.64c-1.96-7.8-9-13.25-17.11-13.25h-8.35c-3.28 0-6.08 2.09-7.13 5h-3.28V2.5c0-1.39-1.13-2.5-2.52-2.5H15.11c-1.39 0-2.52 1.11-2.52 2.5V15H7.55c-1.39 0-2.52 1.11-2.52 2.5V30H2.51C1.12 30 0 31.11 0 32.5v15C0 51.63 3.39 55 7.55 55h2.52c0 5.51 4.52 10 10.08 10 5.56 0 10.08-4.49 10.08-10h25.53c0 5.51 4.52 10 10.08 10 5.56 0 10.08-4.49 10.08-10h2.52C82.6 55 86 51.63 86 47.5v-15c0-.21-.03-.41-.08-.61zM32.75 5h10.08v10H32.75V5zm2.52 15v10H25.19V20h10.08zM17.63 5h10.08v10H17.63V5zm-7.56 15h10.08v10H10.07V20zm10.08 40c-2.78 0-5.04-2.25-5.04-5 0-2.76 2.26-5 5.04-5 2.78 0 5.04 2.24 5.04 5 0 2.75-2.26 5-5.04 5zm30.57-10H28.87c-1.74-2.99-5-5-8.72-5-3.72 0-6.98 2.01-8.72 5H7.55c-1.39 0-2.52-1.13-2.52-2.5V35h45.69v15zm0-20H40.31V20h10.41v10zm15.12 30c-2.78 0-5.04-2.25-5.04-5 0-2.76 2.26-5 5.04-5 2.78 0 5.04 2.24 5.04 5 0 2.75-2.26 5-5.04 5zm15.12-12.5c0 1.37-1.13 2.5-2.52 2.5h-3.88c-1.74-2.99-5-5-8.72-5-3.72 0-6.98 2.01-8.72 5h-1.36V17.5c0-1.38 1.13-2.5 2.52-2.5h2.52v17.5c0 4.13 3.39 7.5 7.56 7.5h12.6v7.5zm0-12.5h-3.49l.7-1.39c.62-1.23.12-2.73-1.13-3.35a2.526 2.526 0 00-3.38 1.12L71.84 35h-3.48c-1.39 0-2.52-1.13-2.52-2.5V15h.79c5.79 0 10.82 3.89 12.22 9.46l2.11 8.34V35z" fill="#5F5F5F"/></svg>