<?xml version="1.0" encoding="utf-8"?><svg width="80" height="80" fill="none" xmlns="http://www.w3.org/2000/svg" viewBox="0 0 80 80"><path d="M80 17.02c0-1.01-.65-1.93-1.64-2.31L41 .18c-.64-.25-1.37-.25-2.01 0L1.63 14.71C.64 15.09 0 16.01 0 17.02v45.95c0 1.01.64 1.93 1.63 2.31l37.36 14.53c.64.24 1.35.25 2.01 0 .03-.01-1.39.54 37.36-14.53.99-.38 1.64-1.3 1.64-2.31V17.02zM40 29.05L26.23 23.7l29.75-12.28 14.68 5.71L40 29.05zM5.28 20.97l11.88 4.61v13.03c0 1.38 1.18 2.5 2.64 2.5 1.47 0 2.65-1.12 2.65-2.5V27.64l14.9 5.79v40.33L5.28 61.29V20.97zM40 5.2l9.16 3.57-29.74 12.28-10.09-3.92L40 5.2zm2.64 28.23l32.07-12.46v40.32L42.64 73.76V33.43z" fill="#5F5F5F"/></svg>