<?xml version="1.0" encoding="utf-8"?><svg width="65.625" height="41.563" fill="none" xmlns="http://www.w3.org/2000/svg" viewBox="0 0 65.625 41.563"><path d="M63.28 18.12h-2.09a7.08 7.08 0 01-3.49-.92L38.86 1.84C37.83 1 35.2 0 32.55 0H7.03C3.02 0 0 2.82 0 6.56c0 3.22 2.16 5.86 5.17 6.64-.31.8-.49 1.67-.49 2.58 0 3.23 2.2 5.97 5.19 6.78-.32.8-.5 1.68-.5 2.59 0 3.88 3.15 7.03 7.03 7.03h15.84l5.94 5.94c2.22 2.22 5.16 3.44 8.29 3.44h16.81c1.29 0 2.34-1.05 2.34-2.35V20.46c0-1.29-1.05-2.34-2.34-2.34zm-51.57-4.69h14.07c.62 0 1.21.25 1.65.69-.71.34-1.36.8-1.94 1.37a7.16 7.16 0 00-1.66 2.63H11.71a2.345 2.345 0 010-4.69zM16.4 27.5c-1.29 0-2.34-1.06-2.34-2.35s1.05-2.34 2.34-2.34h7.43c.35.97.91 1.87 1.66 2.63l2.06 2.06H16.4zm44.53 9.37H46.47c-1.88 0-3.65-.73-4.97-2.06L28.81 22.12a2.33 2.33 0 010-3.31 2.33 2.33 0 013.31 0l8 8c.92.91 2.4.91 3.32 0 .91-.92.91-2.4 0-3.32L30.75 10.8a7 7 0 00-4.96-2.05h-.01H7.03c-1.34 0-2.35-.95-2.35-2.19 0-1.39 1.26-1.88 2.35-1.88h25.52c1.25 0 2.45.32 3.49.91C56.1 21.93 54.88 20.97 55.16 21.14c1.74 1.05 3.74 1.62 5.77 1.67v14.06z" fill="#5F5F5F"/></svg>