<?xml version="1.0" encoding="utf-8"?><svg width="80" height="64" fill="none" xmlns="http://www.w3.org/2000/svg" viewBox="0 0 80 64"><path d="M77.65 9.94h-1.42C75.26 4.3 70.31 0 64.37 0H15.62C9.68 0 4.73 4.3 3.76 9.94H2.34C1.04 9.94 0 10.98 0 12.27v49.39C0 62.95 1.04 64 2.34 64h75.31c1.3 0 2.35-1.05 2.35-2.34V12.27c0-1.29-1.05-2.33-2.35-2.33zm-26.09 9.32V14.6H62.5v4.66H51.56zm-15.63 0V14.6h10.94v4.66H35.93zm-15.62 0V14.6h10.94v4.66H20.31zm-15.63 0V14.6h10.94v4.66H4.68zm62.5-4.66h8.13v4.66h-8.13V14.6zM15.62 4.66h48.75c3.34 0 6.17 2.23 7.06 5.28H8.56a7.359 7.359 0 017.06-5.28zm17.19 45.35H14.06v-4.66h18.75v4.66zm-18.75 4.66h18.75v4.66H14.06v-4.66zm18.75-13.98H14.06v-4.66h18.75v4.66zm33.12 9.32H47.18v-4.66h18.75v4.66zm-18.75 4.66h18.75v4.66H47.18v-4.66zm18.75-13.98H47.18v-4.66h18.75v4.66zm4.69 18.64V33.7a2.34 2.34 0 00-2.34-2.33H44.84c-1.3 0-2.34 1.05-2.34 2.33v25.63h-5V33.7c0-1.28-1.05-2.33-2.35-2.33H11.71a2.34 2.34 0 00-2.34 2.33v25.63H4.68V23.92h70.63v35.41h-4.69z" fill="#5F5F5F"/></svg>