<?xml version="1.0" encoding="utf-8"?><svg width="20" height="20" fill="none" xmlns="http://www.w3.org/2000/svg" viewBox="0 0 20 20"><path d="M18.722 11.22a8.217 8.217 0 01-2.11.275 8.06 8.06 0 01-5.737-2.373 8.15 8.15 0 01-2.098-7.845A1.015 1.015 0 007.532.035a10.177 10.177 0 00-4.561 2.622c-3.961 3.96-3.961 10.405 0 14.367A10.098 10.098 0 0010.157 20a10.093 10.093 0 007.184-2.975 10.164 10.164 0 002.625-4.562 1.017 1.017 0 00-1.244-1.244zm-2.817 4.368a8.076 8.076 0 01-5.747 2.38 8.085 8.085 0 01-5.75-2.38c-3.168-3.169-3.168-8.325 0-11.493a8.05 8.05 0 012.094-1.507 10.182 10.182 0 002.937 7.972 10.135 10.135 0 007.974 2.937 8.165 8.165 0 01-1.508 2.091z" fill="#fff"/></svg>