<?xml version="1.0" encoding="utf-8"?><svg width="18" height="18" xmlns="http://www.w3.org/2000/svg" viewBox="0 0 18 18"><g clip-path="url(#agclip0_1960_2135)"><path fill-rule="evenodd" clip-rule="evenodd" d="M0 8.655C0 3.895 3.895 0 8.655 0s8.656 3.895 8.656 8.655-3.895 8.656-8.656 8.656C3.895 17.31 0 13.416 0 8.655zM2.986 5.54c.087 4.458 2.294 7.098 6.189 7.098h.13v-2.554c1.428.174 2.51 1.212 2.942 2.554h2.034c-.519-1.991-1.99-3.116-2.9-3.549.91-.52 2.208-1.818 2.51-3.549h-1.817c-.39 1.429-1.558 2.684-2.683 2.813V5.54H7.573v4.89c-1.125-.259-2.596-1.644-2.64-4.89H2.987z"/></g><defs><clipPath id="agclip0_1960_2135"><path fill="#fff" d="M0 0h17.311v17.311H0z"/></clipPath></defs></svg>