<?xml version="1.0" encoding="utf-8"?><svg width="19" height="18" fill="none" xmlns="http://www.w3.org/2000/svg" viewBox="0 0 19 18"><path d="M3.283 4.286c0 .193-.07.36-.212.502A.686.686 0 012.569 5a.706.706 0 01-.714-.714c0-.201.066-.369.2-.503a.7.7 0 01.514-.212c.193 0 .36.071.502.212a.663.663 0 01.212.503zM5.069 10V2.857c0-.193-.071-.36-.212-.502a.686.686 0 00-.503-.212H1.14c-.193 0-.36.07-.502.212a.686.686 0 00-.212.502V10c0 .194.07.36.212.502a.686.686 0 00.502.212h3.214c.194 0 .361-.07.503-.212A.686.686 0 005.069 10zm12.6-1.663c.41.454.614 1.008.614 1.663a2.1 2.1 0 01-.647 1.507 2.023 2.023 0 01-1.496.636H13.05a1.88 1.88 0 00.212.513c.052.09.089.157.111.201.134.275.235.488.302.636.067.15.137.369.212.659.074.283.111.565.111.848 0 .179-.004.324-.01.435 0 .112-.02.28-.057.502a2.238 2.238 0 01-.402 1.06 1.42 1.42 0 01-.446.447 2.157 2.157 0 01-.67.29 3.134 3.134 0 01-.915.123.686.686 0 01-.502-.212 1.94 1.94 0 01-.38-.558 3.739 3.739 0 01-.223-.58 16.08 16.08 0 01-.134-.681c-.067-.313-.119-.54-.156-.68a3.17 3.17 0 00-.19-.537 1.709 1.709 0 00-.346-.535c-.245-.246-.62-.692-1.127-1.34-.364-.476-.74-.926-1.127-1.35-.387-.424-.67-.644-.848-.659a.742.742 0 01-.48-.223.692.692 0 01-.201-.49V2.856a.65.65 0 01.212-.49.728.728 0 01.502-.224c.26-.008.848-.171 1.764-.491.573-.194 1.019-.339 1.339-.435.327-.105.781-.213 1.361-.324A8.04 8.04 0 0112.57.714h1.439c.99.015 1.723.305 2.199.87.432.514.614 1.188.547 2.02.29.276.491.626.603 1.05.126.454.126.89 0 1.306.342.454.502.963.48 1.529 0 .238-.056.52-.168.848z" fill="#C4C4C4"/></svg>